<?xml version="1.0" standalone="no"?>
<!DOCTYPE svg PUBLIC "-//W3C//DTD SVG 20010904//EN"
 "http://www.w3.org/TR/2001/REC-SVG-20010904/DTD/svg10.dtd">
<svg version="1.0" xmlns="http://www.w3.org/2000/svg"
 width="1100.000000pt" height="1100.000000pt" viewBox="0 0 1100.000000 1100.000000"
 preserveAspectRatio="xMidYMid meet">

<g transform="translate(0.000000,1100.000000) scale(0.100000,-0.100000)"
fill="#000000" stroke="none">
<path d="M4379 10243 c-13 -17 -13 -17 6 -3 11 8 22 16 24 17 2 2 0 3 -6 3 -6
0 -17 -8 -24 -17z"/>
<path d="M6555 10254 c6 -2 8 -45 5 -114 -5 -100 -3 -111 13 -116 43 -13 2
-13 -134 2 -299 33 -1243 29 -1709 -7 -147 -11 -289 -30 -325 -43 -18 -7 -18
-6 -2 4 14 9 17 27 17 115 0 77 3 105 13 106 6 0 -3 5 -22 10 -18 6 -35 8 -37
6 -3 -2 0 -137 6 -298 5 -162 10 -452 10 -646 0 -382 4 -323 -115 -1608 -166
-1796 -212 -2250 -386 -3799 -108 -973 -157 -1407 -235 -2111 -30 -272 -28
-344 11 -478 86 -298 301 -522 619 -646 128 -50 303 -103 431 -130 149 -32
721 -48 1158 -33 299 11 331 14 447 41 248 58 485 153 615 246 226 161 375
417 400 690 5 48 -1 141 -19 300 -21 190 -61 562 -136 1285 -5 52 -16 160 -25
240 -33 313 -165 1638 -185 1860 -12 129 -46 487 -76 795 -167 1735 -224 2340
-259 2750 -12 139 -15 309 -14 750 1 314 6 623 11 689 8 108 7 120 -9 132 -10
7 -31 13 -48 13 -16 0 -25 -2 -20 -5z m-531 -249 c20 -4 36 -10 36 -14 0 -8
-124 -81 -138 -81 -7 0 -43 -21 -80 -48 -37 -26 -107 -67 -156 -92 -53 -27
-92 -54 -99 -67 -6 -13 -19 -23 -31 -23 -15 0 -17 -3 -8 -12 8 -8 15 -8 26 1
7 6 18 11 22 10 5 -1 16 0 24 4 8 3 40 13 71 21 100 28 209 90 309 177 52 45
97 85 100 88 3 4 25 15 50 26 35 16 66 20 145 19 88 0 107 -4 158 -28 l57 -27
0 -177 c0 -97 3 -329 6 -514 l6 -338 -69 -1 c-106 -2 -213 1 -273 6 -30 3 -82
8 -115 10 -104 8 -187 15 -287 27 l-96 11 1 288 c1 159 5 289 10 289 4 0 7 18
7 39 0 30 -5 41 -19 46 -23 7 -247 -1 -284 -10 l-27 -7 0 -319 0 -319 23 -1
c37 -2 -1 -8 -153 -24 -224 -24 -607 -54 -687 -55 l-73 0 6 508 c5 405 9 510
20 523 29 33 145 60 295 68 171 9 1171 5 1223 -4z m-1071 -1102 c-13 -2 -33
-2 -45 0 -13 2 -3 4 22 4 25 0 35 -2 23 -4z m1290 0 c-13 -2 -33 -2 -45 0 -13
2 -3 4 22 4 25 0 35 -2 23 -4z m-1430 -10 c-13 -2 -35 -2 -50 0 -16 2 -5 4 22
4 28 0 40 -2 28 -4z m707 -513 c11 -7 11 -10 2 -10 -9 0 -12 -15 -11 -50 2
-32 7 -50 15 -50 7 0 10 -8 7 -20 -7 -27 -21 -25 -25 3 -3 19 -9 22 -50 22
l-48 0 0 -52 c0 -40 4 -53 15 -53 9 0 12 6 9 18 -5 16 -5 16 9 0 15 -18 37
-24 37 -10 0 4 -5 13 -10 18 -12 12 -3 44 11 44 5 0 9 -9 9 -20 0 -11 9 -29
21 -41 20 -20 21 -21 1 -15 -12 4 -23 2 -28 -6 -4 -7 -4 -10 0 -6 5 4 19 3 31
-2 16 -6 25 -5 28 3 3 7 2 -7 0 -31 -5 -34 -2 -46 13 -57 10 -7 16 -17 11 -21
-4 -4 -7 -2 -7 4 0 7 -7 12 -15 12 -11 0 -15 11 -15 40 0 29 -4 40 -15 40 -11
0 -15 -12 -15 -45 0 -35 -3 -43 -15 -39 -10 4 -15 20 -15 45 0 28 -4 39 -15
39 -11 0 -15 -13 -16 -52 l-1 -53 -17 50 c-10 28 -24 50 -32 50 -13 0 -54 -93
-45 -102 2 -3 16 3 30 12 24 16 26 16 32 1 5 -13 23 -16 83 -18 72 -1 73 -2
26 -8 -47 -6 -51 -10 -15 -14 8 0 16 -13 18 -28 3 -25 7 -28 43 -28 40 0 44 6
42 68 -1 8 14 12 43 12 31 0 46 5 51 15 5 14 8 14 24 -1 25 -23 36 -11 16 19
-13 20 -13 26 -1 50 13 23 13 27 0 27 -7 0 -17 -7 -20 -17 -6 -14 -8 -14 -20
3 -18 25 -31 12 -16 -16 14 -27 4 -63 -17 -56 -8 3 -19 6 -24 6 -5 0 -9 4 -9
9 0 5 7 8 16 7 9 0 19 5 21 12 3 7 -5 12 -19 13 -17 1 -18 3 -5 6 29 8 20 33
-12 33 -28 0 -30 -2 -34 -47 l-4 -48 1 50 c1 47 3 50 31 57 27 6 25 6 -10 5
-33 -2 -42 2 -52 23 -11 22 -13 23 -14 5 0 -11 -3 -15 -5 -9 -2 5 2 28 10 50
l15 39 0 -47 c1 -46 2 -48 31 -48 21 0 30 5 30 16 0 10 -6 14 -15 11 -8 -4
-17 -2 -20 3 -4 6 3 10 14 10 29 0 27 30 -1 31 l-23 2 23 4 c34 7 28 33 -9 33
-29 0 -30 1 -15 22 9 12 16 33 16 45 0 19 -6 23 -32 24 -31 1 -32 1 -8 9 14 4
183 8 375 9 318 0 354 -1 390 -18 50 -22 98 -76 118 -132 13 -34 37 -232 37
-298 0 -7 -302 -10 -980 -11 l-980 0 5 23 c2 12 9 74 16 137 15 163 52 235
142 279 41 20 56 21 432 21 235 0 396 -4 405 -10z m-70 -140 c0 -5 -4 -10 -10
-10 -5 0 -10 5 -10 10 0 6 5 10 10 10 6 0 10 -4 10 -10z m935 -528 c12 -8 18
-52 7 -52 -4 0 -5 -29 -4 -65 4 -61 2 -65 -18 -65 -20 0 -22 4 -18 65 1 36 0
65 -4 65 -11 0 -5 44 7 52 5 4 12 8 15 8 3 0 10 -4 15 -8z m-510 -76 c11 -8
16 -19 12 -30 -8 -19 -27 -12 -27 10 0 8 -7 14 -15 14 -18 0 -20 -26 -2 -33 9
-4 9 -8 -2 -15 -17 -12 -7 -46 12 -39 6 2 11 12 11 21 -2 18 4 20 25 7 26 -17
-6 -43 -48 -39 -36 3 -36 4 -38 51 -1 41 2 49 20 57 30 12 31 12 52 -4z m110
4 c4 -7 12 -7 25 0 27 14 50 2 57 -31 5 -28 6 -28 35 -13 31 16 29 39 -3 31
-25 -7 -25 10 1 18 33 10 60 -12 60 -50 0 -18 3 -40 6 -48 8 -21 -65 -19 -89
2 -16 13 -18 13 -15 1 2 -8 -4 -15 -12 -15 -10 0 -17 14 -20 45 -7 60 -24 58
-28 -3 -4 -61 -25 -58 -32 4 -7 58 -24 56 -28 -3 -2 -34 -7 -48 -18 -48 -10 0
-14 14 -14 54 0 52 1 55 28 59 15 2 30 5 34 6 4 0 10 -4 13 -9z m271 -1 c4 -8
9 -8 17 0 33 33 67 -1 67 -68 0 -34 -3 -41 -20 -41 -17 0 -20 7 -20 45 0 34
-4 45 -16 45 -12 0 -15 -9 -12 -42 2 -34 -1 -43 -15 -46 -14 -3 -17 4 -17 42
0 34 -4 46 -15 46 -11 0 -15 -12 -15 -45 0 -32 -4 -45 -14 -45 -10 0 -15 16
-18 55 -3 54 -3 54 27 58 17 2 33 5 37 5 4 1 10 -3 14 -9z m-1223 -74 c-6 -39
3 -47 17 -12 9 22 9 22 9 0 1 -12 -5 -23 -11 -25 -13 -5 32 -53 55 -61 7 -2 5
-12 -6 -27 -21 -31 -22 -70 -2 -70 23 0 41 46 25 65 -9 10 -9 15 -1 15 7 0 6
9 -4 24 -15 23 -15 25 6 45 40 37 51 16 33 -61 -5 -22 -3 -28 9 -28 9 0 19 5
22 10 3 6 17 10 31 10 22 0 24 -3 18 -22 -8 -29 -8 -29 -30 -32 -9 -1 -21 -12
-25 -24 -6 -16 -2 -24 17 -36 13 -9 24 -25 24 -36 0 -24 3 -24 -44 -1 -79 41
-253 35 -310 -10 -21 -17 -25 -17 -30 -3 -4 10 5 26 25 45 22 21 29 34 24 49
-4 11 -11 18 -16 14 -14 -8 -39 15 -39 37 0 13 7 19 24 19 14 0 28 -4 31 -10
3 -5 13 -10 21 -10 12 0 14 9 9 44 -4 25 -4 49 -1 55 10 16 56 -17 56 -40 0
-26 12 -24 40 6 19 20 21 27 10 40 -10 12 -10 21 -2 40 16 35 22 31 15 -10z
m1417 -184 c7 -15 6 -23 -5 -35 -28 -27 -69 10 -44 40 16 20 37 17 49 -5z
m-1802 -115 c-2 -46 0 -82 3 -80 3 2 30 40 59 84 36 55 59 80 72 80 23 0 23 0
-25 -70 l-37 -56 50 -124 c27 -68 50 -127 50 -132 0 -4 -19 -8 -42 -8 l-43 0
-34 85 c-27 68 -37 83 -48 74 -9 -8 -13 -36 -13 -86 l0 -74 -42 3 -42 3 2 115
c1 63 5 150 8 193 l7 77 39 0 39 0 -3 -84z m690 10 l-3 -74 28 24 c31 26 76
31 95 12 8 -8 12 -55 12 -145 l0 -133 -35 0 -35 0 0 110 c0 102 -1 110 -19
110 -30 0 -36 -17 -41 -120 l-5 -95 -29 -3 c-16 -2 -33 1 -38 6 -5 5 -6 85 -2
195 l7 187 34 0 35 0 -4 -74z m334 -17 l3 -90 50 82 c49 79 77 110 90 97 3 -3
-10 -31 -30 -62 -41 -65 -43 -54 26 -209 27 -60 49 -111 49 -113 0 -2 -20 -4
-44 -4 l-43 0 -38 91 c-35 82 -40 89 -52 73 -8 -11 -13 -46 -13 -92 l0 -73
-37 3 -38 3 -3 180 c-1 98 0 185 2 192 3 7 21 13 40 13 l35 0 3 -91z m272 78
c28 -21 17 -52 -19 -52 -24 0 -31 5 -33 24 -2 13 2 28 10 32 18 12 21 11 42
-4z m506 -37 c15 -27 3 -43 -26 -36 -33 9 -31 -9 6 -51 17 -18 30 -43 30 -54
0 -57 -62 -108 -114 -95 -18 4 -28 1 -34 -11 -17 -34 -3 -43 66 -43 73 0 83
-4 101 -37 17 -34 13 -52 -18 -84 -27 -26 -36 -29 -98 -29 -98 0 -144 37 -91
74 l22 15 -27 21 c-33 26 -34 40 -3 77 24 28 24 29 5 52 -47 58 -6 151 67 151
25 0 34 4 34 17 0 23 29 53 51 53 10 0 23 -9 29 -20z m-1462 -70 c21 -20 42
-77 42 -117 0 -22 -4 -23 -65 -23 l-64 0 6 -32 c9 -51 22 -68 48 -68 18 0 26
8 35 34 8 24 16 33 26 29 18 -7 10 -39 -19 -70 -29 -32 -96 -32 -133 0 -23 20
-28 34 -32 84 -5 75 10 125 49 158 37 30 78 32 107 5z m217 -5 c21 -21 34 -55
21 -55 -2 0 -11 -2 -19 -6 -10 -3 -16 4 -20 24 -7 34 -37 47 -64 26 -20 -15
-19 -16 82 -97 29 -24 35 -35 35 -68 0 -53 -37 -89 -90 -89 -50 0 -92 33 -88
69 4 33 33 41 35 9 2 -21 35 -58 52 -58 4 0 16 6 26 14 17 12 18 16 5 31 -8
10 -33 29 -55 43 -53 33 -64 50 -65 94 0 74 94 115 145 63z m755 -121 l0 -145
-32 3 -33 3 -3 137 -3 137 28 4 c16 2 31 5 36 6 4 0 7 -65 7 -145z m110 120
c0 -12 5 -11 26 5 31 24 62 27 89 7 16 -11 19 -32 23 -145 l5 -131 -35 0 -35
0 -7 61 c-3 34 -6 84 -6 110 0 54 -9 65 -36 44 -16 -11 -20 -29 -22 -114 l-4
-101 -34 0 -34 0 0 103 c0 56 -3 119 -6 139 -6 36 -6 37 27 40 41 4 49 1 49
-18z m-1245 -374 c-4 -6 -11 -8 -16 -5 -15 10 -10 -7 7 -19 20 -15 8 -46 -17
-46 -24 0 -25 20 -1 20 16 1 16 2 -2 15 -23 17 -14 45 14 45 12 0 18 -5 15
-10z m56 -9 c-25 -19 -22 -41 5 -41 8 0 12 -4 9 -10 -10 -17 -34 -11 -45 10
-14 27 4 60 33 60 l22 0 -24 -19z m73 -5 c3 -13 9 -32 13 -43 6 -16 5 -16 -10
-4 -14 11 -20 11 -32 1 -18 -15 -19 -4 -4 39 13 37 25 40 33 7z m54 -6 c-4
-24 -1 -30 14 -30 11 0 16 -4 13 -10 -3 -5 -15 -10 -26 -10 -16 0 -19 7 -19
40 0 23 5 40 11 40 7 0 10 -12 7 -30z m95 18 c6 -19 -3 -38 -19 -38 -8 0 -14
-7 -14 -15 0 -8 -4 -15 -10 -15 -11 0 -14 63 -3 73 11 12 41 8 46 -5z m96 -19
c15 -43 14 -54 -4 -39 -12 10 -18 10 -32 -1 -15 -12 -16 -12 -10 4 4 11 10 30
13 43 8 33 20 30 33 -7z m57 14 c13 -17 13 -17 14 0 0 37 20 15 20 -23 0 -41
-13 -53 -24 -23 -6 14 -8 14 -21 -3 -13 -18 -14 -16 -15 24 0 46 6 51 26 25z
m108 -5 c14 -23 -3 -52 -33 -56 -19 -3 -21 1 -21 38 0 37 2 41 21 38 12 -2 27
-11 33 -20z m92 -8 c8 0 13 4 9 9 -3 5 -1 12 5 16 6 4 10 -10 10 -35 0 -25 -4
-39 -10 -35 -6 4 -8 11 -5 16 4 5 -1 9 -9 9 -8 0 -17 -8 -19 -17 -3 -10 -5 2
-5 27 0 25 2 37 5 28 2 -10 11 -18 19 -18z m93 -1 c15 -43 14 -54 -4 -39 -12
10 -18 10 -32 -1 -15 -12 -16 -12 -10 4 4 11 10 30 13 43 8 33 20 30 33 -7z
m51 -9 c0 -22 -4 -40 -10 -40 -5 0 -10 18 -10 40 0 22 5 40 10 40 6 0 10 -18
10 -40z m67 -5 c2 -37 1 -39 -12 -21 -13 17 -15 18 -15 3 0 -9 -4 -17 -10 -17
-5 0 -10 18 -10 41 0 36 2 40 23 37 18 -2 22 -10 24 -43z m114 28 c6 9 14 17
19 17 13 0 13 -67 0 -75 -6 -3 -10 4 -10 17 0 19 -2 20 -10 8 -9 -13 -11 -13
-20 0 -8 12 -10 11 -10 -8 0 -13 -4 -21 -9 -18 -4 3 -7 16 -6 28 1 13 3 30 4
38 1 12 5 10 17 -5 14 -19 16 -19 25 -2z m89 7 c0 -5 -6 -10 -12 -10 -9 0 -8
-4 2 -10 13 -9 13 -11 0 -20 -10 -6 -11 -10 -2 -10 6 0 12 -4 12 -10 0 -5 -9
-10 -20 -10 -17 0 -20 7 -20 40 0 33 3 40 20 40 11 0 20 -4 20 -10z m78 -24
c3 -28 -10 -46 -34 -46 -12 0 -25 66 -15 76 3 3 14 4 26 2 14 -2 21 -12 23
-32z m39 -28 c-3 -22 -4 -21 -11 4 -5 16 -5 36 0 45 7 16 8 15 11 -4 3 -13 3
-33 0 -45z m78 52 c-3 -5 -13 -10 -21 -10 -21 0 -17 -31 6 -37 26 -7 26 -23 0
-23 -10 0 -24 9 -30 20 -14 26 3 60 31 60 11 0 17 -4 14 -10z m45 -24 c0 -19
-4 -38 -10 -41 -6 -4 -10 10 -10 34 0 23 5 41 10 41 6 0 10 -15 10 -34z m46
17 c13 -17 13 -17 14 0 0 38 20 14 20 -25 0 -40 0 -41 -20 -23 -18 16 -20 16
-20 2 0 -10 -4 -17 -10 -17 -5 0 -10 18 -10 40 0 44 6 49 26 23z m104 7 c0 -5
-8 -10 -17 -10 -15 0 -16 -2 -3 -10 13 -9 13 -11 0 -20 -13 -8 -12 -10 3 -10
9 0 17 -4 17 -10 0 -5 -11 -10 -25 -10 -22 0 -25 4 -25 40 0 36 3 40 25 40 14
0 25 -4 25 -10z m0 -120 c0 -7 -255 -10 -746 -10 -494 0 -743 3 -739 10 4 7
263 10 746 10 486 0 739 -3 739 -10z m-777 -296 c37 -7 37 -7 22 -30 -8 -13
-11 -24 -7 -24 5 0 7 -12 5 -27 l-4 -28 15 25 c24 39 19 6 -9 -56 -14 -31 -25
-62 -25 -69 0 -17 37 -8 44 11 6 16 36 19 36 3 0 -5 -4 -8 -9 -4 -15 8 -41
-36 -41 -70 -1 -16 -7 -43 -14 -60 l-14 -30 -18 43 c-9 23 -20 42 -24 42 -9 0
-33 -131 -25 -138 10 -10 25 21 26 53 l1 30 16 -37 c20 -45 31 -44 47 3 l12
34 7 -42 c4 -24 13 -43 19 -43 7 0 4 -5 -5 -11 -31 -17 -20 -29 27 -29 l45 0
-15 24 c-12 18 -15 42 -12 92 l3 69 2 -73 c1 -54 5 -73 15 -70 6 3 13 16 15
30 2 16 11 28 23 31 24 6 35 35 22 55 -5 9 -25 21 -44 28 -20 7 -26 13 -15 13
15 1 16 4 6 16 -10 12 -10 15 4 15 22 0 21 6 -13 89 -31 73 -33 94 -6 40 9
-17 19 -29 21 -26 10 9 -26 66 -43 70 -10 2 -5 3 10 1 18 -2 27 1 26 9 -6 50
-36 47 461 47 l460 0 0 -48 c0 -110 -60 -252 -137 -323 -24 -22 -74 -55 -111
-72 l-67 -31 -862 -2 c-474 -1 -867 2 -874 7 -20 12 4 139 41 217 53 113 173
216 283 242 39 10 626 12 680 4z m80 -134 c3 -12 0 -20 -8 -20 -8 0 -11 8 -8
20 3 11 7 20 8 20 1 0 5 -9 8 -20z m27 -71 c0 -6 -4 -7 -10 -4 -5 3 -10 11
-10 16 0 6 5 7 10 4 6 -3 10 -11 10 -16z m-25 -174 c3 -26 1 -35 -4 -25 -5 8
-12 42 -15 75 -4 49 -4 53 4 25 5 -19 12 -53 15 -75z m80 65 c0 -7 -6 -15 -12
-17 -8 -3 -13 4 -13 17 0 13 5 20 13 18 6 -3 12 -11 12 -18z m-665 -448 c14
-11 24 -31 25 -49 l2 -31 -39 31 c-37 29 -45 46 -31 60 10 11 19 8 43 -11z
m345 8 c8 -14 -4 -33 -42 -65 l-33 -27 0 27 c0 14 11 37 25 50 26 27 40 31 50
15z m-148 -120 c36 -81 41 -157 13 -214 -12 -25 -25 -46 -28 -46 -4 0 -8 24
-8 53 -7 259 -13 295 -40 260 -13 -16 -13 -15 -2 10 11 27 13 28 26 10 8 -10
25 -43 39 -73z m-271 11 c37 -23 45 -46 30 -92 -8 -24 -18 -35 -34 -37 -48 -7
-69 47 -29 72 13 8 20 8 27 -4 5 -8 12 -11 16 -8 11 12 -25 57 -51 64 -31 8
-72 -17 -85 -51 -12 -32 5 -90 37 -119 14 -13 55 -36 92 -50 74 -30 164 -91
159 -108 -3 -7 4 -20 14 -30 10 -10 18 -23 18 -30 0 -6 -1 -9 -2 -7 -2 2 -21
24 -43 48 -22 24 -33 40 -25 36 9 -5 12 -4 7 1 -5 5 -16 9 -25 9 -9 0 -16 6
-14 13 1 8 -1 11 -6 8 -4 -2 -52 9 -105 25 -73 23 -102 37 -121 60 -62 73 -50
165 27 203 43 21 75 20 113 -3z m186 -3 c-7 -7 -12 -8 -12 -2 0 14 12 26 19
19 2 -3 -1 -11 -7 -17z m376 2 c66 -40 77 -128 25 -190 -30 -36 -61 -53 -127
-69 -73 -18 -138 -54 -180 -101 -30 -33 -36 -37 -31 -19 12 39 57 91 72 85 8
-3 12 -2 8 3 -7 12 45 43 128 76 69 28 100 57 112 108 10 39 -11 83 -46 98
-26 10 -34 9 -57 -8 -15 -11 -29 -29 -30 -39 -3 -15 -1 -17 9 -6 7 6 16 12 20
12 10 0 39 -30 39 -40 0 -16 -31 -40 -52 -40 -28 0 -47 28 -48 67 0 23 8 38
31 57 37 32 81 34 127 6z m-404 -103 c-9 -56 -10 -86 -3 -105 8 -21 8 -24 -2
-15 -20 20 -23 97 -4 153 9 28 18 50 20 48 2 -2 -3 -38 -11 -81z m-444 8 c65
-34 67 -100 8 -214 -35 -68 -41 -88 -41 -141 0 -60 -1 -61 -15 -35 -20 40 -11
107 26 192 39 87 41 125 7 158 -40 41 -94 25 -100 -28 -3 -29 9 -37 19 -12 8
21 33 19 45 -3 7 -14 6 -25 -5 -41 -20 -28 -51 -24 -76 9 -16 22 -17 30 -7 59
12 34 60 71 92 71 10 0 31 -7 47 -15z m481 -41 c-5 -21 -9 -30 -10 -19 -1 24
10 67 15 62 3 -2 0 -22 -5 -43z m643 24 c37 -32 44 -80 17 -107 -26 -26 -57
-27 -71 -2 -21 41 26 73 49 34 9 -15 10 -13 11 11 0 34 -25 66 -52 66 -10 0
-30 -11 -43 -25 -34 -33 -33 -86 2 -161 21 -45 27 -75 28 -126 0 -37 -4 -71
-10 -77 -7 -7 -10 11 -10 53 0 54 -6 74 -37 135 -47 90 -51 144 -12 190 33 39
89 43 128 9z m-1324 -50 l-1 -53 -19 24 c-30 35 -26 81 7 81 9 0 13 -15 13
-52z m1444 36 c10 -27 7 -50 -11 -67 -17 -14 -18 -13 -20 21 -2 20 -1 43 2 50
6 17 22 15 29 -4z m-1437 -151 c62 -29 93 -68 100 -126 l5 -42 -31 36 c-28 33
-101 86 -101 73 0 -13 62 -94 82 -109 22 -15 22 -15 -15 -15 -57 0 -111 54
-137 137 -11 36 -20 69 -20 75 0 14 55 0 117 -29z m664 20 c13 -16 12 -17 -3
-4 -10 7 -18 15 -18 17 0 8 8 3 21 -13z m834 -55 c-33 -100 -62 -133 -132
-149 -40 -9 -41 -4 -5 25 15 13 38 43 51 66 l23 42 -23 -12 c-13 -7 -43 -31
-66 -53 -40 -38 -43 -39 -43 -18 0 43 31 91 77 118 52 30 127 54 131 42 2 -5
-4 -33 -13 -61z m-1211 -20 c9 -37 7 -122 -5 -156 -6 -17 -14 -52 -18 -79 l-8
-48 -19 40 c-27 59 -25 148 5 213 27 57 36 63 45 30z m873 -34 c21 -46 24 -67
21 -117 -2 -34 -13 -80 -24 -102 l-19 -40 -3 35 c-1 19 -10 66 -19 104 -13 57
-14 77 -4 122 7 30 15 54 17 54 3 0 17 -25 31 -56z m479 35 c11 -19 -10 -27
-51 -20 -36 6 -38 8 -20 19 25 15 62 15 71 1z m-1806 -9 c0 -5 -4 -10 -10 -10
-5 0 -10 5 -10 10 0 6 5 10 10 10 6 0 10 -4 10 -10z m779 -126 c30 -33 32 -38
17 -46 -16 -9 -16 -11 1 -30 13 -14 3 -11 -32 11 -27 17 -57 37 -66 44 -19 14
-69 86 -69 98 0 18 116 -43 149 -77z m298 34 c-13 -24 -43 -56 -66 -73 -136
-100 -133 -98 -126 -73 10 35 58 111 74 116 9 3 11 0 6 -9 -5 -8 -4 -11 1 -6
5 5 9 14 9 20 0 11 98 66 119 67 4 0 -3 -19 -17 -42z m-1063 0 c21 -30 20 -55
-3 -68 -40 -21 -67 12 -36 44 9 9 11 17 5 21 -15 9 -12 25 4 25 8 0 22 -10 30
-22z m1799 -19 c38 -41 37 -90 -2 -130 -42 -42 -88 -39 -193 12 -73 35 -90 40
-137 36 -47 -3 -52 -2 -36 10 32 23 113 15 190 -17 86 -37 127 -38 160 -5 29
28 31 51 9 83 -10 14 -25 22 -45 22 -33 0 -37 -7 -12 -25 20 -15 11 -45 -15
-45 -46 0 -55 48 -15 79 32 26 58 20 96 -20z m-1534 -63 c22 -12 18 -14 -50
-18 -58 -4 -91 -14 -151 -43 -83 -40 -123 -43 -123 -10 0 16 7 20 37 22 21 1
48 8 60 14 84 45 182 60 227 35z m261 -44 c0 -9 -13 -30 -30 -45 l-30 -29 0
27 c0 14 5 35 10 46 13 24 50 25 50 1z m299 -27 c0 -5 -4 -3 -9 5 -5 8 -9 22
-9 30 0 16 17 -16 18 -35z m401 26 c5 -11 10 -32 10 -48 l0 -27 -30 32 c-31
34 -35 44 -23 55 12 13 32 7 43 -12z m-889 -52 c56 -25 63 -39 18 -39 -17 0
-59 -7 -92 -16 -62 -16 -110 -14 -163 6 -33 13 -30 15 43 46 72 29 130 30 194
3z m368 1 c44 -22 95 -79 110 -122 14 -39 6 -35 -20 12 -27 48 -103 100 -156
107 -32 4 -43 1 -66 -22 -25 -26 -35 -63 -21 -78 4 -3 14 3 23 15 16 19 18 19
34 4 13 -13 15 -22 7 -37 -15 -27 -55 -24 -79 7 -28 36 -26 66 5 103 22 27 32
31 75 31 30 0 65 -8 88 -20z m446 -5 c36 -35 35 -96 -1 -124 -15 -12 -32 -21
-39 -21 -20 0 -37 28 -30 50 8 25 40 26 50 3 6 -16 8 -15 16 6 11 28 -8 63
-42 82 -47 25 -161 -37 -211 -115 -17 -28 -19 -28 -12 -6 22 80 113 149 197
150 38 0 53 -5 72 -25z m405 -11 l55 -26 -30 -14 c-40 -17 -99 -17 -159 1 -27
8 -65 15 -85 16 l-36 1 50 24 c68 32 134 32 205 -2z m320 -70 c35 -21 60 -64
60 -104 0 -29 2 -31 28 -26 87 17 215 36 219 32 6 -5 -26 -236 -35 -250 -3 -5
13 -6 39 -3 24 4 99 15 167 25 110 17 122 17 122 3 0 -37 -40 -265 -47 -271
-4 -4 -87 -20 -183 -35 -96 -15 -176 -28 -177 -29 -5 -4 -33 -317 -39 -436
l-7 -135 86 -23 c49 -13 114 -22 156 -22 87 0 238 -25 300 -50 45 -18 46 -19
44 -58 -3 -67 -47 -135 -121 -184 -22 -15 -21 -15 25 -22 45 -6 186 -65 180
-76 -2 -3 -17 -35 -34 -71 -19 -41 -45 -78 -67 -95 l-36 -29 93 -15 92 -16 -2
-29 c-2 -17 -11 -57 -20 -90 -23 -79 -87 -144 -253 -253 -69 -45 -152 -100
-185 -123 l-60 -41 155 6 c181 7 430 10 434 5 2 -2 6 -34 10 -70 l6 -66 -137
-6 c-585 -25 -1908 -43 -1933 -27 -8 5 -10 10 -5 10 14 0 54 109 52 140 -2 24
1 25 64 32 77 7 111 23 158 72 19 20 38 36 42 36 4 0 1 -24 -7 -52 -17 -66
-18 -106 -1 -105 94 3 399 -5 390 -11 -9 -5 2 -15 32 -30 64 -31 195 -30 179
2 -3 6 0 4 8 -4 19 -22 170 -12 218 15 19 10 45 18 58 16 14 -1 22 3 22 12 0
26 -23 25 -57 -1 -43 -32 -100 -45 -111 -26 -7 12 -14 13 -36 4 -67 -25 -110
-6 -157 68 -16 25 -29 38 -29 29 0 -9 -5 -17 -11 -17 -6 0 -22 -9 -36 -20 -34
-27 -55 -25 -94 7 -36 31 -59 78 -59 124 0 42 38 107 72 125 28 14 28 15 12
52 -16 40 -44 141 -49 182 -2 14 -10 45 -18 70 -18 53 -46 161 -54 208 -7 41
15 44 23 3 4 -17 14 -31 25 -34 13 -4 17 -11 13 -24 -5 -14 -4 -15 4 -4 6 8 8
21 4 29 -3 10 -1 13 6 8 6 -3 13 -2 17 4 3 5 1 10 -5 10 -6 0 -8 5 -4 13 5 8
2 7 -10 -2 -12 -10 -20 -11 -27 -4 -8 8 -5 14 10 22 24 13 28 56 6 64 -8 4
-17 2 -20 -4 -4 -5 -12 -3 -21 6 -11 11 -12 19 -5 32 10 17 10 17 11 0 0 -32
16 -10 18 26 1 19 -4 41 -11 49 -8 7 -12 18 -10 25 2 6 -5 14 -17 18 -12 4
-17 11 -13 18 4 7 0 6 -10 -2 -9 -7 -15 -17 -12 -21 3 -5 1 -11 -3 -14 -5 -3
-15 43 -21 102 -7 59 -17 134 -23 167 -14 80 -25 363 -15 380 5 9 -2 19 -23
31 -34 21 -52 62 -38 87 12 22 44 22 57 0 8 -15 10 -13 16 12 11 48 14 55 25
55 6 0 10 -25 10 -57 0 -41 3 -54 10 -43 5 8 10 33 10 55 0 63 -52 142 -120
182 -57 35 -54 43 8 17 73 -30 137 -113 142 -184 5 -60 1 -77 -24 -101 -18
-18 -23 -32 -19 -52 7 -33 13 -34 43 -2 28 30 50 32 50 6 0 -24 -36 -51 -67
-51 -16 0 -23 -6 -23 -19 0 -33 29 -33 153 -1 39 10 60 10 103 1 30 -7 54 -16
54 -20 0 -4 -23 -18 -52 -32 -69 -32 -155 -32 -217 0 -23 12 -40 18 -37 12 8
-12 15 -60 23 -146 3 -33 9 -65 14 -71 5 -6 7 -19 3 -28 -3 -9 0 -31 7 -48
l13 -32 13 30 c6 16 12 61 13 99 0 59 3 67 12 50 20 -33 15 -124 -11 -193 -23
-60 -23 -82 -6 -152 2 -8 4 -23 4 -32 1 -22 43 -33 70 -18 12 6 21 7 21 2 0
-14 -21 -28 -51 -35 -29 -7 -29 -12 0 -130 12 -49 13 -50 51 -40 30 8 33 12
34 51 0 23 -1 42 -4 42 -3 0 -6 57 -8 128 -4 170 -7 209 -22 227 -6 8 -14 34
-17 57 l-6 43 22 -28 c27 -32 111 -92 111 -78 0 12 -68 102 -89 118 -14 11
-13 12 7 13 64 1 120 -56 153 -153 10 -29 23 -52 30 -52 19 0 24 128 8 178 -9
28 -10 43 -2 56 6 10 9 30 6 45 -6 31 -6 31 -98 -8 -65 -28 -124 -32 -169 -13
-26 12 -24 12 35 12 55 0 75 6 142 40 42 22 77 43 77 47 0 10 58 -1 97 -19 37
-17 58 -61 49 -105 -7 -35 -42 -78 -63 -78 -8 0 -13 -13 -13 -35 0 -32 2 -35
30 -35 17 0 30 -4 30 -8 0 -14 -23 -32 -41 -32 -12 0 -16 -6 -12 -20 5 -19 11
-20 52 -14 25 4 47 8 49 9 2 2 5 20 7 42 1 21 6 46 10 56 4 10 5 21 1 24 -3 3
-1 12 4 18 6 7 12 30 13 51 2 22 8 49 15 61 7 12 13 39 15 60 2 21 9 49 16 62
7 13 10 32 8 43 -3 11 1 38 9 60 15 44 10 88 -12 88 -10 0 -14 -13 -14 -41 0
-33 -6 -47 -33 -74 -19 -19 -46 -37 -62 -41 -43 -11 -115 24 -145 70 -22 35
-28 37 -63 34 l-39 -4 6 36 c21 119 19 143 -11 182 -25 33 -32 37 -63 32 -63
-10 -64 -11 -41 -48 24 -38 53 -117 47 -124 -12 -11 -94 58 -123 103 -17 28
-45 69 -62 93 l-31 42 37 -15 c20 -8 37 -14 38 -13 1 2 6 20 9 42 7 35 6 38
-11 31 -10 -4 -29 -10 -43 -13 l-25 -5 30 34 c17 19 41 57 55 85 23 47 39 62
108 102 22 13 23 12 17 -9 -7 -21 -6 -22 46 -15 30 4 57 10 60 14 4 4 14 32
23 63 21 76 78 129 137 129 22 0 53 -7 69 -16z m-1908 -21 c29 -31 43 -62 59
-131 5 -24 22 -69 36 -99 20 -41 24 -56 15 -65 -9 -9 -15 -7 -27 8 -22 29 -65
121 -81 174 -8 26 -21 53 -29 60 -16 13 -21 80 -7 80 5 0 20 -12 34 -27z m421
21 c11 -11 -60 -64 -77 -58 -21 8 -20 20 4 44 19 19 60 27 73 14z m997 -19
c14 -17 7 -45 -13 -45 -7 0 -26 14 -42 30 l-29 30 36 0 c20 0 41 -7 48 -15z
m-890 -73 c32 -40 27 -52 -17 -39 -23 7 -31 13 -20 15 22 4 22 22 0 23 -31 2
-47 -2 -64 -17 -8 -8 -23 -14 -33 -14 -29 0 11 49 48 58 41 11 62 5 86 -26z
m249 4 c14 -15 14 -16 -4 -16 -11 0 -39 -7 -63 -17 -39 -15 -45 -15 -59 -1
-14 14 -13 18 7 38 18 18 30 21 63 17 22 -3 47 -13 56 -21z m322 6 c25 -21 21
-52 -8 -52 -10 1 -41 9 -70 19 l-51 17 26 17 c36 22 75 21 103 -1z m249 -2
c43 -43 39 -133 -9 -203 -33 -48 -103 -97 -137 -97 -14 1 -12 5 11 17 107 56
169 192 115 251 -21 23 -64 30 -75 12 -3 -5 0 -10 8 -10 22 0 28 -27 11 -45
-18 -17 -17 -17 -38 -9 -23 9 -20 60 4 84 26 26 83 27 110 0z m-513 -78 c-10
-10 -17 -29 -17 -43 0 -13 -5 -31 -10 -39 -7 -11 -10 -8 -10 16 0 28 32 84 47
84 3 0 -1 -8 -10 -18z m97 -1 c30 -33 23 -101 -16 -168 -25 -41 -36 -37 -14 6
23 43 20 87 -6 105 -12 8 -25 13 -30 10 -4 -3 -8 0 -8 5 0 15 17 14 44 -4 22
-15 22 -14 18 17 -3 18 -10 36 -16 40 -8 6 -8 8 0 8 6 0 19 -9 28 -19z m-720
-4 c17 -12 17 -14 1 -27 -14 -12 -18 -12 -26 1 -21 34 -7 49 25 26z m401 3 c3
-5 2 -10 -4 -10 -5 0 -13 5 -16 10 -3 6 -2 10 4 10 5 0 13 -4 16 -10z m585
-21 c15 -26 12 -66 -6 -101 l-16 -31 -19 54 c-10 30 -18 64 -19 76 0 36 41 38
60 2z m-460 -34 c12 -14 5 -55 -9 -55 -4 0 -18 11 -30 24 -22 23 -22 25 -4 35
24 14 28 14 43 -4z m328 -28 c-4 -26 -39 -35 -56 -14 -9 10 -8 19 4 35 12 18
19 20 35 11 13 -6 19 -18 17 -32z m-784 -42 c-4 -8 -10 -12 -15 -9 -11 6 -2
24 11 24 5 0 7 -7 4 -15z m556 -12 c6 -16 15 -36 21 -47 6 -10 6 -15 1 -12
-16 10 -53 86 -42 86 6 0 15 -12 20 -27z m-835 -16 c11 -5 32 -20 47 -32 l26
-22 -79 1 c-74 1 -79 2 -79 23 0 53 23 61 85 30z m1115 -39 c47 -50 7 -138
-62 -138 -33 0 -123 45 -146 73 -10 12 -5 19 25 39 62 42 76 47 120 48 31 0
48 -6 63 -22z m-840 -2 c0 -2 -8 -10 -17 -17 -16 -13 -17 -12 -4 4 13 16 21
21 21 13z m559 -62 c-6 -8 -14 -14 -17 -14 -3 0 -1 5 6 12 9 9 4 18 -21 41
l-32 28 38 -27 c29 -21 35 -29 26 -40z m-564 16 c-3 -5 -11 -10 -16 -10 -6 0
-7 5 -4 10 3 6 11 10 16 10 6 0 7 -4 4 -10z m255 -46 c91 -18 113 -30 128 -74
9 -25 7 -29 -21 -43 -65 -31 -117 -76 -117 -101 0 -19 5 -23 26 -23 14 0 28 5
30 12 3 7 14 11 25 8 10 -3 25 0 33 6 10 9 15 8 19 -4 8 -20 37 -8 31 13 -3 9
6 -5 21 -33 32 -61 61 -161 57 -196 -2 -14 -24 -68 -50 -120 -33 -66 -57 -100
-80 -116 -18 -11 -27 -23 -21 -25 9 -3 9 -9 1 -23 -7 -14 -7 -25 0 -39 6 -10
8 -41 5 -68 -4 -31 -2 -48 5 -48 7 0 6 -5 -2 -15 -10 -12 -10 -15 2 -15 22 0
18 -349 -4 -410 -9 -25 -19 -58 -22 -75 -3 -16 -10 -52 -15 -80 -8 -42 -7 -52
6 -60 86 -55 108 -73 135 -113 18 -26 42 -71 55 -102 42 -102 26 -252 -37
-344 -28 -40 -42 -38 -35 7 6 32 6 32 -10 10 -17 -24 -64 -55 -51 -34 5 7 -3
11 -20 11 -23 0 -26 -3 -21 -26 4 -23 -1 -29 -47 -50 -81 -38 -192 -28 -283
26 -18 11 -33 16 -33 11 0 -4 23 -20 52 -36 61 -33 159 -44 237 -25 55 13 121
19 116 10 -2 -3 -25 -17 -52 -30 -64 -33 -179 -39 -255 -15 -147 49 -251 169
-265 309 l-6 53 -41 -23 c-22 -12 -59 -24 -81 -26 -38 -3 -40 -1 -36 22 4 33
34 91 57 112 11 9 35 23 54 31 29 13 31 16 12 16 -32 1 -111 76 -96 91 26 26
145 7 158 -26 3 -7 2 -13 -2 -13 -22 4 -24 -3 -4 -17 15 -10 21 -22 17 -32 -5
-13 -2 -12 15 3 11 10 22 16 24 14 2 -2 17 -23 33 -47 l31 -42 6 26 c8 31 3
37 -47 63 -22 11 -37 14 -37 8 0 -8 -3 -8 -11 0 -16 16 -1 37 16 23 9 -7 21
-7 39 0 31 11 27 31 -4 23 -15 -4 -20 0 -21 16 -3 40 -4 44 -15 48 -6 2 -9
-11 -8 -34 3 -35 2 -37 -11 -19 -32 42 -11 138 39 185 l23 22 22 -50 c11 -27
21 -56 21 -64 0 -11 15 -7 58 16 53 30 64 32 154 32 l98 0 0 41 c0 23 -9 78
-20 123 -15 57 -22 129 -26 239 -3 86 -7 165 -10 176 -4 13 -2 16 6 11 9 -6 9
-3 1 13 -6 11 -11 30 -11 42 0 11 -11 42 -24 68 -13 26 -25 56 -26 67 -4 33 0
55 8 53 4 -1 22 1 41 5 29 6 32 9 20 23 -7 8 -29 24 -48 34 -49 26 -100 76
-104 100 -2 11 -12 30 -24 42 -30 33 -40 57 -48 111 -5 31 -4 47 3 47 6 0 14
-4 17 -10 11 -18 35 -11 35 10 0 16 5 19 24 14 13 -3 27 -1 31 6 4 6 15 8 26
5 11 -4 19 -2 19 5 0 7 8 9 20 5 29 -9 25 10 -7 35 -23 18 -39 21 -103 19
l-75 -2 -3 41 c-5 63 35 132 98 171 42 26 50 35 45 52 l-7 21 28 -20 c16 -12
67 -29 114 -38z m-470 25 c0 -20 -60 -54 -112 -63 l-38 -7 0 39 0 38 75 0 c41
-1 75 -4 75 -7z m804 -44 c-9 -14 -19 -23 -22 -20 -5 4 26 45 35 45 2 0 -4
-11 -13 -25z m72 -62 c23 -52 18 -100 -13 -131 l-27 -27 -9 31 c-8 26 -6 35
12 53 25 25 27 55 6 107 -15 36 -15 38 1 19 9 -11 22 -34 30 -52z m257 -2 c9
-16 17 -43 17 -59 0 -38 -31 -78 -53 -69 -21 8 -21 39 -2 95 9 24 13 48 10 53
-4 5 -2 9 2 9 5 0 16 -13 26 -29z m-125 -37 c2 -11 -4 -26 -12 -33 -31 -26
-71 14 -45 45 17 21 53 14 57 -12z m-398 -23 c0 -13 -10 -20 -32 -25 -17 -3
-33 -4 -35 -2 -3 3 51 41 65 45 1 1 2 -7 2 -18z m-770 -46 c0 -14 -4 -25 -9
-25 -4 0 -6 11 -3 25 2 14 6 25 8 25 2 0 4 -11 4 -25z m665 -15 c-10 -11 -23
-20 -29 -20 -6 0 0 9 14 20 32 25 38 25 15 0z m544 -44 c16 -19 4 -42 -29 -56
-32 -13 -63 -6 -99 21 l-24 19 29 0 c16 1 43 7 59 15 39 18 50 18 64 1z m-785
-5 c7 -10 -42 -33 -55 -26 -16 10 -10 23 14 28 12 2 25 5 29 6 4 0 9 -3 12 -8z
m-403 -73 c-5 -24 -13 -34 -29 -36 -18 -3 -22 2 -22 22 0 14 8 30 18 35 31 19
40 13 33 -21z m1263 1 c56 -44 21 -143 -55 -155 -68 -11 -199 70 -199 124 0
13 3 12 15 -6 25 -35 99 -81 142 -88 33 -5 44 -2 66 17 25 24 31 36 28 72 -1
20 -21 23 -21 3 0 -22 -19 -30 -35 -16 -18 15 -19 42 -3 58 17 17 32 15 62 -9z
m76 -189 c-6 -11 -17 -20 -26 -20 -27 0 -26 29 2 63 l29 33 3 -28 c2 -15 -2
-36 -8 -48z m-1350 51 c0 -10 -11 -30 -25 -45 -15 -16 -25 -39 -25 -57 0 -16
-4 -29 -10 -29 -5 0 -7 22 -4 53 5 38 13 58 31 75 29 27 33 27 33 3z m1136
-128 c6 -7 16 -13 22 -13 6 0 15 -7 20 -16 5 -9 40 -33 77 -53 58 -31 73 -44
99 -91 29 -52 31 -61 31 -160 0 -85 -8 -146 -45 -322 -24 -120 -47 -218 -50
-218 -4 0 -16 28 -28 63 -13 34 -31 75 -41 91 -19 28 -18 29 1 74 35 79 35
154 -1 257 -17 49 -31 102 -31 117 0 34 -40 136 -70 178 -22 30 -22 32 -4 53
18 20 18 21 1 7 -16 -12 -20 -12 -28 1 -12 17 -39 76 -39 84 0 9 72 -35 86
-52z m472 -278 c1 -11 -4 -29 -12 -40 -12 -16 -18 -18 -33 -9 -24 15 -27 38
-7 58 21 22 48 17 52 -9z m-125 -148 c-3 -5 -9 -4 -13 3 -5 8 -12 7 -24 -5
-18 -19 -21 -13 -6 16 9 16 14 17 30 7 10 -7 16 -16 13 -21z m-1332 -1000 c8
-28 21 -62 28 -74 12 -23 11 -23 -66 -23 -42 0 -140 5 -216 12 l-139 11 6 45
c3 25 6 55 6 68 l0 23 183 -4 182 -5 16 -53z m2017 -407 c4 -12 2 -13 -9 -3
-9 9 -16 10 -26 1 -11 -8 -12 -7 -7 6 8 20 35 17 42 -4z m-148 -61 c0 -27 5
-49 10 -49 6 0 10 -7 10 -15 0 -19 -75 -21 -84 -2 -5 10 -7 10 -12 0 -3 -7
-13 -13 -21 -13 -11 0 -14 6 -9 23 3 12 9 41 13 65 9 65 35 53 49 -23 l12 -60
1 61 c1 33 4 64 7 67 15 14 24 -7 24 -54z m58 3 c2 -29 7 -52 13 -52 5 0 9 -7
9 -15 0 -9 -9 -15 -25 -15 -24 0 -25 2 -25 71 0 52 3 70 13 67 7 -3 13 -26 15
-56z m-1418 -8 c0 -34 4 -53 10 -49 6 3 10 28 10 56 0 34 4 49 13 49 10 0 13
-14 9 -57 -5 -69 -20 -90 -51 -74 -18 10 -21 21 -21 71 0 47 3 60 15 60 12 0
15 -13 15 -56z m118 18 c3 -27 -1 -35 -17 -39 -15 -4 -21 -13 -21 -34 0 -16
-4 -29 -10 -29 -6 0 -10 30 -10 71 l0 70 28 -3 c23 -2 28 -8 30 -36z m102 23
c0 -8 -4 -15 -10 -15 -5 0 -10 -25 -10 -55 0 -30 -4 -55 -10 -55 -5 0 -10 25
-10 55 0 30 -4 55 -10 55 -5 0 -10 7 -10 15 0 10 10 15 30 15 20 0 30 -5 30
-15z m70 0 c7 -9 13 -33 13 -55 0 -22 -6 -46 -13 -55 -44 -53 -96 44 -54 103
18 26 36 28 54 7z m107 3 c5 -7 9 -38 9 -68 -1 -49 -4 -55 -23 -58 -22 -3 -49
29 -36 42 3 3 6 23 5 43 -2 46 24 69 45 41z m77 -30 c11 -42 1 -87 -20 -95
-24 -9 -35 9 -36 60 -1 78 39 103 56 35z m51 -4 c0 -28 -4 -39 -15 -39 -16 0
-26 45 -16 72 11 28 31 7 31 -33z m29 -28 c-15 -36 -31 -66 -36 -66 -7 0 21
81 43 122 23 43 18 6 -7 -56z m266 53 c0 -5 -7 -9 -15 -9 -20 0 -19 -24 1 -40
23 -20 14 -64 -13 -68 -16 -2 -23 2 -23 12 0 9 3 15 8 15 21 -4 23 3 7 21 -20
23 -23 69 -5 80 15 9 40 2 40 -11z m58 3 c2 -7 -3 -12 -12 -12 -20 0 -20 -10
0 -38 21 -31 15 -66 -13 -70 -24 -4 -34 23 -12 30 8 3 7 14 -5 35 -20 39 -20
38 0 58 18 17 35 16 42 -3z m72 -7 c0 -14 5 -25 10 -25 6 0 10 12 10 26 0 16
5 24 13 22 7 -3 13 -29 15 -71 2 -55 0 -67 -13 -67 -10 0 -15 10 -15 30 0 17
-4 30 -10 30 -5 0 -10 -13 -10 -30 0 -20 -5 -30 -15 -30 -12 0 -15 14 -15 63
0 35 3 67 7 70 13 14 23 6 23 -18z m117 -46 c12 -69 9 -84 -11 -56 -16 21 -26
22 -26 2 0 -8 -5 -15 -11 -15 -8 0 -9 18 -5 62 4 34 10 66 13 71 13 21 29 -5
40 -64z m43 1 c0 -38 -4 -70 -9 -70 -10 0 -25 116 -16 130 16 26 25 4 25 -60z
m74 48 c8 -13 8 -23 0 -35 -6 -10 -8 -27 -3 -38 17 -45 1 -64 -19 -22 l-11 22
0 -22 c-1 -13 -5 -23 -11 -23 -6 0 -10 30 -10 71 0 66 1 70 21 67 12 -2 27
-11 33 -20z m66 7 c0 -8 -7 -15 -15 -15 -8 0 -15 -4 -15 -10 0 -5 7 -10 15
-10 8 0 15 -7 15 -15 0 -8 -6 -15 -14 -15 -9 0 -14 -9 -13 -24 1 -14 -2 -26
-8 -28 -6 -2 -11 25 -13 65 -3 66 -3 67 23 67 16 0 25 -6 25 -15z m-570 -45
c0 -27 5 -50 10 -50 6 0 10 -7 10 -15 0 -9 -9 -15 -25 -15 -24 0 -25 2 -25 65
0 51 3 65 15 65 11 0 15 -12 15 -50z m80 40 c0 -5 -7 -10 -15 -10 -20 0 -19
-26 2 -34 14 -6 14 -8 -3 -21 -18 -14 -18 -16 -1 -26 25 -15 21 -29 -8 -29
-24 0 -25 2 -25 65 0 63 1 65 25 65 14 0 25 -4 25 -10z m-161 -62 c11 -31 2
-60 -18 -56 -27 5 -28 78 -1 78 6 0 14 -10 19 -22z m851 -174 c0 -35 -4 -64
-9 -64 -16 0 -29 118 -15 133 16 15 24 -9 24 -69z m69 67 c10 -6 12 -20 8 -46
-3 -20 -2 -47 3 -61 12 -32 -12 -33 -28 -1 l-11 22 0 -22 c-1 -13 -5 -23 -11
-23 -6 0 -10 30 -10 70 0 60 2 70 18 70 9 0 23 -4 31 -9z m-1549 -16 c0 -8 -3
-14 -7 -14 -22 4 -22 -4 -3 -31 13 -18 19 -38 15 -49 -10 -34 -55 -38 -55 -6
0 9 6 12 15 9 19 -8 19 7 0 32 -15 20 -20 56 -8 67 12 13 43 7 43 -8z m40 -55
c0 -40 -4 -70 -10 -70 -6 0 -10 30 -10 70 0 40 4 70 10 70 6 0 10 -30 10 -70z
m50 15 c0 -30 5 -55 10 -55 6 0 10 -7 10 -15 0 -9 -9 -15 -25 -15 -24 0 -25 2
-25 70 0 56 3 70 15 70 12 0 15 -13 15 -55z m51 28 l1 -28 11 28 c13 33 44 36
56 5 l8 -22 12 22 c19 35 32 16 15 -23 -16 -39 -20 -100 -4 -75 15 25 24 2 10
-27 -11 -23 -14 -25 -17 -10 -3 9 -11 17 -19 17 -10 0 -14 11 -13 38 1 20 -3
48 -9 62 l-10 25 -7 -27 c-4 -15 -2 -42 4 -59 14 -40 14 -39 -3 -39 -8 0 -19
12 -24 28 l-10 27 -1 -27 c-1 -16 -5 -28 -11 -28 -6 0 -10 30 -10 70 0 40 4
70 10 70 6 0 10 -12 11 -27z m249 0 c0 -8 -4 -12 -9 -8 -17 10 -21 -11 -6 -31
8 -10 15 -29 15 -40 0 -25 -24 -49 -40 -39 -11 7 -14 36 -2 34 20 -3 22 3 8
23 -19 26 -21 59 -5 75 14 14 39 6 39 -14z m614 -26 c12 -63 -25 -114 -59 -81
-20 21 -20 98 1 118 22 23 50 5 58 -37z m85 19 c20 -42 5 -100 -28 -104 -31
-5 -41 12 -41 69 0 72 41 93 69 35z m67 22 c4 -6 2 -14 -4 -16 -7 -2 -12 -25
-12 -58 0 -30 -4 -54 -10 -54 -5 0 -11 6 -11 13 -4 40 -7 57 -13 90 -6 35 -5
37 18 37 14 0 28 -5 32 -12z m34 -13 c0 -14 5 -25 10 -25 6 0 10 11 10 25 0
16 6 25 15 25 12 0 15 -15 15 -71 0 -52 -3 -70 -12 -67 -7 3 -14 17 -16 31 -4
37 -22 34 -22 -3 0 -16 -4 -30 -10 -30 -6 0 -10 30 -10 70 0 40 4 70 10 70 6
0 10 -11 10 -25z m122 3 c5 -32 28 -35 28 -4 0 14 5 26 10 26 6 0 10 -30 10
-70 0 -40 -4 -70 -10 -70 -5 0 -10 14 -10 30 0 37 -18 40 -22 3 -2 -14 -9 -28
-15 -31 -10 -3 -13 15 -13 67 0 39 4 71 9 71 5 0 11 -10 13 -22z m120 -23 c4
-22 10 -50 13 -62 6 -25 -19 -33 -29 -10 -5 10 -7 10 -12 0 -9 -20 -36 -16
-31 5 3 9 8 39 12 65 8 61 35 62 47 2z m-1002 10 c0 -14 5 -25 10 -25 6 0 10
11 10 25 0 16 6 25 16 25 13 0 15 -11 12 -67 -2 -42 -8 -68 -15 -71 -9 -2 -13
7 -13 27 0 37 -17 42 -22 6 -6 -52 -23 -28 -26 38 -2 55 0 67 13 67 9 0 15 -9
15 -25z m88 -42 c-2 -42 -8 -68 -15 -71 -10 -3 -13 15 -13 67 0 57 3 71 15 71
13 0 15 -12 13 -67z m51 35 l9 -33 1 33 c1 27 5 32 26 32 17 0 29 -7 35 -22
l9 -23 0 23 c1 13 7 22 16 22 18 0 18 -1 4 -37 -6 -15 -12 -41 -15 -56 -3 -25
-1 -27 12 -17 8 7 17 11 20 8 8 -9 -15 -58 -27 -58 -6 0 -9 7 -6 14 4 10 1 13
-9 9 -11 -4 -14 4 -14 33 -1 22 -7 53 -14 69 -13 29 -13 27 -12 -34 1 -44 -3
-66 -12 -69 -7 -2 -15 9 -18 27 -9 43 -25 50 -22 10 2 -18 -2 -34 -9 -36 -10
-4 -13 14 -13 66 0 56 3 71 15 71 8 0 19 -15 24 -32z m241 16 c0 -8 -4 -13 -9
-9 -17 10 -21 -11 -6 -31 29 -38 8 -100 -26 -78 -15 9 -10 34 6 28 19 -8 19 7
0 32 -15 20 -20 56 -8 67 12 13 43 7 43 -9z m53 -6 l4 -23 8 23 c4 12 14 22
21 22 13 0 16 -17 18 -105 1 -35 -18 -35 -25 1 l-7 29 -1 -33 c-1 -35 -21 -36
-21 -1 0 10 -4 19 -10 19 -5 0 -10 -11 -10 -25 0 -14 -4 -25 -10 -25 -11 0
-13 46 -4 103 7 41 30 50 37 15z"/>
<path d="M5645 8272 c-3 -3 -5 -27 -5 -54 0 -46 1 -48 29 -48 51 0 77 45 49
82 -13 16 -63 30 -73 20z m53 -49 c2 -11 -4 -23 -12 -26 -12 -5 -16 1 -16 24
0 35 23 36 28 2z"/>
<path d="M5803 8269 c-50 -19 -29 -104 24 -97 37 4 42 28 6 25 -24 -2 -28 2
-28 23 0 20 6 26 30 30 28 5 29 7 10 17 -12 6 -29 7 -42 2z"/>
<path d="M5158 8223 c-18 -49 -16 -65 4 -45 16 16 45 15 51 0 2 -7 8 -9 13 -5
11 11 -20 91 -37 95 -9 1 -20 -15 -31 -45z m42 -4 c0 -5 -4 -9 -10 -9 -5 0
-10 7 -10 16 0 8 5 12 10 9 6 -3 10 -10 10 -16z"/>
<path d="M5234 8248 c9 -12 16 -35 16 -50 0 -18 5 -28 15 -28 10 0 15 10 15
28 0 16 7 37 15 48 13 18 14 17 15 -16 0 -42 15 -60 47 -60 27 0 47 41 38 77
-8 35 -23 27 -27 -14 -4 -52 -28 -56 -28 -4 0 39 -2 41 -30 41 -16 0 -33 -7
-38 -16 -8 -15 -10 -15 -15 0 -4 9 -14 16 -22 16 -15 0 -15 -2 -1 -22z"/>
<path d="M5740 8220 c0 -27 5 -50 10 -50 6 0 10 23 10 50 0 28 -4 50 -10 50
-5 0 -10 -22 -10 -50z"/>
<path d="M5470 8211 c0 -6 4 -13 10 -16 6 -3 7 1 4 9 -7 18 -14 21 -14 7z"/>
<path d="M4988 8134 c-12 -11 -10 -106 2 -99 6 3 10 15 10 26 0 29 34 20 38
-9 2 -12 8 -20 13 -17 12 8 12 105 -1 105 -5 0 -10 -9 -10 -20 0 -28 -38 -27
-42 1 -2 11 -6 17 -10 13z"/>
<path d="M5106 8132 c-12 -11 -36 -73 -36 -90 0 -13 2 -13 18 1 23 21 38 21
46 1 3 -8 10 -13 15 -9 6 3 3 24 -6 50 -16 47 -25 59 -37 47z m14 -48 c0 -8
-5 -12 -10 -9 -6 4 -8 11 -5 16 9 14 15 11 15 -7z"/>
<path d="M5170 8084 c0 -34 4 -53 10 -49 6 3 10 28 10 56 0 27 -4 49 -10 49
-5 0 -10 -25 -10 -56z"/>
<path d="M5210 8085 c0 -30 5 -55 10 -55 6 0 10 10 11 23 l0 22 11 -22 c6 -13
15 -23 20 -23 12 0 10 28 -3 36 -8 4 -8 9 0 17 16 16 13 44 -5 51 -38 14 -44
7 -44 -49z m35 26 c3 -5 1 -12 -5 -16 -5 -3 -10 1 -10 9 0 18 6 21 15 7z"/>
<path d="M5284 8126 c-8 -22 0 -91 11 -91 6 0 11 10 13 23 2 12 10 22 18 22
20 0 17 18 -3 23 -17 4 -17 5 0 6 9 0 17 8 17 16 0 19 -49 20 -56 1z"/>
<path d="M5757 8133 c-10 -10 -8 -76 3 -93 7 -12 10 -11 16 5 4 10 16 27 26
37 14 14 16 23 8 38 -10 19 -40 27 -53 13z m30 -35 c-3 -8 -6 -5 -6 6 -1 11 2
17 5 13 3 -3 4 -12 1 -19z"/>
<path d="M5828 8133 c-2 -5 -3 -28 -3 -53 0 -42 2 -45 28 -48 19 -2 27 1 27
12 0 9 -7 16 -15 16 -8 0 -15 5 -15 10 0 6 7 10 15 10 21 0 19 18 -2 23 -17 4
-17 5 0 6 27 2 21 31 -7 31 -14 0 -26 -3 -28 -7z"/>
<path d="M5900 8085 c0 -30 5 -55 10 -55 6 0 10 10 10 22 l0 22 16 -22 c8 -12
20 -20 25 -16 6 4 6 11 -1 19 -7 8 -9 23 -5 35 8 25 -10 50 -36 50 -16 0 -19
-8 -19 -55z m35 26 c3 -5 1 -12 -5 -16 -5 -3 -10 1 -10 9 0 18 6 21 15 7z"/>
<path d="M5970 8131 c0 -6 5 -13 10 -16 6 -3 10 -21 10 -40 0 -19 5 -37 10
-40 6 -4 10 10 10 35 0 27 5 43 15 46 8 4 12 10 9 15 -7 12 -64 12 -64 0z"/>
<path d="M6054 8124 c3 -9 6 -20 6 -25 0 -19 19 -8 23 14 l4 22 2 -22 c1 -18
7 -23 30 -23 25 0 28 3 23 26 -4 22 -6 24 -14 10 -8 -15 -11 -15 -24 -1 -21
21 -58 20 -50 -1z"/>
<path d="M5482 8100 c0 -19 2 -27 5 -17 2 9 2 25 0 35 -3 9 -5 1 -5 -18z"/>
<path d="M6105 7580 c-8 -13 4 -32 16 -25 12 8 12 35 0 35 -6 0 -13 -4 -16
-10z"/>
<path d="M5003 7477 c-15 -15 -20 -30 -16 -49 3 -16 9 -28 13 -28 8 0 33 90
27 96 -2 2 -13 -6 -24 -19z"/>
<path d="M5030 7449 c-7 -30 -17 -60 -23 -66 -7 -10 -4 -13 12 -13 12 0 20 -4
16 -9 -3 -5 -1 -12 5 -16 5 -3 10 -5 10 -3 0 2 9 28 20 58 l20 55 -24 23 -24
24 -12 -53z"/>
<path d="M4945 7460 c-3 -5 -1 -10 4 -10 6 0 11 5 11 10 0 6 -2 10 -4 10 -3 0
-8 -4 -11 -10z"/>
<path d="M4945 7429 c-11 -16 4 -59 20 -59 10 0 15 11 15 35 0 35 -20 49 -35
24z"/>
<path d="M4904 7406 c-13 -14 0 -46 18 -46 6 0 5 6 -3 16 -10 13 -10 17 0 24
7 4 9 10 5 13 -5 3 -14 -1 -20 -7z"/>
<path d="M5140 7404 c0 -14 3 -14 15 -4 8 7 15 14 15 16 0 2 -7 4 -15 4 -8 0
-15 -7 -15 -16z"/>
<path d="M5150 7375 c-7 -9 -8 -15 -2 -15 5 0 12 7 16 15 3 8 4 15 2 15 -2 0
-9 -7 -16 -15z"/>
<path d="M6327 7213 c-12 -12 -7 -89 7 -108 12 -16 16 -17 30 -6 18 15 21 57
6 95 -9 25 -29 34 -43 19z"/>
<path d="M6300 6915 c-10 -12 -8 -17 13 -26 31 -14 97 -4 97 15 0 27 -90 36
-110 11z"/>
<path d="M4916 7204 c-3 -9 -6 -31 -6 -50 0 -31 3 -34 30 -34 27 0 30 3 30 31
0 55 -38 94 -54 53z"/>
<path d="M5070 6829 c0 -5 5 -7 10 -4 6 3 10 8 10 11 0 2 -4 4 -10 4 -5 0 -10
-5 -10 -11z"/>
<path d="M5330 6826 c0 -14 5 -26 10 -26 6 0 10 9 10 19 0 11 -4 23 -10 26 -6
4 -10 -5 -10 -19z"/>
<path d="M5910 6820 c0 -13 5 -20 13 -17 6 2 12 10 12 17 0 7 -6 15 -12 18 -8
2 -13 -5 -13 -18z"/>
<path d="M4792 6305 c-18 -36 -32 -70 -32 -75 0 -16 30 -12 36 5 4 9 19 15 35
15 17 0 32 -6 35 -15 4 -8 14 -15 24 -15 17 0 16 7 -12 75 -17 41 -36 75 -42
75 -6 0 -26 -29 -44 -65z m46 -24 c-15 -5 -19 4 -11 24 6 18 7 18 13 -1 4 -10
3 -21 -2 -23z"/>
<path d="M4926 6354 c-3 -9 -6 -43 -6 -76 0 -51 2 -59 18 -56 13 2 17 13 17
46 0 23 2 42 5 42 3 0 23 -20 43 -45 56 -66 67 -61 67 30 0 60 -3 75 -15 75
-11 0 -15 -12 -15 -45 0 -25 -3 -45 -6 -45 -4 0 -24 20 -46 45 -43 49 -53 53
-62 29z"/>
<path d="M5080 6359 c0 -6 9 -13 21 -16 18 -5 20 -12 18 -62 -2 -46 0 -57 14
-59 14 -3 17 6 17 57 0 48 3 61 15 61 8 0 15 7 15 15 0 11 -12 15 -50 15 -30
0 -50 -4 -50 -11z"/>
<path d="M5200 6295 c0 -60 3 -75 15 -75 12 0 15 15 15 75 0 60 -3 75 -15 75
-12 0 -15 -15 -15 -75z"/>
<path d="M5340 6295 c0 -60 3 -75 15 -75 10 0 15 10 15 30 0 27 3 30 30 30 27
0 30 -3 30 -31 0 -24 4 -30 18 -27 14 3 17 15 18 76 0 63 -2 72 -18 72 -12 0
-18 -7 -18 -24 0 -17 -7 -25 -25 -28 -30 -6 -35 -2 -35 29 0 14 -6 23 -15 23
-12 0 -15 -15 -15 -75z"/>
<path d="M5640 6295 c0 -68 2 -75 20 -75 18 0 20 7 20 75 0 68 -2 75 -20 75
-18 0 -20 -7 -20 -75z"/>
<path d="M5700 6295 c0 -68 2 -75 20 -75 15 0 20 7 20 28 l1 27 17 -27 c10
-18 25 -28 40 -28 l23 0 -22 29 c-20 27 -20 30 -5 53 14 22 14 26 0 46 -11 16
-25 22 -55 22 l-39 0 0 -75z m68 28 c-5 -25 -28 -28 -28 -4 0 12 6 21 16 21 9
0 14 -7 12 -17z"/>
<path d="M5830 6295 c0 -68 2 -75 20 -75 16 0 20 7 20 30 0 23 4 30 20 30 11
0 20 7 20 15 0 8 -9 15 -20 15 -27 0 -26 28 2 32 12 2 23 9 26 16 2 8 -10 12
-42 12 l-46 0 0 -75z"/>
<path d="M5946 6316 c-37 -83 -40 -96 -21 -96 8 0 18 7 21 15 8 20 61 19 72
-1 5 -9 16 -14 24 -13 13 3 10 17 -16 76 -17 40 -37 73 -44 73 -7 0 -23 -24
-36 -54z m47 -16 c4 -15 0 -20 -14 -20 -17 0 -18 3 -9 20 6 11 12 20 14 20 2
0 6 -9 9 -20z"/>
<path d="M6070 6295 l0 -75 40 0 c29 0 40 4 40 15 0 9 -9 15 -24 15 -13 0 -24
6 -23 13 2 67 -4 107 -18 107 -12 0 -15 -15 -15 -75z"/>
<path d="M6170 6295 l0 -75 40 0 c29 0 40 4 40 15 0 9 -9 15 -25 15 -24 0 -25
3 -25 60 0 47 -3 60 -15 60 -12 0 -15 -15 -15 -75z"/>
<path d="M6248 6363 c6 -2 12 -16 12 -29 0 -13 5 -24 10 -24 6 0 10 12 10 26
0 14 4 23 10 19 6 -3 10 -16 10 -28 0 -16 3 -18 9 -8 7 11 9 11 14 0 5 -12 7
-12 15 0 8 11 10 11 15 0 3 -8 6 1 6 19 1 32 -12 43 -23 20 -5 -10 -7 -10 -12
0 -3 7 -23 12 -47 11 -23 0 -36 -3 -29 -6z"/>
<path d="M5250 6276 c0 -12 10 -16 36 -16 45 0 42 24 -4 28 -24 2 -32 -1 -32
-12z"/>
<path d="M5730 6157 c-52 -26 -49 -104 5 -129 78 -35 131 87 55 127 -35 18
-29 18 -60 2z m70 -36 c16 -31 12 -49 -14 -66 -44 -29 -91 18 -66 65 14 27 65
27 80 1z"/>
<path d="M5019 6144 c-12 -14 -9 -20 19 -44 17 -14 32 -31 32 -38 0 -20 -21
-24 -41 -6 -17 15 -19 15 -19 1 0 -27 33 -38 58 -21 31 22 27 51 -9 69 -33 18
-34 41 0 38 11 -2 21 2 21 7 0 16 -46 11 -61 -6z"/>
<path d="M5130 6095 c0 -37 4 -65 10 -65 6 0 10 14 10 30 0 27 3 30 30 30 27
0 30 -3 30 -30 0 -16 5 -30 10 -30 6 0 10 28 10 65 0 37 -4 65 -10 65 -5 0
-10 -11 -10 -25 0 -21 -5 -25 -30 -25 -25 0 -30 4 -30 25 0 14 -4 25 -10 25
-6 0 -10 -28 -10 -65z"/>
<path d="M5288 6095 c-15 -36 -22 -65 -17 -65 5 0 12 7 15 15 10 24 61 19 75
-7 7 -14 14 -18 16 -11 5 13 -46 133 -56 133 -3 0 -18 -29 -33 -65z m40 -14
c-15 -5 -21 7 -13 26 7 17 8 17 15 -2 4 -11 3 -22 -2 -24z"/>
<path d="M5880 6140 c-42 -42 -11 -113 50 -113 61 0 91 67 50 111 -26 28 -73
29 -100 2z m78 -6 c28 -19 28 -55 1 -80 -19 -17 -23 -17 -47 -3 -36 20 -41 61
-10 83 28 20 28 20 56 0z"/>
<path d="M5504 6036 c-6 -12 -7 -31 -3 -42 6 -15 8 -16 8 -2 1 9 5 18 9 20 5
2 6 13 3 25 l-6 22 -11 -23z"/>
<path d="M5160 5545 c0 -5 5 -17 10 -25 5 -8 10 -10 10 -5 0 6 -5 17 -10 25
-5 8 -10 11 -10 5z"/>
<path d="M5150 5496 c0 -9 5 -16 10 -16 6 0 10 4 10 9 0 6 -4 13 -10 16 -5 3
-10 -1 -10 -9z"/>
<path d="M5175 5370 c3 -5 8 -10 11 -10 2 0 4 5 4 10 0 6 -5 10 -11 10 -5 0
-7 -4 -4 -10z"/>
<path d="M5005 5100 c3 -5 11 -10 16 -10 6 0 7 5 4 10 -3 6 -11 10 -16 10 -6
0 -7 -4 -4 -10z"/>
<path d="M5170 5029 c0 -5 5 -7 10 -4 6 3 10 8 10 11 0 2 -4 4 -10 4 -5 0 -10
-5 -10 -11z"/>
<path d="M6048 4824 c-27 -14 -68 -79 -68 -107 0 -24 62 -7 92 24 32 35 42 36
62 8 20 -29 50 -21 54 15 7 63 -73 97 -140 60z"/>
<path d="M6225 4718 c-65 -10 -98 -27 -40 -20 21 3 35 0 35 -7 0 -6 7 -11 15
-11 9 0 15 -9 14 -22 -1 -19 -2 -20 -6 -5 -4 14 -11 17 -26 13 -12 -3 -30 -6
-40 -6 -17 0 -18 -6 -12 -57 4 -32 10 -61 14 -64 3 -4 23 -4 44 -2 29 4 37 10
37 25 0 17 -5 19 -25 14 -14 -4 -25 -2 -25 4 0 5 9 10 20 10 32 0 24 30 -7 31
-26 2 -26 2 -4 6 32 6 42 -6 46 -59 3 -44 3 -45 -23 -40 -26 4 -26 4 -7 -12
19 -15 19 -15 -10 -16 -33 -1 -81 -18 -55 -19 23 -1 194 30 200 36 3 3 -10 3
-29 -1 -20 -3 -39 -1 -47 5 -16 13 -19 33 -4 24 13 -8 13 41 -1 67 -16 29 8
106 36 111 42 9 -42 4 -100 -5z"/>
<path d="M6062 4634 c-42 -29 -17 -114 34 -114 56 0 84 71 42 110 -26 24 -46
25 -76 4z m56 -58 c-2 -12 -10 -21 -18 -21 -16 0 -25 28 -16 52 9 23 38 -4 34
-31z"/>
<path d="M5957 4623 c-3 -5 0 -34 5 -66 8 -45 14 -57 25 -53 8 3 26 6 39 6 15
0 24 6 24 15 0 9 -9 15 -24 15 -22 0 -26 6 -32 45 -6 41 -24 59 -37 38z"/>
<path d="M5878 4613 c-10 -2 -18 -13 -18 -22 0 -10 -3 -39 -6 -65 -6 -40 -5
-46 10 -40 9 3 16 12 16 20 0 17 37 19 42 3 2 -6 11 -10 21 -8 14 4 13 10 -10
62 -14 31 -29 56 -32 56 -3 -1 -14 -3 -23 -6z m19 -65 c-3 -8 -6 -5 -6 6 -1
11 2 17 5 13 3 -3 4 -12 1 -19z"/>
<path d="M6197 4453 c-91 -18 -97 -27 -9 -15 34 5 59 5 57 1 -3 -4 11 -9 30
-11 30 -3 34 -1 30 13 -4 11 0 19 12 22 43 11 -49 3 -120 -10z"/>
<path d="M6469 4443 c-15 -4 -29 -58 -29 -109 0 -19 26 -18 34 1 6 17 36 21
36 5 0 -5 9 -10 20 -10 25 0 25 1 -5 60 -27 53 -32 58 -56 53z m21 -58 c0 -8
-2 -15 -4 -15 -2 0 -6 7 -10 15 -3 8 -1 15 4 15 6 0 10 -7 10 -15z"/>
<path d="M6330 4423 c-14 -3 -14 -12 -6 -63 8 -49 13 -60 29 -60 15 0 18 5 15
25 -6 30 8 34 17 5 3 -11 15 -20 26 -20 23 0 24 9 5 36 -9 12 -11 26 -6 34 21
35 -23 59 -80 43z m50 -33 c0 -5 -4 -10 -10 -10 -5 0 -10 5 -10 10 0 6 5 10
10 10 6 0 10 -4 10 -10z"/>
<path d="M6241 4413 c-21 -4 -23 -9 -17 -41 3 -21 6 -47 6 -60 0 -14 8 -26 23
-31 20 -8 20 -9 -12 -16 -23 -5 -30 -10 -20 -15 9 -6 4 -11 -17 -15 -44 -10
-51 -13 -29 -14 29 -1 187 27 194 35 3 4 -5 4 -19 1 -14 -4 -37 -3 -50 0 l-25
7 23 5 c13 3 23 9 23 14 -1 4 -1 16 -1 28 0 18 -4 20 -25 15 -14 -4 -25 -2
-25 4 0 5 9 10 20 10 30 0 24 28 -7 33 l-28 4 29 2 c21 1 27 5 22 17 -3 9 -6
18 -6 20 0 5 -24 3 -59 -3z m72 -130 c-7 -2 -19 -2 -25 0 -7 3 -2 5 12 5 14 0
19 -2 13 -5z"/>
<path d="M5890 4401 c0 -5 7 -14 15 -21 13 -10 15 -9 15 9 0 12 -6 21 -15 21
-8 0 -15 -4 -15 -9z"/>
<path d="M6188 4402 c-14 -3 -18 -14 -19 -45 l0 -42 -16 38 c-10 24 -22 37
-34 37 -24 0 -24 1 7 -65 21 -45 31 -55 48 -53 16 2 22 13 28 48 11 62 7 86
-14 82z"/>
<path d="M6210 4295 c0 -14 4 -25 9 -25 4 0 6 11 3 25 -2 14 -6 25 -8 25 -2 0
-4 -11 -4 -25z"/>
<path d="M5506 4175 c-17 -13 -18 -15 -2 -21 20 -8 29 -1 24 20 -3 13 -6 13
-22 1z"/>
<path d="M6138 4184 c-3 -3 -32 -7 -64 -10 -32 -2 -60 -7 -63 -9 -10 -11 45
-56 81 -65 60 -17 108 15 108 71 0 14 -7 19 -28 19 -16 0 -31 -2 -34 -6z"/>
<path d="M6016 3903 c4 -15 11 -36 16 -45 4 -10 6 -29 2 -43 -5 -21 -3 -25 14
-25 23 0 52 35 52 62 0 22 -39 65 -68 73 -21 6 -22 4 -16 -22z"/>
<path d="M5795 3601 c3 -31 7 -96 11 -146 3 -49 7 -101 8 -115 2 -14 4 -37 4
-52 2 -29 16 -35 41 -19 13 8 12 18 -2 70 -9 33 -17 64 -17 68 0 19 29 -37 41
-77 16 -58 21 -62 52 -55 37 10 45 55 18 94 -12 16 -30 48 -40 71 -17 38 -20
40 -26 21 -11 -36 -30 -18 -33 32 -3 50 2 57 25 30 14 -17 14 -17 8 2 -17 47
-17 65 -1 65 30 0 15 15 -39 41 l-54 25 4 -55z"/>
<path d="M5581 3564 c0 -11 3 -14 6 -6 3 7 2 16 -1 19 -3 4 -6 -2 -5 -13z"/>
<path d="M5985 3300 c-3 -5 -1 -10 4 -10 6 0 11 5 11 10 0 6 -2 10 -4 10 -3 0
-8 -4 -11 -10z"/>
<path d="M6629 3290 c-14 -4 -65 -11 -112 -15 -48 -4 -87 -10 -87 -14 0 -4
-20 -18 -44 -31 -77 -39 -253 -21 -327 33 -8 7 -2 0 15 -15 20 -18 25 -28 16
-29 -8 0 8 -9 35 -19 38 -14 67 -17 125 -13 55 4 88 1 123 -11 39 -13 60 -14
110 -6 34 5 63 13 64 17 2 5 26 8 54 7 36 0 53 4 62 16 7 9 19 19 27 22 10 4
5 10 -17 18 -34 12 -44 30 -18 30 8 0 15 5 15 10 0 11 -5 11 -41 0z"/>
<path d="M5730 3196 c0 -3 11 -34 25 -68 14 -34 25 -71 26 -82 0 -12 3 -15 6
-8 2 6 9 10 13 7 5 -3 -7 29 -26 72 -35 77 -44 93 -44 79z"/>
<path d="M5980 3000 c-6 -23 -14 -48 -17 -57 -4 -10 -2 -14 4 -10 12 7 37 97
29 104 -3 3 -10 -14 -16 -37z"/>
<path d="M6750 3010 c0 -12 -47 -32 -81 -35 -99 -8 -226 -24 -244 -31 -11 -4
-33 -18 -50 -31 -43 -34 -47 -36 -80 -59 -16 -12 -47 -27 -67 -33 -92 -30 -3
-42 112 -15 36 8 101 20 145 27 45 7 105 25 135 40 30 15 64 27 77 27 35 0 90
26 102 48 12 23 6 32 -23 32 -20 1 -20 2 -3 14 22 17 22 25 -3 23 -11 -1 -20
-4 -20 -7z"/>
<path d="M5850 3001 c0 -5 16 -23 35 -40 20 -17 30 -31 23 -31 -8 0 -6 -5 5
-11 9 -5 17 -17 17 -24 0 -8 5 -15 10 -15 6 0 10 -4 10 -10 0 -5 -8 -10 -17
-10 -12 0 -6 -7 16 -21 27 -16 31 -23 20 -30 -9 -5 -10 -9 -2 -9 16 0 26 17
13 25 -5 3 -10 13 -10 22 0 28 -72 141 -97 152 -12 6 -23 7 -23 2z"/>
<path d="M5951 2994 c0 -11 3 -14 6 -6 3 7 2 16 -1 19 -3 4 -6 -2 -5 -13z"/>
<path d="M6004 2973 c-8 -21 -20 -47 -26 -58 -10 -18 -9 -18 5 -7 15 13 51
102 41 102 -3 0 -12 -17 -20 -37z"/>
<path d="M6015 2890 c-10 -11 -13 -20 -8 -20 13 0 38 29 31 35 -3 3 -13 -4
-23 -15z"/>
<path d="M6063 2858 c-47 -33 -40 -43 7 -12 22 15 40 28 40 30 0 9 -18 2 -47
-18z"/>
<path d="M5990 2759 c0 -6 -7 -9 -15 -5 -8 3 -15 2 -15 -3 0 -5 9 -11 20 -14
15 -4 20 0 20 14 0 10 -2 19 -5 19 -3 0 -5 -5 -5 -11z"/>
<path d="M6156 2761 c-3 -5 -22 -16 -42 -26 -19 -9 -33 -19 -31 -22 7 -6 61
22 76 41 8 9 11 16 8 16 -3 0 -8 -4 -11 -9z"/>
<path d="M5996 2696 c21 -15 30 -14 19 3 -3 6 -14 11 -23 11 -13 0 -13 -2 4
-14z"/>
<path d="M6040 2609 c0 -6 -7 -9 -15 -5 -20 7 -38 -29 -31 -60 10 -38 48 -51
80 -28 28 21 35 64 10 64 -8 0 -12 5 -8 11 3 6 0 15 -7 20 -19 12 -29 11 -29
-2z m19 -25 c-6 -7 -15 -11 -21 -8 -5 3 -4 12 3 20 6 7 15 11 21 8 5 -3 4 -12
-3 -20z m21 -34 c0 -5 -4 -10 -9 -10 -6 0 -13 5 -16 10 -3 6 1 10 9 10 9 0 16
-4 16 -10z"/>
<path d="M6375 2439 c-22 -4 -59 -8 -82 -8 -24 -1 -43 -5 -43 -11 0 -11 51
-13 128 -4 34 5 52 11 52 20 0 8 -3 13 -7 13 -5 -1 -26 -5 -48 -10z"/>
<path d="M5523 2403 c25 -4 40 -23 17 -23 -5 0 -10 -7 -10 -15 0 -8 -4 -15 -9
-15 -4 0 -6 -11 -3 -25 4 -25 6 -25 96 -25 51 0 85 4 78 8 -8 6 -12 25 -9 55
l3 47 -95 -1 c-53 -1 -84 -4 -68 -6z"/>
<path d="M5220 4497 c-19 -7 -44 -18 -55 -24 -18 -11 -16 -13 25 -32 51 -23
73 -26 101 -11 26 14 24 45 -3 64 -26 19 -23 19 -68 3z"/>
<path d="M4925 4010 c3 -5 8 -10 11 -10 2 0 4 5 4 10 0 6 -5 10 -11 10 -5 0
-7 -4 -4 -10z"/>
<path d="M4810 3995 c0 -25 -34 -36 -58 -19 -21 14 -42 12 -42 -5 0 -4 19 -14
41 -21 41 -14 42 -14 65 15 28 35 30 45 9 45 -8 0 -15 -7 -15 -15z"/>
<path d="M4886 3964 c-31 -43 -99 -67 -168 -61 l-59 5 48 -34 c26 -19 51 -34
55 -34 15 0 7 10 -19 23 l-27 15 45 7 c24 4 63 18 87 31 l43 23 -7 -22 c-12
-39 4 -14 19 31 17 48 11 53 -17 16z"/>
<path d="M4805 3844 l-30 -14 35 5 c19 3 39 10 44 15 15 15 -14 12 -49 -6z"/>
<path d="M4730 3430 c0 -5 5 -10 10 -10 6 0 10 5 10 10 0 6 -4 10 -10 10 -5 0
-10 -4 -10 -10z"/>
<path d="M4375 2859 c-4 -6 -5 -12 -2 -15 2 -3 7 2 10 11 7 17 1 20 -8 4z"/>
<path d="M4565 2736 c-14 -15 -25 -34 -23 -44 5 -25 44 -27 58 -3 12 23 35 28
45 10 8 -12 -32 -73 -80 -119 -19 -19 -35 -38 -35 -42 0 -5 37 -8 83 -6 74 3
82 5 82 23 0 15 -8 21 -33 23 l-33 3 35 40 c20 22 36 50 36 63 0 35 -30 66
-72 72 -31 5 -41 2 -63 -20z"/>
<path d="M4955 2711 c26 -48 30 -51 39 -32 6 15 4 28 -8 47 -10 14 -20 23 -23
20 -4 -3 -13 0 -21 7 -9 6 -3 -12 13 -42z"/>
<path d="M4732 2725 c-10 -22 -9 -25 8 -25 18 0 20 -7 20 -85 0 -83 0 -85 24
-85 23 0 25 5 31 63 4 34 5 82 3 107 -3 44 -4 45 -39 48 -30 3 -37 -1 -47 -23z"/>
<path d="M4305 2680 c4 -6 11 -8 16 -5 14 9 11 15 -7 15 -8 0 -12 -5 -9 -10z"/>
<path d="M4317 2652 c-13 -14 -15 -22 -7 -27 16 -10 33 9 28 30 -3 16 -5 15
-21 -3z"/>
<path d="M4279 2603 c-13 -16 -12 -17 4 -4 16 13 21 21 13 21 -2 0 -10 -8 -17
-17z"/>
<path d="M4430 2450 c0 -47 3 -60 15 -60 9 0 15 9 15 25 0 18 5 25 20 25 15 0
20 -7 20 -25 0 -18 5 -25 20 -25 18 0 20 7 20 60 0 54 -2 60 -21 60 -14 0 -19
-5 -16 -13 8 -20 -9 -41 -27 -34 -9 4 -16 16 -16 27 0 11 -7 20 -15 20 -12 0
-15 -13 -15 -60z"/>
<path d="M4560 2450 c0 -41 4 -60 13 -61 6 0 22 -2 35 -5 17 -3 22 1 22 16 0
12 -5 17 -14 14 -8 -3 -17 -1 -21 5 -3 7 2 11 14 11 12 0 21 7 21 15 0 8 -9
15 -20 15 -11 0 -20 5 -20 10 0 6 9 10 20 10 11 0 20 7 20 15 0 10 -11 15 -35
15 l-35 0 0 -60z"/>
<path d="M4650 2445 c0 -51 3 -65 15 -65 9 0 15 9 15 22 l0 22 16 -22 c8 -12
22 -22 31 -22 14 0 14 2 0 24 -14 21 -14 26 -2 36 31 26 14 55 -37 64 l-38 7
0 -66z m50 20 c0 -8 -4 -15 -10 -15 -5 0 -10 7 -10 15 0 8 5 15 10 15 6 0 10
-7 10 -15z"/>
<path d="M4750 2439 l0 -60 43 3 c38 3 42 6 45 31 2 16 -1 27 -9 27 -8 0 -8 4
1 15 19 22 -5 45 -46 45 l-34 0 0 -61z m55 31 c3 -5 -1 -10 -10 -10 -9 0 -13
5 -10 10 3 6 8 10 10 10 2 0 7 -4 10 -10z m5 -50 c0 -5 -7 -10 -15 -10 -8 0
-15 5 -15 10 0 6 7 10 15 10 8 0 15 -4 15 -10z"/>
<path d="M4862 2488 c-19 -19 -15 -34 15 -56 16 -11 25 -24 21 -28 -4 -4 -14
-2 -21 4 -15 13 -27 6 -27 -14 0 -18 36 -27 60 -14 30 16 26 56 -7 74 -16 8
-23 16 -18 17 6 1 15 2 20 3 6 0 11 6 13 11 4 15 -41 18 -56 3z"/>
<path d="M5171 4294 c0 -11 3 -14 6 -6 3 7 2 16 -1 19 -3 4 -6 -2 -5 -13z"/>
<path d="M5130 4237 c0 -8 3 -17 7 -20 8 -9 33 12 33 27 0 6 -5 4 -10 -4 -6
-10 -10 -11 -10 -2 0 6 -4 12 -10 12 -5 0 -10 -6 -10 -13z"/>
<path d="M4890 1944 c0 -8 5 -12 10 -9 6 3 10 10 10 16 0 5 -4 9 -10 9 -5 0
-10 -7 -10 -16z"/>
<path d="M5060 1920 c0 -29 4 -40 13 -37 6 2 12 19 12 37 0 18 -6 35 -12 38
-9 2 -13 -9 -13 -38z"/>
<path d="M5180 1949 c0 -5 5 -7 10 -4 6 3 10 8 10 11 0 2 -4 4 -10 4 -5 0 -10
-5 -10 -11z"/>
<path d="M5180 1890 c0 -19 3 -21 12 -12 9 9 9 15 0 24 -9 9 -12 7 -12 -12z"/>
<path d="M5253 1920 c0 -25 2 -35 4 -22 2 12 2 32 0 45 -2 12 -4 2 -4 -23z"/>
<path d="M5310 1945 c0 -8 5 -15 10 -15 6 0 10 7 10 15 0 8 -4 15 -10 15 -5 0
-10 -7 -10 -15z"/>
<path d="M5960 1950 c0 -19 3 -21 12 -12 9 9 9 15 0 24 -9 9 -12 7 -12 -12z"/>
<path d="M5385 1897 c-4 -10 -5 -21 -1 -24 10 -10 18 4 13 24 -4 17 -4 17 -12
0z"/>
<path d="M6300 1764 c0 -8 5 -12 10 -9 6 3 10 10 10 16 0 5 -4 9 -10 9 -5 0
-10 -7 -10 -16z"/>
<path d="M5735 1758 c-9 -22 -2 -68 10 -71 14 -3 19 63 6 76 -7 7 -12 5 -16
-5z"/>
<path d="M5825 1758 c-9 -22 -2 -68 10 -71 14 -3 19 63 6 76 -7 7 -12 5 -16
-5z"/>
<path d="M6181 1724 c0 -11 3 -14 6 -6 3 7 2 16 -1 19 -3 4 -6 -2 -5 -13z"/>
</g>
</svg>
