<?xml version="1.0" encoding="UTF-8"?>
<svg version="1.1" xmlns="http://www.w3.org/2000/svg" width="1024" height="1024">
<path d="M0 0 C1.98 0 3.96 0 6 0 C6 55.11 6 110.22 6 167 C60.45 167 114.9 167 171 167 C171 111.89 171 56.78 171 0 C172.98 0 174.96 0 177 0 C177 55.11 177 110.22 177 167 C231.45 167 285.9 167 342 167 C342 111.89 342 56.78 342 0 C343.98 0 345.96 0 348 0 C348 55.11 348 110.22 348 167 C402.45 167 456.9 167 513 167 C513 111.89 513 56.78 513 0 C514.98 0 516.96 0 519 0 C519 55.11 519 110.22 519 167 C573.45 167 627.9 167 684 167 C684 111.89 684 56.78 684 0 C685.98 0 687.96 0 690 0 C690 55.11 690 110.22 690 167 C744.78 167 799.56 167 856 167 C856 168.98 856 170.96 856 173 C801.22 173 746.44 173 690 173 C690 227.45 690 281.9 690 338 C744.78 338 799.56 338 856 338 C856 339.98 856 341.96 856 344 C801.22 344 746.44 344 690 344 C690 398.45 690 452.9 690 509 C744.78 509 799.56 509 856 509 C856 510.98 856 512.96 856 515 C801.22 515 746.44 515 690 515 C690 569.45 690 623.9 690 680 C744.78 680 799.56 680 856 680 C856 681.98 856 683.96 856 686 C801.22 686 746.44 686 690 686 C690 740.45 690 794.9 690 851 C744.78 851 799.56 851 856 851 C856 852.98 856 854.96 856 857 C801.22 857 746.44 857 690 857 C690 912.11 690 967.22 690 1024 C688.02 1024 686.04 1024 684 1024 C684 968.89 684 913.78 684 857 C629.55 857 575.1 857 519 857 C519 912.11 519 967.22 519 1024 C517.02 1024 515.04 1024 513 1024 C513 968.89 513 913.78 513 857 C458.55 857 404.1 857 348 857 C348 912.11 348 967.22 348 1024 C346.02 1024 344.04 1024 342 1024 C342 968.89 342 913.78 342 857 C287.55 857 233.1 857 177 857 C177 912.11 177 967.22 177 1024 C175.02 1024 173.04 1024 171 1024 C171 968.89 171 913.78 171 857 C116.55 857 62.1 857 6 857 C6 912.11 6 967.22 6 1024 C4.02 1024 2.04 1024 0 1024 C0 968.89 0 913.78 0 857 C-55.44 857 -110.88 857 -168 857 C-168 855.02 -168 853.04 -168 851 C-112.56 851 -57.12 851 0 851 C0 796.55 0 742.1 0 686 C-55.44 686 -110.88 686 -168 686 C-168 684.02 -168 682.04 -168 680 C-112.56 680 -57.12 680 0 680 C0 625.55 0 571.1 0 515 C-55.44 515 -110.88 515 -168 515 C-168 513.02 -168 511.04 -168 509 C-112.56 509 -57.12 509 0 509 C0 454.55 0 400.1 0 344 C-55.44 344 -110.88 344 -168 344 C-168 342.02 -168 340.04 -168 338 C-112.56 338 -57.12 338 0 338 C0 283.55 0 229.1 0 173 C-55.44 173 -110.88 173 -168 173 C-168 171.02 -168 169.04 -168 167 C-112.56 167 -57.12 167 0 167 C0 111.89 0 56.78 0 0 Z M6 173 C6 227.45 6 281.9 6 338 C26.728125 338.433125 26.728125 338.433125 47.875 338.875 C52.22155762 339.00245605 56.56811523 339.12991211 61.04638672 339.26123047 C64.97796541 339.30808192 64.97796541 339.30808192 68.90969849 339.33621216 C70.64727115 339.35757015 72.38464897 339.40652951 74.12088013 339.47805786 C83.95600172 340.17819031 83.95600172 340.17819031 92.75543785 336.62124634 C96.26328744 332.83524504 98.59457495 328.53467355 101 324 C102.62522888 321.80374146 102.62522888 321.80374146 104.06640625 320.140625 C105.36537008 318.63634764 106.66430434 317.1320447 107.96289062 315.62744141 C109.30287507 314.07999041 110.65119482 312.53976865 112 311 C112.66902344 310.21882812 113.33804688 309.43765625 114.02734375 308.6328125 C125.23062823 295.81004334 137.40770808 283.28551045 151 273 C152.10261026 272.14327385 153.20410879 271.28511563 154.3046875 270.42578125 C163.44842265 263.31384427 163.44842265 263.31384427 165.81001377 261.9701128 C167.79154953 260.78932483 169.38951265 259.65655804 171 258 C171.69063708 254.85916428 171.89593177 252.75858715 171.79467773 249.62963867 C171.79552148 248.78650022 171.79636522 247.94336176 171.79723454 247.07467365 C171.79202319 244.35444088 171.73880238 241.63759769 171.68359375 238.91796875 C171.67329706 237.23524593 171.66615869 235.55250072 171.66223145 233.86975098 C171.62558508 227.64199127 171.5278554 221.41471205 171.4375 215.1875 C171.293125 201.265625 171.14875 187.34375 171 173 C116.55 173 62.1 173 6 173 Z M177 173 C177 199.4 177 225.8 177 253 C180.47417946 251.61032821 183.26398758 250.36625589 186.4140625 248.49609375 C187.66376831 247.76289917 187.66376831 247.76289917 188.9387207 247.01489258 C189.82519287 246.49435303 190.71166504 245.97381348 191.625 245.4375 C237.88224446 218.74493918 288.92124063 206.76929198 342 205 C342 194.44 342 183.88 342 173 C287.55 173 233.1 173 177 173 Z M348 173 C348 183.56 348 194.12 348 205 C352.49625 205.226875 356.9925 205.45375 361.625 205.6875 C416.55067525 208.98099487 466.06682955 226.84009773 513 255 C513 227.94 513 200.88 513 173 C458.55 173 404.1 173 348 173 Z M519 173 C518.79375 187.025 518.5875 201.05 518.375 215.5 C518.28395996 219.91697266 518.19291992 224.33394531 518.09912109 228.88476562 C518.06566251 232.86830834 518.06566251 232.86830834 518.04556274 236.85192871 C518.03027533 238.61683409 517.99524235 240.38163937 517.94424438 242.14587402 C517.30908783 252.60255077 517.30908783 252.60255077 521.16685486 261.89178467 C523.69154042 263.93396951 526.13963381 265.47867963 529 267 C530.21251443 267.89739799 531.41161907 268.81396869 532.58203125 269.765625 C533.38012207 270.37772827 533.38012207 270.37772827 534.19433594 271.00219727 C552.06809729 284.78505699 569.33581208 301.02776057 583 319 C583.86990019 320.11551512 584.74106704 321.23004326 585.61328125 322.34375 C592.73355802 331.48033184 592.73355802 331.48033184 594.61383057 335.14761353 C596.80309883 338.37632797 596.80309883 338.37632797 600.78387451 338.7215271 C602.33602005 338.73895687 603.88875025 338.72299141 605.44042969 338.68115234 C606.30327198 338.68187555 607.16611427 338.68259876 608.0551033 338.68334389 C610.84497539 338.67886932 613.63243408 338.63320844 616.421875 338.5859375 C618.14533327 338.57711433 619.86880759 338.57099416 621.59228516 338.56762695 C627.97843551 338.53618622 634.36424153 338.45241836 640.75 338.375 C662.15875 338.189375 662.15875 338.189375 684 338 C684 283.55 684 229.1 684 173 C629.55 173 575.1 173 519 173 Z M348 217 C348 235.81 348 254.62 348 274 C356.91 274.66 365.82 275.32 375 276 C379.55845797 276.64785499 383.9036565 277.29615974 388.375 278.25 C389.4376709 278.46760986 390.5003418 278.68521973 391.59521484 278.90942383 C432.58033505 287.5509387 474.20400227 306.27063066 503.83984375 336.63671875 C506.88594207 338.55912076 509.46662881 338.08946866 513 338 C513.44260066 329.34279649 513.77890223 320.68954136 513.98443127 312.02344894 C514.0831548 307.99754155 514.21659511 303.97942548 514.43334961 299.95800781 C516.02023051 283.00477727 516.02023051 283.00477727 511.24398804 267.42019653 C506.87139941 263.30745749 501.87608267 260.95960373 496.29562378 258.87884521 C493.39359966 257.7678487 490.86889749 256.24553103 488.24609375 254.58984375 C467.90624077 243.20108816 446.46181094 234.2448469 424 228 C423.04367676 227.73348633 422.08735352 227.46697266 421.10205078 227.19238281 C408.7723633 223.83507918 396.41032803 221.41749773 383.75 219.6875 C382.59242188 219.52805908 381.43484375 219.36861816 380.2421875 219.2043457 C369.44969821 217.84251503 358.96526538 217.52215549 348 217 Z M285 223 C284.13036621 223.17370117 283.26073242 223.34740234 282.36474609 223.52636719 C250.61032422 230.04967922 219.43600999 242.15182242 191.88859558 259.27574158 C189 261 189 261 185.89625549 262.50813293 C181.09264274 265.0989673 177.62232617 266.99966008 175.94816589 272.38090515 C175.60912462 276.5975175 175.64650452 280.65598163 175.828125 284.875 C175.85053871 286.41049535 175.8676051 287.9460772 175.87957764 289.48168945 C175.92515692 293.50194993 176.04277623 297.51691279 176.17602539 301.53509521 C176.29933116 305.64376135 176.35370207 309.75329379 176.4140625 313.86328125 C176.54232966 321.91127175 176.74679874 329.95497502 177 338 C180.96575466 338.24223811 180.96575466 338.24223811 184.33203125 336.234375 C185.15058594 335.41453125 185.96914063 334.5946875 186.8125 333.75 C220.08928169 301.88791109 266.25239757 282.43766068 311.5 276.125 C312.2731958 276.01704102 313.0463916 275.90908203 313.84301758 275.79785156 C323.2024847 274.6552098 332.56230835 274.47188458 342 274 C342 255.19 342 236.38 342 217 C322.87185413 217 303.72623929 219.22233435 285 223 Z M164.0625 278.4375 C163.47637939 278.88907471 162.89025879 279.34064941 162.28637695 279.8059082 C157.76282562 283.32860303 153.46716531 287.04758405 149.25 290.93359375 C147.2655318 292.75613486 145.24214108 294.50783558 143.1875 296.25 C134.47685761 303.86740387 126.39064781 312.14402322 119.2109375 321.21875 C117.57831825 323.27250425 115.92604869 325.28432457 114.2265625 327.28125 C113.76209717 327.82837646 113.29763184 328.37550293 112.8190918 328.93920898 C111.50497916 330.48321586 110.18811022 332.02487556 108.87109375 333.56640625 C106.79682458 335.75263015 106.79682458 335.75263015 107 338 C128.12 338 149.24 338 171 338 C171 316.88 171 295.76 171 274 C168.61490058 274 165.95194506 276.97927485 164.0625 278.4375 Z M519 275 C519 295.79 519 316.58 519 338 C539.46 338 559.92 338 581 338 C577.96812531 332.48133417 577.96812531 332.48133417 574.37109375 327.67578125 C573.66327759 326.85460815 573.66327759 326.85460815 572.94116211 326.0168457 C572.44495361 325.45441162 571.94874512 324.89197754 571.4375 324.3125 C570.6496814 323.40794067 570.6496814 323.40794067 569.84594727 322.48510742 C568.2394755 320.64869206 566.62247332 318.82228531 565 317 C564.52046875 316.46117187 564.0409375 315.92234375 563.546875 315.3671875 C554.58575865 305.34886079 545.3868808 295.66990721 534.85546875 287.28125 C530.61380244 283.89255899 526.48365738 280.37373123 522.3359375 276.87109375 C520.3687396 274.8958046 520.3687396 274.8958046 519 275 Z M348 286 C348 303.16 348 320.32 348 338 C393.54 338 439.08 338 486 338 C458.04483751 310.04483751 416.75006344 295.10383787 378.4375 288.75 C377.46981689 288.58669189 376.50213379 288.42338379 375.50512695 288.25512695 C366.2683237 286.81859703 357.47705663 286.52650315 348 286 Z M203 336 C202.67 336.66 202.34 337.32 202 338 C248.2 338 294.4 338 342 338 C342 320.84 342 303.68 342 286 C291.80266602 286 241.72899091 304.21059113 203 336 Z M6 344 C6 398.45 6 452.9 6 509 C16.23 509 26.46 509 37 509 C37.226875 504.33875 37.45375 499.6775 37.6875 494.875 C40.73337042 442.35197798 56.51794359 390.848477 85.10400391 346.49829102 C86.08554011 345.14791955 86.08554011 345.14791955 86 344 C59.6 344 33.2 344 6 344 Z M95.44406128 352.2245636 C94.72925095 353.59840462 94.72925095 353.59840462 94 355 C93.32332275 356.06468506 92.64664551 357.12937012 91.94946289 358.22631836 C91.4621167 359.08878174 90.97477051 359.95124512 90.47265625 360.83984375 C89.91280029 361.82919922 89.35294434 362.81855469 88.77612305 363.83789062 C88.21062744 364.86076172 87.64513184 365.88363281 87.0625 366.9375 C86.45768799 368.02869141 85.85287598 369.11988281 85.22973633 370.24414062 C62.09664019 412.5072988 49 460.70101064 49 509 C68.14 509 87.28 509 107 509 C107.66 499.76 108.32 490.52 109 481 C116.08541231 432.66736603 135.95120579 384.04879421 171 349 C171.04063832 347.33382885 171.042721 345.66611905 171 344 C162.1422198 343.74445064 153.28571863 343.54935219 144.42504883 343.43006611 C140.30986824 343.37279392 136.19721929 343.29521534 132.08349609 343.17016602 C128.10860624 343.05010156 124.13614023 342.98477031 120.15957642 342.95635033 C118.64744903 342.93611711 117.13544585 342.89659792 115.62435913 342.83696938 C105.94020331 342.47023672 100.6451915 343.41395665 95.44406128 352.2245636 Z M186 351 C184.89011719 352.04414063 184.89011719 352.04414063 183.7578125 353.109375 C182.94957031 353.92148437 182.94957031 353.92148437 182.125 354.75 C181.57070313 355.30171875 181.01640625 355.8534375 180.4453125 356.421875 C177.14381145 360.02675723 176.75143215 362.22068673 176.75949097 366.97941589 C176.75674164 368.22883469 176.75399231 369.47825348 176.75115967 370.76553345 C176.75823795 372.15252781 176.76550757 373.53952121 176.77294922 374.92651367 C176.77351328 376.38506564 176.77319687 377.84361817 176.77206421 379.3021698 C176.7714895 383.26472527 176.78326288 387.2271601 176.79721212 391.18968749 C176.80969982 395.32968395 176.81088843 399.46968305 176.81326294 403.60969543 C176.81948348 411.45071741 176.83590205 419.29168374 176.85596192 427.13268119 C176.87830307 436.05881253 176.88930986 444.98494651 176.89935279 453.91109884 C176.9202678 472.27410387 176.95695119 490.6370326 177 509 C192.84 509 208.68 509 225 509 C225.66 502.73 226.32 496.46 227 490 C231.89253657 468.74277216 240.20420763 450.77043691 254 434 C254.52207031 433.32453125 255.04414063 432.6490625 255.58203125 431.953125 C259.95674825 426.45636242 265.48415319 422.2950656 271 418 C271.82113281 417.32839844 272.64226562 416.65679687 273.48828125 415.96484375 C293.30644315 400.46167822 317.45179727 394.88832329 342 393 C342 376.83 342 360.66 342 344 C322.84134781 343.8418737 303.68322542 343.71297432 284.524086 343.6373148 C275.62779855 343.60124816 266.73194586 343.55209283 257.8359375 343.47192383 C250.08048377 343.40206669 242.32534495 343.35697202 234.56958532 343.34138054 C230.46427256 343.33226889 226.35986055 343.31091674 222.25483704 343.2598896 C218.3869826 343.21220232 214.52039559 343.19775313 210.65227509 343.20824623 C209.23651478 343.20632808 207.82070999 343.19250426 206.40520477 343.16556168 C197.23165031 342.9995894 192.06290585 343.89890943 186 351 Z M348 344 C348 360.17 348 376.34 348 393 C353.94 393.66 359.88 394.32 366 395 C387.26380075 399.93320177 405.21466064 408.19194849 422 422 C422.67546875 422.52207031 423.3509375 423.04414063 424.046875 423.58203125 C429.54363758 427.95674825 433.7049344 433.48415319 438 439 C438.67160156 439.82113281 439.34320312 440.64226562 440.03515625 441.48828125 C455.29168443 460.99115922 460.98637829 484.83653947 463 509 C479.5 509 496 509 513 509 C513.27146617 490.18843859 513.49226423 471.37847625 513.62174606 452.56544971 C513.68347967 443.82913123 513.76755411 435.09412097 513.90527344 426.35864258 C514.02533154 418.73973967 514.10240279 411.12178452 514.12906194 403.50196189 C514.14463411 399.4711452 514.18090126 395.44303837 514.26876068 391.41309547 C515.53322823 372.86509989 515.53322823 372.86509989 508.96648026 356.39766216 C506.47809824 353.91568013 503.89832836 352.00672139 501 350 C500.51816978 349.47243607 500.03633955 348.94487213 499.53990841 348.40132141 C495.8579422 344.46200706 492.99470375 343.57137001 487.61549377 343.2784729 C485.00649265 343.26109208 482.41046796 343.27583008 479.80297852 343.31884766 C478.36354137 343.32054189 476.92409905 343.31958661 475.48466492 343.31619263 C471.59218293 343.3144763 467.70081807 343.34966544 463.80859494 343.39163637 C459.73540543 343.42923208 455.66218818 343.43267566 451.58885193 343.43978882 C443.88232448 343.45841186 436.17630983 343.50761395 428.47000784 343.56788576 C419.69378522 343.63503047 410.91753766 343.66795983 402.14112198 343.69805837 C384.09373183 343.76071586 366.04704433 343.87071605 348 344 Z M519 344 C518.69133432 349.43288183 518.69133432 349.43288183 521.203125 354.1484375 C522.20505714 355.23672569 523.22170923 356.31158226 524.25 357.375 C536.73138431 371.14724177 546.23804517 386.65970009 555 403 C555.37608398 403.69464355 555.75216797 404.38928711 556.13964844 405.10498047 C573.14472532 437.04738074 579.12276705 473.33257402 581 509 C600.14 509 619.28 509 639 509 C638.38113831 492.09633887 638.38113831 492.09633887 636.8125 475.3125 C636.68576904 474.33522949 636.55903809 473.35795898 636.4284668 472.35107422 C630.8651185 432.2379065 616.13502244 374.13502244 586 344 C583.91380978 343.90582227 581.82439523 343.88257122 579.73608398 343.88647461 C579.08244873 343.88632858 578.42881348 343.88618256 577.75537109 343.8860321 C575.58557872 343.88673117 573.41587121 343.89452322 571.24609375 343.90234375 C569.74536689 343.90420795 568.24463943 343.90563184 566.74391174 343.90663147 C562.78681774 343.91045648 558.82976022 343.9202866 554.87268066 343.93133545 C550.83765151 343.94154994 546.80261647 343.94612917 542.76757812 343.95117188 C534.84503531 343.96190889 526.92252219 343.9789851 519 344 Z M602 344 C606.3936123 352.05905656 606.3936123 352.05905656 610.859375 360.078125 C637.13524168 406.8547449 648.22315517 455.77714079 651 509 C661.89 509 672.78 509 684 509 C684 454.55 684 400.1 684 344 C656.94 344 629.88 344 602 344 Z M170 369 C134.7626717 406.24610711 121.93771595 459.54844824 119 509 C136.16 509 153.32 509 171 509 C171 462.8 171 416.6 171 369 C170.67 369 170.34 369 170 369 Z M519 371 C519 416.54 519 462.08 519 509 C535.5 509 552 509 569 509 C566.36763384 461.37810307 554.13000441 406.13000441 519 371 Z M267.375 437.125 C247.71541802 457.47238077 240.09316611 481.16150503 237 509 C271.65 509 306.3 509 342 509 C342 474.68 342 440.36 342 405 C313.4168175 405 287.76786963 417.8842699 267.375 437.125 Z M348 406 C348 439.99 348 473.98 348 509 C381.66 509 415.32 509 450 509 C450.07376952 498.5039908 450.07376952 498.5039908 448.3125 488.5625 C448.04022583 487.47884155 448.04022583 487.47884155 447.76245117 486.37329102 C443.24233209 469.00490141 435.11736275 453.27533598 423 440 C422.26523437 439.17242187 421.53046875 438.34484375 420.7734375 437.4921875 C405.10705425 420.77788564 381.88500649 408.63303624 359 406 C355.37 406 351.74 406 348 406 Z M6 515 C6 569.45 6 623.9 6 680 C32.4 680 58.8 680 86 680 C81.6063877 671.94094344 81.6063877 671.94094344 77.140625 663.921875 C50.86475832 617.1452551 39.77684483 568.22285921 37 515 C26.77 515 16.54 515 6 515 Z M49 515 C49.61886169 531.90366113 49.61886169 531.90366113 51.1875 548.6875 C51.31423096 549.66477051 51.44096191 550.64204102 51.5715332 551.64892578 C57.1348815 591.7620935 71.86497756 649.86497756 102 680 C104.14743549 680.09425595 106.29801026 680.11742648 108.44750977 680.11352539 C109.12065216 680.11367142 109.79379456 680.11381744 110.48733521 680.1139679 C112.72205784 680.11326878 114.9566981 680.10547652 117.19140625 680.09765625 C118.73697362 680.09579206 120.28254157 680.09436816 121.82810974 680.09336853 C125.90357077 680.0895434 129.97899637 680.07971317 134.05444336 680.06866455 C138.21011882 680.05845032 142.36579999 680.05387089 146.52148438 680.04882812 C154.68100587 680.03809089 162.84049853 680.02101454 171 680 C171.28983224 675.47001205 171.28983224 675.47001205 169.234375 671.5703125 C168.00460937 670.35988281 168.00460937 670.35988281 166.75 669.125 C155.20989804 657.20612463 146.20946055 643.35520857 138 629 C137.56413574 628.23816406 137.12827148 627.47632813 136.67919922 626.69140625 C117.108548 592.03550129 109.18941238 554.40942277 107 515 C87.86 515 68.72 515 49 515 Z M119 515 C121.89793084 565.31861736 136.12610978 615.33828078 170 654 C170.33 654 170.66 654 171 654 C171 608.13 171 562.26 171 515 C153.84 515 136.68 515 119 515 Z M177 515 C176.79657764 533.99373689 176.63090079 552.9865874 176.53369045 571.98113823 C176.48734761 580.80129969 176.42420497 589.62073465 176.32104492 598.44042969 C176.23113821 606.1307151 176.17322894 613.82047425 176.15320355 621.51127064 C176.14150303 625.58114307 176.11415006 629.64951042 176.04842949 633.71889877 C175.98697044 637.55579196 175.96856685 641.3905723 175.98203087 645.227911 C175.97957092 646.62997775 175.96188048 648.03212098 175.92715073 649.43375969 C175.75547392 656.72493053 176.08656793 661.7895749 181.00135803 667.41433716 C182.64710611 668.96490496 184.31327333 670.49411142 186 672 C186.68879179 672.77755835 187.37758358 673.55511669 188.08724785 674.35623741 C192.29860596 678.86082018 195.48156228 680.49982453 201.66297913 680.96203613 C204.28925686 680.98515556 206.89232571 680.96582764 209.51586914 680.90820312 C210.96545282 680.90594284 212.41504564 680.90722041 213.86462402 680.91174316 C217.77593859 680.9140267 221.68526681 680.8671934 225.59612203 680.8111515 C229.69194253 680.76093852 233.78781506 680.75642588 237.88389587 680.74694824 C245.62950462 680.722142 253.37420363 680.65657426 261.11941284 680.57615232 C269.94157384 680.48654812 278.76377965 680.44270099 287.58628285 680.40258884 C305.7248082 680.31910118 323.8620874 680.17246721 342 680 C342 663.83 342 647.66 342 631 C335.4 630.34 328.8 629.68 322 629 C300.74946534 624.14751571 282.75574097 615.78370312 266 602 C265.32453125 601.47792969 264.6490625 600.95585938 263.953125 600.41796875 C258.45636242 596.04325175 254.2950656 590.51584681 250 585 C249.32839844 584.17886719 248.65679687 583.35773438 247.96484375 582.51171875 C232.70831557 563.00884078 227.01362171 539.16346053 225 515 C209.16 515 193.32 515 177 515 Z M238 515 C237.92623048 525.4960092 237.92623048 525.4960092 239.6875 535.4375 C239.86901611 536.15993896 240.05053223 536.88237793 240.23754883 537.62670898 C244.75766791 554.99509859 252.88263725 570.72466402 265 584 C266.10214844 585.24136719 266.10214844 585.24136719 267.2265625 586.5078125 C287.47277986 608.10829189 313.18717112 615.96707064 342 619 C342 584.68 342 550.36 342 515 C307.68 515 273.36 515 238 515 Z M348 515 C348 548.99 348 582.98 348 618 C357.93680199 618.01711821 357.93680199 618.01711821 367.375 616.3125 C368.46542603 616.04022583 368.46542603 616.04022583 369.57788086 615.76245117 C386.96829629 611.26443598 402.7137658 603.12731035 416 591 C416.82757812 590.26523437 417.65515625 589.53046875 418.5078125 588.7734375 C439.7818853 568.83316237 447.84751109 543.3724002 451 515 C417.01 515 383.02 515 348 515 Z M463 515 C462.34 521.27 461.68 527.54 461 534 C456.10746343 555.25722784 447.79579237 573.22956309 434 590 C433.47792969 590.67546875 432.95585938 591.3509375 432.41796875 592.046875 C428.04325175 597.54363758 422.51584681 601.7049344 417 606 C416.17886719 606.67160156 415.35773438 607.34320312 414.51171875 608.03515625 C395.30457558 623.06033979 371.78795426 628.8374587 348 631 C348 647.17 348 663.34 348 680 C366.69844109 680.24877904 385.39553242 680.45120615 404.09521103 680.56993389 C412.77875978 680.62653856 421.46120367 680.70363868 430.14404297 680.82983398 C437.71642302 680.93983709 445.28800265 681.01052459 452.86115956 681.03497344 C456.86772527 681.04925569 460.87200223 681.08255674 464.87783051 681.16303062 C468.65756179 681.23833905 472.43408821 681.26060614 476.21449852 681.24418449 C478.24510756 681.24860087 480.27537603 681.30747341 482.30506897 681.36862183 C490.46981281 681.26877809 495.24917513 679.24380067 500.89412713 673.47496045 C502.27334741 671.99309878 503.63695252 670.49675119 505 669 C505.82133045 668.26554279 506.6426609 667.53108559 507.48888016 666.7743721 C511.92050091 662.62069251 513.48858638 659.4989301 513.96203613 653.41294861 C513.98515213 650.82243244 513.96584486 648.25546451 513.90820312 645.66772461 C513.90594276 644.23784513 513.90722057 642.80795639 513.91174316 641.37808228 C513.91402639 637.52047342 513.86719855 633.66487919 513.8111515 629.80773616 C513.76093307 625.76797162 513.75642546 621.72815413 513.74694824 617.68812561 C513.72214356 610.04875863 513.65657806 602.4103142 513.57615232 594.77135235 C513.48654315 586.07010986 513.44269976 577.36882189 513.40258884 568.66723239 C513.31910472 550.77752659 513.17247286 532.88908446 513 515 C496.5 515 480 515 463 515 Z M519 515 C519 560.21 519 605.42 519 652 C523.26877713 647.78263817 523.26877713 647.78263817 526.76171875 643.20703125 C527.23569092 642.50408936 527.70966309 641.80114746 528.19799805 641.0769043 C528.93530151 639.95602417 528.93530151 639.95602417 529.6875 638.8125 C530.20932861 638.02077393 530.73115723 637.22904785 531.26879883 636.41333008 C555.59759337 599.03078196 566.26597667 559.20004381 569 515 C552.5 515 536 515 519 515 Z M581 515 C580.34 523.91 579.68 532.82 579 542 C572.52045779 585.96832215 555.98303698 629.84821877 526.01953125 663.3828125 C525.31872437 664.17679443 525.31872437 664.17679443 524.60375977 664.98681641 C523.34424621 666.394655 522.05598057 667.77662455 520.765625 669.15625 C518.93335527 672.10733931 518.79445676 672.88056429 518.88964844 676.17773438 C518.92606445 677.43908203 518.96248047 678.70042969 519 680 C527.59712768 680.25559342 536.19265324 680.45066624 544.79264832 680.56993389 C548.78680165 680.62719835 552.77834518 680.70475954 556.77099609 680.82983398 C560.62918407 680.94993091 564.48487406 681.01523549 568.3447876 681.04364967 C569.81226949 681.06387753 571.27962388 681.10338667 572.74603271 681.16303062 C581.30118662 681.59381557 581.30118662 681.59381557 588.60987854 677.6832428 C590.68397089 674.87951807 592.37834049 672.08392687 594 669 C594.67667725 667.93531494 595.35335449 666.87062988 596.05053711 665.77368164 C596.5378833 664.91121826 597.02522949 664.04875488 597.52734375 663.16015625 C598.08719971 662.17080078 598.64705566 661.18144531 599.22387695 660.16210938 C599.78937256 659.13923828 600.35486816 658.11636719 600.9375 657.0625 C601.54231201 655.97130859 602.14712402 654.88011719 602.77026367 653.75585938 C625.90335981 611.4927012 639 563.29898936 639 515 C619.86 515 600.72 515 581 515 Z M651 515 C650.773125 519.66125 650.54625 524.3225 650.3125 529.125 C647.26662958 581.64802202 631.48205641 633.151523 602.89599609 677.50170898 C601.91445989 678.85208045 601.91445989 678.85208045 602 680 C629.06 680 656.12 680 684 680 C684 625.55 684 571.1 684 515 C673.11 515 662.22 515 651 515 Z M6 686 C6 740.45 6 794.9 6 851 C60.45 851 114.9 851 171 851 C171.33 837.2225 171.66 823.445 172 809.25 C172.21849609 802.75747559 172.21849609 802.75747559 172.44140625 796.13378906 C172.4949612 792.20759008 172.4949612 792.20759008 172.52709961 788.28118896 C172.55145888 786.55021081 172.60731081 784.81948222 172.68920898 783.090271 C173.35349639 773.00184579 173.35349639 773.00184579 169.44586182 764.06282043 C165.65119291 760.50043556 161.42551863 757.78103965 156.93901062 755.17443085 C154.15742962 753.48966724 151.74718516 751.5184675 149.25 749.4375 C148.37988281 748.71304688 147.50976562 747.98859375 146.61328125 747.2421875 C131.69163349 734.43945833 116.92048252 720.67877779 105 705 C104.13009981 703.88448488 103.25893296 702.76995674 102.38671875 701.65625 C95.27205654 692.52687265 95.27205654 692.52687265 93.37469482 688.85238647 C91.20437633 685.63430379 91.20437633 685.63430379 87.29205322 685.2784729 C85.77579723 685.26104859 84.25894254 685.27699724 82.74316406 685.31884766 C81.90014614 685.31812445 81.05712822 685.31740124 80.1885643 685.31665611 C77.46328008 685.32113005 74.74046771 685.3667872 72.015625 685.4140625 C70.33188055 685.42288588 68.64811967 685.42900593 66.96435547 685.43237305 C60.72598575 685.4638113 54.48796851 685.54757921 48.25 685.625 C34.3075 685.74875 20.365 685.8725 6 686 Z M107 686 C110.03187469 691.51866583 110.03187469 691.51866583 113.62890625 696.32421875 C114.10078369 696.87166748 114.57266113 697.41911621 115.05883789 697.9831543 C115.55504639 698.54558838 116.05125488 699.10802246 116.5625 699.6875 C117.0877124 700.29053955 117.6129248 700.8935791 118.15405273 701.51489258 C119.7605245 703.35130794 121.37752668 705.17771469 123 707 C123.47953125 707.53882813 123.9590625 708.07765625 124.453125 708.6328125 C133.41573206 718.65280578 142.6145593 728.33791553 153.15234375 736.72265625 C155.21453625 738.37184449 157.24216738 740.0376321 159.25390625 741.74609375 C160.06613647 742.43433228 160.06613647 742.43433228 160.89477539 743.13647461 C162.42099812 744.43289346 163.94493734 745.7319992 165.46875 747.03125 C167.9089945 749.1545649 167.9089945 749.1545649 171 750 C171 728.88 171 707.76 171 686 C149.88 686 128.76 686 107 686 Z M177 686 C176.65107059 694.82277114 176.3852816 703.64314095 176.22281742 712.47132683 C176.14479842 716.57191898 176.03921646 720.6677657 175.8684082 724.765625 C174.41944287 741.58273954 174.41944287 741.58273954 178.33840942 757.39248657 C181.64519166 760.97318699 185.50047038 762.76223281 190.06289673 764.30847168 C192.87385666 765.31195891 195.27469679 766.86000432 197.80078125 768.43359375 C199.63179444 769.44623676 201.46918207 770.44743224 203.3125 771.4375 C204.32103027 771.97971191 205.32956055 772.52192383 206.36865234 773.08056641 C224.73808948 782.76400912 243.99799875 790.43903095 264 796 C264.95632324 796.26651367 265.91264648 796.53302734 266.89794922 796.80761719 C279.18456291 800.15319208 291.51060334 802.57640323 304.125 804.3125 C305.83623047 804.55166138 305.83623047 804.55166138 307.58203125 804.7956543 C319.10239386 806.25746963 330.27661015 806.4902874 342 807 C342 787.86 342 768.72 342 749 C335.626875 748.6596875 335.626875 748.6596875 329.125 748.3125 C277.00491197 744.98524616 222.20628763 724.77142646 184.84375 687.14453125 C182.23742908 685.52662441 180.01037441 685.92535209 177 686 Z M203 686 C230.40502962 713.40502962 271.97058433 727.98298463 309.4375 734.25 C310.86388794 734.49496216 310.86388794 734.49496216 312.3190918 734.74487305 C322.28355557 736.30491129 331.74949208 736.4874746 342 737 C342 720.17 342 703.34 342 686 C296.13 686 250.26 686 203 686 Z M348 686 C348 702.83 348 719.66 348 737 C398.64273603 733.9391753 445.24170503 719.39163541 485 687 C485 686.67 485 686.34 485 686 C439.79 686 394.58 686 348 686 Z M500.5 689.75 C459.86600403 729.21245436 403.15456105 745.93585772 348 749 C348 768.14 348 787.28 348 807 C366.67626184 805.99948597 384.67037223 804.74127523 403 801 C403.8667334 800.82629883 404.7334668 800.65259766 405.62646484 800.47363281 C437.34877425 793.95939125 468.41066909 781.86916028 495.95002747 764.80580139 C499 763 499 763 502.55345154 761.25932312 C509.98369788 757.43701189 509.98369788 757.43701189 514.22984314 750.56890869 C514.6217736 746.39046852 514.58113769 742.42732856 514.3671875 738.24609375 C514.34103017 736.73447397 514.32112311 735.22273435 514.30715942 733.71095276 C514.25403679 729.75715518 514.11689331 725.81071682 513.96130371 721.85980225 C513.81731183 717.81835533 513.75398762 713.77570177 513.68359375 709.73242188 C513.53404817 701.81825973 513.29559446 693.9100483 513 686 C505.95544383 685.62186016 505.95544383 685.62186016 500.5 689.75 Z M519 686 C519 706.46 519 726.92 519 748 C537.94825991 738.52587004 555.97604136 719.14248307 568.89453125 702.67578125 C570.48403249 700.65572865 572.09667086 698.68662888 573.76171875 696.73046875 C574.46095459 695.90724121 574.46095459 695.90724121 575.17431641 695.06738281 C576.49097656 693.52147652 577.8098776 691.97747964 579.12890625 690.43359375 C581.20317542 688.24736985 581.20317542 688.24736985 581 686 C560.54 686 540.08 686 519 686 Z M587 700 C585.3764801 702.19625854 585.3764801 702.19625854 583.93359375 703.859375 C582.63462992 705.36365236 581.33569566 706.8679553 580.03710938 708.37255859 C578.69712493 709.92000959 577.34880518 711.46023135 576 713 C575.33097656 713.78117188 574.66195312 714.56234375 573.97265625 715.3671875 C562.77107743 728.18800444 550.59573198 740.72227404 537 751 C535.8741196 751.86865175 534.74917507 752.7385174 533.625 753.609375 C531.40429536 755.3270522 529.17746372 757.03537473 526.9453125 758.73828125 C525.48738281 759.85783203 525.48738281 759.85783203 524 761 C523.12596024 761.5344574 522.25192047 762.06891479 521.35139465 762.61956787 C518.59664831 765.4083327 518.41429916 767.10087166 518.37785625 770.95079422 C518.3958468 771.74208096 518.41383734 772.53336769 518.43237305 773.34863281 C518.43177037 774.20156292 518.4311677 775.05449303 518.43054676 775.9332695 C518.43427491 778.69055446 518.47232679 781.44614301 518.51171875 784.203125 C518.51907149 785.90673001 518.52417157 787.61034628 518.52697754 789.31396484 C518.55317681 795.62614898 518.62298324 801.93809121 518.6875 808.25 C518.790625 822.3575 518.89375 836.465 519 851 C573.45 851 627.9 851 684 851 C684 796.55 684 742.1 684 686 C669.85125 685.71125 655.7025 685.4225 641.125 685.125 C636.67402832 684.99754395 632.22305664 684.87008789 627.63720703 684.73876953 C623.6124869 684.69191913 623.6124869 684.69191913 619.58761597 684.66378784 C617.80838869 684.64242491 616.02935218 684.59345569 614.25143433 684.52194214 C599.35445392 683.95321284 593.93262169 686.81801312 587 700 Z M507.29370117 771.99584961 C474.37658795 793.20263394 437.41349786 806.82136255 399 814 C397.7929541 814.22961426 397.7929541 814.22961426 396.56152344 814.46386719 C380.50765515 817.43186527 364.27622061 818.07196988 348 819 C348 829.56 348 840.12 348 851 C402.45 851 456.9 851 513 851 C513 823.94 513 796.88 513 769 C510.83386133 769 509.06424994 770.8502004 507.29370117 771.99584961 Z M177 771 C177 797.4 177 823.8 177 851 C231.45 851 285.9 851 342 851 C342 840.44 342 829.88 342 819 C337.17375 818.773125 332.3475 818.54625 327.375 818.3125 C277.12380321 815.49114301 223.45921606 801.49045729 181.51171875 772.65234375 C179.22260376 770.81680245 179.22260376 770.81680245 177 771 Z " fill="#CECED4" transform="translate(168,0)"/>
<path d="M0 0 C1.98 0 3.96 0 6 0 C6 55.11 6 110.22 6 167 C60.45 167 114.9 167 171 167 C171 111.89 171 56.78 171 0 C172.98 0 174.96 0 177 0 C177 55.11 177 110.22 177 167 C231.45 167 285.9 167 342 167 C342 111.89 342 56.78 342 0 C343.98 0 345.96 0 348 0 C348 55.11 348 110.22 348 167 C402.45 167 456.9 167 513 167 C513 111.89 513 56.78 513 0 C514.98 0 516.96 0 519 0 C519 55.11 519 110.22 519 167 C573.45 167 627.9 167 684 167 C684 111.89 684 56.78 684 0 C685.98 0 687.96 0 690 0 C690 55.11 690 110.22 690 167 C744.78 167 799.56 167 856 167 C856 168.98 856 170.96 856 173 C801.22 173 746.44 173 690 173 C690 227.45 690 281.9 690 338 C744.78 338 799.56 338 856 338 C856 339.98 856 341.96 856 344 C801.22 344 746.44 344 690 344 C690 398.45 690 452.9 690 509 C744.78 509 799.56 509 856 509 C856 510.98 856 512.96 856 515 C801.22 515 746.44 515 690 515 C690 569.45 690 623.9 690 680 C744.78 680 799.56 680 856 680 C856 681.98 856 683.96 856 686 C801.22 686 746.44 686 690 686 C690 740.45 690 794.9 690 851 C744.78 851 799.56 851 856 851 C856 852.98 856 854.96 856 857 C801.22 857 746.44 857 690 857 C690 912.11 690 967.22 690 1024 C688.02 1024 686.04 1024 684 1024 C684 968.89 684 913.78 684 857 C629.55 857 575.1 857 519 857 C519 912.11 519 967.22 519 1024 C517.02 1024 515.04 1024 513 1024 C513 968.89 513 913.78 513 857 C458.55 857 404.1 857 348 857 C348 912.11 348 967.22 348 1024 C346.02 1024 344.04 1024 342 1024 C342 968.89 342 913.78 342 857 C287.55 857 233.1 857 177 857 C177 912.11 177 967.22 177 1024 C175.02 1024 173.04 1024 171 1024 C171 968.89 171 913.78 171 857 C116.55 857 62.1 857 6 857 C6 912.11 6 967.22 6 1024 C4.02 1024 2.04 1024 0 1024 C0 968.89 0 913.78 0 857 C-55.44 857 -110.88 857 -168 857 C-168 855.02 -168 853.04 -168 851 C-112.56 851 -57.12 851 0 851 C0 796.55 0 742.1 0 686 C-55.44 686 -110.88 686 -168 686 C-168 684.02 -168 682.04 -168 680 C-112.56 680 -57.12 680 0 680 C0 625.55 0 571.1 0 515 C-55.44 515 -110.88 515 -168 515 C-168 513.02 -168 511.04 -168 509 C-112.56 509 -57.12 509 0 509 C0 454.55 0 400.1 0 344 C-55.44 344 -110.88 344 -168 344 C-168 342.02 -168 340.04 -168 338 C-112.56 338 -57.12 338 0 338 C0 283.55 0 229.1 0 173 C-55.44 173 -110.88 173 -168 173 C-168 171.02 -168 169.04 -168 167 C-112.56 167 -57.12 167 0 167 C0 111.89 0 56.78 0 0 Z M6 173 C6 227.45 6 281.9 6 338 C47.58 338.495 47.58 338.495 90 339 C89.01 340.32 88.02 341.64 87 343 C60.27 343.33 33.54 343.66 6 344 C6 398.45 6 452.9 6 509 C16.23 509 26.46 509 37 509 C37 510.98 37 512.96 37 515 C26.77 515 16.54 515 6 515 C6 569.45 6 623.9 6 680 C32.73 680.33 59.46 680.66 87 681 C88.485 682.98 88.485 682.98 90 685 C62.28 685.33 34.56 685.66 6 686 C6 740.45 6 794.9 6 851 C60.45 851 114.9 851 171 851 C171 822.95 171 794.9 171 766 C173.475 767.485 173.475 767.485 176 769 C176.33 796.06 176.66 823.12 177 851 C231.45 851 285.9 851 342 851 C342 840.44 342 829.88 342 819 C343.98 819 345.96 819 348 819 C348 829.56 348 840.12 348 851 C402.45 851 456.9 851 513 851 C513.17052565 823.81980711 513.17052565 823.81980711 513.29785156 796.6394043 C513.34326172 791.38439941 513.34326172 791.38439941 513.36956787 788.92488098 C513.38418899 787.20589273 513.39095359 785.48682682 513.39154053 783.76777649 C513.39395084 781.16456824 513.42122939 778.56269456 513.45410156 775.9597168 C513.44907749 775.19293704 513.44405342 774.42615728 513.43887711 773.63614178 C513.48101807 771.51176453 513.48101807 771.51176453 514 768 C515.32 767.01 516.64 766.02 518 765 C518.33 793.38 518.66 821.76 519 851 C573.45 851 627.9 851 684 851 C684 796.55 684 742.1 684 686 C655.62 685.67 627.24 685.34 598 685 C601 681 601 681 604.51176453 680.48101807 C605.9941508 680.45161219 607.47707072 680.44438701 608.9597168 680.45410156 C609.78278981 680.44370724 610.60586283 680.43331291 611.45387745 680.42260361 C614.11919979 680.39345084 616.78375262 680.39153507 619.44921875 680.390625 C621.09429522 680.37663255 622.73935753 680.36085651 624.38439941 680.34326172 C630.48528436 680.29054205 636.5864283 680.27237459 642.6875 680.25 C663.1371875 680.12625 663.1371875 680.12625 684 680 C684 625.55 684 571.1 684 515 C673.11 515 662.22 515 651 515 C651 513.02 651 511.04 651 509 C661.89 509 672.78 509 684 509 C684 454.55 684 400.1 684 344 C656.81980711 343.82947435 656.81980711 343.82947435 629.6394043 343.70214844 C624.38439941 343.65673828 624.38439941 343.65673828 621.92488098 343.63043213 C620.20589273 343.61581101 618.48682682 343.60904641 616.76777649 343.60845947 C614.16456824 343.60604916 611.56269456 343.57877061 608.9597168 343.54589844 C608.19293704 343.55092251 607.42615728 343.55594658 606.63614178 343.56112289 C604.51176453 343.51898193 604.51176453 343.51898193 601 343 C600.01 341.68 599.02 340.36 598 339 C626.38 338.67 654.76 338.34 684 338 C684 283.55 684 229.1 684 173 C629.55 173 575.1 173 519 173 C519 201.38 519 229.76 519 259 C517.35 258.01 515.7 257.02 514 256 C513.4820008 253.1542749 513.3085079 250.89214937 513.34057617 248.0402832 C513.32480388 246.80567368 513.32480388 246.80567368 513.30871296 245.54612255 C513.28030481 242.88061137 513.28600627 240.21641043 513.29296875 237.55078125 C513.2804465 235.90570238 513.26569067 234.26063893 513.24865723 232.61560059 C513.20118119 226.51471772 513.19697494 220.41356023 513.1875 214.3125 C513.0946875 193.8628125 513.0946875 193.8628125 513 173 C458.55 173 404.1 173 348 173 C348 183.56 348 194.12 348 205 C346.02 205 344.04 205 342 205 C342 194.44 342 183.88 342 173 C287.55 173 233.1 173 177 173 C177 200.06 177 227.12 177 255 C174.525 255.99 174.525 255.99 172 257 C171.67 229.28 171.34 201.56 171 173 C116.55 173 62.1 173 6 173 Z " fill="#DCDCE0" transform="translate(168,0)"/>
<path d="M0 0 C1.98 0 3.96 0 6 0 C6 34.32 6 68.64 6 104 C39.99 104 73.98 104 109 104 C109 105.98 109 107.96 109 110 C75.01 110 41.02 110 6 110 C6 144.32 6 178.64 6 214 C4.02 214 2.04 214 0 214 C0 179.68 0 145.36 0 110 C-34.65 110 -69.3 110 -105 110 C-105 108.02 -105 106.04 -105 104 C-70.35 104 -35.7 104 0 104 C0 69.68 0 35.36 0 0 Z " fill="#DCDCE0" transform="translate(510,405)"/>
<path d="M0 0 C0 48.84 0 97.68 0 148 C15.84 148 31.68 148 48 148 C48 149.98 48 151.96 48 154 C32.16 154 16.32 154 0 154 C0 202.51 0 251.02 0 301 C-5 297 -5 297 -6 295 C-6.09361491 293.13744885 -6.12191073 291.27148724 -6.12025452 289.40658569 C-6.12162918 288.21744064 -6.12300385 287.02829559 -6.12442017 285.80311584 C-6.11902725 283.83622047 -6.11902725 283.83622047 -6.11352539 281.82958984 C-6.11324343 280.44014996 -6.11340142 279.05070993 -6.1139679 277.66127014 C-6.11425554 273.88257049 -6.10836413 270.10390239 -6.10139394 266.32521009 C-6.09515492 262.37872444 -6.09455617 258.43223811 -6.09336853 254.48574829 C-6.09025684 247.0094972 -6.08204562 239.53326068 -6.07201904 232.05701602 C-6.06085289 223.54685544 -6.05534619 215.03669419 -6.05032361 206.52652812 C-6.03986288 189.01767547 -6.0215194 171.5088428 -6 154 C-23.16 154 -40.32 154 -58 154 C-58 152.02 -58 150.04 -58 148 C-40.84 148 -23.68 148 -6 148 C-6.02618408 143.72981934 -6.05236816 139.45963867 -6.0793457 135.06005859 C-6.16213797 120.96255878 -6.21765585 106.86504949 -6.25906086 92.76737022 C-6.28483619 84.21864806 -6.31997369 75.6701563 -6.37719727 67.12158203 C-6.42705302 59.67012331 -6.4592959 52.21883147 -6.47044247 44.7672106 C-6.47695765 40.82199737 -6.49225546 36.87726152 -6.52865028 32.93220139 C-6.56264457 29.21717387 -6.57304636 25.50281934 -6.56553841 21.78765106 C-6.56756506 19.77768867 -6.59444234 17.76779922 -6.62210083 15.75802612 C-6.56581667 5.90644335 -6.56581667 5.90644335 -3.52702332 2.14273071 C-1 0 -1 0 0 0 Z " fill="#DCDCE0" transform="translate(345,361)"/>
<path d="M0 0 C1.98 0 3.96 0 6 0 C6 17.16 6 34.32 6 52 C12.31439209 51.96072388 12.31439209 51.96072388 18.75634766 51.9206543 C32.65428198 51.83785971 46.55221246 51.78234324 60.45032692 51.74093914 C68.87798259 51.7151645 77.30540452 51.68002835 85.73291016 51.62280273 C93.07889347 51.57294483 100.4247075 51.54070359 107.77085531 51.52955753 C111.66018022 51.52304271 115.54902086 51.50774725 119.43819046 51.47134972 C123.10069086 51.43735198 126.76250861 51.42695431 130.42515182 51.43446159 C132.40648872 51.43243523 134.38775164 51.4055597 136.36889648 51.37789917 C146.08269732 51.43418345 146.08269732 51.43418345 149.84579468 54.47297668 C152 57 152 57 152 58 C103.82 58 55.64 58 6 58 C6 74.17 6 90.34 6 107 C4.02 107 2.04 107 0 107 C0 90.83 0 74.66 0 58 C-48.84 58 -97.68 58 -148 58 C-144 53 -144 53 -142 52 C-140.12478323 51.90634594 -138.2461751 51.87808979 -136.36862183 51.87974548 C-135.17106262 51.87837082 -133.97350342 51.87699615 -132.73965454 51.87557983 C-131.40570044 51.87911919 -130.07174658 51.882754 -128.73779297 51.88647461 C-127.338501 51.88675656 -125.93920888 51.88659858 -124.53991699 51.8860321 C-120.73435878 51.88574446 -116.92883191 51.89163594 -113.123281 51.89860606 C-109.14876812 51.904845 -105.17425457 51.90544383 -101.19973755 51.90663147 C-93.67036256 51.90974319 -86.14100203 51.91795444 -78.61163342 51.92798096 C-70.04101449 51.93914703 -61.47039489 51.9446538 -52.8997705 51.94967639 C-35.26650379 51.96013717 -17.63325692 51.97848069 0 52 C0 34.84 0 17.68 0 0 Z " fill="#DCDCE0" transform="translate(510,286)"/>
<path d="M0 0 C1.98 0 3.96 0 6 0 C6 16.17 6 32.34 6 49 C53.85 49 101.7 49 151 49 C145 55 145 55 142.70613766 55.12304783 C141.68202565 55.12212604 140.65791365 55.12120424 139.60276794 55.12025452 C137.84635483 55.12231651 137.84635483 55.12231651 136.05445862 55.12442017 C134.75830124 55.12082489 133.46214386 55.11722961 132.12670898 55.11352539 C130.75712079 55.11324352 129.38753244 55.11340125 128.01794434 55.1139679 C124.28877052 55.11425588 120.55962859 55.10835909 116.83046222 55.10139394 C112.93735587 55.09516047 109.04424887 55.09455661 105.15113831 55.09336853 C97.77401854 55.09025519 90.39691351 55.08204178 83.01980025 55.07201904 C74.62332457 55.06085797 66.22684821 55.05534747 57.83036697 55.05032361 C40.55356798 55.03985916 23.2767893 55.02151366 6 55 C6 71.83 6 88.66 6 106 C4.02 106 2.04 106 0 106 C0 89.17 0 72.34 0 55 C-6.35983154 55.03927612 -6.35983154 55.03927612 -12.84814453 55.0793457 C-26.84585904 55.16213911 -40.8435831 55.21765631 -54.84147835 55.25906086 C-63.32966726 55.28483585 -71.81762411 55.31997268 -80.30566406 55.37719727 C-87.70438508 55.42705409 -95.10293802 55.45929615 -102.50182235 55.47044247 C-106.41909141 55.47695747 -110.33587967 55.49225411 -114.25299454 55.52865028 C-117.94175849 55.56264629 -121.62984465 55.57304603 -125.31875038 55.56553841 C-127.31440002 55.56756492 -129.3099762 55.59444132 -131.30543518 55.62210083 C-141.08812699 55.56581661 -141.08812699 55.56581661 -144.85153198 52.52702332 C-147 50 -147 50 -147 49 C-98.49 49 -49.98 49 0 49 C0 32.83 0 16.66 0 0 Z " fill="#DCDCE0" transform="translate(510,631)"/>
<path d="M0 0 C6 6 6 6 6.12304783 8.30947971 C6.12166514 9.85670924 6.12166514 9.85670924 6.12025452 11.43519592 C6.12162918 12.61455215 6.12300385 13.79390839 6.12442017 15.00900269 C6.11902725 16.96726486 6.11902725 16.96726486 6.11352539 18.96508789 C6.11324352 20.34452818 6.11340125 21.72396861 6.1139679 23.10340881 C6.11425588 26.85944118 6.10835905 30.61544189 6.10139394 34.37146688 C6.09516051 38.29260045 6.09455661 42.21373467 6.09336853 46.13487244 C6.09025518 53.56511611 6.08204175 60.99534514 6.07201904 68.42558235 C6.06085801 76.88251638 6.05534748 85.3394511 6.05032361 93.79639065 C6.03985914 111.19760377 6.02151361 128.5987968 6 146 C22.5 146 39 146 56 146 C56 147.98 56 149.96 56 152 C39.5 152 23 152 6 152 C6.02618408 156.17930176 6.05236816 160.35860352 6.0793457 164.66455078 C6.16214147 178.46269982 6.21765723 192.260845 6.25906086 206.05917549 C6.28483515 214.42629793 6.31997061 222.79318493 6.37719727 231.16015625 C6.42705627 238.45340186 6.45929666 245.74647695 6.47044247 253.03988826 C6.47695711 256.90126906 6.49225137 260.76216204 6.52865028 264.62338638 C6.56264979 268.25962326 6.57304535 271.89517254 6.56553841 275.53155327 C6.56756463 277.49857743 6.59443926 279.46552709 6.62210083 281.43235779 C6.56581649 291.07726766 6.56581649 291.07726766 3.52702332 294.84005737 C1 297 1 297 0 297 C0 249.15 0 201.3 0 152 C-16.5 152 -33 152 -50 152 C-50 150.02 -50 148.04 -50 146 C-33.5 146 -17 146 0 146 C0 97.82 0 49.64 0 0 Z " fill="#DCDCE0" transform="translate(681,363)"/>
<path d="M0 0 C0 2.64 0 5.28 0 8 C22.11 8 44.22 8 67 8 C66 10 65 12 64 14 C42.88 14 21.76 14 0 14 C0.15834231 34.92757391 0.15834231 34.92757391 0.36035156 55.85473633 C0.37203051 58.47216137 0.3822242 61.08959364 0.390625 63.70703125 C0.40107849 64.38755051 0.41153198 65.06806976 0.42230225 65.76921082 C0.45155797 67.7740964 0.45335541 69.77932495 0.45410156 71.78442383 C0.46298401 72.91471512 0.47186646 74.04500641 0.48101807 75.20954895 C0 78 0 78 -1.90338135 79.88847351 C-4 81 -4 81 -6 81 C-6 58.89 -6 36.78 -6 14 C-8.64 14 -11.28 14 -14 14 C-10.38671875 9.3125 -10.38671875 9.3125 -9 8 C-8.01 8 -7.02 8 -6 8 C-5.9175 7.4225 -5.835 6.845 -5.75 6.25 C-4.95052646 3.85157937 -2.91881069 0 0 0 Z " fill="#DCDCE0" transform="translate(687,672)"/>
<path d="M0 0 C4.52615993 3.67832017 8.39424999 7.41086363 12 12 C10.02 12 8.04 12 6 12 C6 34.77 6 57.54 6 81 C1 78 1 78 0 77 C-0.09409479 74.97505769 -0.11743122 72.9468013 -0.11352539 70.91967773 C-0.11340454 69.60012085 -0.11328369 68.28056396 -0.11315918 66.92102051 C-0.10812269 65.50854445 -0.10295606 64.09606885 -0.09765625 62.68359375 C-0.09664917 61.40681763 -0.09564209 60.1300415 -0.09460449 58.8145752 C-0.08935266 54.02220773 -0.07539156 49.22985301 -0.0625 44.4375 C-0.041875 33.733125 -0.02125 23.02875 0 12 C-21.78 12 -43.56 12 -66 12 C-66.99 10.02 -67.98 8.04 -69 6 C-46.23 6 -23.46 6 0 6 C0 4.02 0 2.04 0 0 Z " fill="#DCDCE0" transform="translate(339,674)"/>
<path d="M0 0 C6 4 6 4 6.7215271 6.91070557 C6.70820343 8.03877625 6.69487976 9.16684692 6.68115234 10.32910156 C6.6800647 12.27743896 6.6800647 12.27743896 6.67895508 14.26513672 C6.64874447 15.64031718 6.61774515 17.01548055 6.5859375 18.390625 C6.57989502 19.64472168 6.57385254 20.89881836 6.56762695 22.19091797 C6.53622389 26.87761329 6.45245531 31.56383954 6.375 36.25 C6.25125 46.7275 6.1275 57.205 6 68 C27.12 68 48.24 68 70 68 C70.99 69.98 71.98 71.96 73 74 C50.89 74 28.78 74 6 74 C6 76.31 6 78.62 6 81 C3.95880212 79.38405168 1.95927063 77.7143618 0 76 C0 75.34 0 74.68 0 74 C-0.8971875 73.62875 -0.8971875 73.62875 -1.8125 73.25 C-4.28647521 71.83629988 -5.43370255 70.34944617 -7 68 C-4.69 68 -2.38 68 0 68 C0 45.56 0 23.12 0 0 Z " fill="#DCDCE0" transform="translate(681,270)"/>
<path d="M0 0 C0 22.77 0 45.54 0 69 C1.65 69 3.3 69 5 69 C1.6189962 73.13621084 -1.66590534 76.81316569 -6 80 C-6 78.35 -6 76.7 -6 75 C-28.77 75 -51.54 75 -75 75 C-74 73 -73 71 -72 69 C-50.22 69 -28.44 69 -6 69 C-6.19786356 47.78825621 -6.19786356 47.78825621 -6.45043945 26.57714844 C-6.46504019 23.92123414 -6.47778183 21.26530868 -6.48828125 18.609375 C-6.50134811 17.9207135 -6.51441498 17.232052 -6.52787781 16.52252197 C-6.5645258 14.4889345 -6.56669533 12.45481589 -6.56762695 10.42089844 C-6.57873001 9.27506287 -6.58983307 8.12922729 -6.60127258 6.94866943 C-6 4 -6 4 -3.52702332 1.59869385 C-1 0 -1 0 0 0 Z " fill="#DCDCE0" transform="translate(345,269)"/>
<path d="M0 0 C1.98 0 3.96 0 6 0 C6 19.14 6 38.28 6 58 C4.02 58 2.04 58 0 58 C0 38.86 0 19.72 0 0 Z " fill="#DDDDE1" transform="translate(510,749)"/>
<path d="M0 0 C19.14 0 38.28 0 58 0 C58 1.98 58 3.96 58 6 C38.86 6 19.72 6 0 6 C0 4.02 0 2.04 0 0 Z " fill="#DDDDE1" transform="translate(749,509)"/>
<path d="M0 0 C19.14 0 38.28 0 58 0 C58 1.98 58 3.96 58 6 C38.86 6 19.72 6 0 6 C0 4.02 0 2.04 0 0 Z " fill="#DDDDE1" transform="translate(217,509)"/>
<path d="M0 0 C1.98 0 3.96 0 6 0 C6 18.81 6 37.62 6 57 C4.02 57 2.04 57 0 57 C0 38.19 0 19.38 0 0 Z " fill="#DDDDE1" transform="translate(510,217)"/>
</svg>
