<?xml version="1.0" encoding="UTF-8"?>
<svg version="1.1" xmlns="http://www.w3.org/2000/svg" width="48" height="48">
<path d="M0 0 C1.62760417 1.00911458 3.25520833 2.01822917 4.8828125 3.02734375 C4.8828125 7.31734375 4.8828125 11.60734375 4.8828125 16.02734375 C7.3578125 17.01734375 7.3578125 17.01734375 9.8828125 18.02734375 C13.43079414 19.61781828 14.60824785 20.32238046 16.0390625 23.99609375 C16.43085505 28.02087181 16.7584165 31.38844163 14.8828125 35.02734375 C9.47042345 40.30538272 0.53943569 46.02734375 -7.1796875 46.02734375 C-8.1490625 45.69734375 -9.1184375 45.36734375 -10.1171875 45.02734375 C-10.79378418 44.82310791 -11.47038086 44.61887207 -12.16748047 44.40844727 C-17.93750522 42.48323108 -23.3432119 39.92571916 -27.1171875 35.02734375 C-30.23910479 26.84460464 -30.32920884 17.18997841 -27.1171875 9.02734375 C-20.87702404 1.29575807 -9.48201321 -4.35612784 0 0 Z " fill="#EAEAEA" transform="translate(27.1171875,1.97265625)"/>
<path d="M0 0 C2.49391592 1.1457289 4.65800553 2.54796343 7 4 C7 8.29 7 12.58 7 17 C9.475 17.99 9.475 17.99 12 19 C15.54798164 20.59047453 16.72543535 21.29503671 18.15625 24.96875 C18.87854251 32.38866397 18.87854251 32.38866397 17 36 C11.94297086 40.84428703 4.69819417 44.94605574 -2 47 C-4.28417969 46.61352539 -4.28417969 46.61352539 -6 46 C-5.34 46 -4.68 46 -4 46 C-4 42.37 -4 38.74 -4 35 C-4.66 34.67 -5.32 34.34 -6 34 C-5.34 34 -4.68 34 -4 34 C-4.05800781 33.25234375 -4.11601562 32.5046875 -4.17578125 31.734375 C-4.54816078 23.60586191 -4.54816078 23.60586191 -1.625 20.375 C-0.08980712 19.57085135 1.4499104 18.7750448 3 18 C3 17.34 3 16.68 3 16 C-0.29549466 14.27735506 -3.33118845 12.70554068 -7 12 C-6 10 -6 10 -4.22265625 9.21875 C-3.50980469 8.9815625 -2.79695313 8.744375 -2.0625 8.5 C0.70455204 7.57597536 1.89137369 7.10862631 4 5 C2.4221875 3.948125 2.4221875 3.948125 0.8125 2.875 C0.22082031 2.48054687 -0.37085937 2.08609375 -0.98046875 1.6796875 C-3.03308366 0.77966045 -3.03308366 0.77966045 -5.29296875 1.62890625 C-8.64049541 3.32440676 -11.89222469 5.16026695 -15.125 7.0625 C-21.60504775 10.86834925 -21.60504775 10.86834925 -25 12 C-25 11.34 -25 10.68 -25 10 C-22.14235121 7.82905005 -18.97274385 6.1180032 -15.875 4.3125 C-15.0190625 3.78849609 -14.163125 3.26449219 -13.28125 2.72460938 C-5.30768613 -1.94299224 -5.30768613 -1.94299224 0 0 Z " fill="#020202" transform="translate(25,1)"/>
<path d="M0 0 C0.33 0 0.66 0 1 0 C0.99097656 0.74765625 0.98195312 1.4953125 0.97265625 2.265625 C0.9152397 7.9514369 0.9152397 7.9514369 3.625 12.62109375 C5.75540342 13.85172714 5.75540342 13.85172714 9 15 C9 11.37 9 7.74 9 4 C11.31 3.34 13.62 2.68 16 2 C15.67 2.66 15.34 3.32 15 4 C14.34 4 13.68 4 13 4 C13.33 4.99 13.66 5.98 14 7 C13.34 7 12.68 7 12 7 C11.94604522 8.62463842 11.90722805 10.24978541 11.875 11.875 C11.84019531 13.23238281 11.84019531 13.23238281 11.8046875 14.6171875 C11.75675164 17.18806994 11.75675164 17.18806994 14 19 C13.34 19.33 12.68 19.66 12 20 C11.53348793 22.12576782 11.53348793 22.12576782 11.375 24.5625 C11.30023438 25.38878906 11.22546875 26.21507813 11.1484375 27.06640625 C11.09945313 27.70449219 11.05046875 28.34257813 11 29 C11.928125 29.28875 12.85625 29.5775 13.8125 29.875 C17 31 17 31 20 33 C20 29.7 20 26.4 20 23 C20.33 23 20.66 23 21 23 C21 26.63 21 30.26 21 34 C13.80164594 33.11422123 6.87477918 30.89216483 1.37548828 26.00390625 C-3.3048671 19.18524154 -0.89806868 7.77312987 0 0 Z " fill="#303030" transform="translate(0,13)"/>
<path d="M0 0 C2.49391592 1.1457289 4.65800553 2.54796343 7 4 C7 8.29 7 12.58 7 17 C9.475 17.99 9.475 17.99 12 19 C12.495 20.485 12.495 20.485 13 22 C13.66 22 14.32 22 15 22 C15 22.66 15 23.32 15 24 C8.25 28 8.25 28 6 28 C6 24.7 6 21.4 6 18 C5.34 18 4.68 18 4 18 C3.5875 17.54625 3.175 17.0925 2.75 16.625 C0.41308371 14.45500631 -1.97323417 13.90158982 -5 13 C-5.66 12.67 -6.32 12.34 -7 12 C-6 10 -6 10 -4.22265625 9.21875 C-3.50980469 8.9815625 -2.79695313 8.744375 -2.0625 8.5 C0.70455204 7.57597536 1.89137369 7.10862631 4 5 C2.4221875 3.948125 2.4221875 3.948125 0.8125 2.875 C0.22082031 2.48054687 -0.37085937 2.08609375 -0.98046875 1.6796875 C-3.03308366 0.77966045 -3.03308366 0.77966045 -5.29296875 1.62890625 C-8.64049541 3.32440676 -11.89222469 5.16026695 -15.125 7.0625 C-21.60504775 10.86834925 -21.60504775 10.86834925 -25 12 C-25 11.34 -25 10.68 -25 10 C-22.14235121 7.82905005 -18.97274385 6.1180032 -15.875 4.3125 C-15.0190625 3.78849609 -14.163125 3.26449219 -13.28125 2.72460938 C-5.30768613 -1.94299224 -5.30768613 -1.94299224 0 0 Z " fill="#1C1C1C" transform="translate(25,1)"/>
<path d="M0 0 C1.313702 0.6433848 2.62592898 1.28978215 3.9375 1.9375 C4.66839844 2.29714844 5.39929688 2.65679688 6.15234375 3.02734375 C8 4 8 4 9 5 C9.08700342 6.63472882 9.10701063 8.27314055 9.09765625 9.91015625 C9.09443359 10.89951172 9.09121094 11.88886719 9.08789062 12.90820312 C9.07951172 13.94912109 9.07113281 14.99003906 9.0625 16.0625 C9.05798828 17.10728516 9.05347656 18.15207031 9.04882812 19.22851562 C9.03699913 21.8190666 9.02051689 24.40950559 9 27 C5.92254092 25.78534783 2.93823196 24.52352768 0 23 C0 15.33333333 0 7.66666667 0 0 Z " fill="#EDEDED" transform="translate(11,19)"/>
<path d="M0 0 C1.875 1.125 1.875 1.125 3 3 C3.36528977 6.4093712 3.6140629 8.88023824 1.9375 11.9375 C-1.1652833 13.63902633 -3.53769185 13.42519574 -7 13 C-9.5 11.4375 -9.5 11.4375 -11 9 C-11 5.18846501 -10.80074051 2.94902579 -8.3125 0 C-5.12832007 -1.37694267 -3.29075199 -0.980224 0 0 Z " fill="#121212" transform="translate(45,3)"/>
<path d="M0 0 C-1 3 -1 3 -4 4.5 C-7.21012941 6.6613139 -7.21012941 6.6613139 -7.6171875 9.703125 C-7.85197654 12.47790455 -7.99039932 15.215802 -8 18 C-8.33 18 -8.66 18 -9 18 C-9.01417969 17.24074219 -9.02835938 16.48148438 -9.04296875 15.69921875 C-9.18583877 12.72211644 -9.38933607 9.9190602 -10 7 C-12.3726974 4.99135641 -12.3726974 4.99135641 -15 4 C-16 2 -16 2 -16 0 C-14.60461047 -1.98292196 -13.39022398 -2.82507201 -11.1875 -3.8125 C-6.85757668 -4.18363628 -3.51864674 -2.3457645 0 0 Z " fill="#DDDDDD" transform="translate(29,17)"/>
<path d="M0 0 C2.9719385 1.12451727 5.33440687 2.22293791 8 4 C8.29296875 6.6015625 8.29296875 6.6015625 8.1875 9.625 C8.16042969 10.62789062 8.13335937 11.63078125 8.10546875 12.6640625 C8.07066406 13.43492188 8.03585937 14.20578125 8 15 C5.03 13.35 2.06 11.7 -1 10 C-1.09765625 3.06640625 -1.09765625 3.06640625 -1 1 C-0.67 0.67 -0.34 0.34 0 0 Z " fill="#FBFBFB" transform="translate(2,14)"/>
<path d="M0 0 C3.40312738 1.05875074 6.01353231 2.00902154 9 4 C9.29296875 6.3828125 9.29296875 6.3828125 9.1875 9.125 C9.16042969 10.03507812 9.13335937 10.94515625 9.10546875 11.8828125 C9.07066406 12.58148438 9.03585937 13.28015625 9 14 C5.59687262 12.94124926 2.98646769 11.99097846 0 10 C-0.29296875 7.6171875 -0.29296875 7.6171875 -0.1875 4.875 C-0.16042969 3.96492188 -0.13335937 3.05484375 -0.10546875 2.1171875 C-0.07066406 1.41851563 -0.03585938 0.71984375 0 0 Z " fill="#FAFAFA" transform="translate(1,26)"/>
<path d="M0 0 C2.9719385 1.12451727 5.33440687 2.22293791 8 4 C8.29296875 6.3828125 8.29296875 6.3828125 8.1875 9.125 C8.16042969 10.03507812 8.13335937 10.94515625 8.10546875 11.8828125 C8.07066406 12.58148438 8.03585938 13.28015625 8 14 C4.91489173 12.80023567 1.94952958 11.49997444 -1 10 C-1.02689216 8.52093108 -1.04634621 7.04172517 -1.0625 5.5625 C-1.07410156 4.73878906 -1.08570313 3.91507813 -1.09765625 3.06640625 C-1 1 -1 1 0 0 Z " fill="#F6F6F6" transform="translate(12,32)"/>
<path d="M0 0 C0.94875 0.04125 1.8975 0.0825 2.875 0.125 C3.535 1.445 4.195 2.765 4.875 4.125 C2.6875 6.6875 2.6875 6.6875 -0.125 9.125 C-2.9375 8.9375 -2.9375 8.9375 -5.125 8.125 C-5.25 5.25 -5.25 5.25 -5.125 2.125 C-3.125 0.125 -3.125 0.125 0 0 Z " fill="#F8F8F8" transform="translate(41.125,3.875)"/>
<path d="M0 0 C0.66 0.33 1.32 0.66 2 1 C1.01 1.33 0.02 1.66 -1 2 C-0.67 2.99 -0.34 3.98 0 5 C-0.66 5 -1.32 5 -2 5 C-2.05395478 6.62463842 -2.09277195 8.24978541 -2.125 9.875 C-2.15980469 11.23238281 -2.15980469 11.23238281 -2.1953125 12.6171875 C-2.24324836 15.18806994 -2.24324836 15.18806994 0 17 C-0.66 17.33 -1.32 17.66 -2 18 C-2.46523063 19.89533342 -2.46523063 19.89533342 -2.625 22.0625 C-2.810625 24.0115625 -2.810625 24.0115625 -3 26 C-3.66 25.67 -4.32 25.34 -5 25 C-4.67 21.7 -4.34 18.4 -4 15 C-4.99 14.67 -5.98 14.34 -7 14 C-6.34 13.67 -5.68 13.34 -5 13 C-5 9.37 -5 5.74 -5 2 C-3.35 1.34 -1.7 0.68 0 0 Z " fill="#646464" transform="translate(14,15)"/>
<path d="M0 0 C5.75 1.875 5.75 1.875 8 3 C8 3.66 8 4.32 8 5 C2.25 8 2.25 8 0 8 C0 5.36 0 2.72 0 0 Z " fill="#F2F2F2" transform="translate(32,20)"/>
<path d="M0 0 C0 0.99 0 1.98 0 3 C-0.33 2.67 -0.66 2.34 -1 2 C-4 1.83333333 -4 1.83333333 -7 2 C-8.32745166 3.11258591 -8.32745166 3.11258591 -8.25 5.9375 C-8.1675 6.948125 -8.085 7.95875 -8 9 C-7.01 9.66 -6.02 10.32 -5 11 C-6.32 11.33 -7.64 11.66 -9 12 C-11 9 -11 9 -10.875 5.5 C-10 2 -10 2 -8.3125 0 C-5.22020156 -1.33721014 -3.21223855 -0.80305964 0 0 Z " fill="#313131" transform="translate(45,3)"/>
</svg>
