<?xml version="1.0" encoding="UTF-8"?>
<svg version="1.1" xmlns="http://www.w3.org/2000/svg" width="256" height="256">
<path d="M0 0 C0.95659327 -0.00623996 1.91318653 -0.01247993 2.89876747 -0.01890898 C6.09471118 -0.03482618 9.28989087 -0.02223937 12.48583984 -0.00964355 C14.78090865 -0.01506522 17.07597398 -0.02218812 19.37103271 -0.03088379 C25.59824918 -0.04911459 31.82520048 -0.04205041 38.05242157 -0.02936745 C44.57011122 -0.01923864 51.08777821 -0.0286328 57.60546875 -0.03491211 C69.25168454 -0.0426549 80.89777934 -0.03022621 92.54397607 -0.00987476 C103.09692268 0.00799554 113.64969328 0.00489121 124.20263672 -0.0135498 C136.46650639 -0.03497068 148.73025075 -0.04291608 160.99413872 -0.03110075 C167.48272808 -0.02486542 173.97119626 -0.02403143 180.45977783 -0.0372467 C186.56002112 -0.04880324 192.65993207 -0.04078254 198.76013947 -0.01766968 C200.99865416 -0.01238161 203.23719683 -0.01389799 205.47570038 -0.02272034 C208.53202911 -0.03365512 211.58729371 -0.01993632 214.64355469 0 C215.52887186 -0.00892289 216.41418903 -0.01784577 217.326334 -0.02703905 C223.14555182 0.04656059 226.55080188 1.12073979 231.32177734 4.50793457 C235.04377567 9.2797273 235.97972934 13.04352084 235.70458984 19.07824707 C234.86571951 24.40250569 232.55039057 27.55513247 228.25927734 30.88293457 C223.21567705 33.67301133 218.90863466 33.65628318 213.28315735 33.65510559 C211.87895366 33.66062062 211.87895366 33.66062062 210.44638222 33.66624707 C207.29587368 33.6772984 204.14539809 33.68113021 200.99487305 33.68493652 C198.74142858 33.69120008 196.48798514 33.69784678 194.23454285 33.70484924 C188.1021511 33.72226894 181.96976716 33.73281367 175.83735681 33.74105477 C172.00716723 33.74620291 168.17698008 33.75227872 164.34679222 33.7585659 C153.73954844 33.77543665 143.1323068 33.79007138 132.52505207 33.79731464 C129.77280488 33.7992245 127.0205577 33.80114483 124.26831055 33.80310059 C123.24224093 33.8038262 123.24224093 33.8038262 122.19544264 33.80456647 C111.1173598 33.81286461 100.03938501 33.83819799 88.96134935 33.87068126 C77.58424459 33.90376909 66.20721404 33.92143232 54.83005399 33.92495888 C48.4436253 33.92731099 42.0573674 33.93629258 35.67098427 33.96142006 C29.66193635 33.98468057 23.6531719 33.98894195 17.64409065 33.97865868 C15.4398479 33.97816272 13.23559129 33.98450073 11.03139114 33.99821472 C8.01902613 34.01590661 5.00768135 34.00884027 1.99531555 33.99568176 C0.69096203 34.01213563 0.69096203 34.01213563 -0.63974208 34.0289219 C-6.43638343 33.9679102 -10.83254168 32.76621163 -15.67822266 29.50793457 C-20.29995498 24.64919034 -21.04645635 20.58126623 -20.95166016 14.07824707 C-20.50452123 9.87514113 -19.29719957 7.86559728 -16.67822266 4.50793457 C-11.03624738 0.50236603 -6.81709064 -0.06870772 0 0 Z M-12.67822266 11.50793457 C-14.24757859 14.64664645 -14.03023368 17.04649279 -13.67822266 20.50793457 C-11.50548046 23.13809618 -9.73148478 24.98130351 -6.67822266 26.50793457 C-3.71641262 26.61056452 -0.77786154 26.6513002 2.18440247 26.64837646 C3.5782489 26.65283315 3.5782489 26.65283315 5.00025386 26.65737987 C8.13323485 26.66609433 11.26617775 26.66757743 14.39916992 26.66906738 C16.63763003 26.67369361 18.87608934 26.678718 21.11454773 26.68411255 C27.20961166 26.6972573 33.30466456 26.70368554 39.39974046 26.70812321 C43.20460742 26.71105057 47.00947134 26.71515472 50.81433678 26.71962738 C61.34605786 26.73173926 71.87777715 26.74212031 82.40950489 26.74550247 C83.42093586 26.74583182 83.42093586 26.74583182 84.45279978 26.74616782 C85.46667175 26.74649524 85.46667175 26.74649524 86.50102597 26.74682927 C87.87071979 26.74727274 89.24041361 26.7477193 90.61010742 26.74816895 C91.28952503 26.74839038 91.96894265 26.7486118 92.66894867 26.74883994 C103.67796884 26.75278795 114.68692281 26.7702414 125.69591741 26.79352847 C136.99499995 26.81723648 148.29405042 26.82944604 159.59316176 26.83087039 C165.93867569 26.83192025 172.2840963 26.83786643 178.62958717 26.85569 C184.5975401 26.87212643 190.56532914 26.87434773 196.53329659 26.86555099 C198.72589302 26.86477824 200.91849811 26.86915449 203.11107254 26.87900925 C206.10031255 26.89165855 209.08896591 26.88589006 212.07820129 26.87542725 C212.94940906 26.88348365 213.82061682 26.89154006 214.71822482 26.89984059 C219.4032491 26.86138973 222.53956484 26.58305053 226.32177734 23.50793457 C228.81336774 19.77054897 228.77971019 17.93461874 228.32177734 13.50793457 C226.52615329 10.75464436 225.26922812 8.98165996 222.32177734 7.50793457 C219.33478461 7.40309557 216.37075079 7.36014167 213.38322449 7.36076355 C211.97712739 7.35524852 211.97712739 7.35524852 210.54262429 7.34962207 C207.38200776 7.33855424 204.22142406 7.33473617 201.06079102 7.33093262 C198.80262649 7.32467037 196.544463 7.31802378 194.28630066 7.3110199 C188.13752273 7.29358936 181.98875258 7.28305281 175.83995605 7.27481437 C172.00158728 7.26966919 168.16322095 7.26359329 164.3248539 7.25730324 C153.70048784 7.24043142 143.07612393 7.22579595 132.45174694 7.2185545 C129.69414964 7.21664456 126.93655235 7.21472423 124.17895508 7.21276855 C123.49355624 7.21228481 122.80815739 7.21180107 122.10198889 7.21130268 C110.99594987 7.20300021 99.89001848 7.17765981 88.78402647 7.14518788 C77.38549762 7.11213192 65.98704278 7.09443999 54.58845884 7.09091026 C48.18702055 7.08855512 41.78575236 7.07953431 35.38435936 7.05444908 C29.36384328 7.03123791 23.34361015 7.02690716 17.32306099 7.03721046 C15.11110877 7.03770761 12.89914294 7.03133486 10.68723297 7.01765442 C7.67157305 7.00004373 4.65694053 7.00698851 1.64128113 7.02018738 C0.32279664 7.00373351 0.32279664 7.00373351 -1.02232391 6.98694724 C-6.16908528 7.041477 -8.96855859 7.58377886 -12.67822266 11.50793457 Z " fill="#FFFFFF" transform="translate(20.67822265625,31.4920654296875)"/>
<path d="M0 0 C1.40513377 -0.00435221 2.81026516 -0.00953705 4.21539307 -0.01548767 C8.01714142 -0.02883478 11.8187901 -0.0294611 15.62055731 -0.02692437 C18.80128845 -0.02585166 21.98199967 -0.03074574 25.16272652 -0.03552979 C32.6706741 -0.04661034 40.17857164 -0.0470707 47.68652344 -0.04101562 C55.41584409 -0.03497758 63.14498263 -0.04728582 70.87427223 -0.06858569 C77.52504153 -0.08623533 84.17575304 -0.09219773 90.82654488 -0.08894795 C94.79226965 -0.08714017 98.75786453 -0.08972055 102.72356796 -0.10366249 C106.45503127 -0.11629098 110.18621195 -0.1142497 113.9176712 -0.1012516 C115.92810308 -0.09778039 117.9385438 -0.10902693 119.94894409 -0.12081909 C135.25304895 -0.03238652 135.25304895 -0.03238652 140.70676994 4.62037182 C143.8344834 8.13708613 146.08978857 11.61115737 146.16064453 16.3762207 C145.80671639 21.66744641 144.66623512 25.1642759 141.12939453 29.2746582 C135.67699142 33.47755227 131.91736958 34.39618153 125.15948486 34.4151001 C123.93708099 34.42081024 122.71467712 34.42652039 121.45523071 34.43240356 C120.10345469 34.43364883 118.75167856 34.43477395 117.39990234 34.43579102 C115.97388582 34.44042125 114.54787054 34.44544619 113.12185669 34.45083618 C109.24977953 34.46394329 105.37771969 34.47040196 101.50562382 34.47484684 C99.0846871 34.47778058 96.66375509 34.48188598 94.24282074 34.48635101 C86.66306304 34.50002212 79.08331613 34.5096904 71.50354695 34.5135529 C62.76364062 34.51803144 54.02389085 34.53557141 45.28403211 34.5645535 C38.5220957 34.58619562 31.76020326 34.59625855 24.9982326 34.59759402 C20.96262002 34.59864033 16.92715469 34.60451084 12.89157867 34.62241364 C9.09287217 34.63893797 5.29442292 34.64102882 1.49569321 34.63227463 C0.1057936 34.63150655 -1.28412008 34.6358166 -2.67398453 34.64573288 C-10.87031204 34.70075556 -18.02656305 34.73994092 -24.92919922 29.80200195 C-29.08781901 25.00721936 -30.29925856 20.61260038 -29.87060547 14.2746582 C-28.26866851 8.52653148 -25.79988544 5.5924428 -20.87060547 2.2746582 C-14.09011079 -0.40184133 -7.20337222 -0.01365189 0 0 Z M-21.80810547 12.5871582 C-23.18292345 16.06463898 -23.05164821 17.73152997 -21.87060547 21.2746582 C-19.28523296 24.33628355 -17.68618049 26.00279986 -13.87060547 27.2746582 C-11.9434338 27.37202695 -10.01304192 27.40964046 -8.0834198 27.4151001 C-6.87632858 27.42081024 -5.66923737 27.42652039 -4.42556763 27.43240356 C-3.08587657 27.4336489 -1.74618539 27.434774 -0.40649414 27.43579102 C1.00291575 27.44041982 2.41232439 27.44544457 3.82173157 27.45083618 C7.65241265 27.46395644 11.48307621 27.47040444 15.31377625 27.47484684 C17.70738794 27.47777826 20.10099484 27.48188321 22.49460411 27.48635101 C29.98465986 27.50002515 37.47470468 27.50969213 44.96477205 27.5135529 C53.60905829 27.51803316 62.25318637 27.53557985 70.89742452 27.5645535 C77.58032931 27.5861751 84.26318963 27.59625744 90.94612902 27.59759402 C94.93698022 27.59864174 98.92768273 27.60454233 102.91849709 27.62241364 C106.67368397 27.6389026 110.42861052 27.64104594 114.18382072 27.63227463 C115.56004662 27.63150468 116.93628655 27.63584145 118.31247711 27.64573288 C120.19536135 27.65846964 122.07835038 27.65077759 123.96125793 27.64215088 C125.53997539 27.64435072 125.53997539 27.64435072 127.15058613 27.646595 C131.74668281 27.07272208 135.08631885 25.51961951 138.06689453 21.9621582 C139.44171251 18.48467743 139.31043728 16.81778644 138.12939453 13.2746582 C135.54402202 10.21303286 133.94496955 8.54651654 130.12939453 7.2746582 C128.20222286 7.17728945 126.27183098 7.13967595 124.34220886 7.13421631 C123.13511765 7.12850616 121.92802643 7.12279602 120.68435669 7.11691284 C119.34466563 7.1156675 118.00497446 7.1145424 116.6652832 7.11352539 C115.25587331 7.10889658 113.84646467 7.10387184 112.4370575 7.09848022 C108.60637641 7.08535997 104.77571285 7.07891196 100.94501281 7.07446957 C98.55140112 7.07153815 96.15779423 7.0674332 93.76418495 7.06296539 C86.2741292 7.04929125 78.78408439 7.03962427 71.29401702 7.0357635 C62.64973077 7.03128324 54.00560269 7.01373655 45.36136454 6.98476291 C38.67845975 6.9631413 31.99559944 6.95305896 25.31266004 6.95172238 C21.32180884 6.95067467 17.33110633 6.94477407 13.34029198 6.92690277 C9.58510509 6.91041381 5.83017854 6.90827047 2.07496834 6.91704178 C0.69874245 6.91781173 -0.67749749 6.91347496 -2.05368805 6.90358353 C-3.93657229 6.89084677 -5.81956131 6.89853882 -7.70246887 6.90716553 C-9.28118633 6.90496569 -9.28118633 6.90496569 -10.89179707 6.90272141 C-15.48789375 7.47659433 -18.82752978 9.0296969 -21.80810547 12.5871582 Z " fill="#FFFFFF" transform="translate(69.87060546875,110.725341796875)"/>
<path d="M0 0 C0.65258286 -0.0049649 1.30516571 -0.00992981 1.9775238 -0.01504517 C4.12980212 -0.02961257 6.28200672 -0.03645991 8.43432617 -0.04199219 C9.93641663 -0.04774839 11.43850709 -0.05350606 12.94059753 -0.05926514 C16.08865703 -0.0697599 19.23669111 -0.07561244 22.38476562 -0.07910156 C26.40626793 -0.08458114 30.42743079 -0.10860386 34.44882679 -0.13707352 C37.55190493 -0.15575556 40.65490223 -0.16090846 43.75803185 -0.16243744 C45.23991436 -0.16545228 46.72179586 -0.17344111 48.20362282 -0.18662262 C50.28314195 -0.20379961 52.36184374 -0.20177517 54.44140625 -0.1953125 C55.62180984 -0.19895813 56.80221344 -0.20260376 58.01838684 -0.20635986 C62.60059666 0.28943702 66.6285246 1.58713228 70.15698242 4.69628906 C74.77420409 10.92157759 75.28461207 15.43162138 74.41479492 23.16113281 C72.20558863 28.6270139 68.74902364 30.86773213 63.41479492 33.16113281 C60.00697327 33.54881287 60.00697327 33.54881287 56.23535156 33.56518555 C55.54346237 33.5720488 54.85157318 33.57891205 54.13871765 33.58598328 C51.8672493 33.60418147 49.59647629 33.60042403 47.32495117 33.59472656 C45.73603594 33.5992918 44.14712269 33.6045984 42.55821228 33.61061096 C39.23371339 33.61952838 35.90945489 33.61713476 32.58496094 33.60717773 C28.3369085 33.59569074 24.08968766 33.61590168 19.84174442 33.64509487 C16.56191285 33.66349274 13.28227924 33.66315731 10.00240898 33.65745735 C8.43680085 33.65730457 6.87117894 33.66331324 5.30562019 33.67574883 C3.11110271 33.69072572 0.91810466 33.67993521 -1.27636719 33.6628418 C-2.52179794 33.66267563 -3.7672287 33.66250946 -5.05039978 33.66233826 C-10.48994738 32.89105649 -14.1572287 30.62572397 -18.02270508 26.66113281 C-20.33101213 21.49052502 -20.34309405 16.73429616 -19.58520508 11.16113281 C-17.43350166 6.69834055 -14.68019722 3.92525251 -10.58520508 1.16113281 C-7.08086315 -0.03477954 -3.67996208 0.02132974 0 0 Z M-11.58520508 11.16113281 C-13.16418561 14.31909388 -13.40448679 17.76783917 -12.58520508 21.16113281 C-9.97926642 24.38050743 -8.48025982 25.98492526 -4.36010742 26.79605103 C-3.14274902 26.80002899 -1.92539063 26.80400696 -0.67114258 26.80810547 C0.34203033 26.82124786 0.34203033 26.82124786 1.37567139 26.83465576 C3.59770874 26.8565765 5.81773908 26.84212629 8.03979492 26.82519531 C9.59009176 26.82856563 11.14038601 26.83342006 12.69067383 26.83969116 C15.93555932 26.84705245 19.17975537 26.83638207 22.42456055 26.81298828 C26.57779822 26.78449963 30.72942044 26.80090779 34.88259888 26.8308506 C38.08264269 26.84894449 41.28230536 26.84315626 44.48236084 26.83021164 C46.01332797 26.82688334 47.54433004 26.8309445 49.07525635 26.84260941 C51.21800982 26.85535428 53.35817141 26.83589775 55.50073242 26.80810547 C57.32677002 26.80213852 57.32677002 26.80213852 59.18969727 26.79605103 C63.30808111 25.98527343 64.80021441 24.36955446 67.41479492 21.16113281 C68.31177096 18.37523077 68.14555548 15.9871209 67.41479492 13.16113281 C65.23905076 10.47008083 63.50413636 8.70580353 60.41479492 7.16113281 C58.3535219 7.04901613 56.28860949 7.00180202 54.22436523 6.98413086 C52.27158661 6.96487801 52.27158661 6.96487801 50.27935791 6.94523621 C48.85054911 6.93706782 47.42173602 6.92962428 45.99291992 6.92285156 C45.27409386 6.91877604 44.55526779 6.91470051 43.81465912 6.91050148 C40.00819689 6.8896368 36.20177073 6.87533822 32.39526367 6.8659668 C28.46990355 6.85491601 24.54511246 6.82053348 20.61995316 6.7807951 C17.59668958 6.75460181 14.57356084 6.74627249 11.55019379 6.74268532 C10.10374875 6.73782439 8.65730955 6.72622434 7.21097565 6.70764732 C5.18172439 6.6832085 3.15219612 6.68664533 1.12280273 6.69116211 C-0.0303241 6.68529587 -1.18345093 6.67942963 -2.371521 6.67338562 C-6.30731883 7.27072945 -8.489122 8.70648949 -11.58520508 11.16113281 Z " fill="#FFFFFF" transform="translate(100.585205078125,190.8388671875)"/>
</svg>
