<?xml version="1.0" encoding="UTF-8"?>
<svg version="1.1" xmlns="http://www.w3.org/2000/svg" width="1024" height="1024">
<path d="M0 0 C337.92 0 675.84 0 1024 0 C1024 337.92 1024 675.84 1024 1024 C686.08 1024 348.16 1024 0 1024 C0 686.08 0 348.16 0 0 Z " fill="#F0F0F2" transform="translate(0,0)"/>
<path d="M0 0 C111.87 0 223.74 0 339 0 C339 33.99 339 67.98 339 103 C332.3220545 106.33897275 325.69682739 109.63194622 318.93774414 112.77612305 C286.45228006 127.9706113 255.38570399 147.55330048 228.29833984 171.14086914 C226.15756465 173.00467046 224.00078963 174.84582429 221.82324219 176.66650391 C213.76960685 183.42499889 206.18532802 190.52810807 198.79272461 198.00146484 C197.04408776 199.7686071 195.2873301 201.52736615 193.52929688 203.28515625 C187.81055296 209.02165946 182.22269891 214.80202644 177 221 C176.11166273 222.02169117 175.22238742 223.04256773 174.33203125 224.0625 C167.15798527 232.42665903 160.47044456 241.08180922 154 250 C153.43877441 250.77263184 152.87754883 251.54526367 152.29931641 252.34130859 C133.74858621 278.02016075 114.07676245 307.76971265 104 338 C69.68 338 35.36 338 0 338 C0 226.46 0 114.92 0 0 Z " fill="#F4F4F6" transform="translate(0,0)"/>
<path d="M0 0 C34.32 0 68.64 0 104 0 C104 111.54 104 223.08 104 338 C-7.21 338 -118.42 338 -233 338 C-233 303.68 -233 269.36 -233 234 C-228.05 231.69 -223.1 229.38 -218 227 C-187.83967184 212.0376497 -159.38004704 195.01824886 -133 174 C-132.04867187 173.24203125 -131.09734375 172.4840625 -130.1171875 171.703125 C-124.79238869 167.40175549 -119.63403901 162.95441044 -114.58203125 158.3359375 C-113.18167165 157.06904636 -111.77529593 155.80816092 -110.33911133 154.58203125 C-104.50969586 149.5920456 -99.05902277 144.24516967 -93.63696289 138.82226562 C-92.07391266 137.26139673 -90.50302635 135.70872112 -88.93164062 134.15625 C-83.24293994 128.49845977 -77.94516792 122.73463216 -72.96582031 116.43334961 C-70.96693226 113.95906778 -68.86129947 111.63360538 -66.6875 109.3125 C-60.6015465 102.60531596 -55.30694236 95.32720778 -50 88 C-49.43587402 87.22301758 -48.87174805 86.44603516 -48.29052734 85.64550781 C-29.74238161 59.97143295 -10.074994 30.22498199 0 0 Z " fill="#F4F4F6" transform="translate(920,686)"/>
<path d="M0 0 C111.21 0 222.42 0 337 0 C337 111.54 337 223.08 337 338 C302.68 338 268.36 338 233 338 C231.35 334.37 229.7 330.74 228 327 C211.71070798 291.60211542 191.52530682 257.77272377 165.85913086 228.29833984 C163.99532954 226.15756465 162.15417571 224.00078963 160.33349609 221.82324219 C153.57500111 213.76960685 146.47189193 206.18532802 138.99853516 198.79272461 C137.2313929 197.04408776 135.47263385 195.2873301 133.71484375 193.52929688 C127.97834054 187.81055296 122.19797356 182.22269891 116 177 C114.97830883 176.11166273 113.95743227 175.22238742 112.9375 174.33203125 C104.57334097 167.15798527 95.91819078 160.47044456 87 154 C85.84105225 153.15816162 85.84105225 153.15816162 84.65869141 152.29931641 C58.01673566 133.0528279 29.68051232 118.24664591 0 104 C0 69.68 0 35.36 0 0 Z " fill="#F4F4F6" transform="translate(687,0)"/>
<path d="M0 0 C0.94148895 0.00376648 1.88297791 0.00753296 2.85299683 0.01141357 C16.51096686 0.07531355 30.03209863 0.22111384 43.5625 2.25 C44.7803418 2.42772949 45.99818359 2.60545898 47.25292969 2.78857422 C105.55233721 11.45907237 162.05946991 33.63594216 208.5625 70.25 C209.45839844 70.94480469 210.35429688 71.63960938 211.27734375 72.35546875 C213.73470248 74.28710406 216.15082235 76.26168896 218.5625 78.25 C219.48804688 78.98992187 220.41359375 79.72984375 221.3671875 80.4921875 C230.04112088 87.56918901 237.95046442 95.42161839 245.875 103.3125 C246.71430054 104.14403595 246.71430054 104.14403595 247.57055664 104.99237061 C254.70430309 112.07410124 261.36402005 119.3171503 267.5625 127.25 C268.1402417 127.97904541 268.7179834 128.70809082 269.31323242 129.45922852 C276.88728691 139.07144201 284.00715454 148.91628469 290.5625 159.25 C290.92230957 159.81267578 291.28211914 160.37535156 291.65283203 160.95507812 C304.11631836 180.59175307 314.16228592 201.59344807 322.5625 223.25 C322.85705078 224.00120117 323.15160156 224.75240234 323.45507812 225.52636719 C337.87866476 262.73226957 343.80412744 302.95426066 343.75 342.6875 C343.74906342 343.57661072 343.74812683 344.46572144 343.74716187 345.3817749 C343.61448638 403.53546714 328.71093585 459.36883442 300.5625 510.25 C300.18996094 510.9301416 299.81742188 511.6102832 299.43359375 512.31103516 C294.89354506 520.57652048 289.94097023 528.50302912 284.5625 536.25 C284.17304199 536.81219238 283.78358398 537.37438477 283.38232422 537.95361328 C277.77645839 546.01635718 271.89492752 553.73748616 265.5625 561.25 C264.79808594 562.20003906 264.03367187 563.15007813 263.24609375 564.12890625 C256.19024043 572.77630543 248.36708563 580.66188139 240.5 588.5625 C239.94555206 589.12212433 239.39110413 589.68174866 238.81985474 590.2583313 C231.73821792 597.3919842 224.495245 604.05160186 216.5625 610.25 C215.83345459 610.8277417 215.10440918 611.4054834 214.35327148 612.00073242 C202.22793065 621.55503459 189.65040252 630.07006093 176.5625 638.25 C176.2325 653.1 175.9025 667.95 175.5625 683.25 C205.9225 683.25 236.2825 683.25 267.5625 683.25 C203.13980084 747.67269916 93.43382714 776.38018264 4.67144775 776.50506592 C-2.36616521 776.49106525 -9.40145366 776.3945164 -16.4375 776.25 C-17.50581055 776.22921387 -18.57412109 776.20842773 -19.67480469 776.18701172 C-25.28110227 776.052866 -30.85155329 775.74347411 -36.4375 775.25 C-37.36014648 775.16911133 -38.28279297 775.08822266 -39.23339844 775.00488281 C-117.24357576 767.78875151 -191.38490834 739.27511007 -254.75 693.3125 C-255.35448975 692.87599121 -255.95897949 692.43948242 -256.58178711 691.98974609 C-260.25635463 689.2811812 -263.15835092 686.52914908 -266.4375 683.25 C-235.4175 683.25 -204.3975 683.25 -172.4375 683.25 C-172.7675 668.73 -173.0975 654.21 -173.4375 639.25 C-179.3775 635.62 -185.3175 631.99 -191.4375 628.25 C-196.84119874 624.31642518 -202.1820941 620.36971663 -207.4375 616.25 C-208.33726562 615.55261719 -209.23703125 614.85523438 -210.1640625 614.13671875 C-212.61698967 612.20713597 -215.02948658 610.23529006 -217.4375 608.25 C-218.36304688 607.51007812 -219.28859375 606.77015625 -220.2421875 606.0078125 C-228.91612088 598.93081099 -236.82546442 591.07838161 -244.75 583.1875 C-245.58930054 582.35596405 -245.58930054 582.35596405 -246.44555664 581.50762939 C-253.57930309 574.42589876 -260.23902005 567.1828497 -266.4375 559.25 C-267.0152417 558.52095459 -267.5929834 557.79190918 -268.18823242 557.04077148 C-275.76254327 547.42823265 -282.86359375 537.57186062 -289.4375 527.25 C-289.80214355 526.67765625 -290.16678711 526.1053125 -290.54248047 525.515625 C-309.79986995 495.1083029 -323.07343498 461.91792789 -332.4375 427.25 C-332.77402588 426.01636719 -333.11055176 424.78273438 -333.45727539 423.51171875 C-335.8971204 414.33143057 -337.54772614 405.15783975 -338.82055664 395.74853516 C-339.12690835 393.48590546 -339.44620996 391.22538493 -339.76757812 388.96484375 C-341.88882144 373.87145694 -342.64456777 359.10140337 -342.625 343.875 C-342.62406342 342.93670349 -342.62312683 341.99840698 -342.62216187 341.03167725 C-342.47606629 273.57870265 -322.27078467 205.72612096 -283.4375 150.25 C-283.05239258 149.69505859 -282.66728516 149.14011719 -282.27050781 148.56835938 C-276.66026395 140.49779445 -270.77574567 132.76941625 -264.4375 125.25 C-263.67308594 124.29996094 -262.90867187 123.34992188 -262.12109375 122.37109375 C-255.06524043 113.72369457 -247.24208563 105.83811861 -239.375 97.9375 C-238.82055206 97.37787567 -238.26610413 96.81825134 -237.69485474 96.2416687 C-230.61321792 89.1080158 -223.370245 82.44839814 -215.4375 76.25 C-214.70845459 75.6722583 -213.97940918 75.0945166 -213.22827148 74.49926758 C-198.39088916 62.80798104 -182.91280129 52.48497361 -166.4375 43.25 C-165.61878418 42.78867676 -164.80006836 42.32735352 -163.95654297 41.85205078 C-132.14592438 24.11139796 -97.99525007 12.19933992 -62.16894531 5.74511719 C-59.10264588 5.18930245 -56.04562593 4.59311626 -52.98974609 3.98291016 C-35.43032465 0.77640711 -17.81912413 -0.10931368 0 0 Z M-202.4375 81.25 C-203.271604 81.89727051 -203.271604 81.89727051 -204.12255859 82.55761719 C-210.58975471 87.61708761 -216.63994326 93.10128313 -222.65234375 98.68359375 C-224.96397016 100.81366185 -227.3036298 102.88951758 -229.6875 104.9375 C-236.50369938 110.86462989 -242.58084817 117.38801473 -248.4375 124.25 C-249.23800781 125.16136719 -250.03851563 126.07273437 -250.86328125 127.01171875 C-295.15213294 177.82253089 -321.88480696 242.53454483 -329.4375 309.25 C-329.58324463 310.53741089 -329.58324463 310.53741089 -329.73193359 311.85083008 C-330.58362603 320.52377248 -330.58957407 329.17863422 -330.56787109 337.8840332 C-330.56254609 340.4155893 -330.56782781 342.94696514 -330.57421875 345.47851562 C-330.58497959 362.46532546 -329.50080909 378.86616657 -326.6875 395.625 C-326.48625519 396.84189514 -326.48625519 396.84189514 -326.28094482 398.08337402 C-324.29892712 410.0153847 -322.02899885 421.68648025 -318.4375 433.25 C-318.16212402 434.17538574 -317.88674805 435.10077148 -317.60302734 436.05419922 C-305.66527269 476.14983436 -287.14403398 513.1999168 -261.4375 546.25 C-261.00598633 546.80606934 -260.57447266 547.36213867 -260.12988281 547.93505859 C-255.07155102 554.40079927 -249.58860065 560.44964548 -244.0078125 566.4609375 C-241.85672571 568.7950955 -239.75824342 571.15746617 -237.6875 573.5625 C-232.78492897 579.19870993 -227.49779892 584.32729596 -221.83203125 589.19140625 C-220.02396382 590.74581332 -218.23248692 592.31954755 -216.44921875 593.90234375 C-149.02078142 653.37574072 -60.50677896 679.06809444 28.26019287 673.75196838 C35.92106849 673.2253649 43.48199204 672.13637026 51.0625 670.9375 C51.78261261 670.82540192 52.50272522 670.71330383 53.24465942 670.59780884 C63.81503393 668.94700551 74.2627384 667.19215026 84.5625 664.25 C85.4788623 663.99412109 86.39522461 663.73824219 87.33935547 663.47460938 C135.12443965 649.97625625 179.20158842 627.03500742 216.5625 594.25 C217.62597656 593.33541016 217.62597656 593.33541016 218.7109375 592.40234375 C220.67881274 590.70354533 222.62270253 588.98078338 224.5625 587.25 C225.44035156 586.4765625 226.31820312 585.703125 227.22265625 584.90625 C268.38555816 548.02776081 298.36030932 498.46572691 315.5625 446.25 C315.87912598 445.31833008 316.19575195 444.38666016 316.52197266 443.42675781 C333.1870931 394.18850638 336.37945404 339.3613083 327.5625 288.25 C327.35351074 287.02716309 327.14452148 285.80432617 326.92919922 284.54443359 C321.09638804 251.53552837 310.33664655 219.83264556 294.5625 190.25 C294.14887207 189.4667334 293.73524414 188.6834668 293.30908203 187.87646484 C287.31561663 176.57055988 280.97750292 165.68184102 273.5625 155.25 C272.77552734 154.13842529 272.77552734 154.13842529 271.97265625 153.00439453 C264.06294404 141.89563302 255.72834348 131.34516193 246.5625 121.25 C245.71969482 120.31462402 245.71969482 120.31462402 244.85986328 119.36035156 C206.68222967 77.12264238 157.5673255 46.04159959 103.5625 28.25 C102.63083008 27.93337402 101.69916016 27.61674805 100.73925781 27.29052734 C5.20037923 -5.0454487 -106.75006478 12.92704135 -202.4375 81.25 Z " fill="#EEEEF0" transform="translate(511.4375,167.75)"/>
<path d="M0 0 C0.94148895 0.00376648 1.88297791 0.00753296 2.85299683 0.01141357 C16.51096686 0.07531355 30.03209863 0.22111384 43.5625 2.25 C44.7803418 2.42772949 45.99818359 2.60545898 47.25292969 2.78857422 C105.55233721 11.45907237 162.05946991 33.63594216 208.5625 70.25 C209.45839844 70.94480469 210.35429688 71.63960938 211.27734375 72.35546875 C213.73470248 74.28710406 216.15082235 76.26168896 218.5625 78.25 C219.48804688 78.98992187 220.41359375 79.72984375 221.3671875 80.4921875 C230.04112088 87.56918901 237.95046442 95.42161839 245.875 103.3125 C246.71430054 104.14403595 246.71430054 104.14403595 247.57055664 104.99237061 C254.70430309 112.07410124 261.36402005 119.3171503 267.5625 127.25 C268.1402417 127.97904541 268.7179834 128.70809082 269.31323242 129.45922852 C276.88728691 139.07144201 284.00715454 148.91628469 290.5625 159.25 C290.92230957 159.81267578 291.28211914 160.37535156 291.65283203 160.95507812 C304.11631836 180.59175307 314.16228592 201.59344807 322.5625 223.25 C322.85705078 224.00120117 323.15160156 224.75240234 323.45507812 225.52636719 C337.87866476 262.73226957 343.80412744 302.95426066 343.75 342.6875 C343.74906342 343.57661072 343.74812683 344.46572144 343.74716187 345.3817749 C343.61448638 403.53546714 328.71093585 459.36883442 300.5625 510.25 C300.18996094 510.9301416 299.81742188 511.6102832 299.43359375 512.31103516 C294.89354506 520.57652048 289.94097023 528.50302912 284.5625 536.25 C284.17304199 536.81219238 283.78358398 537.37438477 283.38232422 537.95361328 C277.77645839 546.01635718 271.89492752 553.73748616 265.5625 561.25 C264.79808594 562.20003906 264.03367187 563.15007813 263.24609375 564.12890625 C256.19024043 572.77630543 248.36708563 580.66188139 240.5 588.5625 C239.94555206 589.12212433 239.39110413 589.68174866 238.81985474 590.2583313 C231.73821792 597.3919842 224.495245 604.05160186 216.5625 610.25 C215.83345459 610.8277417 215.10440918 611.4054834 214.35327148 612.00073242 C204.74073265 619.57504327 194.88436062 626.67609375 184.5625 633.25 C183.99015625 633.61464355 183.4178125 633.97928711 182.828125 634.35498047 C128.91825669 668.49686668 65.36466986 686.51114597 1.6875 686.4375 C0.24653458 686.43659363 0.24653458 686.43659363 -1.22354126 686.43566895 C-15.05039256 686.41201925 -28.72925524 686.22945226 -42.4375 684.25 C-43.35805176 684.12109375 -44.27860352 683.9921875 -45.22705078 683.859375 C-97.72285388 676.30878837 -148.82723862 657.77718296 -192.4375 627.25 C-192.99244141 626.86489258 -193.54738281 626.47978516 -194.11914062 626.08300781 C-202.18970555 620.47276395 -209.91808375 614.58824567 -217.4375 608.25 C-218.86255859 607.10337891 -218.86255859 607.10337891 -220.31640625 605.93359375 C-228.96380543 598.87774043 -236.84938139 591.05458563 -244.75 583.1875 C-245.30962433 582.63305206 -245.86924866 582.07860413 -246.4458313 581.50735474 C-253.5794842 574.42571792 -260.23910186 567.182745 -266.4375 559.25 C-267.0152417 558.52095459 -267.5929834 557.79190918 -268.18823242 557.04077148 C-275.76254327 547.42823265 -282.86359375 537.57186062 -289.4375 527.25 C-289.80214355 526.67765625 -290.16678711 526.1053125 -290.54248047 525.515625 C-309.79986995 495.1083029 -323.07343498 461.91792789 -332.4375 427.25 C-332.77402588 426.01636719 -333.11055176 424.78273438 -333.45727539 423.51171875 C-335.8971204 414.33143057 -337.54772614 405.15783975 -338.82055664 395.74853516 C-339.12690835 393.48590546 -339.44620996 391.22538493 -339.76757812 388.96484375 C-341.88882144 373.87145694 -342.64456777 359.10140337 -342.625 343.875 C-342.62406342 342.93670349 -342.62312683 341.99840698 -342.62216187 341.03167725 C-342.47606629 273.57870265 -322.27078467 205.72612096 -283.4375 150.25 C-283.05239258 149.69505859 -282.66728516 149.14011719 -282.27050781 148.56835938 C-276.66026395 140.49779445 -270.77574567 132.76941625 -264.4375 125.25 C-263.67308594 124.29996094 -262.90867187 123.34992188 -262.12109375 122.37109375 C-255.06524043 113.72369457 -247.24208563 105.83811861 -239.375 97.9375 C-238.82055206 97.37787567 -238.26610413 96.81825134 -237.69485474 96.2416687 C-230.61321792 89.1080158 -223.370245 82.44839814 -215.4375 76.25 C-214.70845459 75.6722583 -213.97940918 75.0945166 -213.22827148 74.49926758 C-198.39088916 62.80798104 -182.91280129 52.48497361 -166.4375 43.25 C-165.61878418 42.78867676 -164.80006836 42.32735352 -163.95654297 41.85205078 C-132.14592438 24.11139796 -97.99525007 12.19933992 -62.16894531 5.74511719 C-59.10264588 5.18930245 -56.04562593 4.59311626 -52.98974609 3.98291016 C-35.43032465 0.77640711 -17.81912413 -0.10931368 0 0 Z M-202.4375 81.25 C-203.271604 81.89727051 -203.271604 81.89727051 -204.12255859 82.55761719 C-210.58975471 87.61708761 -216.63994326 93.10128313 -222.65234375 98.68359375 C-224.96397016 100.81366185 -227.3036298 102.88951758 -229.6875 104.9375 C-236.50369938 110.86462989 -242.58084817 117.38801473 -248.4375 124.25 C-249.23800781 125.16136719 -250.03851563 126.07273437 -250.86328125 127.01171875 C-295.15213294 177.82253089 -321.88480696 242.53454483 -329.4375 309.25 C-329.58324463 310.53741089 -329.58324463 310.53741089 -329.73193359 311.85083008 C-330.58362603 320.52377248 -330.58957407 329.17863422 -330.56787109 337.8840332 C-330.56254609 340.4155893 -330.56782781 342.94696514 -330.57421875 345.47851562 C-330.58497959 362.46532546 -329.50080909 378.86616657 -326.6875 395.625 C-326.48625519 396.84189514 -326.48625519 396.84189514 -326.28094482 398.08337402 C-324.29892712 410.0153847 -322.02899885 421.68648025 -318.4375 433.25 C-318.16212402 434.17538574 -317.88674805 435.10077148 -317.60302734 436.05419922 C-305.66527269 476.14983436 -287.14403398 513.1999168 -261.4375 546.25 C-261.00598633 546.80606934 -260.57447266 547.36213867 -260.12988281 547.93505859 C-255.07155102 554.40079927 -249.58860065 560.44964548 -244.0078125 566.4609375 C-241.85672571 568.7950955 -239.75824342 571.15746617 -237.6875 573.5625 C-232.78492897 579.19870993 -227.49779892 584.32729596 -221.83203125 589.19140625 C-220.02396382 590.74581332 -218.23248692 592.31954755 -216.44921875 593.90234375 C-149.02078142 653.37574072 -60.50677896 679.06809444 28.26019287 673.75196838 C35.92106849 673.2253649 43.48199204 672.13637026 51.0625 670.9375 C51.78261261 670.82540192 52.50272522 670.71330383 53.24465942 670.59780884 C63.81503393 668.94700551 74.2627384 667.19215026 84.5625 664.25 C85.4788623 663.99412109 86.39522461 663.73824219 87.33935547 663.47460938 C135.12443965 649.97625625 179.20158842 627.03500742 216.5625 594.25 C217.62597656 593.33541016 217.62597656 593.33541016 218.7109375 592.40234375 C220.67881274 590.70354533 222.62270253 588.98078338 224.5625 587.25 C225.44035156 586.4765625 226.31820312 585.703125 227.22265625 584.90625 C268.38555816 548.02776081 298.36030932 498.46572691 315.5625 446.25 C315.87912598 445.31833008 316.19575195 444.38666016 316.52197266 443.42675781 C333.1870931 394.18850638 336.37945404 339.3613083 327.5625 288.25 C327.35351074 287.02716309 327.14452148 285.80432617 326.92919922 284.54443359 C321.09638804 251.53552837 310.33664655 219.83264556 294.5625 190.25 C294.14887207 189.4667334 293.73524414 188.6834668 293.30908203 187.87646484 C287.31561663 176.57055988 280.97750292 165.68184102 273.5625 155.25 C272.77552734 154.13842529 272.77552734 154.13842529 271.97265625 153.00439453 C264.06294404 141.89563302 255.72834348 131.34516193 246.5625 121.25 C245.71969482 120.31462402 245.71969482 120.31462402 244.85986328 119.36035156 C206.68222967 77.12264238 157.5673255 46.04159959 103.5625 28.25 C102.63083008 27.93337402 101.69916016 27.61674805 100.73925781 27.29052734 C5.20037923 -5.0454487 -106.75006478 12.92704135 -202.4375 81.25 Z " fill="#CFCFD5" transform="translate(511.4375,167.75)"/>
<path d="M0 0 C54.45 0 108.9 0 165 0 C165 36.3 165 72.6 165 110 C127.67114105 130.99748316 89.22505346 146.29695259 46.75 152.625 C46.02421753 152.73427826 45.29843506 152.84355652 44.55065918 152.95614624 C29.54308577 155.20281743 15.22046624 156 0 156 C0 104.52 0 53.04 0 0 Z " fill="#F4F4F6" transform="translate(516,686)"/>
<path d="M0 0 C0 51.81 0 103.62 0 157 C-52.14 157 -104.28 157 -158 157 C-158 149.84401131 -157.90501364 143.40422281 -156.8125 136.4375 C-156.6779541 135.57890381 -156.5434082 134.72030762 -156.40478516 133.83569336 C-149.4447437 91.81666392 -125.54355522 53.8730972 -91 29 C-63.85060117 9.99238397 -33.12239922 0 0 0 Z " fill="#F4F4F6" transform="translate(510,352)"/>
<path d="M0 0 C52.14 0 104.28 0 158 0 C158 51.81 158 103.62 158 157 C150.46087448 157 143.7000214 156.97348088 136.375 155.8125 C135.09387329 155.61068115 135.09387329 155.61068115 133.78686523 155.40478516 C91.7849848 148.41158655 53.86971832 124.5364491 29 90 C19.23560658 76.06113311 11.98986317 61.25109531 7 45 C6.61070312 43.73929688 6.22140625 42.47859375 5.8203125 41.1796875 C1.71204342 27.29553725 0.70434841 14.79131662 0 0 Z " fill="#F4F4F6" transform="translate(352,515)"/>
<path d="M0 0 C36.50454 0 72.58944064 13.91969552 100 38 C100.82757812 38.70640625 101.65515625 39.4128125 102.5078125 40.140625 C132.46795677 66.25009242 152.49620217 104.2281672 156 144 C156 148.29 156 152.58 156 157 C104.52 157 53.04 157 0 157 C0 105.19 0 53.38 0 0 Z " fill="#F4F4F6" transform="translate(516,352)"/>
<path d="M0 0 C51.48 0 102.96 0 156 0 C156 36.94661841 142.41459537 73.20891803 118 101 C117.29359375 101.82757812 116.5871875 102.65515625 115.859375 103.5078125 C96.60063966 125.60686492 71.98705083 141.40663743 44 150 C42.73929688 150.38929688 41.47859375 150.77859375 40.1796875 151.1796875 C36.7992967 152.17993273 33.4113395 153.11176443 30 154 C29.21238281 154.21527344 28.42476562 154.43054688 27.61328125 154.65234375 C18.48417513 156.83504452 9.5092643 156.52453679 0 157 C0 105.19 0 53.38 0 0 Z " fill="#F4F4F6" transform="translate(516,515)"/>
<path d="M0 0 C6.47901817 5.91986645 12.18351427 12.16292752 17.50366211 19.15942383 C18.22811523 20.06821289 18.95256836 20.97700195 19.69897461 21.91333008 C47.40494902 57.39049244 58.77983066 102.49207979 53.80834961 147.03833008 C52.09686386 160.19341024 49.23897471 172.76766424 44.50366211 185.15942383 C44.18268555 186.00311523 43.86170898 186.84680664 43.53100586 187.71606445 C32.38716909 216.42309643 14.13396543 242.42204408 -10.49633789 261.15942383 C-11.41672852 261.89547852 -12.33711914 262.6315332 -13.28540039 263.38989258 C-21.20936564 269.59450688 -29.59062209 274.53044079 -38.49633789 279.15942383 C-39.17857422 279.51423828 -39.86081055 279.86905273 -40.5637207 280.23461914 C-74.65702828 297.69232699 -114.98648928 303.19782385 -152.49633789 295.15942383 C-153.63159912 294.92594238 -153.63159912 294.92594238 -154.78979492 294.68774414 C-183.79989776 288.52793845 -210.50443238 274.3408221 -232.20727539 254.25708008 C-234.21281531 252.41923889 -236.26993082 250.69715309 -238.37133789 248.97192383 C-248.96447066 239.68157553 -257.06616393 228.02227698 -264.49633789 216.15942383 C-265.1215332 215.1874707 -265.74672852 214.21551758 -266.39086914 213.21411133 C-289.3827613 175.94959988 -294.865477 129.40259816 -285.49633789 87.15942383 C-285.32505371 86.36568359 -285.15376953 85.57194336 -284.97729492 84.75415039 C-275.47044477 42.21533388 -246.77639677 4.1206926 -210.33862305 -19.22290039 C-202.0231667 -24.3828803 -193.58764151 -29.17897527 -184.49633789 -32.84057617 C-183.34520508 -33.32010742 -182.19407227 -33.79963867 -181.00805664 -34.29370117 C-170.12978784 -38.68963749 -158.97416533 -41.48524504 -147.49633789 -43.84057617 C-145.70583008 -44.21375977 -145.70583008 -44.21375977 -143.87915039 -44.59448242 C-91.63648513 -53.38354258 -38.80372641 -34.76908819 0 0 Z M-150.49633789 -30.84057617 C-151.2560791 -30.67428711 -152.01582031 -30.50799805 -152.79858398 -30.33666992 C-195.26652663 -20.7434095 -231.12725222 5.61576644 -254.49633789 42.15942383 C-269.3399969 66.60320954 -277.49633789 94.5774424 -277.49633789 123.15942383 C-225.35633789 123.15942383 -173.21633789 123.15942383 -119.49633789 123.15942383 C-119.49633789 71.34942383 -119.49633789 19.53942383 -119.49633789 -33.84057617 C-130.60285605 -33.84057617 -139.89000277 -33.16952289 -150.49633789 -30.84057617 Z M-113.49633789 -33.84057617 C-113.49633789 17.96942383 -113.49633789 69.77942383 -113.49633789 123.15942383 C-62.01633789 123.15942383 -10.53633789 123.15942383 42.50366211 123.15942383 C42.50366211 81.21350973 25.10817251 44.88666258 -2.49633789 14.15942383 C-3.13700195 13.43368164 -3.77766602 12.70793945 -4.43774414 11.96020508 C-29.38269615 -14.65890478 -67.64769212 -30.60402604 -103.49633789 -33.84057617 C-106.79633789 -33.84057617 -110.09633789 -33.84057617 -113.49633789 -33.84057617 Z M-277.49633789 129.15942383 C-277.04743232 145.57131738 -277.04743232 145.57131738 -274.18383789 161.22192383 C-273.95873535 162.09421631 -273.73363281 162.96650879 -273.50170898 163.86523438 C-272.8606231 166.30531356 -272.18821317 168.73332607 -271.49633789 171.15942383 C-271.17536133 172.28864258 -270.85438477 173.41786133 -270.52368164 174.58129883 C-258.13696378 214.26169372 -229.65828097 248.37161722 -193.05883789 267.97192383 C-170.06097394 279.84485853 -145.3778665 286.15942383 -119.49633789 286.15942383 C-119.49633789 234.34942383 -119.49633789 182.53942383 -119.49633789 129.15942383 C-171.63633789 129.15942383 -223.77633789 129.15942383 -277.49633789 129.15942383 Z M-113.49633789 129.15942383 C-113.49633789 180.96942383 -113.49633789 232.77942383 -113.49633789 286.15942383 C-97.62763031 285.64510465 -97.62763031 285.64510465 -82.49633789 282.84692383 C-81.61953369 282.62182129 -80.74272949 282.39671875 -79.83935547 282.16479492 C-36.92933994 270.94945142 -0.49914144 244.40889622 22.02319336 205.95239258 C27.71881108 195.80755668 31.84804957 185.18341922 35.50366211 174.15942383 C35.90456055 172.96833008 36.30545898 171.77723633 36.71850586 170.55004883 C38.82505552 163.77729293 40.15958744 156.96711502 41.25366211 149.97192383 C41.38160156 149.16440674 41.50954102 148.35688965 41.64135742 147.52490234 C42.54678895 141.2347037 42.50366211 135.66431534 42.50366211 129.15942383 C-8.97633789 129.15942383 -60.45633789 129.15942383 -113.49633789 129.15942383 Z " fill="#CFCFD5" transform="translate(629.496337890625,385.840576171875)"/>
<path d="M0 0 C0 33.33 0 66.66 0 101 C-54.45 101 -108.9 101 -165 101 C-165 78.56 -165 56.12 -165 33 C-159.823125 32.773125 -154.64625 32.54625 -149.3125 32.3125 C-123.42102507 30.9872752 -97.24821992 28.03750358 -72 22 C-71.12907715 21.79294434 -70.2581543 21.58588867 -69.36083984 21.37255859 C-48.73685653 16.38912194 -28.58944671 9.87576123 -8.72631836 2.43798828 C-7.86917236 2.11813965 -7.01202637 1.79829102 -6.12890625 1.46875 C-5.37681885 1.18451172 -4.62473145 0.90027344 -3.84985352 0.60742188 C-2 0 -2 0 0 0 Z " fill="#F4F4F6" transform="translate(681,923)"/>
<path d="M0 0 C54.45 0 108.9 0 165 0 C165 33.33 165 66.66 165 101 C158.85626405 99.15687922 152.82842425 97.30084748 146.8125 95.125 C134.02304994 90.51410058 121.24456986 86.3473457 108.0625 83 C107.39369812 82.82980347 106.72489624 82.65960693 106.03582764 82.48425293 C70.78009029 73.5356732 36.25227514 69.76124414 0 68 C0 45.56 0 23.12 0 0 Z " fill="#F4F4F6" transform="translate(516,0)"/>
<path d="M0 0 C22.44 0 44.88 0 68 0 C68.2475 5.48625 68.495 10.9725 68.75 16.625 C69.61242016 33.58842949 71.34317534 50.21325558 74 67 C74.16790039 68.06976074 74.33580078 69.13952148 74.50878906 70.24169922 C75.56253708 76.84979224 76.71938447 83.43210358 78 90 C78.13841309 90.71236816 78.27682617 91.42473633 78.41943359 92.15869141 C80.36686698 101.86297046 83.21831841 111.29553578 86.125 120.75 C86.45459717 121.8239502 86.78419434 122.89790039 87.1237793 124.00439453 C91.44291859 137.77958519 96.29016046 151.34146534 101 165 C67.67 165 34.34 165 0 165 C0 110.55 0 56.1 0 0 Z " fill="#F4F4F6" transform="translate(0,515)"/>
<path d="M0 0 C33.33 0 66.66 0 101 0 C101 54.45 101 108.9 101 165 C78.56 165 56.12 165 33 165 C32.3503125 155.4403125 32.3503125 155.4403125 31.6875 145.6875 C29.8898447 120.4123498 27.49753098 95.88745221 21.72460938 71.14941406 C21.0883448 68.38397841 20.49416131 65.615144 19.921875 62.8359375 C16.75730423 47.93926297 11.74047083 33.60677279 6.83984375 19.2109375 C6.61386002 18.54693939 6.38787628 17.88294128 6.15504456 17.19882202 C4.17814838 11.43581922 2.08324325 5.72891892 0 0 Z " fill="#F4F4F6" transform="translate(923,344)"/>
<path d="M0 0 C22.44 0 44.88 0 68 0 C68 54.45 68 108.9 68 165 C35 165 2 165 -32 165 C-30.6674524 159.00353581 -29.28810891 153.56688519 -27.1875 147.875 C-26.65007613 146.38315997 -26.1136355 144.89096542 -25.578125 143.3984375 C-25.31193359 142.65948242 -25.04574219 141.92052734 -24.77148438 141.15917969 C-18.66213524 124.06073545 -13.64769468 106.76925275 -9.9375 89 C-9.68078522 87.77594452 -9.68078522 87.77594452 -9.41888428 86.52716064 C-3.45047219 57.81645406 -1.37695442 29.26028148 0 0 Z " fill="#F4F4F6" transform="translate(956,515)"/>
<path d="M0 0 C33 0 66 0 100 0 C97.75385221 10.10766507 97.75385221 10.10766507 96.01171875 14.75 C95.63764893 15.76126953 95.2635791 16.77253906 94.87817383 17.81445312 C94.48525146 18.86568359 94.0923291 19.91691406 93.6875 21 C90.06100308 30.91679969 86.68442409 40.78789478 84 51 C83.77248047 51.85303711 83.54496094 52.70607422 83.31054688 53.58496094 C76.0599424 81.12759048 71.07039593 109.62922871 69.4453125 138.07421875 C69.38089966 139.16905579 69.38089966 139.16905579 69.31518555 140.28601074 C68.83714103 148.52212129 68.4272196 156.76076485 68 165 C45.56 165 23.12 165 0 165 C0 110.55 0 56.1 0 0 Z " fill="#F4F4F6" transform="translate(0,344)"/>
<path d="M0 0 C6.00281546 1.80084464 11.92689274 3.60972354 17.83203125 5.671875 C42.63048085 14.21985492 67.31628885 20.82976624 93.1875 25.3125 C93.89963654 25.43614929 94.61177307 25.55979858 95.3454895 25.68719482 C112.70998414 28.66779372 130.03527141 30.26723819 147.625 31.125 C153.35875 31.41375 159.0925 31.7025 165 32 C165 54.44 165 76.88 165 100 C110.55 100 56.1 100 0 100 C0 67 0 34 0 0 Z " fill="#F4F4F6" transform="translate(345,924)"/>
<path d="M0 0 C54.45 0 108.9 0 165 0 C165 22.44 165 44.88 165 68 C156.3375 68.4021875 156.3375 68.4021875 147.5 68.8125 C133.41608655 69.52182659 119.48177448 70.5307899 105.52441406 72.62207031 C103.10970193 72.98357654 100.69263438 73.31850087 98.2734375 73.6484375 C67.23669177 78.03850351 34.74101608 85.91617668 6.03515625 98.734375 C3 100 3 100 0 100 C0 67 0 34 0 0 Z " fill="#F4F4F6" transform="translate(345,0)"/>
<path d="M0 0 C17.82 0 35.64 0 54 0 C54 54.45 54 108.9 54 165 C24.96 165 -4.08 165 -34 165 C-34 151.16240509 -33.86685789 138.01622511 -32.3125 124.375 C-32.22319214 123.56472351 -32.13388428 122.75444702 -32.04187012 121.9196167 C-20.85303292 20.85303292 -20.85303292 20.85303292 0 0 Z " fill="#F4F4F6" transform="translate(114,344)"/>
<path d="M0 0 C54.45 0 108.9 0 165 0 C165 17.49 165 34.98 165 53 C122.10510211 69.78496005 80.70954111 81.75591664 34.75 85.8125 C34.03963593 85.87620789 33.32927185 85.93991577 32.59738159 86.0055542 C21.66936653 86.96106988 11.02118099 87 0 87 C0 58.29 0 29.58 0 0 Z " fill="#F4F4F6" transform="translate(516,857)"/>
<path d="M0 0 C11.70543264 0 22.77436694 0.08044036 34.3125 1.3125 C35.6628229 1.45233102 37.0131651 1.59197583 38.36352539 1.73144531 C42.24426515 2.13732324 46.12214093 2.56744955 50 3 C51.49901855 3.16024658 51.49901855 3.16024658 53.02832031 3.32373047 C78.19715161 6.06573731 102.98472601 12.09897902 127 20 C129.0844637 20.66980546 131.16910445 21.33906015 133.25390625 22.0078125 C135.35729636 22.69109267 137.46017514 23.37594924 139.5625 24.0625 C140.97112305 24.51870728 140.97112305 24.51870728 142.40820312 24.98413086 C150.20533366 27.57838666 157.36389206 30.72738231 165 34 C165 51.49 165 68.98 165 87 C110.55 87 56.1 87 0 87 C0 58.29 0 29.58 0 0 Z " fill="#F4F4F6" transform="translate(516,80)"/>
<path d="M0 0 C28.38 0 56.76 0 86 0 C86 12.07473167 85.96628605 23.48057008 84.6875 35.375 C84.54761352 36.72075978 84.40796999 38.06654484 84.26855469 39.41235352 C83.86308152 43.27687285 83.43265026 47.13842724 83 51 C82.89316895 51.99789551 82.78633789 52.99579102 82.67626953 54.02392578 C79.93505865 79.18995211 73.91195796 103.99029853 66 128 C65.31873506 130.10798395 64.63775423 132.21605973 63.95703125 134.32421875 C54.91820453 162.08179547 54.91820453 162.08179547 52 165 C34.84 165 17.68 165 0 165 C0 110.55 0 56.1 0 0 Z " fill="#F4F4F6" transform="translate(858,515)"/>
<path d="M0 0 C0 35.97 0 71.94 0 109 C-35.97 109 -71.94 109 -109 109 C-104.98673725 101.64235163 -101.17186224 95.0980047 -96.1875 88.5 C-95.57293945 87.67757812 -94.95837891 86.85515625 -94.32519531 86.0078125 C-87.40852909 76.80011406 -80.14651971 68.03958315 -72.34375 59.5625 C-70.31386333 57.34315724 -68.33504502 55.09327966 -66.375 52.8125 C-61.11731329 46.77908902 -55.43540374 41.22809778 -49.359375 36.0234375 C-47.56338525 34.48316814 -45.78528118 32.92201654 -44.015625 31.3515625 C-8.47161088 0 -8.47161088 0 0 0 Z " fill="#F4F4F6" transform="translate(339,229)"/>
<path d="M0 0 C35.64 0 71.28 0 108 0 C108 35.31 108 70.62 108 107 C100.642401 102.98676418 94.09790301 99.17195406 87.5 94.1875 C86.67685303 93.57221436 85.85370605 92.95692871 85.00561523 92.32299805 C75.50430141 85.18414271 66.49692064 77.65454986 57.7890625 69.5703125 C55.4549045 67.41922571 53.09253383 65.32074342 50.6875 63.25 C45.05129007 58.34742897 39.92270404 53.06029892 35.05859375 47.39453125 C33.50418668 45.58646382 31.93045245 43.79498692 30.34765625 42.01171875 C0 7.59669359 0 7.59669359 0 0 Z " fill="#F4F4F6" transform="translate(231,686)"/>
<path d="M0 0 C6.75358318 2.25119439 6.75358318 2.25119439 10.03125 4.65234375 C11.11273315 5.43750366 11.11273315 5.43750366 12.21606445 6.23852539 C12.96976318 6.79918701 13.72346191 7.35984863 14.5 7.9375 C15.29172607 8.51943115 16.08345215 9.1013623 16.89916992 9.70092773 C19.27494959 11.45579489 21.63960262 13.22451122 24 15 C24.65693848 15.49274414 25.31387695 15.98548828 25.99072266 16.49316406 C33.75482434 22.35278575 41.01593347 28.60788384 48.09375 35.27734375 C50.48016768 37.51300655 52.89593536 39.6814579 55.375 41.8125 C60.99393703 46.68931327 66.09699224 51.96264352 70.94140625 57.60546875 C72.49581332 59.41353618 74.06954755 61.20501308 75.65234375 62.98828125 C107 98.53278357 107 98.53278357 107 107 C71.69 107 36.38 107 0 107 C0 71.69 0 36.38 0 0 Z " fill="#F4F4F6" transform="translate(687,231)"/>
<path d="M0 0 C34.65 0 69.3 0 105 0 C102.74880561 6.75358318 102.74880561 6.75358318 100.34765625 10.03125 C99.56249634 11.11273315 99.56249634 11.11273315 98.76147461 12.21606445 C98.20081299 12.96976318 97.64015137 13.72346191 97.0625 14.5 C96.48056885 15.29172607 95.8986377 16.08345215 95.29907227 16.89916992 C93.54420511 19.27494959 91.77548878 21.63960262 90 24 C89.50725586 24.65693848 89.01451172 25.31387695 88.50683594 25.99072266 C82.64721425 33.75482434 76.39211616 41.01593347 69.72265625 48.09375 C67.48699345 50.48016768 65.3185421 52.89593536 63.1875 55.375 C58.31068673 60.99393703 53.03735648 66.09699224 47.39453125 70.94140625 C45.58646382 72.49581332 43.79498692 74.06954755 42.01171875 75.65234375 C7.59669359 106 7.59669359 106 0 106 C0 71.02 0 36.04 0 0 Z " fill="#F4F4F6" transform="translate(687,686)"/>
<path d="M0 0 C0.33 0 0.66 0 1 0 C1 43.89 1 87.78 1 133 C-41.57 133 -84.14 133 -128 133 C-125.2282711 131.15218074 -123.29640916 130.35547554 -120.16015625 129.40625 C-88.19762462 119.43735682 -58.33017659 102.46607594 -37 76 C-36.23042969 75.05640625 -35.46085938 74.1128125 -34.66796875 73.140625 C-17.32895036 51.49128503 -6.62556396 26.77507318 0 0 Z " fill="#F4F4F6" transform="translate(680,547)"/>
<path d="M0 0 C42.24 0 84.48 0 128 0 C128 43.56 128 87.12 128 132 C126.54299035 129.0859807 125.59848248 126.91754463 124.7734375 123.8671875 C118.30286533 100.71218412 108.20895829 79.74535022 93 61 C92.54898926 60.4421582 92.09797852 59.88431641 91.63330078 59.30957031 C67.72039494 29.94682172 36.09770035 11.54266618 0 1 C0 0.67 0 0.34 0 0 Z " fill="#F4F4F6" transform="translate(553,344)"/>
<path d="M0 0 C2.18260263 2.18260263 2.56910524 3.32637126 3.4453125 6.2265625 C3.71327637 7.08556152 3.98124023 7.94456055 4.25732422 8.82958984 C4.54365723 9.7520752 4.82999023 10.67456055 5.125 11.625 C8.2447824 21.29024047 12.05374018 30.14226275 17 39 C17.34788574 39.63099609 17.69577148 40.26199219 18.05419922 40.91210938 C27.66176702 58.1661579 40.54964651 74.59580857 56 87 C57.41345703 88.15242187 57.41345703 88.15242187 58.85546875 89.328125 C78.56641152 105.11894714 101.67874673 116.33504117 126 123 C126 123.33 126 123.66 126 124 C84.42 124 42.84 124 0 124 C0 83.08 0 42.16 0 0 Z " fill="#F4F4F6" transform="translate(345,556)"/>
<path d="M0 0 C41.91 0 83.82 0 127 0 C124.21617438 1.39191281 121.89308208 2.44128007 118.98828125 3.3671875 C118.23530762 3.61065918 117.48233398 3.85413086 116.70654297 4.10498047 C115.91650879 4.35908691 115.12647461 4.61319336 114.3125 4.875 C108.02778705 6.94176813 101.9405195 9.06882262 96 12 C94.2365625 12.82757813 94.2365625 12.82757813 92.4375 13.671875 C78.35389993 20.38155535 65.76280701 28.73274988 54 39 C53.49791016 39.42974121 52.99582031 39.85948242 52.47851562 40.30224609 C27.33077133 61.93147143 9.77640439 92.13427003 1 124 C0.67 124 0.34 124 0 124 C0 83.08 0 42.16 0 0 Z " fill="#F4F4F6" transform="translate(345,344)"/>
<path d="M0 0 C0.33 0 0.66 0 1 0 C1 19.8 1 39.6 1 60 C55.78 60 110.56 60 167 60 C167 61.98 167 63.96 167 66 C112.22 66 57.44 66 1 66 C1 121.11 1 176.22 1 233 C-0.98 233 -2.96 233 -5 233 C-5 177.89 -5 122.78 -5 66 C-24.8 66 -44.6 66 -65 66 C-61.60999406 62.60999406 -58.23372491 59.3376437 -54.6875 56.125 C-53.36298828 54.92230469 -53.36298828 54.92230469 -52.01171875 53.6953125 C-50.4513605 52.28680561 -48.88041169 50.89792775 -47.28149414 49.53320312 C-41.47232333 44.55884279 -36.04102443 39.22716852 -30.63696289 33.82226562 C-29.07391266 32.26139673 -27.50302635 30.70872112 -25.93164062 29.15625 C-20.26219377 23.51788894 -14.9605747 17.75728968 -9.98413086 11.48217773 C-6.82057838 7.5245257 -3.52501453 3.64191552 0 0 Z " fill="#DCDCE0" transform="translate(857,791)"/>
<path d="M0 0 C1.98 0 3.96 0 6 0 C6 55.11 6 110.22 6 167 C60.78 167 115.56 167 172 167 C172 168.98 172 170.96 172 173 C117.22 173 62.44 173 6 173 C6 192.8 6 212.6 6 233 C2.45564058 229.45564058 -0.99949956 225.88608406 -4.375 222.1875 C-4.8184375 221.70474609 -5.261875 221.22199219 -5.71875 220.72460938 C-7.671255 218.59080033 -9.61232538 216.45367259 -11.49145508 214.25463867 C-16.49689727 208.40120143 -21.88950282 202.95831062 -27.3425293 197.52709961 C-28.93458966 195.94040054 -30.5212299 194.34842258 -32.10742188 192.75585938 C-40.29447535 184.56257417 -48.84208335 177.0613734 -57.875 169.8203125 C-58.57625 169.21960938 -59.2775 168.61890625 -60 168 C-60 167.67 -60 167.34 -60 167 C-40.2 167 -20.4 167 0 167 C0 111.89 0 56.78 0 0 Z " fill="#DCDCE0" transform="translate(852,0)"/>
<path d="M0 0 C3.23111329 3.23111329 6.33703023 6.41808973 9.375 9.8125 C10.08398438 10.60269531 10.79296875 11.39289062 11.5234375 12.20703125 C12.8371234 13.68855399 14.14733463 15.17351402 15.42895508 16.68286133 C20.45323721 22.55833027 25.86902896 28.02129743 31.3425293 33.47290039 C32.93458966 35.05959946 34.5212299 36.65157742 36.10742188 38.24414062 C44.29447535 46.43742583 52.84208335 53.9386266 61.875 61.1796875 C62.57625 61.78039062 63.2775 62.38109375 64 63 C64 63.33 64 63.66 64 64 C44.86 64 25.72 64 6 64 C6 119.11 6 174.22 6 231 C4.02 231 2.04 231 0 231 C0 175.89 0 120.78 0 64 C-55.44 64 -110.88 64 -168 64 C-168 62.02 -168 60.04 -168 58 C-112.56 58 -57.12 58 0 58 C0 38.86 0 19.72 0 0 Z " fill="#DCDCE0" transform="translate(168,793)"/>
<path d="M0 0 C1.98 0 3.96 0 6 0 C6 55.11 6 110.22 6 167 C25.14 167 44.28 167 64 167 C60.60999406 170.39000594 57.23372491 173.6623563 53.6875 176.875 C52.36298828 178.07769531 52.36298828 178.07769531 51.01171875 179.3046875 C49.45330756 180.71175071 47.88428349 182.09857576 46.28588867 183.46020508 C40.42143521 188.47506756 34.9685062 193.87926629 29.52709961 199.3425293 C27.94040054 200.93458966 26.34842258 202.5212299 24.75585938 204.10742188 C16.81679662 212.04044674 9.50675479 220.2423066 2.6015625 229.09375 C2.07304687 229.7228125 1.54453125 230.351875 1 231 C0.67 231 0.34 231 0 231 C0 211.86 0 192.72 0 173 C-55.44 173 -110.88 173 -168 173 C-168 171.02 -168 169.04 -168 167 C-112.56 167 -57.12 167 0 167 C0 111.89 0 56.78 0 0 Z " fill="#DCDCE0" transform="translate(168,0)"/>
<path d="M0 0 C1.98 0 3.96 0 6 0 C6 51.81 6 103.62 6 157 C57.48 157 108.96 157 162 157 C162 158.98 162 160.96 162 163 C110.52 163 59.04 163 6 163 C6 214.81 6 266.62 6 320 C4.02 320 2.04 320 0 320 C0 268.19 0 216.38 0 163 C-52.14 163 -104.28 163 -158 163 C-158 161.02 -158 159.04 -158 157 C-105.86 157 -53.72 157 0 157 C0 105.19 0 53.38 0 0 Z " fill="#DDDDE1" transform="translate(510,352)"/>
<path d="M0 0 C16.83 0 33.66 0 51 0 C51 28.38 51 56.76 51 86 C47.27805243 82.27805243 44.0725751 78.7106931 41 74.5 C40.53215088 73.85909424 40.06430176 73.21818848 39.58227539 72.55786133 C26.65070489 54.53106917 15.94079021 34.9518818 5.9375 15.1875 C5.45974121 14.2497876 4.98198242 13.3120752 4.48974609 12.34594727 C4.04840332 11.46221436 3.60706055 10.57848145 3.15234375 9.66796875 C2.76038818 8.88703857 2.36843262 8.1061084 1.96459961 7.30151367 C1 5 1 5 0 0 Z " fill="#F4F4F6" transform="translate(117,686)"/>
<path d="M0 0 C0.33 0 0.66 0 1 0 C1 28.38 1 56.76 1 86 C-15.83 86 -32.66 86 -50 86 C-46.6164999 75.84949969 -46.6164999 75.84949969 -44.5390625 71.64453125 C-44.07435547 70.70367676 -43.60964844 69.76282227 -43.13085938 68.79345703 C-42.38545898 67.3178833 -42.38545898 67.3178833 -41.625 65.8125 C-40.83706055 64.24798096 -40.83706055 64.24798096 -40.03320312 62.65185547 C-16.45902954 16.45902954 -16.45902954 16.45902954 0 0 Z " fill="#F4F4F6" transform="translate(167,252)"/>
<path d="M0 0 C0 16.83 0 33.66 0 51 C-28.38 51 -56.76 51 -86 51 C-69.4080229 34.4080229 -24.30128934 0 0 0 Z " fill="#F4F4F6" transform="translate(339,116)"/>
<path d="M0 0 C28.38 0 56.76 0 86 0 C86 16.83 86 33.66 86 51 C55.67968687 38.3665362 25.45721441 22.01468091 0 1 C0 0.67 0 0.34 0 0 Z " fill="#F4F4F6" transform="translate(253,857)"/>
<path d="M0 0 C27.72 0 55.44 0 84 0 C62.02011478 21.97988522 29.47760913 38.10825113 1 50 C0.67 50 0.34 50 0 50 C0 33.5 0 17 0 0 Z " fill="#F4F4F6" transform="translate(687,857)"/>
<path d="M0 0 C29.7034462 11.88137848 59.24430615 28.56441743 84 49 C84 49.33 84 49.66 84 50 C56.28 50 28.56 50 0 50 C0 33.5 0 17 0 0 Z " fill="#F4F4F6" transform="translate(687,117)"/>
<path d="M0 0 C3.30085422 3.30085422 5.65468048 5.66571408 8.12890625 9.37890625 C8.95962646 10.62099854 8.95962646 10.62099854 9.80712891 11.88818359 C10.38640137 12.77070801 10.96567383 13.65323242 11.5625 14.5625 C12.17528809 15.49143066 12.78807617 16.42036133 13.41943359 17.37744141 C49 71.70011025 49 71.70011025 49 84 C32.83 84 16.66 84 0 84 C0 56.28 0 28.56 0 0 Z " fill="#F4F4F6" transform="translate(858,254)"/>
<path d="M0 0 C16.17 0 32.34 0 49 0 C45.6164999 10.15050031 45.6164999 10.15050031 43.5390625 14.35546875 C42.84200195 15.76675049 42.84200195 15.76675049 42.13085938 17.20654297 C41.38545898 18.6821167 41.38545898 18.6821167 40.625 20.1875 C39.83706055 21.75201904 39.83706055 21.75201904 39.03320312 23.34814453 C28.29636443 44.38663053 15.84093456 65.54031702 1 84 C0.67 84 0.34 84 0 84 C0 56.28 0 28.56 0 0 Z " fill="#F4F4F6" transform="translate(858,686)"/>
<path d="M0 0 C0 13.53 0 27.06 0 41 C-38.94 41 -77.88 41 -118 41 C-114.5447349 38.69648993 -111.68746868 38.40943602 -107.6875 37.875 C-71.78277617 32.38364538 -35.67490422 19.06691214 -4.1953125 1.14453125 C-2 0 -2 0 0 0 Z " fill="#F4F4F6" transform="translate(681,810)"/>
<path d="M0 0 C0.33 0 0.66 0 1 0 C1 38.61 1 77.22 1 117 C-12.53 117 -26.06 117 -40 117 C-38.67338935 113.68347338 -37.38317346 110.67968253 -35.75 107.54296875 C-18.06974004 73.17316706 -7.13271539 37.9160134 0 0 Z " fill="#F4F4F6" transform="translate(851,563)"/>
<path d="M0 0 C13.2 0 26.4 0 40 0 C40 38.28 40 76.56 40 116 C39.67 116 39.34 116 39 116 C38.8956665 115.37996094 38.79133301 114.75992188 38.68383789 114.12109375 C32.08187211 75.70457294 20.45000809 38.22972899 1.12353516 4.20166016 C0 2 0 2 0 0 Z " fill="#F4F4F6" transform="translate(812,344)"/>
<path d="M0 0 C3.71275569 1.48510228 7.2182749 3.03519694 10.796875 4.79296875 C44.56877843 21.2883245 78.14065185 31.79247483 115 39 C115 39.33 115 39.66 115 40 C77.05 40 39.1 40 0 40 C0 26.8 0 13.6 0 0 Z " fill="#F4F4F6" transform="translate(345,811)"/>
<path d="M0 0 C0.33 0 0.66 0 1 0 C1.268125 1.27488281 1.53625 2.54976562 1.8125 3.86328125 C9.24107898 38.30132813 20.42147081 72.06537887 37.87646484 102.79833984 C39 105 39 105 39 107 C26.13 107 13.26 107 0 107 C0 71.69 0 36.38 0 0 Z " fill="#F4F4F6" transform="translate(174,573)"/>
<path d="M0 0 C35.31 0 70.62 0 107 0 C107 12.87 107 25.74 107 39 C103.68519156 37.67407662 100.7046746 36.39195165 97.578125 34.75 C66.81848517 18.82743176 34.02013986 7.5845432 0 1 C0 0.67 0 0.34 0 0 Z " fill="#F4F4F6" transform="translate(574,173)"/>
<path d="M0 0 C34.65 0 69.3 0 105 0 C100.95637368 2.02181316 97.31494535 2.80721028 92.9375 3.625 C61.9837716 9.86596381 33.36818516 21.95805936 5.20703125 35.95947266 C3 37 3 37 0 38 C0 25.46 0 12.92 0 0 Z " fill="#F4F4F6" transform="translate(345,173)"/>
<path d="M0 0 C12.54 0 25.08 0 38 0 C36.51489772 3.71275569 34.96480306 7.2182749 33.20703125 10.796875 C18.26158195 41.3955646 8.01701968 71.67247896 1 105 C0.67 105 0.34 105 0 105 C0 70.35 0 35.7 0 0 Z " fill="#F4F4F6" transform="translate(174,344)"/>
<path d="M0 0 C0.33 0 0.66 0 1 0 C1 17.49 1 34.98 1 53 C-16.49 53 -33.98 53 -52 53 C-46.41538462 47.41538462 -46.41538462 47.41538462 -43.96875 45.1875 C-36.1971291 38.05350991 -28.61113608 30.74565564 -21.125 23.3125 C-19.8246582 22.03149414 -19.8246582 22.03149414 -18.49804688 20.72460938 C-13.24776287 15.48235947 -8.43165374 10.04248154 -3.80810547 4.23901367 C-2 2 -2 2 0 0 Z " fill="#F4F4F6" transform="translate(851,798)"/>
<path d="M0 0 C17.16 0 34.32 0 52 0 C52 17.49 52 34.98 52 53 C46.41538462 47.41538462 46.41538462 47.41538462 43.96875 44.75 C36.48754149 36.6561674 28.84805371 28.73950207 21.0625 20.9375 C20.18722656 20.05771484 19.31195312 19.17792969 18.41015625 18.27148438 C9.72475754 9.52225389 9.72475754 9.52225389 0 2 C0 1.34 0 0.68 0 0 Z " fill="#F4F4F6" transform="translate(800,173)"/>
<path d="M0 0 C7.79617348 6.68243442 7.79617348 6.68243442 11.21484375 10.64453125 C15.97192335 16.02863002 20.97777299 21.12982164 26.06616211 26.1965332 C27.56806925 27.69304925 29.06451062 29.194883 30.56054688 30.69726562 C39.72434644 40.00207504 39.72434644 40.00207504 50 48 C50 48.66 50 49.32 50 50 C33.5 50 17 50 0 50 C0 33.5 0 17 0 0 Z " fill="#F4F4F6" transform="translate(174,801)"/>
<path d="M0 0 C16.5 0 33 0 50 0 C50 0.66 50 1.32 50 2 C48.52115308 3.29427795 46.98147421 4.51910385 45.421875 5.71484375 C38.53278612 11.23030744 32.3686867 17.36417818 26.16455078 23.62963867 C24.24437817 25.5681756 22.31621544 27.49848211 20.38671875 29.42773438 C12.08541761 37.74489972 12.08541761 37.74489972 4.32324219 46.56225586 C3 48 3 48 0 50 C0 33.5 0 17 0 0 Z " fill="#F4F4F6" transform="translate(174,173)"/>
<path d="M0 0 C0 34.32 0 68.64 0 104 C-1.98 104 -3.96 104 -6 104 C-6 70.34 -6 36.68 -6 2 C-1 0 -1 0 0 0 Z " fill="#DCDCE0" transform="translate(687,920)"/>
<path d="M0 0 C33.99 0 67.98 0 103 0 C102.34 2.64 101.68 5.28 101 8 C100.505 7.01 100.505 7.01 100 6 C67 6 34 6 0 6 C0 4.02 0 2.04 0 0 Z " fill="#DCDCE0" transform="translate(0,338)"/>
<path d="M0 0 C1.98 0 3.96 0 6 0 C6 34.32 6 68.64 6 104 C4.02 103.01 2.04 102.02 0 101 C0 67.67 0 34.34 0 0 Z " fill="#DCDCE0" transform="translate(681,0)"/>
<path d="M0 0 C49.995 0.495 49.995 0.495 101 1 C101 2.98 101 4.96 101 7 C67.01 7 33.02 7 -2 7 C-1.34 4.69 -0.68 2.38 0 0 Z " fill="#DCDCE0" transform="translate(923,679)"/>
<path d="M0 0 C33.33 0 66.66 0 101 0 C101.99 2.97 101.99 2.97 103 6 C69.01 6 35.02 6 0 6 C0 4.02 0 2.04 0 0 Z " fill="#DCDCE0" transform="translate(0,680)"/>
<path d="M0 0 C2.31 0.66 4.62 1.32 7 2 C6.67 35.33 6.34 68.66 6 103 C4.02 103 2.04 103 0 103 C0 69.01 0 35.02 0 0 Z " fill="#DCDCE0" transform="translate(339,921)"/>
<path d="M0 0 C33.99 0 67.98 0 103 0 C103 1.98 103 3.96 103 6 C69.67 6 36.34 6 2 6 C1.34 4.02 0.68 2.04 0 0 Z " fill="#DCDCE0" transform="translate(921,338)"/>
<path d="M0 0 C1.98 0 3.96 0 6 0 C6.33 33.33 6.66 66.66 7 101 C3.535 101.99 3.535 101.99 0 103 C0 69.01 0 35.02 0 0 Z " fill="#DCDCE0" transform="translate(339,0)"/>
<path d="M0 0 C1.98 0 3.96 0 6 0 C6 22.44 6 44.88 6 68 C4.02 68 2.04 68 0 68 C0 45.56 0 23.12 0 0 Z " fill="#DDDDE1" transform="translate(510,956)"/>
<path d="M0 0 C22.44 0 44.88 0 68 0 C68 1.98 68 3.96 68 6 C45.56 6 23.12 6 0 6 C0 4.02 0 2.04 0 0 Z " fill="#DDDDE1" transform="translate(956,509)"/>
<path d="M0 0 C22.44 0 44.88 0 68 0 C68 1.98 68 3.96 68 6 C45.56 6 23.12 6 0 6 C0 4.02 0 2.04 0 0 Z " fill="#DDDDE1" transform="translate(0,509)"/>
<path d="M0 0 C1.98 0 3.96 0 6 0 C6 22.44 6 44.88 6 68 C4.02 68 2.04 68 0 68 C0 45.56 0 23.12 0 0 Z " fill="#DDDDE1" transform="translate(510,0)"/>
</svg>
