<?xml version="1.0" standalone="no"?>
<!DOCTYPE svg PUBLIC "-//W3C//DTD SVG 20010904//EN"
 "http://www.w3.org/TR/2001/REC-SVG-20010904/DTD/svg10.dtd">
<svg version="1.0" xmlns="http://www.w3.org/2000/svg"
 width="300.000000pt" height="301.000000pt" viewBox="0 0 300.000000 301.000000"
 preserveAspectRatio="xMidYMid meet">

<g transform="translate(0.000000,301.000000) scale(0.100000,-0.100000)"
fill="#000000" stroke="none">
<path d="M1102 2038 c-210 -453 -382 -826 -382 -830 0 -4 85 44 189 105 l188
112 193 405 c106 223 195 408 199 412 3 4 94 -180 201 -409 139 -297 202 -420
219 -432 64 -42 346 -197 349 -192 1 4 -138 308 -309 676 -170 369 -342 739
-381 823 -39 83 -74 152 -78 152 -3 0 -178 -370 -388 -822z"/>
<path d="M1254 1600 c-127 -275 -230 -500 -228 -500 9 0 365 166 410 191 l53
30 73 -40 c63 -34 381 -181 392 -181 2 0 -101 225 -228 500 -127 275 -233 500
-236 500 -3 0 -109 -225 -236 -500z"/>
<path d="M200 840 l0 -40 45 0 45 0 0 -140 0 -140 50 0 50 0 0 140 0 140 45 0
45 0 0 40 0 40 -140 0 -140 0 0 -40z"/>
<path d="M570 700 l0 -180 50 0 50 0 0 65 c0 50 3 65 15 65 7 0 30 -29 50 -65
l37 -65 54 0 c30 0 54 3 53 8 0 4 -21 38 -47 76 l-48 69 28 28 c22 22 28 36
28 71 -1 79 -50 108 -185 108 l-85 0 0 -180z m144 100 c36 -13 36 -57 0 -70
-14 -6 -30 -8 -35 -4 -10 6 -12 67 -2 77 8 9 7 9 37 -3z"/>
<path d="M1045 868 c-9 -23 -115 -342 -115 -345 0 -2 25 -3 55 -3 l54 0 7 35
6 36 61 -3 c59 -3 61 -4 69 -35 8 -32 10 -33 63 -33 l53 0 -60 180 -60 180
-64 0 c-43 0 -66 -4 -69 -12z m105 -190 c0 -5 -16 -8 -36 -8 -40 0 -39 -5 -12
95 l11 40 18 -60 c10 -33 19 -63 19 -67z"/>
<path d="M1390 700 l0 -180 76 0 c42 0 94 5 116 12 102 30 149 176 88 276 -31
50 -88 72 -192 72 l-88 0 0 -180z m180 80 c31 -31 28 -123 -5 -155 -13 -14
-36 -25 -50 -25 l-25 0 0 100 0 100 30 0 c17 0 39 -9 50 -20z"/>
<path d="M1810 700 l0 -180 105 0 105 0 0 40 0 40 -55 0 -55 0 0 35 0 35 55 0
55 0 0 40 0 40 -55 0 c-52 0 -55 1 -55 25 0 24 3 25 55 25 l55 0 0 40 0 40
-105 0 -105 0 0 -180z"/>
<path d="M2110 840 l0 -40 75 0 c41 0 75 -2 75 -5 0 -3 -34 -52 -75 -109 -55
-76 -75 -113 -75 -135 l0 -31 145 0 145 0 0 40 0 40 -80 0 c-44 0 -80 2 -80 5
0 3 34 52 75 109 55 76 75 113 75 135 l0 31 -140 0 -140 0 0 -40z"/>
<path d="M2460 875 c0 -3 25 -52 55 -109 52 -97 55 -107 55 -174 l0 -72 50 0
50 0 0 66 c0 63 4 73 60 176 33 60 60 111 60 113 0 3 -24 5 -53 5 l-53 0 -29
-67 -29 -67 -30 67 -31 66 -52 1 c-29 0 -53 -2 -53 -5z"/>
<path d="M342 398 c-21 -21 -13 -48 18 -66 39 -22 38 -36 -1 -28 -25 5 -30 3
-27 -12 4 -23 60 -28 82 -7 24 24 20 44 -14 63 -36 20 -39 37 -6 28 23 -6 43
14 29 28 -11 11 -69 6 -81 -6z"/>
<path d="M500 340 c0 -63 2 -70 20 -70 16 0 20 7 20 30 0 23 4 30 20 30 16 0
20 -7 20 -30 0 -23 4 -30 20 -30 18 0 20 7 20 70 0 63 -2 70 -20 70 -15 0 -20
-7 -20 -25 0 -18 -5 -25 -20 -25 -15 0 -20 7 -20 25 0 18 -5 25 -20 25 -18 0
-20 -7 -20 -70z"/>
<path d="M726 394 c-32 -32 -28 -92 8 -116 21 -14 73 -8 89 10 23 25 22 85 -1
105 -23 21 -76 22 -96 1z m69 -54 c0 -28 -4 -35 -20 -35 -13 0 -21 8 -23 23
-5 34 5 54 25 50 13 -2 18 -13 18 -38z"/>
<path d="M920 340 c0 -63 2 -70 20 -70 15 0 20 7 20 25 0 17 5 25 18 25 26 0
42 20 42 51 0 30 -15 39 -66 39 l-34 0 0 -70z m60 25 c0 -8 -4 -15 -10 -15 -5
0 -10 7 -10 15 0 8 5 15 10 15 6 0 10 -7 10 -15z"/>
<path d="M1100 340 c0 -63 2 -70 20 -70 15 0 20 7 20 25 0 17 5 25 18 25 26 0
42 20 42 51 0 30 -15 39 -66 39 l-34 0 0 -70z m60 25 c0 -8 -4 -15 -10 -15 -5
0 -10 7 -10 15 0 8 5 15 10 15 6 0 10 -7 10 -15z"/>
<path d="M1280 340 c0 -63 2 -70 20 -70 18 0 20 7 20 70 0 63 -2 70 -20 70
-18 0 -20 -7 -20 -70z"/>
<path d="M1400 340 c0 -63 2 -70 20 -70 17 0 20 7 20 43 l1 42 25 -42 c19 -32
32 -43 50 -43 23 0 24 3 24 70 0 63 -2 70 -19 70 -16 0 -21 -8 -23 -37 l-3
-38 -20 38 c-15 29 -24 37 -47 37 l-28 0 0 -70z"/>
<path d="M1640 390 c-47 -47 -10 -124 58 -118 35 3 37 5 40 41 3 35 2 37 -27
37 -21 0 -31 -5 -31 -15 0 -8 7 -15 15 -15 8 0 15 -5 15 -11 0 -16 -31 -6 -44
14 -15 24 4 52 35 52 13 0 27 4 31 10 22 31 -62 35 -92 5z"/>
<path d="M1930 341 c0 -64 2 -71 20 -71 16 0 20 7 21 33 l1 32 11 -33 c15 -47
46 -40 63 13 l12 40 1 -42 c1 -31 5 -43 16 -43 12 0 15 14 15 70 0 68 -1 70
-24 70 -21 0 -27 -8 -38 -47 l-14 -48 -15 45 c-13 37 -21 46 -42 48 l-27 3 0
-70z"/>
<path d="M2205 398 c-3 -7 -14 -39 -24 -70 l-20 -58 25 0 c15 0 24 6 24 15 0
9 9 15 25 15 16 0 25 -6 25 -15 0 -9 9 -15 24 -15 l25 0 -23 68 c-20 58 -26
67 -49 70 -16 2 -29 -2 -32 -10z m45 -60 c0 -5 -6 -8 -14 -8 -9 0 -12 7 -9 21
4 16 8 17 14 7 5 -7 9 -16 9 -20z"/>
<path d="M2370 341 c0 -64 2 -71 20 -71 15 0 20 7 20 25 0 14 4 25 8 25 5 0
15 -11 22 -25 8 -16 22 -25 37 -25 l24 0 -22 29 c-18 25 -19 31 -7 50 21 33 0
55 -56 59 l-46 3 0 -70z m70 24 c0 -8 -7 -15 -15 -15 -8 0 -15 7 -15 15 0 8 7
15 15 15 8 0 15 -7 15 -15z"/>
<path d="M2550 395 c0 -8 9 -15 20 -15 18 0 20 -7 20 -55 0 -48 2 -55 20 -55
18 0 20 7 20 55 0 42 3 55 15 55 8 0 15 7 15 15 0 12 -13 15 -55 15 -42 0 -55
-3 -55 -15z"/>
</g>
</svg>
