<?xml version="1.0" encoding="UTF-8"?>
<svg version="1.1" xmlns="http://www.w3.org/2000/svg" width="40" height="40">
<path d="M0 0 C4.60507605 2.18135181 6.75921754 4.48633217 9 9 C9.328125 12.078125 9.328125 12.078125 9.25 15.25 C9.22679687 16.83554687 9.22679687 16.83554687 9.203125 18.453125 C9 21 9 21 8 22 C6.00041636 22.04080783 3.99954746 22.04254356 2 22 C2.33 21.01 2.66 20.02 3 19 C3.59653934 13.11923885 3.59653934 13.11923885 1 8 C-2.32887629 5.78074914 -4.13936508 5.24109067 -8.0625 5.5234375 C-11.61497432 6.39723159 -13.01078114 8.0161717 -15 11 C-15.69850841 13.83983749 -15.8999295 16.20492484 -15 19 C-12.28351901 22.72739991 -12.28351901 22.72739991 -8.09277344 24.30029297 C-5.14951734 24.26795706 -2.25382913 24.00572724 0.67382812 23.71679688 C6.16178752 23.39971478 6.16178752 23.39971478 8.87158203 25.34033203 C10.53515625 27.00390625 10.53515625 27.00390625 13 30 C12.34 31.32 11.68 32.64 11 34 C8.72707059 32.98110061 7.16975439 32.19097369 5.5 30.3125 C5.005 29.879375 4.51 29.44625 4 29 C2.66082739 29.30903983 1.32864247 29.64843481 0 30 C-5.603974 30.47610364 -10.41788112 30.74942473 -15.5625 28.3125 C-18.8320199 25.21064779 -20.75850523 22.61649202 -21.43359375 18.09765625 C-21.44150672 11.94928199 -21.4465054 7.68685704 -17 3 C-11.55860924 -0.88937897 -6.48149391 -0.79042609 0 0 Z " fill="#B0B0B0" transform="translate(24,3)"/>
<path d="M0 0 C1.32 0.66 2.64 1.32 4 2 C3.34 3.32 2.68 4.64 2 6 C0.68 5.34 -0.64 4.68 -2 4 C-2 3.34 -2 2.68 -2 2 C-1.34 2 -0.68 2 0 2 C0 1.34 0 0.68 0 0 Z " fill="#7F7F7F" transform="translate(29,27)"/>
</svg>
