<?xml version="1.0" encoding="UTF-8"?>
<svg version="1.1" xmlns="http://www.w3.org/2000/svg" width="412" height="479">
<path d="M0 0 C135.96 0 271.92 0 412 0 C412 158.07 412 316.14 412 479 C276.04 479 140.08 479 0 479 C0 320.93 0 162.86 0 0 Z " fill="#FEFEFE" transform="translate(0,0)"/>
<path d="M0 0 C60.39 0 120.78 0 183 0 C184.83118723 9.15593616 184.5439298 18.02142422 182 27 C181.67 27.33 181.34 27.66 181 28 C180.71087817 30.03785475 180.48336937 32.08449827 180.28125 34.1328125 C180.15363281 35.41542969 180.02601563 36.69804688 179.89453125 38.01953125 C179.79712646 39.03394287 179.79712646 39.03394287 179.69775391 40.06884766 C179.50543096 42.06853146 179.30555901 44.06748471 179.10546875 46.06640625 C178.32994219 53.9705103 177.71421211 61.86013873 177.26367188 69.78857422 C177 73 177 73 176.515625 75.33032227 C175.73546198 79.36966062 175.54829265 83.43402015 175.28125 87.53515625 C175.21844849 88.4508287 175.15564697 89.36650116 175.09094238 90.30992126 C174.82307083 94.21580568 174.56269323 98.12217892 174.30224609 102.02856445 C174.110683 104.8851362 173.91485207 107.74139309 173.71875 110.59765625 C173.661427 111.48002457 173.604104 112.36239288 173.54504395 113.27149963 C173.48828491 114.09593063 173.43152588 114.92036163 173.37304688 115.76977539 C173.32498901 116.49193741 173.27693115 117.21409943 173.22741699 117.95814514 C172.99494191 120.0454139 172.52694774 121.96955209 172 124 C171.74153992 126.16714269 171.51810811 128.33855851 171.31640625 130.51171875 C171.22576149 131.47970146 171.22576149 131.47970146 171.13328552 132.46723938 C171.00494601 133.84480376 170.87811822 135.22250969 170.75268555 136.6003418 C170.5697232 138.60823027 170.38164616 140.61565069 170.19335938 142.62304688 C169.85327165 146.27019737 169.53107973 149.91875158 169.21392822 153.56796265 C169.07156111 155.18645936 168.92569881 156.80465251 168.77630615 158.42251587 C166.69511136 181.04201904 165.75896915 203.74070622 164.66406631 226.42417908 C164.49887591 229.83571482 164.33177888 233.24715239 164.16415405 236.65856934 C163.08447156 258.66197544 162.00958578 280.66460328 161.30078125 302.68359375 C161.27762218 303.40118677 161.25446312 304.11877979 161.23060226 304.85811806 C161.00592006 311.89283669 160.80577339 318.92791913 160.6328125 325.96411133 C160.58763741 327.63117882 160.58763741 327.63117882 160.54154968 329.33192444 C160.48800955 331.32891617 160.44127439 333.32611168 160.40388489 335.32347107 C160.22390644 341.89943802 159.96387485 349.10070227 156.95625305 355.07237244 C155.46151154 358.08549216 155.5422744 361.24767281 155.40625 364.55078125 C155.3507196 365.66879875 155.3507196 365.66879875 155.29406738 366.80940247 C154.91981581 374.76808971 154.72692066 382.73292914 154.55471802 390.69812012 C154.46117297 394.95392411 154.35349809 399.20937037 154.24609375 403.46484375 C154.22522202 404.29319733 154.20435028 405.1215509 154.18284607 405.9750061 C154.01059215 412.73467401 153.82429082 419.49310887 153.5625 426.25 C153.52189453 427.55940552 153.52189453 427.55940552 153.48046875 428.89526367 C153.31596547 432.73459618 153.17678419 434.73482371 151 438 C141.09474087 444.24461988 128.55235008 444.99133423 117.23974609 446.59863281 C114.97236592 446.89613734 114.97236592 446.89613734 113 448 C111.45633749 448.10512434 109.90827198 448.14870862 108.36108398 448.16113281 C107.39504745 448.17074036 106.42901093 448.1803479 105.43370056 448.19024658 C104.38179031 448.19449646 103.32988007 448.19874634 102.24609375 448.203125 C101.1572438 448.20882507 100.06839386 448.21452515 98.94654846 448.22039795 C96.62884495 448.22986687 94.31112787 448.2363894 91.9934082 448.24023438 C88.50381503 448.24981788 85.01484231 448.28077095 81.52539062 448.3125 C41.34883647 448.50517821 41.34883647 448.50517821 28.67578125 438.08984375 C26.01157731 434.76735165 25.87642659 431.57979242 25.82641602 427.41625977 C25.81283554 426.50815048 25.79925507 425.6000412 25.78526306 424.66441345 C25.77491531 423.68332108 25.76456757 422.7022287 25.75390625 421.69140625 C25.72250527 419.57372544 25.69075332 417.45604981 25.65869141 415.33837891 C25.64332336 414.23085266 25.62795532 413.12332642 25.61212158 411.98223877 C25.27352528 388.53892013 25.27352528 388.53892013 24.125 365.125 C24.05869385 364.03775635 23.9923877 362.9505127 23.92407227 361.83032227 C23.56380924 356.99157069 22.93523166 352.62515019 21.4934082 347.99023438 C19.35257652 339.57566366 19.5010015 331.11069408 19.43414688 322.48048019 C19.40952164 319.31691063 19.36756323 316.15395743 19.32150269 312.9906311 C19.25708721 308.46369864 19.19946518 303.93675955 19.14743042 299.40966797 C19.00907771 287.61356282 18.81450153 275.81841063 18.6015625 264.0234375 C18.5805718 262.85439629 18.55958111 261.68535507 18.53795433 260.48088837 C18.04446082 233.83371026 16.58807677 207.30776237 14.6554718 180.72993469 C14.12040372 173.24593409 13.75015171 165.76724434 13.47265625 158.26953125 C13.12900244 149.02550247 12.46236296 139.88768993 11.5 130.6875 C10.65247684 122.27567322 9.85601514 113.8897738 9.5625 105.4375 C9.19751649 95.73825741 7.80846705 86.15953096 6.51416016 76.55078125 C5.39066841 68.18976808 4.4427439 59.84084572 3.72338867 51.43579102 C3.34181678 47.13323903 2.86068597 42.87311874 2.21484375 38.6015625 C2.0763501 37.67609619 1.93785645 36.75062988 1.79516602 35.79711914 C1.5330041 34.09085787 1.25828162 32.38642215 0.96459961 30.68530273 C-0.62768448 20.32980978 0 10.8050153 0 0 Z " fill="#DAE4EF" transform="translate(112,12)"/>
<path d="M0 0 C3 0 3 0 5.5 2.4375 C6.325 3.283125 7.15 4.12875 8 5 C10.73024437 5.91008146 12.84998092 6.25385119 15.69140625 6.5 C16.63822266 6.5825 17.58503906 6.665 18.56054688 6.75 C19.55119141 6.8325 20.54183594 6.915 21.5625 7 C22.96145508 7.12375 22.96145508 7.12375 24.38867188 7.25 C27.59103605 7.52345071 30.79448002 7.76638842 34 8 C35.85564575 8.13897705 35.85564575 8.13897705 37.7487793 8.28076172 C51.07316567 9.19257888 64.40367041 9.15212056 77.75366211 9.13037109 C81.71797416 9.12495839 85.68217552 9.1303739 89.64648438 9.13671875 C92.18489608 9.13605878 94.72330772 9.13477931 97.26171875 9.1328125 C98.43780197 9.13483673 99.61388519 9.13686096 100.8256073 9.13894653 C108.4190505 9.11723761 115.25613218 8.96480765 122.375 6.0625 C123.22835937 5.72347656 124.08171875 5.38445312 124.9609375 5.03515625 C127.16186265 4.17219109 127.16186265 4.17219109 128 2 C128.66 2 129.32 2 130 2 C129.93361328 3.14750732 129.86722656 4.29501465 129.79882812 5.47729492 C129.1924215 16.26675756 128.79068249 27.04549826 128.55471802 37.84899902 C128.29259225 49.65036033 128.01879961 61.45445138 127.5625 73.25 C127.52189453 74.55964722 127.52189453 74.55964722 127.48046875 75.89575195 C127.31593884 79.73491508 127.17668998 81.73496503 125 85 C115.09474087 91.24461988 102.55235008 91.99133423 91.23974609 93.59863281 C88.97236592 93.89613734 88.97236592 93.89613734 87 95 C85.45633749 95.10512434 83.90827198 95.14870862 82.36108398 95.16113281 C80.91202919 95.17554413 80.91202919 95.17554413 79.43370056 95.19024658 C78.38179031 95.19449646 77.32988007 95.19874634 76.24609375 95.203125 C75.1572438 95.20882507 74.06839386 95.21452515 72.94654846 95.22039795 C70.62884495 95.22986687 68.31112787 95.2363894 65.9934082 95.24023438 C62.50381503 95.24981788 59.01484231 95.28077095 55.52539062 95.3125 C15.34883647 95.50517821 15.34883647 95.50517821 2.67578125 85.08984375 C0.01399979 81.7703727 -0.12397451 78.56037837 -0.20532227 74.40039062 C-0.22525742 73.48914932 -0.24519257 72.57790802 -0.26573181 71.63905334 C-0.28245438 70.65472824 -0.29917694 69.67040314 -0.31640625 68.65625 C-0.33727798 67.62644516 -0.35814972 66.59664032 -0.37965393 65.53562927 C-0.44571217 62.19049451 -0.50456499 58.84528462 -0.5625 55.5 C-0.60463117 53.2181799 -0.64678614 50.93636024 -0.68896484 48.65454102 C-0.90822538 36.41615979 -1.09752885 24.17797684 -1.125 11.9375 C-1.12959229 10.80570312 -1.13418457 9.67390625 -1.13891602 8.5078125 C-1.13690186 7.50363281 -1.1348877 6.49945313 -1.1328125 5.46484375 C-1.13168457 4.615271 -1.13055664 3.76569824 -1.12939453 2.89038086 C-1 1 -1 1 0 0 Z " fill="#769CB4" transform="translate(138,365)"/>
<path d="M0 0 C35.64 0 71.28 0 108 0 C108 30.03 108 60.06 108 91 C98.1 91 88.2 91 78 91 C78 92.98 78 94.96 78 97 C77.34 97.66 76.68 98.32 76 99 C75.53993654 101.20250992 75.53993654 101.20250992 75.375 103.625 C75.30023438 104.44226563 75.22546875 105.25953125 75.1484375 106.1015625 C75.07496094 107.04128906 75.07496094 107.04128906 75 108 C74.67 108 74.34 108 74 108 C74 96.45 74 84.9 74 73 C61.79 73 49.58 73 37 73 C37 80.92 37 88.84 37 97 C35.35 97 33.7 97 32 97 C32 95.02 32 93.04 32 91 C21.44 91 10.88 91 0 91 C0 60.97 0 30.94 0 0 Z " fill="#F7F7F6" transform="translate(148,107)"/>
<path d="M0 0 C35.64 0 71.28 0 108 0 C108 9.9 108 19.8 108 30 C72.36 30 36.72 30 0 30 C0 20.1 0 10.2 0 0 Z " fill="#2B2623" transform="translate(148,72)"/>
<path d="M0 0 C37.62 0.33 75.24 0.66 114 1 C114 44.56 114 88.12 114 133 C103.44 133 92.88 133 82 133 C82 132.01 82 131.02 82 130 C91.57 130 101.14 130 111 130 C111 99.97 111 69.94 111 39 C75.36 39 39.72 39 3 39 C3 69.03 3 99.06 3 130 C13.56 130 24.12 130 35 130 C35 130.99 35 131.98 35 133 C23.45 133 11.9 133 0 133 C0 89.11 0 45.22 0 0 Z M3 4 C3 13.9 3 23.8 3 34 C38.64 34 74.28 34 111 34 C111 24.1 111 14.2 111 4 C75.36 4 39.72 4 3 4 Z " fill="#BFBFC0" transform="translate(145,68)"/>
<path d="M0 0 C11.88 0 23.76 0 36 0 C36 11.55 36 23.1 36 35 C24.12 35 12.24 35 0 35 C0 23.45 0 11.9 0 0 Z " fill="#EFB628" transform="translate(185,180)"/>
<path d="M0 0 C-4.00257987 2.66838658 -8.17202398 3.59596543 -12.7734375 4.90234375 C-15.88860658 5.96210466 -18.33972743 7.07009317 -21 9 C-21.33 9.99 -21.66 10.98 -22 12 C-20.88109375 11.51273438 -19.7621875 11.02546875 -18.609375 10.5234375 C-13.7758554 8.71883849 -9.36772512 8.54100624 -4.25 8.625 C-2.9338269 8.63696411 -2.9338269 8.63696411 -1.59106445 8.64916992 C6.6379343 8.82886887 14.38032149 9.83374069 21.5625 14.0625 C25.86238827 15.2351968 26.80531719 14.40798511 30.625 12.3125 C31.52476562 11.75175781 32.42453125 11.19101563 33.3515625 10.61328125 C35.84946599 9.09169697 38.2599284 8.00403345 41 7 C40.505 5.515 40.505 5.515 40 4 C39.01 3.67 38.02 3.34 37 3 C38.65 3 40.3 3 42 3 C42.625 5.375 42.625 5.375 43 8 C42.34 8.66 41.68 9.32 41 10 C40.01 10 39.02 10 38 10 C37.67 10.66 37.34 11.32 37 12 C37.90833725 14.06669397 37.90833725 14.06669397 39 16 C39 16.33 39 16.66 39 17 C38.31292969 17.04898438 37.62585938 17.09796875 36.91796875 17.1484375 C36.01691406 17.22320312 35.11585938 17.29796875 34.1875 17.375 C33.29417969 17.44460937 32.40085938 17.51421875 31.48046875 17.5859375 C28.75601501 17.86645036 28.75601501 17.86645036 26 20 C24.79549696 22.55183404 24.79549696 22.55183404 24 25 C25.65 25 27.3 25 29 25 C27 28 27 28 24.6875 28.4765625 C23.800625 28.52554687 22.91375 28.57453125 22 28.625 C18.36174121 28.78774199 18.36174121 28.78774199 15 30 C13.16759684 30.01632308 11.33438533 29.96442899 9.50390625 29.87890625 C8.38693359 29.83056641 7.26996094 29.78222656 6.11914062 29.73242188 C4.94544922 29.67634766 3.77175781 29.62027344 2.5625 29.5625 C-4.92781094 29.21914109 -12.37617684 28.93500862 -19.87524414 29.07788086 C-22 29 -22 29 -24 28 C-24 27.34 -24 26.68 -24 26 C-25.32 26 -26.64 26 -28 26 C-28 24.35 -28 22.7 -28 21 C-27.34 21 -26.68 21 -26 21 C-26 21.99 -26 22.98 -26 24 C-21.38 24 -16.76 24 -12 24 C-12 21.69 -12 19.38 -12 17 C-14.86724686 17.57344937 -15.8614515 17.8614515 -18 20 C-21.84458427 20.21358801 -25.31620978 20.17881287 -29 19 C-29.33 20.65 -29.66 22.3 -30 24 C-30.33 24 -30.66 24 -31 24 C-31 21.03 -31 18.06 -31 15 C-30.34 15 -29.68 15 -29 15 C-28.4225 13.989375 -27.845 12.97875 -27.25 11.9375 C-24.60698506 8.02870381 -21.14454279 6.16032392 -17 4.125 C-16.39446289 3.827146 -15.78892578 3.52929199 -15.16503906 3.22241211 C-10.01882943 0.80863484 -5.65121616 -0.16146332 0 0 Z " fill="#F1F1EB" transform="translate(195,231)"/>
<path d="M0 0 C60.06 0 120.12 0 182 0 C182.72437834 3.62189172 183.11585593 6.23765264 183.0625 9.8125 C183.05347656 10.60269531 183.04445313 11.39289062 183.03515625 12.20703125 C183.01775391 13.09455078 183.01775391 13.09455078 183 14 C182.67 14 182.34 14 182 14 C181.67 12.35 181.34 10.7 181 9 C180.01 9.33 179.02 9.66 178 10 C177.67 7.36 177.34 4.72 177 2 C176.34 2.66 175.68 3.32 175 4 C174.01 3.01 174.01 3.01 173 2 C171.68 2 170.36 2 169 2 C168.67 4.97 168.34 7.94 168 11 C167.67 11 167.34 11 167 11 C167 7.7 167 4.4 167 1 C166.34 1 165.68 1 165 1 C165 4.96 165 8.92 165 13 C164.67 13 164.34 13 164 13 C163.67 9.37 163.34 5.74 163 2 C162.02417969 2 161.04835938 2 160.04296875 2 C154.6953125 2 149.34765625 2 144 2 C143.34 3.32 142.68 4.64 142 6 C141.67 4.68 141.34 3.36 141 2 C140.67 5.96 140.34 9.92 140 14 C139.67 14 139.34 14 139 14 C138.67 10.04 138.34 6.08 138 2 C137.67 4.64 137.34 7.28 137 10 C136.67 10 136.34 10 136 10 C135.67 7.36 135.34 4.72 135 2 C132.36 2 129.72 2 127 2 C126.896875 3.2375 126.79375 4.475 126.6875 5.75 C126.3514803 9.78223642 125.70573211 10.39235718 123 14 C123 9.71 123 5.42 123 1 C122.34 1.33 121.68 1.66 121 2 C121.05220703 3.03060547 121.05220703 3.03060547 121.10546875 4.08203125 C121.13253906 4.98308594 121.15960938 5.88414063 121.1875 6.8125 C121.23970703 8.15248047 121.23970703 8.15248047 121.29296875 9.51953125 C121 12 121 12 118 15 C117.34 10.71 116.68 6.42 116 2 C115.34 2 114.68 2 114 2 C113.67 5.63 113.34 9.26 113 13 C112.67 13 112.34 13 112 13 C111.505 7.555 111.505 7.555 111 2 C109.35 2 107.7 2 106 2 C105.67 4.97 105.34 7.94 105 11 C104.67 11 104.34 11 104 11 C103.505 6.545 103.505 6.545 103 2 C102.236875 2 101.47375 2 100.6875 2 C98.125 2 95.5625 2 93 2 C92.67 5.96 92.34 9.92 92 14 C91.67 14 91.34 14 91 14 C90.505 8.555 90.505 8.555 90 3 C89.67 5.31 89.34 7.62 89 10 C88.67 10 88.34 10 88 10 C88 7.03 88 4.06 88 1 C87.34 1 86.68 1 86 1 C86 3.64 86 6.28 86 9 C85.67 9 85.34 9 85 9 C85 6.36 85 3.72 85 1 C84.34 1.33 83.68 1.66 83 2 C82.67 3.155 82.34 4.31 82 5.5 C81.67 6.655 81.34 7.81 81 9 C80.34 9.33 79.68 9.66 79 10 C78.505 6.04 78.505 6.04 78 2 C77.67 5.63 77.34 9.26 77 13 C76.67 13 76.34 13 76 13 C76 9.04 76 5.08 76 1 C72.72226496 1.75150023 72.72226496 1.75150023 71 5 C70.01 3.515 70.01 3.515 69 2 C68.34 2 67.68 2 67 2 C66.34 2.99 65.68 3.98 65 5 C64.319375 4.2575 64.319375 4.2575 63.625 3.5 C62.12364481 1.77390663 62.12364481 1.77390663 60 2 C59.67 4.31 59.34 6.62 59 9 C58.67 9 58.34 9 58 9 C58 6.36 58 3.72 58 1 C55.96758273 1.63979849 55.96758273 1.63979849 54 3 C53.18828772 5.55519921 53.18828772 5.55519921 53 8 C52.67 8 52.34 8 52 8 C51.505 5.03 51.505 5.03 51 2 C49.26043342 3.73956658 49.62809614 6.1936622 49.4375 8.5625 C49.35371094 9.57441406 49.26992187 10.58632813 49.18359375 11.62890625 C49.09271484 12.80259766 49.09271484 12.80259766 49 14 C48.67 14 48.34 14 48 14 C47.95101562 13.21753906 47.90203125 12.43507813 47.8515625 11.62890625 C47.77679688 10.61699219 47.70203125 9.60507812 47.625 8.5625 C47.52058594 7.04849609 47.52058594 7.04849609 47.4140625 5.50390625 C47.20910156 4.26447266 47.20910156 4.26447266 47 3 C46.34 2.67 45.68 2.34 45 2 C44.67 4.64 44.34 7.28 44 10 C43.67 10 43.34 10 43 10 C42.505 6.04 42.505 6.04 42 2 C41.67 5.96 41.34 9.92 41 14 C40.01 14.33 39.02 14.66 38 15 C37.67 10.71 37.34 6.42 37 2 C36.67 5.96 36.34 9.92 36 14 C35.67 14 35.34 14 35 14 C34.505 8.06 34.505 8.06 34 2 C33.01 2 32.02 2 31 2 C30.34902344 1.97679687 29.69804687 1.95359375 29.02734375 1.9296875 C27.01878006 1.87712695 25.00823958 1.93624636 23 2 C22.34 2.66 21.68 3.32 21 4 C20.67 3.34 20.34 2.68 20 2 C19.34 2.66 18.68 3.32 18 4 C17.67 3.34 17.34 2.68 17 2 C16.67 3.98 16.34 5.96 16 8 C15.67 8 15.34 8 15 8 C14.67 6.02 14.34 4.04 14 2 C10.04 2 6.08 2 2 2 C1.67 4.31 1.34 6.62 1 9 C0.67 9 0.34 9 0 9 C0 6.03 0 3.06 0 0 Z " fill="#A9C1D9" transform="translate(113,12)"/>
<path d="M0 0 C0.33 0 0.66 0 1 0 C1.00808685 0.61530075 1.01617371 1.2306015 1.02450562 1.86454773 C1.1106071 8.27245647 1.2101134 14.68005787 1.31738281 21.08764648 C1.35565015 23.47854447 1.39050693 25.86949959 1.421875 28.26049805 C1.46757372 31.69861256 1.52556122 35.13633452 1.5859375 38.57421875 C1.59748871 39.64210129 1.60903992 40.70998383 1.62094116 41.81022644 C1.64081085 42.81088638 1.66068054 43.81154633 1.68115234 44.8425293 C1.69447601 45.71967087 1.70779968 46.59681244 1.7215271 47.50053406 C2.16034742 51.43921693 3.19128446 54.19128446 6 57 C23.33222413 64.71169444 40.96833743 65.47421681 59.63256836 65.33618164 C63.08796084 65.31232421 66.54259137 65.3156773 69.99804688 65.32226562 C72.21875456 65.31669523 74.43945905 65.30958939 76.66015625 65.30078125 C78.19157005 65.30214836 78.19157005 65.30214836 79.75392151 65.30354309 C85.53172321 65.24650598 90.44899995 64.59589824 96 63 C97.42733325 62.74520308 98.8592878 62.51275179 100.296875 62.32421875 C113.91387855 60.76322776 113.91387855 60.76322776 126 55 C127.53583768 51.66211278 127.9716058 48.65575348 128 45 C130.63040344 47.52839334 132.23362098 49.33841137 133 53 C129.4245749 60.15085021 123.65456921 62.42191247 116.55859375 65.2265625 C114.09637842 65.97086576 112.29904804 66.17013735 109.75 66.0625 C105.51468519 65.99191142 103.70382276 67.10868625 100 69 C96.5625 69.125 96.5625 69.125 93 69 C91.97543701 69.15895752 90.95087402 69.31791504 89.89526367 69.48168945 C85.27254492 70.09679644 80.77048259 70.16213686 76.11328125 70.16796875 C74.70588936 70.17296135 74.70588936 70.17296135 73.27006531 70.17805481 C71.29080695 70.18309862 69.31154016 70.18546393 67.33227539 70.18530273 C64.33920891 70.18748057 61.34651663 70.20563982 58.35351562 70.22460938 C48.67968014 70.25260912 39.50263812 70.00873697 30 68 C28.43944618 67.79693773 26.87694633 67.60799981 25.3125 67.4375 C22 67 22 67 21 66 C18.75316813 65.46738448 16.49334521 65.03698384 14.2265625 64.59765625 C12 64 12 64 9 62 C7.01200182 61.29835358 5.01301483 60.62627128 3 60 C3 59.34 3 58.68 3 58 C2.34 58 1.68 58 1 58 C1 57.34 1 56.68 1 56 C0.34 56 -0.32 56 -1 56 C-1.99 53.03 -2.98 50.06 -4 47 C-3.01 46.01 -2.02 45.02 -1 44 C-0.53081038 41.92966096 -0.53081038 41.92966096 -0.56762695 39.62036133 C-0.53793571 38.29933159 -0.53793571 38.29933159 -0.50764465 36.95161438 C-0.50125473 36.00465195 -0.49486481 35.05768951 -0.48828125 34.08203125 C-0.47033005 33.10965012 -0.45237885 32.13726898 -0.43388367 31.13542175 C-0.37967533 28.02782536 -0.34585102 24.92038348 -0.3125 21.8125 C-0.27933624 19.70635866 -0.24484747 17.60023773 -0.20898438 15.49414062 C-0.12394269 10.32953839 -0.05718159 5.16498281 0 0 Z " fill="#D4D7D7" transform="translate(137,394)"/>
<path d="M0 0 C1.62893188 0.00483398 1.62893188 0.00483398 3.29077148 0.00976562 C11.96667875 0.15942809 19.59507539 1.46725104 27.75 4.4375 C27.75 5.0975 27.75 5.7575 27.75 6.4375 C28.74 6.9325 28.74 6.9325 29.75 7.4375 C27.66706723 8.5632469 25.58367092 9.68812083 23.5 10.8125 C22.33984375 11.43898437 21.1796875 12.06546875 19.984375 12.7109375 C18.91703125 13.28070313 17.8496875 13.85046875 16.75 14.4375 C16.08226562 14.88996094 15.41453125 15.34242188 14.7265625 15.80859375 C11.51987142 16.82890455 9.38527292 15.42664482 6.375 14.125 C-5.80500327 8.9192609 -22.21854892 8.10854581 -34.765625 12.78125 C-35.25546875 12.9978125 -35.7453125 13.214375 -36.25 13.4375 C-34.26032404 8.4633101 -30.95963001 6.90994957 -26.40625 4.6484375 C-17.57391405 1.25979376 -9.45048482 -0.08783659 0 0 Z " fill="#ECE3BE" transform="translate(207.25,230.5625)"/>
<path d="M0 0 C35.64 0 71.28 0 108 0 C108 1.65 108 3.3 108 5 C72.36 5 36.72 5 0 5 C0 3.35 0 1.7 0 0 Z " fill="#F7BB2C" transform="translate(148,102)"/>
<path d="M0 0 C-4.00257987 2.66838658 -8.17202398 3.59596543 -12.7734375 4.90234375 C-15.88860658 5.96210466 -18.33972743 7.07009317 -21 9 C-21.33 9.99 -21.66 10.98 -22 12 C-20.88109375 11.51273438 -19.7621875 11.02546875 -18.609375 10.5234375 C-13.77659829 8.71911585 -9.3672348 8.53904146 -4.25 8.625 C-3.37327637 8.63587646 -2.49655273 8.64675293 -1.59326172 8.65795898 C14.40674632 9.04888671 14.40674632 9.04888671 20.0546875 13.6875 C24 18.05097926 24 18.05097926 24 21 C22.68 21.33 21.36 21.66 20 22 C20 20.68 20 19.36 20 18 C15.38 18.33 10.76 18.66 6 19 C6 18.34 6 17.68 6 17 C5.52820313 17.51433594 5.05640625 18.02867187 4.5703125 18.55859375 C0.62942644 20.76860432 -2.78538003 19.7514918 -7.125 19.0625 C-8.75113353 18.81438103 -10.37873136 18.57562096 -12.0078125 18.34765625 C-13.08506592 18.17762085 -13.08506592 18.17762085 -14.18408203 18.00415039 C-14.78333496 18.00278076 -15.38258789 18.00141113 -16 18 C-16.66 18.66 -17.32 19.32 -18 20 C-21.84458427 20.21358801 -25.31620978 20.17881287 -29 19 C-29.33 20.65 -29.66 22.3 -30 24 C-30.33 24 -30.66 24 -31 24 C-31 21.03 -31 18.06 -31 15 C-30.34 15 -29.68 15 -29 15 C-28.4225 13.989375 -27.845 12.97875 -27.25 11.9375 C-24.60698506 8.02870381 -21.14454279 6.16032392 -17 4.125 C-16.39446289 3.827146 -15.78892578 3.52929199 -15.16503906 3.22241211 C-10.01882943 0.80863484 -5.65121616 -0.16146332 0 0 Z " fill="#F0F4F3" transform="translate(195,231)"/>
<path d="M0 0 C4.82380802 -0.0246519 9.64757967 -0.04283693 14.47143555 -0.05493164 C16.11369464 -0.05997174 17.75594923 -0.06680378 19.39819336 -0.07543945 C21.75375479 -0.08751926 24.10925709 -0.09323139 26.46484375 -0.09765625 C27.20339096 -0.10281754 27.94193817 -0.10797882 28.7028656 -0.11329651 C30.46898088 -0.1134925 32.23497146 -0.06194719 34 0 C37.07318149 3.07318149 35 8.65386506 35 13 C23.45 13 11.9 13 0 13 C0 8.71 0 4.42 0 0 Z " fill="#E6BD54" transform="translate(150,41)"/>
<path d="M0 0 C0.33 0 0.66 0 1 0 C1 5.94 1 11.88 1 18 C-33.98 18 -68.96 18 -105 18 C-105 17.67 -105 17.34 -105 17 C-104.1945575 16.99191315 -103.38911499 16.98382629 -102.55926514 16.97549438 C-94.96683763 16.8975372 -87.374602 16.81024324 -79.78240585 16.71247292 C-75.87922466 16.66253781 -71.97607016 16.61620763 -68.07275391 16.578125 C-64.30547664 16.54123683 -60.53842424 16.49486748 -56.77133942 16.44193649 C-55.33448483 16.42341127 -53.89758207 16.40829637 -52.46065521 16.39665604 C-50.44730677 16.37976235 -48.43408299 16.34959317 -46.42089844 16.31884766 C-45.27506287 16.30552399 -44.12922729 16.29220032 -42.94866943 16.2784729 C-40.06246033 16.00589877 -38.4490607 15.4813084 -36 14 C-35.34 13.67 -34.68 13.34 -34 13 C-34 11.35 -34 9.7 -34 8 C-33.34 7.67 -32.68 7.34 -32 7 C-31.505 7.99 -31.505 7.99 -31 9 C-23.96569201 10.18787874 -17.00999081 10.2370572 -10 9 C-10 7.68 -10 6.36 -10 5 C-9.34 5 -8.68 5 -8 5 C-7.87625 5.639375 -7.7525 6.27875 -7.625 6.9375 C-7.315625 7.9584375 -7.315625 7.9584375 -7 9 C-6.01 9.495 -6.01 9.495 -5 10 C-5 7.69 -5 5.38 -5 3 C-3.68 3 -2.36 3 -1 3 C-0.67 2.01 -0.34 1.02 0 0 Z " fill="#201F1D" transform="translate(254,83)"/>
<path d="M0 0 C11.88 0 23.76 0 36 0 C36 3.63 36 7.26 36 11 C24.12 11 12.24 11 0 11 C0 7.37 0 3.74 0 0 Z " fill="#3F135A" transform="translate(185,204)"/>
<path d="M0 0 C37.62 0.33 75.24 0.66 114 1 C114 11.23 114 21.46 114 32 C113.67 32 113.34 32 113 32 C113 22.1 113 12.2 113 2 C76.04 2 39.08 2 1 2 C1 44.57 1 87.14 1 131 C1.66 130.67 2.32 130.34 3 130 C5.40838678 129.91360131 7.78733881 129.88432236 10.1953125 129.90234375 C10.90275604 129.9037587 11.61019958 129.90517365 12.33908081 129.90663147 C14.60109669 129.912234 16.86301398 129.92478682 19.125 129.9375 C20.65755065 129.94251468 22.19010286 129.94707764 23.72265625 129.95117188 C27.48180888 129.96220423 31.24088772 129.97947048 35 130 C35 130.99 35 131.98 35 133 C23.45 133 11.9 133 0 133 C0 89.11 0 45.22 0 0 Z " fill="#C6CAD1" transform="translate(145,68)"/>
<path d="M0 0 C3.63 0.33 7.26 0.66 11 1 C11 2.65 11 4.3 11 6 C11.66 6 12.32 6 13 6 C13.66 4.68 14.32 3.36 15 2 C17.475 2.495 17.475 2.495 20 3 C19.67 3.66 19.34 4.32 19 5 C18.34 5 17.68 5 17 5 C16.855625 5.639375 16.71125 6.27875 16.5625 6.9375 C16 9 16 9 15 10 C15.94875 10.103125 16.8975 10.20625 17.875 10.3125 C21 11 21 11 23 14 C23.99 14.33 24.98 14.66 26 15 C26.04254356 13.00045254 26.04080783 10.99958364 26 9 C25.67 8.67 25.34 8.34 25 8 C24.95919217 6.00041636 24.95745644 3.99954746 25 2 C29.455 1.505 29.455 1.505 34 1 C33.01 1.33 32.02 1.66 31 2 C31 3.32 31 4.64 31 6 C30.34 6 29.68 6 29 6 C29 8.97 29 11.94 29 15 C30.32 15.33 31.64 15.66 33 16 C33 16.66 33 17.32 33 18 C31.68 18 30.36 18 29 18 C29 18.66 29 19.32 29 20 C23.92523206 21.26305335 19.27203646 22.27036084 14 22 C14 21.34 14 20.68 14 20 C10.37 20.33 6.74 20.66 3 21 C3 20.34 3 19.68 3 19 C4.98 19 6.96 19 9 19 C9 18.01 9 17.02 9 16 C7.02 16 5.04 16 3 16 C2.875 13.125 2.875 13.125 3 10 C3.66 9.34 4.32 8.68 5 8 C4.67 7.67 4.34 7.34 4 7 C3.95936168 5.33382885 3.957279 3.66611905 4 2 C2.68 1.34 1.36 0.68 0 0 Z " fill="#CD9F29" transform="translate(186,180)"/>
<path d="M0 0 C0.66 0 1.32 0 2 0 C1.93361328 1.14750732 1.86722656 2.29501465 1.79882812 3.47729492 C1.1924215 14.26675756 0.79068249 25.04549826 0.55471802 35.84899902 C0.29259225 47.65036033 0.01879961 59.45445138 -0.4375 71.25 C-0.47810547 72.55964722 -0.47810547 72.55964722 -0.51953125 73.89575195 C-0.68406116 77.73491508 -0.82331002 79.73496503 -3 83 C-12.90525913 89.24461988 -25.44764992 89.99133423 -36.76025391 91.59863281 C-39.02763408 91.89613734 -39.02763408 91.89613734 -41 93 C-42.54366251 93.10512434 -44.09172802 93.14870862 -45.63891602 93.16113281 C-47.08797081 93.17554413 -47.08797081 93.17554413 -48.56629944 93.19024658 C-49.61820969 93.19449646 -50.67011993 93.19874634 -51.75390625 93.203125 C-52.8427562 93.20882507 -53.93160614 93.21452515 -55.05345154 93.22039795 C-57.37115505 93.22986687 -59.68887213 93.2363894 -62.0065918 93.24023438 C-65.49618497 93.24981788 -68.98515769 93.28077095 -72.47460938 93.3125 C-88.51329835 93.38912126 -104.25875346 93.13519796 -119 86 C-115.98968256 85.06576355 -115.13349732 84.95550089 -112 86 C-112 86.66 -112 87.32 -112 88 C-110.948125 87.979375 -109.89625 87.95875 -108.8125 87.9375 C-105 88 -105 88 -102.66479492 88.46972656 C-90.82155726 90.82643863 -78.07967053 90.21561944 -66.05834961 90.24023438 C-63.20201596 90.24995062 -60.34640089 90.28110008 -57.49023438 90.3125 C-46.9772189 90.37101716 -37.06248496 89.69167403 -26.7434082 87.64746094 C-23.39501152 87.0683213 -20.38594275 86.87438658 -17 87 C-17 86.34 -17 85.68 -17 85 C-11.45378151 82.10084034 -11.45378151 82.10084034 -8.75 81.5 C-6.59045762 81.08730555 -6.59045762 81.08730555 -5 78 C-4.34 78 -3.68 78 -3 78 C-2.98969254 77.45479706 -2.97938507 76.90959412 -2.96876526 76.34786987 C-2.85944512 70.603729 -2.74497199 64.85970626 -2.62768555 59.11572266 C-2.5847332 56.98033146 -2.54303595 54.8449146 -2.50268555 52.70947266 C-2.30010179 42.03005726 -2.07117931 31.39477402 -1.20727539 20.74560547 C-0.95137652 17.35592497 -0.89973993 14.02340588 -0.9375 10.625 C-0.94652344 9.54476563 -0.95554687 8.46453125 -0.96484375 7.3515625 C-0.97644531 6.57554687 -0.98804688 5.79953125 -1 5 C-1.99 4.505 -1.99 4.505 -3 4 C-1.625 2 -1.625 2 0 0 Z " fill="#B7BDBF" transform="translate(266,367)"/>
<path d="M0 0 C0.33 0 0.66 0 1 0 C1 32.67 1 65.34 1 99 C-9.56 99 -20.12 99 -31 99 C-31 98.01 -31 97.02 -31 96 C-21.43 96 -11.86 96 -2 96 C-2 65.97 -2 35.94 -2 5 C-1.67 5 -1.34 5 -1 5 C-0.67 3.35 -0.34 1.7 0 0 Z " fill="#C6C7CA" transform="translate(258,102)"/>
<path d="M0 0 C3.3 0 6.6 0 10 0 C10 2.31 10 4.62 10 7 C10.66 7 11.32 7 12 7 C11.95875 6.21625 11.9175 5.4325 11.875 4.625 C12 2 12 2 14 0 C16.33944736 0.28730055 18.6739143 0.61936779 21 1 C21.33 0.67 21.66 0.34 22 0 C25.8361222 -0.14475933 29.32307787 -0.17661508 33 1 C32.7215625 2.175625 32.7215625 2.175625 32.4375 3.375 C31.74037734 5.97089775 31.74037734 5.97089775 33 8 C32.01 7.67 31.02 7.34 30 7 C29.67 7.66 29.34 8.32 29 9 C19 9 9 9 -1 9 C-1.66 7.68 -2.32 6.36 -3 5 C-3.66 5.99 -4.32 6.98 -5 8 C-5 5.69 -5 3.38 -5 1 C-3.02 1.99 -3.02 1.99 -1 3 C-0.67 2.01 -0.34 1.02 0 0 Z " fill="#8B8B8B" transform="translate(194,156)"/>
<path d="M0 0 C0.721875 0.763125 1.44375 1.52625 2.1875 2.3125 C16.92781342 14.59106467 50.50586512 11.28934199 68.875 11.3125 C69.77133148 11.31599457 70.66766296 11.31948914 71.59115601 11.3230896 C81.20047434 11.34389876 90.47757743 11.09904996 99.96142578 9.42651367 C103.3394761 8.95234897 106.59320364 8.93295391 110 9 C110 9.33 110 9.66 110 10 C94.43644216 13.67746514 79.35700312 14.37758328 63.4375 14.3125 C62.01878601 14.30827026 62.01878601 14.30827026 60.57141113 14.30395508 C45.25150704 14.23367116 30.09189531 13.89472107 15 11 C15 10.34 15 9.68 15 9 C14.25234375 8.97421875 13.5046875 8.9484375 12.734375 8.921875 C4.67903672 8.45795499 4.67903672 8.45795499 1.3125 6.1875 C0 4 0 4 0 0 Z " fill="#979CA1" transform="translate(139,444)"/>
<path d="M0 0 C0 1.32 0 2.64 0 4 C-0.55429688 4.17015625 -1.10859375 4.3403125 -1.6796875 4.515625 C-6.20693685 5.82832118 -6.20693685 5.82832118 -9.25 9.125 C-9.4975 9.74375 -9.745 10.3625 -10 11 C-12.125 11.75 -12.125 11.75 -14 12 C-14 12.66 -14 13.32 -14 14 C-13.34 14 -12.68 14 -12 14 C-12 13.34 -12 12.68 -12 12 C-8.535 11.505 -8.535 11.505 -5 11 C-4.67 12.32 -4.34 13.64 -4 15 C-7.40562852 15.77842938 -10.50765756 16.09978121 -14 16 C-14.33 15.01 -14.66 14.02 -15 13 C-15.66 13 -16.32 13 -17 13 C-17 13.66 -17 14.32 -17 15 C-18.36125 14.9690625 -18.36125 14.9690625 -19.75 14.9375 C-22.42672588 14.9889755 -24.46988052 15.2215017 -27 16 C-27 14.35 -27 12.7 -27 11 C-26.28972656 10.93941406 -25.57945312 10.87882812 -24.84765625 10.81640625 C-23.92855469 10.73261719 -23.00945312 10.64882813 -22.0625 10.5625 C-21.14597656 10.48128906 -20.22945312 10.40007812 -19.28515625 10.31640625 C-17.03840268 10.23955024 -17.03840268 10.23955024 -16 9 C-17.32 8.67 -18.64 8.34 -20 8 C-19.67 5.69 -19.34 3.38 -19 1 C-16.58440932 0.63645961 -14.16805703 0.28389449 -11.75 -0.0625 C-10.72712891 -0.2181543 -10.72712891 -0.2181543 -9.68359375 -0.37695312 C-6.2150075 -0.86524925 -3.33088887 -1.22762141 0 0 Z " fill="#EEECD6" transform="translate(239,248)"/>
<path d="M0 0 C0.99 0 1.98 0 3 0 C3.33 1.32 3.66 2.64 4 4 C5.32 4 6.64 4 8 4 C8 4.66 8 5.32 8 6 C8.928125 5.95875 9.85625 5.9175 10.8125 5.875 C14 6 14 6 17 8 C19.13592982 8.42355123 19.13592982 8.42355123 21.5 8.5625 C22.37785156 8.63597656 23.25570312 8.70945312 24.16015625 8.78515625 C25.09730469 8.85605469 26.03445312 8.92695313 27 9 C28.97950549 9.16259302 30.95868695 9.32918612 32.9375 9.5 C33.83339844 9.5721875 34.72929687 9.644375 35.65234375 9.71875 C38 10 38 10 41 11 C45.65056902 11.55478069 50.32286185 11.78897688 55 12 C55.66547852 12.03013184 56.33095703 12.06026367 57.01660156 12.09130859 C75.37241583 12.77648759 93.73880583 10.63325619 112 9 C103.5679507 17.4320493 79.7736888 14.36407313 68.4375 14.375 C11.85551795 14.29446736 11.85551795 14.29446736 2.1875 4.9375 C0 2 0 2 0 0 Z " fill="#648496" transform="translate(139,442)"/>
<path d="M0 0 C1.90072266 0.02126953 1.90072266 0.02126953 3.83984375 0.04296875 C5.74443359 0.05263672 5.74443359 0.05263672 7.6875 0.0625 C10.77734375 0.23046875 10.77734375 0.23046875 11.77734375 1.23046875 C12.01021383 2.91230823 12.18998541 4.60171035 12.33984375 6.29296875 C12.46552734 7.67162109 12.46552734 7.67162109 12.59375 9.078125 C12.65433594 9.78839844 12.71492188 10.49867187 12.77734375 11.23046875 C6.93826792 11.99413058 1.53989213 12.67110584 -4.22265625 11.23046875 C-6.22265625 8.23046875 -6.22265625 8.23046875 -5.97265625 5.16796875 C-4.92643192 1.07025678 -4.26090601 0.30471934 0 0 Z " fill="#262425" transform="translate(227.22265625,81.76953125)"/>
<path d="M0 0 C0.33 0.99 0.66 1.98 1 3 C1.61488281 3 2.22976562 3 2.86328125 3 C13.88888889 3 13.88888889 3 19 4 C20 5 20 5 20.1875 8.4375 C20 12 20 12 18 14 C15.5 14.25 15.5 14.25 13 14 C11 12 11 12 10.875 8.875 C10.91625 7.92625 10.9575 6.9775 11 6 C9.68 6 8.36 6 7 6 C7.33 8.64 7.66 11.28 8 14 C5.03 14 2.06 14 -1 14 C-1.22226864 12.23086176 -1.42733873 10.45955629 -1.625 8.6875 C-1.74101562 7.70136719 -1.85703125 6.71523437 -1.9765625 5.69921875 C-2 3 -2 3 0 0 Z " fill="#B2B0B1" transform="translate(191,79)"/>
<path d="M0 0 C1.03833984 -0.01224609 2.07667969 -0.02449219 3.14648438 -0.03710938 C9.77483056 -0.04957648 15.87337237 0.60616422 22.3125 2.1875 C20.76055246 5.51509923 19.00628051 7.67330485 16.3125 10.1875 C15.30703125 9.75630859 15.30703125 9.75630859 14.28125 9.31640625 C3.99222839 5.4038704 -6.71472902 3.56327983 -17.6875 3.1875 C-17.3575 2.5275 -17.0275 1.8675 -16.6875 1.1875 C-11.23532987 -0.31772235 -5.60961395 0.00341841 0 0 Z " fill="#D7BE6E" transform="translate(201.6875,235.8125)"/>
<path d="M0 0 C0.99 0 1.98 0 3 0 C3.94870788 6.85988773 3.94870788 13.14011227 3 20 C2.01 20 1.02 20 0 20 C0 19.34 0 18.68 0 18 C-0.99 18.66 -1.98 19.32 -3 20 C-6.1875 20.125 -6.1875 20.125 -9 20 C-9 19.34 -9 18.68 -9 18 C-7.35 17.67 -5.7 17.34 -4 17 C-3.67 15.68 -3.34 14.36 -3 13 C-3.928125 12.566875 -3.928125 12.566875 -4.875 12.125 C-7 11 -7 11 -9 9 C-9.25 6 -9.25 6 -9 3 C-7 1 -7 1 -4.4375 0.8125 C-2 1 -2 1 -1 2 C-0.67 1.34 -0.34 0.68 0 0 Z " fill="#E4E4E4" transform="translate(207,114)"/>
<path d="M0 0 C2.97 0.495 2.97 0.495 6 1 C6 2.98 6 4.96 6 7 C7.65 7.33 9.3 7.66 11 8 C11 8.33 11 8.66 11 9 C9.02 9.33 7.04 9.66 5 10 C4.67 11.98 4.34 13.96 4 16 C5.98 16 7.96 16 10 16 C10 16.99 10 17.98 10 19 C8.02 19 6.04 19 4 19 C4 19.99 4 20.98 4 22 C7.3 21.67 10.6 21.34 14 21 C14 21.66 14 22.32 14 23 C21.26 23 28.52 23 36 23 C36 23.33 36 23.66 36 24 C24.12 24 12.24 24 0 24 C0 16.08 0 8.16 0 0 Z " fill="#D7A53F" transform="translate(185,180)"/>
<path d="M0 0 C0.66 0 1.32 0 2 0 C2 0.66 2 1.32 2 2 C6.29 2 10.58 2 15 2 C15 3.65 15 5.3 15 7 C12.1914402 7.80604407 9.79008603 8.0860542 6.875 8 C1.86595183 7.93332382 -3.02949436 8.41889704 -8 9 C-8.33 8.34 -8.66 7.68 -9 7 C-10.98 7 -12.96 7 -15 7 C-14.67 5.35 -14.34 3.7 -14 2 C-12.73542969 2.03480469 -12.73542969 2.03480469 -11.4453125 2.0703125 C-10.34960938 2.08835938 -9.25390625 2.10640625 -8.125 2.125 C-7.03445312 2.14820313 -5.94390625 2.17140625 -4.8203125 2.1953125 C-1.8628949 2.30060534 -1.8628949 2.30060534 0 0 Z " fill="#E3DAAF" transform="translate(199,248)"/>
<path d="M0 0 C2.63040344 2.52839334 4.23362098 4.33841137 5 8 C2.78182599 12.43634803 0.43038307 14.83883753 -4 17 C-4.69996094 17.34289062 -5.39992188 17.68578125 -6.12109375 18.0390625 C-9.96488511 19.32206477 -13.59636633 19.46410671 -17.625 19.625 C-18.81681885 19.68192017 -18.81681885 19.68192017 -20.03271484 19.73999023 C-26.02234551 20.00815542 -32.00468043 20.11884995 -38 20 C-38 19.67 -38 19.34 -38 19 C-37.33581055 18.90501221 -36.67162109 18.81002441 -35.98730469 18.7121582 C-18.001606 17.11825763 -18.001606 17.11825763 -2 10 C-0.48935774 6.65500643 -0.02837631 3.65345054 0 0 Z " fill="#CCCCCC" transform="translate(265,439)"/>
<path d="M0 0 C-4.00257987 2.66838658 -8.17202398 3.59596543 -12.7734375 4.90234375 C-15.88860658 5.96210466 -18.33972743 7.07009317 -21 9 C-21.33 9.99 -21.66 10.98 -22 12 C-20.8965625 11.50886719 -19.793125 11.01773438 -18.65625 10.51171875 C-13.57697019 8.60698882 -8.86492321 8.66044186 -3.5 8.8125 C-2.5821875 8.82603516 -1.664375 8.83957031 -0.71875 8.85351562 C1.52146803 8.88851903 3.76040594 8.93761131 6 9 C6 9.33 6 9.66 6 10 C4.68644531 10.03738281 3.37289062 10.07476562 2.01953125 10.11328125 C0.28382636 10.17895657 -1.45184947 10.24540337 -3.1875 10.3125 C-4.05181641 10.33505859 -4.91613281 10.35761719 -5.80664062 10.38085938 C-10.71728072 10.58782122 -13.92783928 10.99286593 -18 14 C-20.3125 14.6875 -20.3125 14.6875 -22 15 C-22 15.99 -22 16.98 -22 18 C-20.35 18 -18.7 18 -17 18 C-17.33 18.66 -17.66 19.32 -18 20 C-25.42857143 20.14285714 -25.42857143 20.14285714 -29 19 C-29.33 20.65 -29.66 22.3 -30 24 C-30.33 24 -30.66 24 -31 24 C-31 21.03 -31 18.06 -31 15 C-30.34 15 -29.68 15 -29 15 C-28.4225 13.989375 -27.845 12.97875 -27.25 11.9375 C-24.60698506 8.02870381 -21.14454279 6.16032392 -17 4.125 C-16.39446289 3.827146 -15.78892578 3.52929199 -15.16503906 3.22241211 C-10.01882943 0.80863484 -5.65121616 -0.16146332 0 0 Z " fill="#F0EFE2" transform="translate(195,231)"/>
<path d="M0 0 C1.10206787 -0.00128906 2.20413574 -0.00257813 3.33959961 -0.00390625 C11.7685782 0.10516663 18.99745676 1.21834582 26.875 4.375 C26.875 4.705 26.875 5.035 26.875 5.375 C24.52075325 5.40226927 22.16683038 5.42196719 19.8125 5.4375 C17.84603516 5.45490234 17.84603516 5.45490234 15.83984375 5.47265625 C11.875 5.375 11.875 5.375 8.6875 4.875 C3.1044043 4.14279073 -2.43880803 4.27093775 -8.0625 4.3125 C-9.22330078 4.31701172 -10.38410156 4.32152344 -11.58007812 4.32617188 C-14.42843934 4.33789353 -17.27669222 4.3543024 -20.125 4.375 C-20.125 3.715 -20.125 3.055 -20.125 2.375 C-13.35921993 0.33711444 -7.04604624 -0.00849497 0 0 Z " fill="#D8BB69" transform="translate(207.125,230.625)"/>
<path d="M0 0 C1.33877197 0.10610596 1.33877197 0.10610596 2.70458984 0.21435547 C13.70229459 1.00158581 24.65272629 1.1543153 35.67626953 1.13037109 C38.65532368 1.12494477 41.63423126 1.13038553 44.61328125 1.13671875 C46.526042 1.13605895 48.43880265 1.13477983 50.3515625 1.1328125 C51.23284821 1.13483673 52.11413391 1.13686096 53.02212524 1.13894653 C57.4709364 1.12202679 61.61500988 0.8447652 66 0 C67.95740193 -0.06388388 69.91670147 -0.08638169 71.875 -0.0625 C72.84179688 -0.05347656 73.80859375 -0.04445313 74.8046875 -0.03515625 C75.52914062 -0.02355469 76.25359375 -0.01195312 77 0 C73.15464523 3.20027347 71.00354289 3.16961162 66 3 C64.97285889 3.15895752 63.94571777 3.31791504 62.88745117 3.48168945 C58.26748712 4.09766532 53.76786758 4.16214013 49.11328125 4.16796875 C47.70588936 4.17296135 47.70588936 4.17296135 46.27006531 4.17805481 C44.29080695 4.18309862 42.31154016 4.18546393 40.33227539 4.18530273 C37.33920891 4.18748057 34.34651663 4.20563982 31.35351562 4.22460938 C9.86276226 4.28758742 9.86276226 4.28758742 0 1 C0 0.67 0 0.34 0 0 Z " fill="#E9E9E9" transform="translate(164,460)"/>
<path d="M0 0 C4.62 0 9.24 0 14 0 C14 0.99 14 1.98 14 3 C15.89559964 3.16930395 17.79149231 3.33532864 19.6875 3.5 C21.27111328 3.63921875 21.27111328 3.63921875 22.88671875 3.78125 C25.60636025 3.9723415 28.27539856 4.04043935 31 4 C31 4.99 31 5.98 31 7 C25.39 7 19.78 7 14 7 C14 7.66 14 8.32 14 9 C12.02 9 10.04 9 8 9 C8 8.34 8 7.68 8 7 C6.68 7.33 5.36 7.66 4 8 C4 6.02 4 4.04 4 2 C3.01 1.67 2.02 1.34 1 1 C1 4.3 1 7.6 1 11 C0.67 11 0.34 11 0 11 C0 7.37 0 3.74 0 0 Z " fill="#5B336A" transform="translate(185,204)"/>
<path d="M0 0 C0.66 0 1.32 0 2 0 C2 0.99 2 1.98 2 3 C4.97 3.33 7.94 3.66 11 4 C10.34 4.66 9.68 5.32 9 6 C8.53709779 8.66242821 8.53709779 8.66242821 8.375 11.625 C8.30023438 12.62789062 8.22546875 13.63078125 8.1484375 14.6640625 C8.09945312 15.43492187 8.05046875 16.20578125 8 17 C5.66705225 17.04241723 3.33297433 17.04092937 1 17 C0 16 0 16 -0.09765625 13.49609375 C-0.08605469 12.48675781 -0.07445312 11.47742188 -0.0625 10.4375 C-0.05347656 9.42558594 -0.04445312 8.41367188 -0.03515625 7.37109375 C-0.02355469 6.58863281 -0.01195312 5.80617188 0 5 C-0.66 5 -1.32 5 -2 5 C-2 4.34 -2 3.68 -2 3 C-1.34 3 -0.68 3 0 3 C0 2.01 0 1.02 0 0 Z " fill="#D5D5D5" transform="translate(173,117)"/>
<path d="M0 0 C19.8 0 39.6 0 60 0 C56.55362709 1.72318646 55.11146862 2.27185098 51.5 2.5625 C49.22604534 2.75329414 47.12088768 2.96955254 44.90625 3.52734375 C41.74679966 4.31073205 38.86122931 3.87053042 35.6875 3.4375 C31.88119848 2.98861468 28.78116639 3.34240585 25 4 C22.66117862 3.70764733 20.32716 3.37400786 18 3 C14.54677826 2.86718378 12.28662034 2.90445989 9 4 C8.01 3.34 7.02 2.68 6 2 C4.0103005 1.60986284 2.00980131 1.26797351 0 1 C0 0.67 0 0.34 0 0 Z " fill="#9DB7C2" transform="translate(182,374)"/>
<path d="M0 0 C2.83398763 0.09606738 5.02345099 0.27250432 7.6875 1.125 C7.501875 1.90875 7.31625 2.6925 7.125 3.5 C6.42787734 6.09589775 6.42787734 6.09589775 7.6875 8.125 C6.6975 7.795 5.7075 7.465 4.6875 7.125 C4.3575 7.785 4.0275 8.445 3.6875 9.125 C-2.1147175 9.48763859 -5.95249211 8.38184543 -11.3125 6.125 C-10.9825 4.805 -10.6525 3.485 -10.3125 2.125 C-9.343125 1.980625 -8.37375 1.83625 -7.375 1.6875 C-3.81019368 1.03273966 -3.69847598 0.13956513 0 0 Z " fill="#5A5A5A" transform="translate(219.3125,155.875)"/>
<path d="M0 0 C-0.99 0 -1.98 0 -3 0 C-3 1.32 -3 2.64 -3 4 C-3.66 4 -4.32 4 -5 4 C-5 6.97 -5 9.94 -5 13 C-3.68 13.33 -2.36 13.66 -1 14 C-1 14.66 -1 15.32 -1 16 C-2.32 16 -3.64 16 -5 16 C-5 16.66 -5 17.32 -5 18 C-10.07476794 19.26305335 -14.72796354 20.27036084 -20 20 C-19.67 19.34 -19.34 18.68 -19 18 C-18.195625 17.896875 -17.39125 17.79375 -16.5625 17.6875 C-15.2940625 17.3471875 -15.2940625 17.3471875 -14 17 C-12.62533375 14.52363988 -12.62533375 14.52363988 -12 12 C-10.68 12.33 -9.36 12.66 -8 13 C-7.95745644 11.00045254 -7.95919217 8.99958364 -8 7 C-8.33 6.67 -8.66 6.34 -9 6 C-9.04080783 4.00041636 -9.04254356 1.99954746 -9 0 C-5.62182575 -0.84454356 -3.32534757 -1.10844919 0 0 Z " fill="#B08828" transform="translate(220,182)"/>
<path d="M0 0 C1.03253906 0.00676758 1.03253906 0.00676758 2.0859375 0.01367188 C3.76566335 0.02533664 5.44534375 0.04326729 7.125 0.0625 C7.125 0.7225 7.125 1.3825 7.125 2.0625 C6.465 2.0625 5.805 2.0625 5.125 2.0625 C4.795 3.3825 4.465 4.7025 4.125 6.0625 C4.125 4.7425 4.125 3.4225 4.125 2.0625 C3.135 2.3925 2.145 2.7225 1.125 3.0625 C1.455 4.3825 1.785 5.7025 2.125 7.0625 C-3.155 7.0625 -8.435 7.0625 -13.875 7.0625 C-13.875 5.0825 -13.875 3.1025 -13.875 1.0625 C-9.21962644 0.14157719 -4.72814567 -0.05955997 0 0 Z " fill="#7B7B7D" transform="translate(233.875,295.9375)"/>
<path d="M0 0 C0.721875 0.763125 1.44375 1.52625 2.1875 2.3125 C9.72298504 8.5017383 21.45287883 8.44309514 30.81933594 9.26635742 C34.88983732 9.64600131 38.25742963 10.2103979 42 12 C42 12.33 42 12.66 42 13 C32.71854592 13.22823248 24.13029973 12.90427108 15 11 C15 10.34 15 9.68 15 9 C14.25234375 8.97421875 13.5046875 8.9484375 12.734375 8.921875 C4.67903672 8.45795499 4.67903672 8.45795499 1.3125 6.1875 C0 4 0 4 0 0 Z " fill="#9D9EA0" transform="translate(139,444)"/>
<path d="M0 0 C3.71599191 -0.20086443 4.77208445 -0.1519437 8 2 C8 1.34 8 0.68 8 0 C9.65 0 11.3 0 13 0 C13.91058531 3.07322544 14.08886184 5.80097361 14 9 C11 9 11 9 9.25 8.4375 C6.0378531 7.81291588 3.19718007 8.44664191 0 9 C0 6.03 0 3.06 0 0 Z " fill="#909090" transform="translate(169,142)"/>
<path d="M0 0 C0 2.97 0 5.94 0 9 C0.99 9 1.98 9 3 9 C2.67 6.03 2.34 3.06 2 0 C3.32 0 4.64 0 6 0 C6 3.63 6 7.26 6 11 C2.625 11.125 2.625 11.125 -1 11 C-3.1385485 8.8614515 -3.42655063 7.86724686 -4 5 C-6.31 5 -8.62 5 -11 5 C-10.67 6.32 -10.34 7.64 -10 9 C-8.02 8.34 -6.04 7.68 -4 7 C-4.66 8.32 -5.32 9.64 -6 11 C-10.875 10.125 -10.875 10.125 -12 9 C-12.04080783 7.00041636 -12.04254356 4.99954746 -12 3 C-9.525 3.495 -9.525 3.495 -7 4 C-7 3.01 -7 2.02 -7 1 C-4 0 -4 0 0 0 Z " fill="#959394" transform="translate(181,82)"/>
<path d="M0 0 C0.99 0 1.98 0 3 0 C3.66 0.99 4.32 1.98 5 3 C4.67 3.99 4.34 4.98 4 6 C3.67 5.34 3.34 4.68 3 4 C2.34 4 1.68 4 1 4 C0.85964179 13.52746528 0.85964179 13.52746528 1.2578125 23.04296875 C2.57221044 41.67424051 1.59852073 60.35221118 1 79 C0.67 79 0.34 79 0 79 C-1.09603861 29.6377336 -1.09603861 29.6377336 -1.125 11.9375 C-1.12951172 10.80602539 -1.13402344 9.67455078 -1.13867188 8.50878906 C-1.13577148 7.00203613 -1.13577148 7.00203613 -1.1328125 5.46484375 C-1.13168457 4.615271 -1.13055664 3.76569824 -1.12939453 2.89038086 C-1 1 -1 1 0 0 Z " fill="#96ADB4" transform="translate(138,365)"/>
<path d="M0 0 C2.05078125 0.03255208 4.1015625 0.06510417 6.15234375 0.09765625 C6.15234375 1.41765625 6.15234375 2.73765625 6.15234375 4.09765625 C7.14234375 4.09765625 8.13234375 4.09765625 9.15234375 4.09765625 C9.15234375 3.10765625 9.15234375 2.11765625 9.15234375 1.09765625 C9.81234375 1.09765625 10.47234375 1.09765625 11.15234375 1.09765625 C11.15234375 3.73765625 11.15234375 6.37765625 11.15234375 9.09765625 C10.49234375 9.09765625 9.83234375 9.09765625 9.15234375 9.09765625 C9.15234375 7.77765625 9.15234375 6.45765625 9.15234375 5.09765625 C8.16234375 5.09765625 7.17234375 5.09765625 6.15234375 5.09765625 C6.15234375 6.41765625 6.15234375 7.73765625 6.15234375 9.09765625 C0.09765625 9.29296875 0.09765625 9.29296875 -1.84765625 9.09765625 C-2.50765625 8.43765625 -3.16765625 7.77765625 -3.84765625 7.09765625 C-3.14034235 0.16598004 -3.14034235 0.16598004 0 0 Z " fill="#9E9E9E" transform="translate(223.84765625,141.90234375)"/>
<path d="M0 0 C1.65 0 3.3 0 5 0 C5.625 2.375 5.625 2.375 6 5 C5.34 5.66 4.68 6.32 4 7 C3.01 7 2.02 7 1 7 C0.67 7.66 0.34 8.32 0 9 C0.90833725 11.06669397 0.90833725 11.06669397 2 13 C2 13.33 2 13.66 2 14 C1.32453125 14.06058594 0.6490625 14.12117187 -0.046875 14.18359375 C-0.93890625 14.26738281 -1.8309375 14.35117188 -2.75 14.4375 C-3.63171875 14.51871094 -4.5134375 14.59992188 -5.421875 14.68359375 C-7.69578548 14.96266458 -9.78769705 15.42768685 -12 16 C-12.66 16 -13.32 16 -14 16 C-14 15.34 -14 14.68 -14 14 C-14.99 13.67 -15.98 13.34 -17 13 C-16.67 12.34 -16.34 11.68 -16 11 C-15.30132812 11.23460937 -14.60265625 11.46921875 -13.8828125 11.7109375 C-9.92434543 12.10785696 -8.19817399 10.73217549 -4.875 8.625 C0.82102273 5.05965909 0.82102273 5.05965909 4 4 C3.67 3.01 3.34 2.02 3 1 C2.01 0.67 1.02 0.34 0 0 Z " fill="#F0F3EC" transform="translate(232,234)"/>
<path d="M0 0 C0.99 0.33 1.98 0.66 3 1 C2.99214478 1.99181274 2.99214478 1.99181274 2.98413086 3.00366211 C2.96342344 5.98159851 2.95035988 8.95951982 2.9375 11.9375 C2.92912109 12.97841797 2.92074219 14.01933594 2.91210938 15.09179688 C2.90727539 16.57583008 2.90727539 16.57583008 2.90234375 18.08984375 C2.89710693 19.00628662 2.89187012 19.92272949 2.88647461 20.86694336 C2.76078789 22.98363023 2.76078789 22.98363023 4 24 C4.10190269 26.49062166 4.14072025 28.94696372 4.125 31.4375 C4.12306641 32.15873047 4.12113281 32.87996094 4.11914062 33.62304688 C4.07489274 39.12453403 3.73445427 44.54405398 3 50 C2.67 50 2.34 50 2 50 C1.22086753 43.69762242 0.8083229 37.49887427 0.68359375 31.15234375 C0.66281265 30.25504044 0.64203156 29.35773712 0.62062073 28.4332428 C0.55587774 25.60139712 0.49659482 22.76946859 0.4375 19.9375 C0.39424298 18.00324706 0.35062656 16.06900212 0.30664062 14.13476562 C0.20027497 9.42325933 0.09880181 4.71167074 0 0 Z " fill="#C7D0DB" transform="translate(130,239)"/>
<path d="M0 0 C0.99 0 1.98 0 3 0 C3.33 5.28 3.66 10.56 4 16 C5.32 16.33 6.64 16.66 8 17 C8.33 11.39 8.66 5.78 9 0 C9.66 0 10.32 0 11 0 C11.05394705 2.60444348 11.09364469 5.20776998 11.125 7.8125 C11.14175781 8.55048828 11.15851563 9.28847656 11.17578125 10.04882812 C11.21074628 13.91246426 11.19397555 15.70903668 9 19 C6.01191738 19.38145736 3.95126432 19.57297084 1.3203125 17.98828125 C-0.77662293 14.8304702 -0.31189841 11.46470982 -0.1875 7.8125 C-0.17396484 7.06291016 -0.16042969 6.31332031 -0.14648438 5.54101562 C-0.11118539 3.69370233 -0.05737917 1.84675934 0 0 Z " fill="#494949" transform="translate(154,115)"/>
<path d="M0 0 C0.78375 0.04125 1.5675 0.0825 2.375 0.125 C2.375 1.115 2.375 2.105 2.375 3.125 C1.055 3.455 -0.265 3.785 -1.625 4.125 C-1.625 4.785 -1.625 5.445 -1.625 6.125 C-0.965 6.125 -0.305 6.125 0.375 6.125 C0.375 5.465 0.375 4.805 0.375 4.125 C3.84 3.63 3.84 3.63 7.375 3.125 C7.705 4.445 8.035 5.765 8.375 7.125 C4.96937148 7.90342938 1.86734244 8.22478121 -1.625 8.125 C-1.955 7.135 -2.285 6.145 -2.625 5.125 C-3.285 5.125 -3.945 5.125 -4.625 5.125 C-4.625 5.785 -4.625 6.445 -4.625 7.125 C-5.98625 7.0940625 -5.98625 7.0940625 -7.375 7.0625 C-10.05172588 7.1139755 -12.09488052 7.3465017 -14.625 8.125 C-14.625 6.475 -14.625 4.825 -14.625 3.125 C-13.57699219 3.05152344 -13.57699219 3.05152344 -12.5078125 2.9765625 C-11.59773437 2.90179688 -10.68765625 2.82703125 -9.75 2.75 C-8.84507812 2.68039062 -7.94015625 2.61078125 -7.0078125 2.5390625 C-3.78962378 1.97983626 -3.34953374 0.15950161 0 0 Z " fill="#E1E2E1" transform="translate(226.625,255.875)"/>
<path d="M0 0 C0 2.97 0 5.94 0 9 C-2.58396679 9.08112454 -5.16537568 9.14054748 -7.75 9.1875 C-8.84441406 9.22520508 -8.84441406 9.22520508 -9.9609375 9.26367188 C-13.34486604 9.30981636 -15.57858557 9.25324128 -18.515625 7.48828125 C-19.00546875 6.99714844 -19.4953125 6.50601563 -20 6 C-16.32612505 5.14701624 -12.9552607 4.89210529 -9.1875 4.9375 C-8.21167969 4.94652344 -7.23585937 4.95554688 -6.23046875 4.96484375 C-5.49441406 4.97644531 -4.75835937 4.98804688 -4 5 C-5.44754255 3.55245745 -7.03962913 3.44266439 -9 3 C-6.38997624 -0.48003168 -4.1689578 -0.27793052 0 0 Z " fill="#4B1967" transform="translate(220,205)"/>
<path d="M0 0 C2.33944736 0.28730055 4.6739143 0.61936779 7 1 C5.125 6.875 5.125 6.875 4 8 C4.99 8.66 5.98 9.32 7 10 C6.67 11.65 6.34 13.3 6 15 C-0.75 16.125 -0.75 16.125 -3 15 C-2.67 14.01 -2.34 13.02 -2 12 C-1.67 12.66 -1.34 13.32 -1 14 C1.97065509 13.65772428 1.97065509 13.65772428 5 13 C5.33 12.34 5.66 11.68 6 11 C3.69 11 1.38 11 -1 11 C-1.94778635 7.31416418 -2.02143554 4.67716794 -1 1 C-0.67 0.67 -0.34 0.34 0 0 Z " fill="#939292" transform="translate(214,82)"/>
<path d="M0 0 C0.33 1.98 0.66 3.96 1 6 C-2.3 6 -5.6 6 -9 6 C-9.33 5.34 -9.66 4.68 -10 4 C-11.65 4.66 -13.3 5.32 -15 6 C-15.33 4.02 -15.66 2.04 -16 0 C-10.68833136 -1.32791716 -5.24118425 -1.74706142 0 0 Z " fill="#D2D2D3" transform="translate(206,297)"/>
<path d="M0 0 C1.32 0 2.64 0 4 0 C4 2.31 4 4.62 4 7 C-0.62 7 -5.24 7 -10 7 C-10 6.01 -10 5.02 -10 4 C-10.66 4 -11.32 4 -12 4 C-12 4.99 -12 5.98 -12 7 C-12.66 7 -13.32 7 -14 7 C-14 5.02 -14 3.04 -14 1 C-12.4221875 1.2475 -12.4221875 1.2475 -10.8125 1.5 C-6.40948127 2.07943888 -6.40948127 2.07943888 -2 2 C-1.34 1.34 -0.68 0.68 0 0 Z " fill="#E0D4A2" transform="translate(179,248)"/>
<path d="M0 0 C5.875 0.875 5.875 0.875 7 2 C7.07244053 4.01964199 7.08377188 6.04167124 7.0625 8.0625 C7.05347656 9.16722656 7.04445312 10.27195313 7.03515625 11.41015625 C7.02355469 12.26480469 7.01195312 13.11945313 7 14 C0.84765625 14.09765625 0.84765625 14.09765625 -1 14 C-2 13 -2 13 -2.125 10 C-2 7 -2 7 -1 6 C0.99958364 5.95919217 3.00045254 5.95745644 5 6 C4.67 5.01 4.34 4.02 4 3 C2.35 3 0.7 3 -1 3 C-0.67 2.01 -0.34 1.02 0 0 Z " fill="#838283" transform="translate(187,120)"/>
<path d="M0 0 C1 1 1 1 1.0625 4.0625 C1.041875 5.031875 1.02125 6.00125 1 7 C-1.31 7 -3.62 7 -6 7 C-5.67 7.99 -5.34 8.98 -5 10 C-2.03 10.495 -2.03 10.495 1 11 C1 11.66 1 12.32 1 13 C-2.375 13.1875 -2.375 13.1875 -6 13 C-8.53686376 9.19470436 -8.59355135 6.46090938 -8 2 C-5.87228278 -1.69550885 -3.80143151 -1.20045206 0 0 Z " fill="#444344" transform="translate(237,121)"/>
<path d="M0 0 C5.56818182 0.56818182 5.56818182 0.56818182 7 2 C7.45691383 7.25450902 7.45691383 7.25450902 5.8125 9.9375 C4 11 4 11 1.375 10.75 C-1 10 -1 10 -2 9 C-2.1875 5.5625 -2.1875 5.5625 -2 2 C-1.34 1.34 -0.68 0.68 0 0 Z " fill="#4F3915" transform="translate(201,190)"/>
<path d="M0 0 C7.59 0.33 15.18 0.66 23 1 C23 1.99 23 2.98 23 4 C20.47932687 4.16945702 17.95850616 4.33563484 15.4375 4.5 C14.73302734 4.54769531 14.02855469 4.59539062 13.30273438 4.64453125 C8.85739865 4.9313271 4.45455341 5.04682842 0 5 C-0.33 4.34 -0.66 3.68 -1 3 C-0.67 2.01 -0.34 1.02 0 0 Z " fill="#8D8E90" transform="translate(187,259)"/>
<path d="M0 0 C0.66 0 1.32 0 2 0 C2 1.98 2 3.96 2 6 C-0.31 6 -2.62 6 -5 6 C-5 6.66 -5 7.32 -5 8 C-5.66 8 -6.32 8 -7 8 C-7.33 7.34 -7.66 6.68 -8 6 C-9.98 6 -11.96 6 -14 6 C-13.67 4.35 -13.34 2.7 -13 1 C-11.71802734 1.01740234 -11.71802734 1.01740234 -10.41015625 1.03515625 C-8.75306641 1.04869141 -8.75306641 1.04869141 -7.0625 1.0625 C-5.40927734 1.07990234 -5.40927734 1.07990234 -3.72265625 1.09765625 C-1.08552366 1.31262571 -1.08552366 1.31262571 0 0 Z " fill="#E0D5A5" transform="translate(198,249)"/>
<path d="M0 0 C3.0625 0.1875 3.0625 0.1875 5.0625 2.1875 C5.1875 4.8125 5.1875 4.8125 5.0625 7.1875 C2.7525 7.1875 0.4425 7.1875 -1.9375 7.1875 C-1.6075 8.1775 -1.2775 9.1675 -0.9375 10.1875 C0.7125 10.5175 2.3625 10.8475 4.0625 11.1875 C4.0625 11.8475 4.0625 12.5075 4.0625 13.1875 C1.1875 13.375 1.1875 13.375 -1.9375 13.1875 C-4.05045256 10.01807116 -4.19000929 9.19120047 -4.125 5.5625 C-4.11533203 4.36753906 -4.11533203 4.36753906 -4.10546875 3.1484375 C-3.8312905 -0.05243416 -3.27542502 0.20906968 0 0 Z " fill="#3F3F3F" transform="translate(222.9375,120.8125)"/>
<path d="M0 0 C1.33599921 0.32248257 2.66893378 0.65772583 4 1 C5.32 1 6.64 1 8 1 C8 3.64 8 6.28 8 9 C4.62182575 9.84454356 2.32534757 10.10844919 -1 9 C-1.09765625 2.84765625 -1.09765625 2.84765625 -1 1 C-0.67 0.67 -0.34 0.34 0 0 Z " fill="#ABABAB" transform="translate(195,347)"/>
<path d="M0 0 C9.9 0 19.8 0 30 0 C30 0.66 30 1.32 30 2 C23.07 1.505 23.07 1.505 16 1 C16 1.99 16 2.98 16 4 C13.72942623 4.05398987 11.45848712 4.09278742 9.1875 4.125 C7.29064453 4.15980469 7.29064453 4.15980469 5.35546875 4.1953125 C2 4 2 4 -1 2 C-0.67 1.34 -0.34 0.68 0 0 Z " fill="#C5D7EC" transform="translate(150,55)"/>
<path d="M0 0 C3.3 0 6.6 0 10 0 C8.68 0.33 7.36 0.66 6 1 C6 3.31 6 5.62 6 8 C7.32 7.34 8.64 6.68 10 6 C10.33 6.99 10.66 7.98 11 9 C8.69 9 6.38 9 4 9 C3.67 8.34 3.34 7.68 3 7 C2.34 7.66 1.68 8.32 1 9 C0.01 8.01 -0.98 7.02 -2 6 C-2.33 6.99 -2.66 7.98 -3 9 C-3.66 9 -4.32 9 -5 9 C-5 6.36 -5 3.72 -5 1 C-1.125 2.75 -1.125 2.75 0 5 C0 3.35 0 1.7 0 0 Z " fill="#A98022" transform="translate(159,43)"/>
<path d="M0 0 C3.41021743 0.78697325 6.68885166 1.87119943 10 3 C10 3.99 10 4.98 10 6 C8.02 6.33 6.04 6.66 4 7 C3.67 8.98 3.34 10.96 3 13 C1.68 13.33 0.36 13.66 -1 14 C-1.02705729 12.22925083 -1.04642195 10.45838289 -1.0625 8.6875 C-1.07410156 7.70136719 -1.08570313 6.71523437 -1.09765625 5.69921875 C-1 3 -1 3 0 0 Z " fill="#DDDDDD" transform="translate(182,120)"/>
<path d="M0 0 C1.98 0 3.96 0 6 0 C6 2.31 6 4.62 6 7 C6.66 7 7.32 7 8 7 C8 4.69 8 2.38 8 0 C8.66 0 9.32 0 10 0 C10.125 6.75 10.125 6.75 9 9 C6.03 9 3.06 9 0 9 C0 8.01 0 7.02 0 6 C-0.33 5.34 -0.66 4.68 -1 4 C-0.5625 1.875 -0.5625 1.875 0 0 Z " fill="#717171" transform="translate(178,156)"/>
<path d="M0 0 C0.33 0.99 0.66 1.98 1 3 C2.32 3.33 3.64 3.66 5 4 C5 6.97 5 9.94 5 13 C5.99 13.33 6.98 13.66 8 14 C5.03 14 2.06 14 -1 14 C-1.22226864 12.23086176 -1.42733873 10.45955629 -1.625 8.6875 C-1.74101562 7.70136719 -1.85703125 6.71523437 -1.9765625 5.69921875 C-2 3 -2 3 0 0 Z " fill="#696768" transform="translate(191,79)"/>
<path d="M0 0 C0.9075 0.185625 1.815 0.37125 2.75 0.5625 C5.68314324 0.95734621 7.2644657 0.94691572 10 0 C10.33 1.32 10.66 2.64 11 4 C9.68 4.33 8.36 4.66 7 5 C6.67 6.98 6.34 8.96 6 11 C5.01 10.67 4.02 10.34 3 10 C3 8.68 3 7.36 3 6 C2.01 6.495 2.01 6.495 1 7 C1.33 8.32 1.66 9.64 2 11 C0.68 10.67 -0.64 10.34 -2 10 C-1.6875 8.125 -1.6875 8.125 -1 6 C-0.01 5.34 0.98 4.68 2 4 C2.33 3.01 2.66 2.02 3 1 C1.68 1.99 0.36 2.98 -1 4 C-0.67 2.68 -0.34 1.36 0 0 Z " fill="#989697" transform="translate(243,82)"/>
<path d="M0 0 C-0.99 0.495 -0.99 0.495 -2 1 C-2.90725434 3.11327425 -2.90725434 3.11327425 -3.625 5.5625 C-3.88539063 6.38878906 -4.14578125 7.21507812 -4.4140625 8.06640625 C-4.60742188 8.70449219 -4.80078125 9.34257813 -5 10 C-5.66 10 -6.32 10 -7 10 C-7 9.01 -7 8.02 -7 7 C-7.66 7 -8.32 7 -9 7 C-9 7.99 -9 8.98 -9 10 C-9.66 10 -10.32 10 -11 10 C-11.66 7.36 -12.32 4.72 -13 2 C-8.49646738 0.24252386 -4.82360189 -0.19294408 0 0 Z " fill="#B88E28" transform="translate(184,42)"/>
<path d="M0 0 C1.65 0 3.3 0 5 0 C5 1.98 5 3.96 5 6 C6.65 6.33 8.3 6.66 10 7 C10 7.33 10 7.66 10 8 C7.69 8.66 5.38 9.32 3 10 C2.67 13.63 2.34 17.26 2 21 C1.34 21 0.68 21 0 21 C0 14.07 0 7.14 0 0 Z " fill="#F7B51A" transform="translate(186,181)"/>
<path d="M0 0 C7.26 0 14.52 0 22 0 C22 0.33 22 0.66 22 1 C19.69 1.33 17.38 1.66 15 2 C15 2.66 15 3.32 15 4 C9.20858017 5.01603857 5.5415502 4.96263236 0 3 C0 2.01 0 1.02 0 0 Z " fill="#521B5B" transform="translate(199,204)"/>
<path d="M0 0 C1.65 0 3.3 0 5 0 C5.144375 1.093125 5.28875 2.18625 5.4375 3.3125 C5.88288104 6.93122987 5.88288104 6.93122987 7 10 C6.5625 12.1875 6.5625 12.1875 6 14 C4.68 13.67 3.36 13.34 2 13 C1.67 11.35 1.34 9.7 1 8 C0.01 8 -0.98 8 -2 8 C-2 7.34 -2 6.68 -2 6 C-1.34 6 -0.68 6 0 6 C0 4.02 0 2.04 0 0 Z " fill="#F7B71A" transform="translate(206,181)"/>
<path d="M0 0 C1.32 0.33 2.64 0.66 4 1 C3.34 1 2.68 1 2 1 C2.33 1.66 2.66 2.32 3 3 C3.04022391 5.3329866 3.04320247 7.66706666 3 10 C3.66 10 4.32 10 5 10 C5.33 8.68 5.66 7.36 6 6 C6.99 6.99 7.98 7.98 9 9 C9.66 7.02 10.32 5.04 11 3 C11.33 3 11.66 3 12 3 C12 5.31 12 7.62 12 10 C13.98 10 15.96 10 18 10 C18 10.33 18 10.66 18 11 C12.06 11 6.12 11 0 11 C0 7.37 0 3.74 0 0 Z " fill="#E3AF27" transform="translate(151,42)"/>
<path d="M0 0 C0.78375 0.04125 1.5675 0.0825 2.375 0.125 C2.375 0.785 2.375 1.445 2.375 2.125 C1.055 2.455 -0.265 2.785 -1.625 3.125 C-1.625 4.445 -1.625 5.765 -1.625 7.125 C-0.8 7.74375 0.025 8.3625 0.875 9 C3.375 11.125 3.375 11.125 3.8125 14.25 C3.375 17.125 3.375 17.125 1.375 19.125 C-1.75 19.25 -1.75 19.25 -4.625 19.125 C-4.625 18.465 -4.625 17.805 -4.625 17.125 C-2.975 16.795 -1.325 16.465 0.375 16.125 C0.705 14.805 1.035 13.485 1.375 12.125 C0.446875 11.691875 0.446875 11.691875 -0.5 11.25 C-2.625 10.125 -2.625 10.125 -4.625 8.125 C-4.875 5.125 -4.875 5.125 -4.625 2.125 C-2.625 0.125 -2.625 0.125 0 0 Z " fill="#3D3D3D" transform="translate(202.625,114.875)"/>
<path d="M0 0 C0 0.33 0 0.66 0 1 C-2.31 1.66 -4.62 2.32 -7 3 C-2.05 3.33 2.9 3.66 8 4 C8 4.33 8 4.66 8 5 C6.96101563 5.03738281 5.92203125 5.07476562 4.8515625 5.11328125 C-3.16013475 5.46792572 -10.42668962 6.10539339 -18 9 C-15.93445519 3.83613797 -12.27129523 2.2211202 -7.5703125 -0.1796875 C-4.61258641 -1.12364263 -2.94645779 -0.85542323 0 0 Z " fill="#DAD19F" transform="translate(189,235)"/>
<path d="M0 0 C0.99 0 1.98 0 3 0 C4.82421875 1.96875 4.82421875 1.96875 6.6875 4.5 C7.31011719 5.3353125 7.93273437 6.170625 8.57421875 7.03125 C9.04472656 7.6809375 9.51523438 8.330625 10 9 C10.33 6.03 10.66 3.06 11 0 C11.33 0 11.66 0 12 0 C12 4.95 12 9.9 12 15 C8.68908998 11.68908998 5.82336734 8.65992062 3 5 C3 8.3 3 11.6 3 15 C1.68 14.67 0.36 14.34 -1 14 C-0.34 14 0.32 14 1 14 C0.67 9.38 0.34 4.76 0 0 Z " fill="#B8B6B7" transform="translate(155,78)"/>
<path d="M0 0 C0.99 0 1.98 0 3 0 C3.33 1.32 3.66 2.64 4 4 C5.32 4 6.64 4 8 4 C8 4.66 8 5.32 8 6 C8.928125 5.95875 9.85625 5.9175 10.8125 5.875 C14 6 14 6 17 8 C19.50896686 8.45601261 19.50896686 8.45601261 22.1875 8.625 C23.08855469 8.69976562 23.98960937 8.77453125 24.91796875 8.8515625 C25.60503906 8.90054687 26.29210937 8.94953125 27 9 C27 9.66 27 10.32 27 11 C19.35138477 11.44991854 10.33482555 10.92893618 3.83203125 6.53515625 C2.1875 4.9375 2.1875 4.9375 0 2 C0 1.34 0 0.68 0 0 Z " fill="#738592" transform="translate(139,442)"/>
<path d="M0 0 C2.75006608 -0.0270203 5.49986546 -0.04684883 8.25 -0.0625 C9.02730469 -0.07087891 9.80460938 -0.07925781 10.60546875 -0.08789062 C11.73662109 -0.09272461 11.73662109 -0.09272461 12.890625 -0.09765625 C13.92751465 -0.10551147 13.92751465 -0.10551147 14.98535156 -0.11352539 C17.09973898 0.00562029 18.96641515 0.42381763 21 1 C19.84826645 3.46800047 18.95216435 5.04783565 17 7 C15.68 7 14.36 7 13 7 C13.33 5.35 13.66 3.7 14 2 C9.05 2 4.1 2 -1 2 C-0.67 1.34 -0.34 0.68 0 0 Z " fill="#D8BB61" transform="translate(203,237)"/>
<path d="M0 0 C1.73443359 0.01353516 1.73443359 0.01353516 3.50390625 0.02734375 C6.33615647 0.05075078 9.16796619 0.08354005 12 0.125 C12 0.455 12 0.785 12 1.125 C8.7 1.455 5.4 1.785 2 2.125 C2 2.455 2 2.785 2 3.125 C-5.59 3.455 -13.18 3.785 -21 4.125 C-21 3.465 -21 2.805 -21 2.125 C-13.93991275 -0.0726252 -7.35642856 -0.1095459 0 0 Z " fill="#D6C078" transform="translate(208,230.875)"/>
<path d="M0 0 C0.33 3.3 0.66 6.6 1 10 C-0.32 9.67 -1.64 9.34 -3 9 C-2.67 6.36 -2.34 3.72 -2 1 C-2.99 1 -3.98 1 -5 1 C-5 3.97 -5 6.94 -5 10 C-5.99 10 -6.98 10 -8 10 C-8 6.7 -8 3.4 -8 0 C-4 -1 -4 -1 0 0 Z " fill="#A9A7A8" transform="translate(239,83)"/>
<path d="M0 0 C4.95 0.33 9.9 0.66 15 1 C15 2.32 15 3.64 15 5 C10.38 5 5.76 5 1 5 C0.67 3.35 0.34 1.7 0 0 Z " fill="#8E9092" transform="translate(170,259)"/>
<path d="M0 0 C2.64 0 5.28 0 8 0 C8 0.66 8 1.32 8 2 C6.35 2 4.7 2 3 2 C3 2.66 3 3.32 3 4 C4.65 4.33 6.3 4.66 8 5 C8 6.65 8 8.3 8 10 C5.29120665 11.35439668 2.99066732 11.06501451 0 11 C0 10.34 0 9.68 0 9 C1.98 9 3.96 9 6 9 C6 8.01 6 7.02 6 6 C4.02 6 2.04 6 0 6 C0 4.02 0 2.04 0 0 Z " fill="#533C18" transform="translate(189,190)"/>
<path d="M0 0 C0.66 0 1.32 0 2 0 C2 2.31 2 4.62 2 7 C2.66 7 3.32 7 4 7 C3.938125 5.824375 3.938125 5.824375 3.875 4.625 C4 2 4 2 6 0 C8.625 0.375 8.625 0.375 11 1 C10.67 1.66 10.34 2.32 10 3 C9.01 3 8.02 3 7 3 C7 3.99 7 4.98 7 6 C7.99 6.33 8.98 6.66 10 7 C10 7.66 10 8.32 10 9 C6.7 9 3.4 9 0 9 C0 6.03 0 3.06 0 0 Z " fill="#6D6D6D" transform="translate(202,156)"/>
<path d="M0 0 C0.33 0 0.66 0 1 0 C1 2.97 1 5.94 1 9 C-4.39068413 12.59378942 -7.53673535 13.45356243 -14 13 C-11.96465251 10.36602089 -10.7479433 9.92924724 -7.4375 9 C-3.75396564 8.32860063 -3.75396564 8.32860063 -2 5 C-1.34 5 -0.68 5 0 5 C0 3.35 0 1.7 0 0 Z " fill="#95A4AB" transform="translate(263,440)"/>
<path d="M0 0 C2.97 0 5.94 0 9 0 C9 1.98 9 3.96 9 6 C8.67 5.34 8.34 4.68 8 4 C7.34 4 6.68 4 6 4 C6 4.66 6 5.32 6 6 C4.02 6 2.04 6 0 6 C0 4.02 0 2.04 0 0 Z " fill="#88898A" transform="translate(165,297)"/>
<path d="M0 0 C0.33 2.31 0.66 4.62 1 7 C-1.97 7 -4.94 7 -8 7 C-8 5.02 -8 3.04 -8 1 C-5.29120665 -0.35439668 -2.99066732 -0.06501451 0 0 Z " fill="#9980A3" transform="translate(197,205)"/>
<path d="M0 0 C2.5 0.125 2.5 0.125 3.5 1.125 C3.54080783 3.12458364 3.54254356 5.12545254 3.5 7.125 C1.125 7.75 1.125 7.75 -1.5 8.125 C-3.5 6.125 -3.5 6.125 -3.6875 3.5625 C-3.4324847 0.24730106 -3.33009823 0.16650491 0 0 Z " fill="#4D4D4D" transform="translate(206.5,142.875)"/>
<path d="M0 0 C-0.99 0 -1.98 0 -3 0 C-3 1.32 -3 2.64 -3 4 C-3.66 4 -4.32 4 -5 4 C-5 6.31 -5 8.62 -5 11 C-5.99 11 -6.98 11 -8 11 C-8.33 7.37 -8.66 3.74 -9 0 C-3.375 -1.125 -3.375 -1.125 0 0 Z " fill="#C99725" transform="translate(220,182)"/>
<path d="M0 0 C1.8871875 0.0309375 1.8871875 0.0309375 3.8125 0.0625 C3.8125 0.7225 3.8125 1.3825 3.8125 2.0625 C3.1525 2.0625 2.4925 2.0625 1.8125 2.0625 C1.4825 3.3825 1.1525 4.7025 0.8125 6.0625 C0.8125 4.7425 0.8125 3.4225 0.8125 2.0625 C-0.1775 2.3925 -1.1675 2.7225 -2.1875 3.0625 C-1.8575 4.3825 -1.5275 5.7025 -1.1875 7.0625 C-3.1675 7.0625 -5.1475 7.0625 -7.1875 7.0625 C-7.1875 5.0825 -7.1875 3.1025 -7.1875 1.0625 C-4.43671116 0.14557039 -2.82801087 -0.04636083 0 0 Z " fill="#6F6E70" transform="translate(237.1875,295.9375)"/>
<path d="M0 0 C1.93166016 0.01740234 1.93166016 0.01740234 3.90234375 0.03515625 C5.19269531 0.04417969 6.48304688 0.05320313 7.8125 0.0625 C8.81152344 0.07410156 9.81054688 0.08570313 10.83984375 0.09765625 C10.83984375 1.08765625 10.83984375 2.07765625 10.83984375 3.09765625 C9.19135322 4.74614678 7.2893774 4.30791335 5.02734375 4.34765625 C3.71830078 4.38632813 3.71830078 4.38632813 2.3828125 4.42578125 C-0.59920002 4.04100544 -1.93726765 3.06664848 -4.16015625 1.09765625 C-3.16015625 0.09765625 -3.16015625 0.09765625 0 0 Z " fill="#54276E" transform="translate(204.16015625,209.90234375)"/>
<path d="M0 0 C1 3.875 1 3.875 1 5 C-4.61 5 -10.22 5 -16 5 C-16 4.34 -16 3.68 -16 3 C-16.99 3.33 -17.98 3.66 -19 4 C-21.33299825 4.03954234 -23.66708189 4.04401732 -26 4 C-26 3.67 -26 3.34 -26 3 C-20.555 2.505 -20.555 2.505 -15 2 C-15 2.66 -15 3.32 -15 4 C-14.41992188 3.855625 -13.83984375 3.71125 -13.2421875 3.5625 C-8.73340325 2.49110572 -4.66945753 1.76054064 0 2 C0 1.34 0 0.68 0 0 Z " fill="#F1B826" transform="translate(215,198)"/>
<path d="M0 0 C4.52071021 -0.08751499 9.0412007 -0.1405661 13.5625 -0.1875 C15.47772461 -0.22520508 15.47772461 -0.22520508 17.43164062 -0.26367188 C24.04081154 -0.31517191 29.1982641 -0.32400207 35 3 C31.33441843 4.14448942 29.07856649 3.53720585 25.39453125 2.52050781 C20.66537925 1.49251515 15.8227079 1.51986231 11 1.375 C9.40865234 1.31699219 9.40865234 1.31699219 7.78515625 1.2578125 C5.19026933 1.16430306 2.59537551 1.07855098 0 1 C0 0.67 0 0.34 0 0 Z " fill="#EAE6CE" transform="translate(197,230)"/>
<path d="M0 0 C1.98 0.99 1.98 0.99 4 2 C4.33 1.34 4.66 0.68 5 0 C5.66 0 6.32 0 7 0 C7 1.32 7 2.64 7 4 C8.32 4.33 9.64 4.66 11 5 C11 5.99 11 6.98 11 8 C7.125 7.125 7.125 7.125 6 6 C5.67 6.99 5.34 7.98 5 9 C4.34 9 3.68 9 3 9 C2 6 1 3 0 0 Z " fill="#AFAFAF" transform="translate(184,142)"/>
<path d="M0 0 C0.99 0.33 1.98 0.66 3 1 C2.95117188 4.02734375 2.95117188 4.02734375 2.90234375 7.0546875 C2.87350758 9.08185404 2.87350758 9.08185404 4 11 C2.68 11.33 1.36 11.66 0 12 C0 11.34 0 10.68 0 10 C-1.65 10 -3.3 10 -5 10 C-5.33 8.68 -5.66 7.36 -6 6 C-3.69 6 -1.38 6 1 6 C0.67 4.02 0.34 2.04 0 0 Z " fill="#E0DFE0" transform="translate(227,122)"/>
<path d="M0 0 C0.66 0 1.32 0 2 0 C2 0.99 2 1.98 2 3 C2.66 3 3.32 3 4 3 C4 3.66 4 4.32 4 5 C3.34 5 2.68 5 2 5 C2 8.3 2 11.6 2 15 C2.66 15 3.32 15 4 15 C4 15.66 4 16.32 4 17 C2.68 16.67 1.36 16.34 0 16 C0 12.37 0 8.74 0 5 C-0.66 5 -1.32 5 -2 5 C-2 4.34 -2 3.68 -2 3 C-1.34 3 -0.68 3 0 3 C0 2.01 0 1.02 0 0 Z " fill="#343334" transform="translate(173,117)"/>
<path d="M0 0 C1.77074917 -0.02705729 3.54161711 -0.04642195 5.3125 -0.0625 C6.29863281 -0.07410156 7.28476563 -0.08570313 8.30078125 -0.09765625 C11 0 11 0 14 1 C16.39254576 1.22560676 18.78928123 1.40848595 21.1875 1.5625 C23.09595703 1.68818359 23.09595703 1.68818359 25.04296875 1.81640625 C26.01878906 1.87699219 26.99460938 1.93757813 28 2 C28 2.33 28 2.66 28 3 C9.17995444 3.18451025 9.17995444 3.18451025 0 2 C0 1.34 0 0.68 0 0 Z " fill="#54778D" transform="translate(166,452)"/>
<path d="M0 0 C0.99 0 1.98 0 3 0 C3.66 0.99 4.32 1.98 5 3 C4.67 3.99 4.34 4.98 4 6 C3.67 5.34 3.34 4.68 3 4 C2.34 4 1.68 4 1 4 C0.67 12.25 0.34 20.5 0 29 C-0.33 29 -0.66 29 -1 29 C-1.02465881 25.03069011 -1.04284023 21.06140966 -1.05493164 17.09204102 C-1.05997057 15.74079614 -1.06680177 14.38955674 -1.07543945 13.03833008 C-1.08752419 11.09979566 -1.09269828 9.161222 -1.09765625 7.22265625 C-1.10289307 6.05484619 -1.10812988 4.88703613 -1.11352539 3.68383789 C-1 1 -1 1 0 0 Z " fill="#B1C0C5" transform="translate(138,365)"/>
<path d="M0 0 C2.05078125 0.03255208 4.1015625 0.06510417 6.15234375 0.09765625 C6.15234375 0.75765625 6.15234375 1.41765625 6.15234375 2.09765625 C5.49234375 2.09765625 4.83234375 2.09765625 4.15234375 2.09765625 C4.15234375 3.74765625 4.15234375 5.39765625 4.15234375 7.09765625 C3.82234375 5.77765625 3.49234375 4.45765625 3.15234375 3.09765625 C2.49234375 3.09765625 1.83234375 3.09765625 1.15234375 3.09765625 C1.15234375 4.41765625 1.15234375 5.73765625 1.15234375 7.09765625 C-0.16765625 7.09765625 -1.48765625 7.09765625 -2.84765625 7.09765625 C-2.89019981 5.09810879 -2.88846408 3.09723989 -2.84765625 1.09765625 C-1.84765625 0.09765625 -1.84765625 0.09765625 0 0 Z " fill="#949496" transform="translate(225.84765625,305.90234375)"/>
<path d="M0 0 C3.3 0 6.6 0 10 0 C10.33 1.32 10.66 2.64 11 4 C10.01 4.495 10.01 4.495 9 5 C9 3.68 9 2.36 9 1 C8.34 1 7.68 1 7 1 C7 2.32 7 3.64 7 5 C5.68 5.33 4.36 5.66 3 6 C2.67 5.34 2.34 4.68 2 4 C1.34 4.66 0.68 5.32 0 6 C0 4.02 0 2.04 0 0 Z " fill="#6C6C6E" transform="translate(172,307)"/>
<path d="M0 0 C4.29 0.99 8.58 1.98 13 3 C12.67 3.99 12.34 4.98 12 6 C9.36 6 6.72 6 4 6 C4 5.01 4 4.02 4 3 C3.34 3 2.68 3 2 3 C2 3.99 2 4.98 2 6 C1.34 6 0.68 6 0 6 C0 4.02 0 2.04 0 0 Z " fill="#D9CA8F" transform="translate(165,249)"/>
<path d="M0 0 C0.66 0 1.32 0 2 0 C2.94870788 6.85988773 2.94870788 13.14011227 2 20 C1.34 20 0.68 20 0 20 C0 13.4 0 6.8 0 0 Z " fill="#424242" transform="translate(208,114)"/>
<path d="M0 0 C0.99 0.33 1.98 0.66 3 1 C3 1.99 3 2.98 3 4 C0.69 4 -1.62 4 -4 4 C-3.67 5.32 -3.34 6.64 -3 8 C-1.02 7.34 0.96 6.68 3 6 C2.34 7.32 1.68 8.64 1 10 C-1.375 10.1875 -1.375 10.1875 -4 10 C-6 7 -6 7 -5.625 4.3125 C-5.41875 3.549375 -5.2125 2.78625 -5 2 C-3.35 2.33 -1.7 2.66 0 3 C0 2.01 0 1.02 0 0 Z " fill="#AFADAE" transform="translate(227,83)"/>
<path d="M0 0 C0.99 0.99 1.98 1.98 3 3 C1.59517903 7.46988491 -0.42764728 9.98334659 -4 13 C-6.30018699 14.19781521 -8.56096781 15.09134095 -11 16 C-10.67 15.01 -10.34 14.02 -10 13 C-6.9375 11.8125 -6.9375 11.8125 -4 11 C-4 10.34 -4 9.68 -4 9 C-3.34 8.67 -2.68 8.34 -2 8 C-1.31527335 6.11235097 -1.31527335 6.11235097 -0.875 3.9375 C-0.70742188 3.20402344 -0.53984375 2.47054688 -0.3671875 1.71484375 C-0.24601562 1.14894531 -0.12484375 0.58304687 0 0 Z " fill="#E4E4E4" transform="translate(267,442)"/>
<path d="M0 0 C0.598125 0.165 1.19625 0.33 1.8125 0.5 C4.11344336 1.1114124 4.11344336 1.1114124 7 1 C6.814375 1.78375 6.62875 2.5675 6.4375 3.375 C5.74037734 5.97089775 5.74037734 5.97089775 7 8 C6.01 7.67 5.02 7.34 4 7 C3.67 7.66 3.34 8.32 3 9 C1.68 8.34 0.36 7.68 -1 7 C-0.34 6.67 0.32 6.34 1 6 C0.67 4.02 0.34 2.04 0 0 Z " fill="#626262" transform="translate(220,156)"/>
<path d="M0 0 C5.875 0.875 5.875 0.875 7 2 C7.07244053 4.01964199 7.08377188 6.04167124 7.0625 8.0625 C7.05347656 9.16722656 7.04445312 10.27195313 7.03515625 11.41015625 C7.02355469 12.26480469 7.01195312 13.11945313 7 14 C6.34 14 5.68 14 5 14 C5 11.69 5 9.38 5 7 C4.34 6.67 3.68 6.34 3 6 C3.66 6 4.32 6 5 6 C4.67 5.01 4.34 4.02 4 3 C2.35 3 0.7 3 -1 3 C-0.67 2.01 -0.34 1.02 0 0 Z " fill="#414141" transform="translate(187,120)"/>
<path d="M0 0 C0 0.99 0 1.98 0 3 C-0.99 3.33 -1.98 3.66 -3 4 C-3.33 7.3 -3.66 10.6 -4 14 C-4.66 14 -5.32 14 -6 14 C-6 9.71 -6 5.42 -6 1 C-3 0 -3 0 0 0 Z " fill="#444444" transform="translate(246,120)"/>
<path d="M0 0 C-0.3125 1.875 -0.3125 1.875 -1 4 C-1.99 4.66 -2.98 5.32 -4 6 C-4.72965366 8.56282742 -4.72965366 8.56282742 -5 11 C-6.65 11 -8.3 11 -10 11 C-9.01 10.34 -8.02 9.68 -7 9 C-6.63702064 7.02252878 -6.63702064 7.02252878 -6.8125 4.875 C-6.874375 3.59625 -6.93625 2.3175 -7 1 C-2.25 0 -2.25 0 0 0 Z " fill="#3A3839" transform="translate(246,83)"/>
<path d="M0 0 C0.99 0.33 1.98 0.66 3 1 C3 3.64 3 6.28 3 9 C1.68 9.33 0.36 9.66 -1 10 C-1.02689216 8.52093108 -1.04634621 7.04172517 -1.0625 5.5625 C-1.07410156 4.73878906 -1.08570313 3.91507812 -1.09765625 3.06640625 C-1 1 -1 1 0 0 Z " fill="#939393" transform="translate(207,349)"/>
<path d="M0 0 C1.65 0 3.3 0 5 0 C5 0.66 5 1.32 5 2 C4.01 2 3.02 2 2 2 C2.33 2.66 2.66 3.32 3 4 C3.99 4 4.98 4 6 4 C6.33 2.68 6.66 1.36 7 0 C7.66 0 8.32 0 9 0 C9.33 1.98 9.66 3.96 10 6 C8.52093108 6.02689216 7.04172517 6.04634621 5.5625 6.0625 C4.32693359 6.07990234 4.32693359 6.07990234 3.06640625 6.09765625 C1 6 1 6 0 5 C-0.04063832 3.33382885 -0.042721 1.66611905 0 0 Z " fill="#6B6B6B" transform="translate(212,307)"/>
<path d="M0 0 C-0.33 1.32 -0.66 2.64 -1 4 C-3.97 4 -6.94 4 -10 4 C-10.33 2.68 -10.66 1.36 -11 0 C-10.67 0.66 -10.34 1.32 -10 2 C-9.34 2 -8.68 2 -8 2 C-8 1.34 -8 0.68 -8 0 C-4.71023192 -1.09658936 -3.28696233 -0.79953138 0 0 Z " fill="#868889" transform="translate(235,260)"/>
<path d="M0 0 C2.475 0.495 2.475 0.495 5 1 C5 2.98 5 4.96 5 7 C3.0625 7.5625 3.0625 7.5625 1 8 C0 7 0 7 -0.0625 3.4375 C-0.041875 2.303125 -0.02125 1.16875 0 0 Z " fill="#2A2829" transform="translate(204,84)"/>
<path d="M0 0 C1.32 0 2.64 0 4 0 C4.33 2.64 4.66 5.28 5 8 C4.01 7.67 3.02 7.34 2 7 C2 7.66 2 8.32 2 9 C0.02 9 -1.96 9 -4 9 C-2.68 8.34 -1.36 7.68 0 7 C0 4.69 0 2.38 0 0 Z " fill="#2B292A" transform="translate(198,85)"/>
<path d="M0 0 C0.66 0 1.32 0 2 0 C2 3.3 2 6.6 2 10 C0.35 10 -1.3 10 -3 10 C-2.49287967 6.28111761 -1.88391785 3.26545761 0 0 Z " fill="#F5B61D" transform="translate(182,43)"/>
<path d="M0 0 C0.99 0.33 1.98 0.66 3 1 C3 1.99 3 2.98 3 4 C0.69 4 -1.62 4 -4 4 C-3.67 5.32 -3.34 6.64 -3 8 C-1.02 7.34 0.96 6.68 3 6 C2.34 7.32 1.68 8.64 1 10 C-3.875 9.125 -3.875 9.125 -5 8 C-5.04080783 6.00041636 -5.04254356 3.99954746 -5 2 C-2.525 2.495 -2.525 2.495 0 3 C0 2.01 0 1.02 0 0 Z " fill="#B6B5B6" transform="translate(174,83)"/>
<path d="M0 0 C0.66 0 1.32 0 2 0 C2 0.99 2 1.98 2 3 C2.99 3 3.98 3 5 3 C5 2.01 5 1.02 5 0 C5.66 0 6.32 0 7 0 C7 2.64 7 5.28 7 8 C6.34 8 5.68 8 5 8 C5 6.68 5 5.36 5 4 C4.01 4 3.02 4 2 4 C2 5.32 2 6.64 2 8 C1.34 8 0.68 8 0 8 C0 5.36 0 2.72 0 0 Z " fill="#575757" transform="translate(228,143)"/>
<path d="M0 0 C2.64942024 1.11711744 5.29436488 2.24319023 7.9375 3.375 C9.06961914 3.85066406 9.06961914 3.85066406 10.22460938 4.3359375 C15.88671875 6.7734375 15.88671875 6.7734375 17 9 C13.26512223 8.5020163 11.18762365 8.12508244 8 6 C6.01200182 5.29835358 4.01301483 4.62627128 2 4 C2 3.34 2 2.68 2 2 C1.34 2 0.68 2 0 2 C0 1.34 0 0.68 0 0 Z " fill="#E0E1E1" transform="translate(138,450)"/>
<path d="M0 0 C5.61 0.33 11.22 0.66 17 1 C17.33 1.66 17.66 2.32 18 3 C17.18015625 2.96519531 16.3603125 2.93039062 15.515625 2.89453125 C13.89914063 2.85392578 13.89914063 2.85392578 12.25 2.8125 C11.18265625 2.77769531 10.1153125 2.74289062 9.015625 2.70703125 C5.69972145 3.02917214 4.40983327 3.77148914 2 6 C2.66 4.35 3.32 2.7 4 1 C2.68 0.67 1.36 0.34 0 0 Z " fill="#8EAAB5" transform="translate(165,373)"/>
<path d="M0 0 C1.65 0 3.3 0 5 0 C5 2.64 5 5.28 5 8 C3.33333333 8 1.66666667 8 0 8 C0 5.36 0 2.72 0 0 Z " fill="#4B4B4B" transform="translate(178,143)"/>
<path d="M0 0 C3.875 1.75 3.875 1.75 5 4 C5.66 2.68 6.32 1.36 7 0 C7 2.64 7 5.28 7 8 C5.68 7.01 4.36 6.02 3 5 C2.67 5.99 2.34 6.98 2 8 C1.34 8 0.68 8 0 8 C0 5.36 0 2.72 0 0 Z " fill="#8C6A21" transform="translate(154,44)"/>
<path d="M0 0 C0.99 0 1.98 0 3 0 C3.33 1.98 3.66 3.96 4 6 C4.66 6 5.32 6 6 6 C6 5.01 6 4.02 6 3 C6.66 3 7.32 3 8 3 C8 3.99 8 4.98 8 6 C8.66 6.33 9.32 6.66 10 7 C7.03 7 4.06 7 1 7 C0.67 4.69 0.34 2.38 0 0 Z " fill="#E6B026" transform="translate(169,46)"/>
<path d="M0 0 C3.69230769 0.69230769 3.69230769 0.69230769 5 2 C5.07244053 4.01964199 5.08377188 6.04167124 5.0625 8.0625 C5.05347656 9.16722656 5.04445312 10.27195313 5.03515625 11.41015625 C5.02355469 12.26480469 5.01195312 13.11945313 5 14 C4.34 14 3.68 14 3 14 C2.96261719 13.22914063 2.92523438 12.45828125 2.88671875 11.6640625 C2.82097656 10.66117188 2.75523437 9.65828125 2.6875 8.625 C2.62949219 7.62726563 2.57148438 6.62953125 2.51171875 5.6015625 C2.34285156 4.74304688 2.17398438 3.88453125 2 3 C1.01 2.34 0.02 1.68 -1 1 C-0.67 0.67 -0.34 0.34 0 0 Z " fill="#353535" transform="translate(212,120)"/>
<path d="M0 0 C2.97 0 5.94 0 9 0 C8.67 1.98 8.34 3.96 8 6 C7.67 6 7.34 6 7 6 C7 4.35 7 2.7 7 1 C6.34 1 5.68 1 5 1 C5 2.65 5 4.3 5 6 C4.34 6 3.68 6 3 6 C2.67 5.34 2.34 4.68 2 4 C1.01 4.495 1.01 4.495 0 5 C0 3.35 0 1.7 0 0 Z " fill="#626264" transform="translate(247,297)"/>
<path d="M0 0 C4.95 0 9.9 0 15 0 C14.67 0.66 14.34 1.32 14 2 C11.05859375 2.4140625 11.05859375 2.4140625 7.4375 2.625 C6.23996094 2.69976562 5.04242188 2.77453125 3.80859375 2.8515625 C2.88175781 2.90054688 1.95492187 2.94953125 1 3 C0.67 2.01 0.34 1.02 0 0 Z " fill="#EBF1F5" transform="translate(199,216)"/>
<path d="M0 0 C0.73605469 0.0721875 1.47210938 0.144375 2.23046875 0.21875 C3.69419922 0.35796875 3.69419922 0.35796875 5.1875 0.5 C6.15042969 0.5928125 7.11335937 0.685625 8.10546875 0.78125 C10.75187667 0.98124844 13.34760865 1.03879183 16 1 C16 1.99 16 2.98 16 4 C10.72 4 5.44 4 0 4 C-0.33 3.34 -0.66 2.68 -1 2 C-0.67 1.34 -0.34 0.68 0 0 Z " fill="#BCA4C6" transform="translate(200,207)"/>
<path d="M0 0 C1.32 0.33 2.64 0.66 4 1 C3.34 1 2.68 1 2 1 C2.33 1.66 2.66 2.32 3 3 C3.13415472 5.6723621 3.04318541 8.32250488 3 11 C2.01 11 1.02 11 0 11 C0 7.37 0 3.74 0 0 Z " fill="#F5B51F" transform="translate(151,42)"/>
<path d="M0 0 C2.31 0 4.62 0 7 0 C6.67 1.32 6.34 2.64 6 4 C4.68 4 3.36 4 2 4 C2 4.66 2 5.32 2 6 C1.34 6 0.68 6 0 6 C0 4.02 0 2.04 0 0 Z " fill="#D7CA8F" transform="translate(227,249)"/>
<path d="M0 0 C0.33 0 0.66 0 1 0 C1 4.95 1 9.9 1 15 C-4.625 9.375 -4.625 9.375 -5 6 C-3.68 6.99 -2.36 7.98 -1 9 C-0.67 6.03 -0.34 3.06 0 0 Z " fill="#C1BFC0" transform="translate(166,78)"/>
<path d="M0 0 C0.33 0 0.66 0 1 0 C1.33 3.96 1.66 7.92 2 12 C1.34 12 0.68 12 0 12 C-0.99 9.03 -1.98 6.06 -3 3 C-2.01 2.01 -1.02 1.02 0 0 Z " fill="#E6E6E3" transform="translate(136,438)"/>
<path d="M0 0 C1.65 0 3.3 0 5 0 C4.34 0.66 3.68 1.32 3 2 C2.53709779 4.66242821 2.53709779 4.66242821 2.375 7.625 C2.30023438 8.62789062 2.22546875 9.63078125 2.1484375 10.6640625 C2.09945312 11.43492187 2.05046875 12.20578125 2 13 C1.34 13 0.68 13 0 13 C0 8.71 0 4.42 0 0 Z " fill="#393939" transform="translate(179,121)"/>
<path d="M0 0 C0.33 0 0.66 0 1 0 C1.33 4.62 1.66 9.24 2 14 C1.01 14 0.02 14 -1 14 C-1.22226864 12.23086176 -1.42733873 10.45955629 -1.625 8.6875 C-1.74101562 7.70136719 -1.85703125 6.71523437 -1.9765625 5.69921875 C-2 3 -2 3 0 0 Z " fill="#B7B5B6" transform="translate(191,79)"/>
<path d="M0 0 C0.86625 0.12375 1.7325 0.2475 2.625 0.375 C-0.17216804 3.66578593 -3.57028578 5.43805458 -7.375 7.375 C-8.035 7.045 -8.695 6.715 -9.375 6.375 C-4.20576923 0.46730769 -4.20576923 0.46730769 0 0 Z " fill="#D3C177" transform="translate(231.375,237.625)"/>
<path d="M0 0 C0.33 0 0.66 0 1 0 C1.33 1.65 1.66 3.3 2 5 C2.99 5 3.98 5 5 5 C5.33 3.35 5.66 1.7 6 0 C6.33 0 6.66 0 7 0 C7.125 2.875 7.125 2.875 7 6 C6.34 6.66 5.68 7.32 5 8 C0.44444444 7.44444444 0.44444444 7.44444444 -1 6 C-1.125 3.5 -1.125 3.5 -1 1 C-0.67 0.67 -0.34 0.34 0 0 Z " fill="#322616" transform="translate(200,193)"/>
<path d="M0 0 C0.33 0.66 0.66 1.32 1 2 C-4.56069582 4.25433614 -10.0785651 4.59961828 -16 5 C-16.33 4.34 -16.66 3.68 -17 3 C-11.39 2.01 -5.78 1.02 0 0 Z " fill="#BCC9CF" transform="translate(259,370)"/>
<path d="M0 0 C2.97 0 5.94 0 9 0 C9.33 0.99 9.66 1.98 10 3 C8.63875 2.9690625 8.63875 2.9690625 7.25 2.9375 C4.57327412 2.9889755 2.53011948 3.2215017 0 4 C0 2.68 0 1.36 0 0 Z " fill="#747576" transform="translate(212,260)"/>
<path d="M0 0 C1.65 0 3.3 0 5 0 C5.625 2.375 5.625 2.375 6 5 C5.34 5.66 4.68 6.32 4 7 C3.01 7 2.02 7 1 7 C0.67 7.66 0.34 8.32 0 9 C-0.99 8.34 -1.98 7.68 -3 7 C-0.69 6.01 1.62 5.02 4 4 C3.67 3.01 3.34 2.02 3 1 C2.01 0.67 1.02 0.34 0 0 Z " fill="#EDECDC" transform="translate(232,234)"/>
<path d="M0 0 C1.32 0 2.64 0 4 0 C4 2.31 4 4.62 4 7 C2.68 7 1.36 7 0 7 C0 4.69 0 2.38 0 0 Z " fill="#535353" transform="translate(197,157)"/>
<path d="M0 0 C2.125 0.375 2.125 0.375 4 1 C3.67 2.32 3.34 3.64 3 5 C2.01 5 1.02 5 0 5 C-0.66 6.32 -1.32 7.64 -2 9 C-2.125 5.625 -2.125 5.625 -2 2 C-1.34 1.34 -0.68 0.68 0 0 Z " fill="#908E8F" transform="translate(250,82)"/>
<path d="M0 0 C2.31 0 4.62 0 7 0 C6.67 1.65 6.34 3.3 6 5 C4.68 5.33 3.36 5.66 2 6 C1.34 4.02 0.68 2.04 0 0 Z " fill="#6B6B6D" transform="translate(185,307)"/>
<path d="M0 0 C1.98 0 3.96 0 6 0 C5.67 1.65 5.34 3.3 5 5 C3.68 5.33 2.36 5.66 1 6 C0.67 4.02 0.34 2.04 0 0 Z " fill="#696A6B" transform="translate(190,297)"/>
<path d="M0 0 C0.66 0 1.32 0 2 0 C2 1.98 2 3.96 2 6 C-0.64 6.33 -3.28 6.66 -6 7 C-6 5.35 -6 3.7 -6 2 C-5.67 2.99 -5.34 3.98 -5 5 C-4.01 5 -3.02 5 -2 5 C-2 4.01 -2 3.02 -2 2 C-1.34 2 -0.68 2 0 2 C0 1.34 0 0.68 0 0 Z " fill="#D6C789" transform="translate(198,249)"/>
<path d="M0 0 C0.33 0 0.66 0 1 0 C1.66 2.97 2.32 5.94 3 9 C4.65 9.33 6.3 9.66 8 10 C8 10.66 8 11.32 8 12 C5.125 12.1875 5.125 12.1875 2 12 C-0.13586678 8.79619983 -0.23132175 7.98060033 -0.125 4.3125 C-0.10695312 3.50425781 -0.08890625 2.69601563 -0.0703125 1.86328125 C-0.04710937 1.24839844 -0.02390625 0.63351563 0 0 Z " fill="#414040" transform="translate(219,122)"/>
<path d="M0 0 C1.14926266 0.95421808 2.29430541 1.91352045 3.4375 2.875 C4.07558594 3.40867187 4.71367187 3.94234375 5.37109375 4.4921875 C7 6 7 6 8 8 C5.2980567 7.63487253 3.41609148 7.30130763 1.1875 5.6875 C0 4 0 4 0 0 Z " fill="#AEAEB0" transform="translate(139,444)"/>
<path d="M0 0 C1.65 0 3.3 0 5 0 C5 1.98 5 3.96 5 6 C4.67 5.34 4.34 4.68 4 4 C3.34 4 2.68 4 2 4 C2 4.66 2 5.32 2 6 C1.34 6 0.68 6 0 6 C0 4.02 0 2.04 0 0 Z " fill="#777879" transform="translate(214,297)"/>
<path d="M0 0 C0.66 0.33 1.32 0.66 2 1 C2 4.96 2 8.92 2 13 C1.34 12.67 0.68 12.34 0 12 C0.020625 11.0925 0.04125 10.185 0.0625 9.25 C0.12396564 6.13912132 0.12396564 6.13912132 -0.5625 3.75 C-1 2 -1 2 0 0 Z " fill="#D1D6DD" transform="translate(274,234)"/>
<path d="M0 0 C0.99 0 1.98 0 3 0 C3 2.31 3 4.62 3 7 C1.68 6.67 0.36 6.34 -1 6 C-1.042721 4.33388095 -1.04063832 2.66617115 -1 1 C-0.67 0.67 -0.34 0.34 0 0 Z " fill="#CBA42A" transform="translate(202,192)"/>
<path d="M0 0 C0.99 0 1.98 0 3 0 C3 3 3 6 3 9 C1.68 8.67 0.36 8.34 -1 8 C-0.67 7.34 -0.34 6.68 0 6 C-0.33 5.34 -0.66 4.68 -1 4 C-0.5625 1.875 -0.5625 1.875 0 0 Z " fill="#5B5B5B" transform="translate(178,156)"/>
<path d="M0 0 C1.67542976 0.28604898 3.34385343 0.61781233 5 1 C4.67 1.66 4.34 2.32 4 3 C3.01 3 2.02 3 1 3 C1 3.99 1 4.98 1 6 C1.99 6.33 2.98 6.66 4 7 C4 7.66 4 8.32 4 9 C2.68 9 1.36 9 0 9 C-1.36623674 6.26752652 -1.128426 4.01801098 -1 1 C-0.67 0.67 -0.34 0.34 0 0 Z " fill="#4E4E4E" transform="translate(208,156)"/>
<path d="M0 0 C0.66 0 1.32 0 2 0 C2.125 2.875 2.125 2.875 2 6 C0 8 0 8 -3.125 8.125 C-4.548125 8.063125 -4.548125 8.063125 -6 8 C-6 7.34 -6 6.68 -6 6 C-4.35 5.67 -2.7 5.34 -1 5 C-0.67 3.35 -0.34 1.7 0 0 Z " fill="#333333" transform="translate(204,126)"/>
<path d="M0 0 C2.33333333 0 4.66666667 0 7 0 C6.67 1.65 6.34 3.3 6 5 C4.35 5 2.7 5 1 5 C0.67 3.35 0.34 1.7 0 0 Z " fill="#656668" transform="translate(147,297)"/>
<path d="M0 0 C2.3828125 -0.29296875 2.3828125 -0.29296875 5.125 -0.1875 C6.03507813 -0.16042969 6.94515625 -0.13335937 7.8828125 -0.10546875 C8.58148438 -0.07066406 9.28015625 -0.03585938 10 0 C7 2 7 2 4.8125 1.625 C3.9153125 1.315625 3.9153125 1.315625 3 1 C3 1.99 3 2.98 3 4 C1.35 3.67 -0.3 3.34 -2 3 C-1.34 2.01 -0.68 1.02 0 0 Z " fill="#5F5E5F" transform="translate(224,82)"/>
<path d="M0 0 C1.32 0 2.64 0 4 0 C4.125 4.75 4.125 4.75 3 7 C2.01 7 1.02 7 0 7 C0 4.69 0 2.38 0 0 Z " fill="#C59A2B" transform="translate(165,44)"/>
<path d="M0 0 C0.99 0 1.98 0 3 0 C3.33 1.98 3.66 3.96 4 6 C2.35 5.67 0.7 5.34 -1 5 C-0.67 3.35 -0.34 1.7 0 0 Z " fill="#6D6D6F" transform="translate(178,297)"/>
<path d="M0 0 C1.65 0 3.3 0 5 0 C5.33 1.98 5.66 3.96 6 6 C3.69 6 1.38 6 -1 6 C-0.67 4.02 -0.34 2.04 0 0 Z " fill="#D4C784" transform="translate(220,249)"/>
<path d="M0 0 C-1 1.5 -1 1.5 -3 3 C-5.71846235 3.27345479 -8.25677199 3.13491285 -11 3 C-11.33 2.34 -11.66 1.68 -12 1 C-7.9472484 0.01751476 -4.16138263 -0.08159574 0 0 Z " fill="#E6E6E6" transform="translate(255,457)"/>
<path d="M0 0 C2.97 0 5.94 0 9 0 C9.33 0.99 9.66 1.98 10 3 C3.375 3.125 3.375 3.125 0 2 C0 1.34 0 0.68 0 0 Z " fill="#440F61" transform="translate(199,205)"/>
<path d="M0 0 C2.31 0 4.62 0 7 0 C6.01 0.495 6.01 0.495 5 1 C5 1.66 5 2.32 5 3 C5.66 3.33 6.32 3.66 7 4 C5.02 4 3.04 4 1 4 C0.67 2.68 0.34 1.36 0 0 Z " fill="#DEDCDD" transform="translate(231,128)"/>
<path d="M0 0 C-0.61277612 2.96175123 -1.25372522 4.38058783 -3 7 C-3 5.68 -3 4.36 -3 3 C-3.66 3 -4.32 3 -5 3 C-5.33 2.01 -5.66 1.02 -6 0 C-3.50907189 -1.24546405 -2.58919267 -0.7767578 0 0 Z " fill="#F6F5F8" transform="translate(186,303)"/>
<path d="M0 0 C2.64 0.33 5.28 0.66 8 1 C7.67 1.99 7.34 2.98 7 4 C5.02 4 3.04 4 1 4 C0.67 2.68 0.34 1.36 0 0 Z " fill="#3A3839" transform="translate(212,92)"/>
<path d="M0 0 C1.65 0.33 3.3 0.66 5 1 C5.33 4.3 5.66 7.6 6 11 C5.01 10.67 4.02 10.34 3 10 C3 7.36 3 4.72 3 2 C2.34 2 1.68 2 1 2 C0.34 2.66 -0.32 3.32 -1 4 C-0.67 2.68 -0.34 1.36 0 0 Z " fill="#C1BFC0" transform="translate(243,82)"/>
<path d="M0 0 C0.99 0 1.98 0 3 0 C3.33 1.98 3.66 3.96 4 6 C2.35 6 0.7 6 -1 6 C-0.67 4.02 -0.34 2.04 0 0 Z " fill="#6A6A6C" transform="translate(203,297)"/>
<path d="M0 0 C0.99 0 1.98 0 3 0 C3.33 0.66 3.66 1.32 4 2 C4.99 2 5.98 2 7 2 C7 2.66 7 3.32 7 4 C5.02 4.33 3.04 4.66 1 5 C0.67 3.35 0.34 1.7 0 0 Z " fill="#7B7C7E" transform="translate(170,259)"/>
<path d="M0 0 C1.32 0 2.64 0 4 0 C4 1.32 4 2.64 4 4 C2.68 4.33 1.36 4.66 0 5 C-0.5625 3.0625 -0.5625 3.0625 -1 1 C-0.67 0.67 -0.34 0.34 0 0 Z " fill="#EBEBEB" transform="translate(217,158)"/>
<path d="M0 0 C1.98 0.99 1.98 0.99 4 2 C4 2.66 4 3.32 4 4 C4.66 4 5.32 4 6 4 C5.67 4.99 5.34 5.98 5 7 C4.01 6.01 3.02 5.02 2 4 C1.34 4.99 0.68 5.98 0 7 C0 4.69 0 2.38 0 0 Z " fill="#3F3F3F" transform="translate(189,157)"/>
<path d="M0 0 C2.31 0 4.62 0 7 0 C7 0.66 7 1.32 7 2 C6.01 2 5.02 2 4 2 C4 4.31 4 6.62 4 9 C3.67 9 3.34 9 3 9 C3 6.69 3 4.38 3 2 C2.01 2 1.02 2 0 2 C0 1.34 0 0.68 0 0 Z " fill="#525252" transform="translate(195,142)"/>
<path d="M0 0 C0.99 0 1.98 0 3 0 C3 2.31 3 4.62 3 7 C2.01 7 1.02 7 0 7 C0 4.69 0 2.38 0 0 Z " fill="#1C1A1B" transform="translate(192,84)"/>
<path d="M0 0 C0.66 0 1.32 0 2 0 C2.33 1.98 2.66 3.96 3 6 C1.35 6 -0.3 6 -2 6 C-1.34 4.02 -0.68 2.04 0 0 Z " fill="#656667" transform="translate(156,297)"/>
<path d="M0 0 C1.32 0.33 2.64 0.66 4 1 C4 2.65 4 4.3 4 6 C2.68 6 1.36 6 0 6 C0 4.02 0 2.04 0 0 Z " fill="#636364" transform="translate(197,297)"/>
<path d="M0 0 C1.65 0 3.3 0 5 0 C5 1.65 5 3.3 5 5 C3.35 5 1.7 5 0 5 C0 3.35 0 1.7 0 0 Z " fill="#D7CD93" transform="translate(209,250)"/>
<path d="M0 0 C3.4375 0.8125 3.4375 0.8125 7 2 C7.33 2.99 7.66 3.98 8 5 C6.35 5 4.7 5 3 5 C3 4.34 3 3.68 3 3 C2.01 2.67 1.02 2.34 0 2 C0 1.34 0 0.68 0 0 Z " fill="#EEECD5" transform="translate(215,245)"/>
<path d="M0 0 C1.32 0 2.64 0 4 0 C3.67 1.98 3.34 3.96 3 6 C2.01 5.67 1.02 5.34 0 5 C-0.75 3 -0.75 3 -1 1 C-0.67 0.67 -0.34 0.34 0 0 Z " fill="#F7B51C" transform="translate(197,181)"/>
<path d="M0 0 C0.99 0 1.98 0 3 0 C4.90877584 2.58246143 6.56377246 5.12754491 8 8 C4.63820226 6.55922954 2.40843732 4.75249979 0 2 C0 1.34 0 0.68 0 0 Z " fill="#7D8F99" transform="translate(139,442)"/>
<path d="M0 0 C1.32 0.33 2.64 0.66 4 1 C4 2.66666667 4 4.33333333 4 6 C2.68 6 1.36 6 0 6 C0 4.02 0 2.04 0 0 Z " fill="#6E6E6E" transform="translate(223,307)"/>
<path d="M0 0 C1.32 0 2.64 0 4 0 C4 1.98 4 3.96 4 6 C3.67 5.34 3.34 4.68 3 4 C2.01 4.33 1.02 4.66 0 5 C0 3.35 0 1.7 0 0 Z " fill="#59595A" transform="translate(170,297)"/>
<path d="M0 0 C0.66 0 1.32 0 2 0 C1.25 6.75 1.25 6.75 -1 9 C-1.125 2.25 -1.125 2.25 0 0 Z " fill="#CCD2DD" transform="translate(274,219)"/>
<path d="M0 0 C2.0625 0.4375 2.0625 0.4375 4 1 C4 2.65 4 4.3 4 6 C3.67 4.68 3.34 3.36 3 2 C2.34 2 1.68 2 1 2 C1 3.65 1 5.3 1 7 C0.34 6.67 -0.32 6.34 -1 6 C-1.042721 4.33388095 -1.04063832 2.66617115 -1 1 C-0.67 0.67 -0.34 0.34 0 0 Z " fill="#D1D1D1" transform="translate(183,145)"/>
<path d="M0 0 C2.31 0.33 4.62 0.66 7 1 C6.01 2.485 6.01 2.485 5 4 C3.68 4 2.36 4 1 4 C0.67 2.68 0.34 1.36 0 0 Z " fill="#2C2A2B" transform="translate(170,87)"/>
<path d="M0 0 C0.33 0 0.66 0 1 0 C1 2.97 1 5.94 1 9 C-0.32 9.33 -1.64 9.66 -3 10 C-2.01 6.7 -1.02 3.4 0 0 Z " fill="#A5B3B5" transform="translate(263,440)"/>
<path d="M0 0 C1.32 0.33 2.64 0.66 4 1 C4 2.66666667 4 4.33333333 4 6 C2.68 6 1.36 6 0 6 C0 4.02 0 2.04 0 0 Z " fill="#666667" transform="translate(185,297)"/>
<path d="M0 0 C0.33 0.66 0.66 1.32 1 2 C1.66 2 2.32 2 3 2 C3 1.34 3 0.68 3 0 C4.32 0 5.64 0 7 0 C6.34 1.32 5.68 2.64 5 4 C3.35 3.67 1.7 3.34 0 3 C0 2.01 0 1.02 0 0 Z " fill="#727476" transform="translate(224,260)"/>
<path d="M0 0 C0.33 0.66 0.66 1.32 1 2 C1.66 2.33 2.32 2.66 3 3 C-0.01853795 3 -2.77081079 2.85049285 -5.75 2.5 C-6.54921875 2.4071875 -7.3484375 2.314375 -8.171875 2.21875 C-8.77515625 2.1465625 -9.3784375 2.074375 -10 2 C-10 1.67 -10 1.34 -10 1 C-6.7 0.67 -3.4 0.34 0 0 Z " fill="#DDD4A6" transform="translate(234,235)"/>
<path d="M0 0 C1.98 0 3.96 0 6 0 C6 0.99 6 1.98 6 3 C4.02 3 2.04 3 0 3 C0 2.01 0 1.02 0 0 Z " fill="#D2A830" transform="translate(189,196)"/>
<path d="M0 0 C0.99 0 1.98 0 3 0 C3 1.65 3 3.3 3 5 C1.68 4.67 0.36 4.34 -1 4 C-0.67 2.68 -0.34 1.36 0 0 Z " fill="#E1E1E1" transform="translate(209,158)"/>
<path d="M0 0 C0.99 0.33 1.98 0.66 3 1 C3 2.32 3 3.64 3 5 C1.68 5 0.36 5 -1 5 C-0.67 3.35 -0.34 1.7 0 0 Z " fill="#DBDBDB" transform="translate(206,144)"/>
<path d="M0 0 C0.61875 0.350625 1.2375 0.70125 1.875 1.0625 C2.57625 1.371875 3.2775 1.68125 4 2 C4.66 1.67 5.32 1.34 6 1 C5.34 3.64 4.68 6.28 4 9 C3.67 9 3.34 9 3 9 C2 6 1 3 0 0 Z " fill="#464646" transform="translate(184,142)"/>
<path d="M0 0 C1.98 0.495 1.98 0.495 4 1 C4 1.99 4 2.98 4 4 C2.35 4 0.7 4 -1 4 C-0.67 2.68 -0.34 1.36 0 0 Z " fill="#D1D1D1" transform="translate(222,122)"/>
<path d="M0 0 C0.66 0 1.32 0 2 0 C3.25664978 2.90600261 4 4.79604584 4 8 C3.34 8 2.68 8 2 8 C2 7.01 2 6.02 2 5 C1.34 5 0.68 5 0 5 C0 3.35 0 1.7 0 0 Z " fill="#765C1E" transform="translate(175,44)"/>
<path d="M0 0 C0 0.66 0 1.32 0 2 C0.99 2.33 1.98 2.66 3 3 C2.67 4.32 2.34 5.64 2 7 C1.566875 6.34 1.13375 5.68 0.6875 5 C-0.1478125 4.01 -0.1478125 4.01 -1 3 C-1.99 3 -2.98 3 -4 3 C-4 2.34 -4 1.68 -4 1 C-2 0 -2 0 0 0 Z " fill="#DBAC34" transform="translate(157,42)"/>
<path d="M0 0 C0 0.66 0 1.32 0 2 C-2.64 2 -5.28 2 -8 2 C-8 1.34 -8 0.68 -8 0 C-5.13822943 -1.43088528 -3.06624227 -0.59991697 0 0 Z " fill="#688190" transform="translate(166,451)"/>
<path d="M0 0 C0.99 0.33 1.98 0.66 3 1 C2.67 2.65 2.34 4.3 2 6 C1.34 6 0.68 6 0 6 C-0.38218767 4.34385343 -0.71395102 2.67542976 -1 1 C-0.67 0.67 -0.34 0.34 0 0 Z " fill="#B8B8B8" transform="translate(207,349)"/>
<path d="M0 0 C1.65 0 3.3 0 5 0 C5 1.32 5 2.64 5 4 C3.35 4 1.7 4 0 4 C0 2.68 0 1.36 0 0 Z " fill="#D4D4D5" transform="translate(206,308)"/>
<path d="M0 0 C0.66 0 1.32 0 2 0 C2.33 1.65 2.66 3.3 3 5 C1.68 5 0.36 5 -1 5 C-0.67 3.35 -0.34 1.7 0 0 Z " fill="#5F6061" transform="translate(243,297)"/>
<path d="M0 0 C1.65 0 3.3 0 5 0 C4.67 2.31 4.34 4.62 4 7 C3.34 6.67 2.68 6.34 2 6 C2 5.34 2 4.68 2 4 C1.34 3.34 0.68 2.68 0 2 C0 1.34 0 0.68 0 0 Z " fill="#AEAEB0" transform="translate(226,296)"/>
<path d="M0 0 C2.64 0 5.28 0 8 0 C8 0.66 8 1.32 8 2 C7.34 2 6.68 2 6 2 C5.67 3.32 5.34 4.64 5 6 C5 4.68 5 3.36 5 2 C3.35 1.67 1.7 1.34 0 1 C0 0.67 0 0.34 0 0 Z " fill="#848485" transform="translate(233,296)"/>
<path d="M0 0 C0.66 0 1.32 0 2 0 C2 0.66 2 1.32 2 2 C2.66 2 3.32 2 4 2 C4 2.99 4 3.98 4 5 C2.35 4.67 0.7 4.34 -1 4 C-0.67 2.68 -0.34 1.36 0 0 Z " fill="#7D7F80" transform="translate(187,259)"/>
<path d="M0 0 C2.475 0.495 2.475 0.495 5 1 C4.67 1.66 4.34 2.32 4 3 C3.34 3 2.68 3 2 3 C2 3.66 2 4.32 2 5 C1.34 5 0.68 5 0 5 C0 3.35 0 1.7 0 0 Z " fill="#684C1D" transform="translate(201,182)"/>
<path d="M0 0 C1.98 0.495 1.98 0.495 4 1 C4 1.99 4 2.98 4 4 C2.35 4 0.7 4 -1 4 C-0.67 2.68 -0.34 1.36 0 0 Z " fill="#D5D5D5" transform="translate(232,122)"/>
<path d="M0 0 C2.31 0.33 4.62 0.66 7 1 C6.01 2.485 6.01 2.485 5 4 C3.68 4 2.36 4 1 4 C0.67 2.68 0.34 1.36 0 0 Z " fill="#2D2B2C" transform="translate(223,87)"/>
<path d="M0 0 C1.32 0.33 2.64 0.66 4 1 C3.67 1.99 3.34 2.98 3 4 C1.35 3.67 -0.3 3.34 -2 3 C-1.34 2.01 -0.68 1.02 0 0 Z " fill="#696768" transform="translate(171,82)"/>
</svg>
