<?xml version="1.0" encoding="UTF-8"?>
<svg version="1.1" xmlns="http://www.w3.org/2000/svg" width="250" height="291">
<path d="M0 0 C82.5 0 165 0 250 0 C250 96.03 250 192.06 250 291 C167.5 291 85 291 0 291 C0 194.97 0 98.94 0 0 Z " fill="#FDFDFD" transform="translate(0,0)"/>
<path d="M0 0 C0.83724609 -0.01933594 1.67449219 -0.03867188 2.53710938 -0.05859375 C6.75313457 -0.02521271 8.85445928 0.20282516 12.33984375 2.7265625 C17.00144556 9.16773297 17.8778511 14.41609204 17.87890625 22.171875 C17.89211411 23.06489319 17.90532196 23.95791138 17.91893005 24.87799072 C17.95959296 27.71035987 17.98144379 30.54240615 18 33.375 C18.02379929 36.22177916 18.0518843 39.06825499 18.09178162 41.91485596 C18.11611503 43.6809835 18.13099279 45.44727232 18.13539124 47.21356201 C18.14557785 48.01159241 18.15576447 48.8096228 18.16625977 49.63183594 C18.17267235 50.68271393 18.17267235 50.68271393 18.17921448 51.75482178 C18.34517275 53.95846627 18.34517275 53.95846627 20.4375 56.625 C22.46546864 57.13281218 22.46546864 57.13281218 24.75 57.1875 C28.68217345 57.40780853 30.50664486 58.05265794 34.4375 59.625 C34.4375 75.465 34.4375 91.305 34.4375 107.625 C33.7775 107.625 33.1175 107.625 32.4375 107.625 C32.7675 109.605 33.0975 111.585 33.4375 113.625 C32.1175 113.955 30.7975 114.285 29.4375 114.625 C30.21398718 122.69091221 30.21398718 122.69091221 34.27734375 129.23828125 C36.3308029 130.21965507 36.3308029 130.21965507 38.40234375 130.81640625 C41.33563424 131.98184028 42.52349802 133.06777439 44.4375 135.625 C45.02578649 138.77236191 44.94251356 141.88196516 44.89160156 145.07519531 C44.89218567 146.03162933 44.89276978 146.98806335 44.89337158 147.97348022 C44.89058563 151.13373144 44.85946885 154.29303862 44.828125 157.453125 C44.82066445 159.64458704 44.81497064 161.83605576 44.81097412 164.02752686 C44.79570329 169.7947838 44.75640856 175.56163765 44.7121582 181.32873535 C44.671237 187.2138931 44.65296981 193.09911599 44.6328125 198.984375 C44.58991607 210.53142708 44.52164687 222.07818002 44.4375 233.625 C33.88419817 233.64821339 23.33090246 233.66596088 12.77758026 233.67681217 C7.87677608 233.68202134 2.97598941 233.68908318 -1.92480469 233.70043945 C-6.65805737 233.71133833 -11.39129323 233.71729164 -16.1245575 233.71987724 C-17.92657231 233.7217189 -19.72858625 233.72531513 -21.53059387 233.73073006 C-24.06273355 233.73803347 -26.59480454 233.73898704 -29.12695312 233.73852539 C-30.23395065 233.7439183 -30.23395065 233.7439183 -31.36331177 233.74942017 C-32.06426971 233.7480455 -32.76522766 233.74667084 -33.48742676 233.74525452 C-34.38340954 233.74663721 -34.38340954 233.74663721 -35.29749298 233.74804783 C-38.73451096 233.56132982 -42.14699419 233.05193823 -45.5625 232.625 C-45.5625 206.225 -45.5625 179.825 -45.5625 152.625 C-35.9925 152.295 -26.4225 151.965 -16.5625 151.625 C-23.14981828 150.78961719 -23.14981828 150.78961719 -29.71875 150.30859375 C-30.5953125 150.26669922 -31.471875 150.22480469 -32.375 150.18164062 C-33.261875 150.14232422 -34.14875 150.10300781 -35.0625 150.0625 C-36.43921875 149.99772461 -36.43921875 149.99772461 -37.84375 149.93164062 C-40.08322061 149.82666544 -42.32278092 149.72450752 -44.5625 149.625 C-45.47139964 136.24397749 -45.47139964 136.24397749 -43.4375 132.62109375 C-41.9375 131.375 -41.9375 131.375 -38.5625 129.625 C-37.49 129.026875 -36.4175 128.42875 -35.3125 127.8125 C-32.5625 126.625 -32.5625 126.625 -30.5625 126.625 C-31.0575 120.19 -31.0575 120.19 -31.5625 113.625 C-32.2225 113.625 -32.8825 113.625 -33.5625 113.625 C-33.2325 111.645 -32.9025 109.665 -32.5625 107.625 C-33.5525 107.625 -34.5425 107.625 -35.5625 107.625 C-35.58727942 101.75342107 -35.60539766 95.88187282 -35.61743164 90.01025391 C-35.62245022 88.01415476 -35.62926651 86.01805927 -35.63793945 84.02197266 C-35.65011356 81.14745174 -35.65575316 78.27297956 -35.66015625 75.3984375 C-35.66531754 74.51070648 -35.67047882 73.62297546 -35.67579651 72.70834351 C-35.67619618 68.26127461 -35.6582691 63.96571532 -34.5625 59.625 C-31.79797967 58.24273984 -29.5163637 58.52974613 -26.4375 58.5625 C-25.34179688 58.57152344 -24.24609375 58.58054688 -23.1171875 58.58984375 C-21.85261719 58.60724609 -21.85261719 58.60724609 -20.5625 58.625 C-20.5625 57.965 -20.5625 57.305 -20.5625 56.625 C-19.9025 56.625 -19.2425 56.625 -18.5625 56.625 C-18.54268066 55.39982666 -18.52286133 54.17465332 -18.50244141 52.91235352 C-18.42592237 48.3330556 -18.33727902 43.75405641 -18.24511719 39.17504883 C-18.20701765 37.19952323 -18.17213287 35.22393274 -18.140625 33.24829102 C-18.09455841 30.39576142 -18.03663583 27.54367125 -17.9765625 24.69140625 C-17.96501129 23.81915909 -17.95346008 22.94691193 -17.94155884 22.04823303 C-17.61112367 8.07574918 -17.61112367 8.07574918 -13.03515625 2.6015625 C-8.50750362 0.02451837 -5.11928445 -0.1187769 0 0 Z " fill="#E4E2E2" transform="translate(120.5625,-0.625)"/>
<path d="M0 0 C0.99 0 1.98 0 3 0 C3 27.72 3 55.44 3 84 C-10.385625 84.020625 -23.77125 84.04125 -37.5625 84.0625 C-41.77974854 84.071604 -45.99699707 84.08070801 -50.34204102 84.09008789 C-55.51550293 84.09460449 -55.51550293 84.09460449 -57.94200134 84.09544373 C-59.62669642 84.0969733 -61.31139044 84.10047786 -62.99607849 84.10557556 C-65.55673101 84.11293252 -68.11731696 84.11390473 -70.67797852 84.11352539 C-71.42099748 84.1171235 -72.16401644 84.12072161 -72.92955112 84.12442875 C-77.45849262 84.11549295 -81.45005185 83.64999259 -86 83 C-86 56.93 -86 30.86 -86 4 C-62.9 4 -39.8 4 -16 4 C-16 4.99 -16 5.98 -16 7 C-17.65 7.66 -19.3 8.32 -21 9 C-21 11.31 -21 13.62 -21 16 C-19.824375 16.3403125 -19.824375 16.3403125 -18.625 16.6875 C-16 18 -16 18 -15.0625 20.5 C-14.19645648 23.3445866 -14.19645648 23.3445866 -10.875 24.3125 C-9.92625 24.539375 -8.9775 24.76625 -8 25 C-7.34 22.69 -6.68 20.38 -6 18 C-5.34 18 -4.68 18 -4 18 C-4.020625 16.741875 -4.04125 15.48375 -4.0625 14.1875 C-4.10886083 11.35948913 -3.91692961 9.75078884 -3 7 C-3.99 7 -4.98 7 -6 7 C-6 6.01 -6 5.02 -6 4 C-4.02 4 -2.04 4 0 4 C0 2.68 0 1.36 0 0 Z " fill="#732A81" transform="translate(162,149)"/>
<path d="M0 0 C23.1 0 46.2 0 70 0 C70 0.99 70 1.98 70 3 C68.35 3.66 66.7 4.32 65 5 C65 7.31 65 9.62 65 12 C66.65 12.66 68.3 13.32 70 14 C70.25 17.3125 70.25 17.3125 70 21 C68.1875 22.9375 68.1875 22.9375 66 24 C65.01 24 64.02 24 63 24 C62.505 25.485 62.505 25.485 62 27 C60.741875 27.020625 59.48375 27.04125 58.1875 27.0625 C57.47980469 27.07410156 56.77210938 27.08570313 56.04296875 27.09765625 C54 27 54 27 51 26 C50.505 27.485 50.505 27.485 50 29 C49.505 28.01 49.505 28.01 49 27 C47.02111039 26.27306096 45.02045442 25.60183749 43 25 C42.67 25.66 42.34 26.32 42 27 C39.03 27 36.06 27 33 27 C33 26.01 33 25.02 33 24 C32.34 24 31.68 24 31 24 C31.33 26.97 31.66 29.94 32 33 C30.35 33 28.7 33 27 33 C27.33 32.34 27.66 31.68 28 31 C28.66 31 29.32 31 30 31 C28.13216429 28.19824644 26.69725519 26.88807863 24 25 C24 26.98 24 28.96 24 31 C23.67 31 23.34 31 23 31 C22.690625 30.030625 22.38125 29.06125 22.0625 28.0625 C21.30476658 25.15934208 21.30476658 25.15934208 20 24 C17.96618256 23.80034595 17.96618256 23.80034595 15.625 23.8125 C14.43777344 23.79123047 14.43777344 23.79123047 13.2265625 23.76953125 C10.71268667 23.85492491 10.71268667 23.85492491 8 26 C7.34 26 6.68 26 6 26 C6 27.65 6 29.3 6 31 C6.99 30.67 7.98 30.34 9 30 C8.67 30.99 8.34 31.98 8 33 C7.01 33 6.02 33 5 33 C5 35.31 5 37.62 5 40 C5.66 40 6.32 40 7 40 C6.34 41.32 5.68 42.64 5 44 C4.01 44 3.02 44 2 44 C2 44.66 2 45.32 2 46 C3.485 45.505 3.485 45.505 5 45 C5 45.66 5 46.32 5 47 C6.485 46.505 6.485 46.505 8 46 C7.34 48.97 6.68 51.94 6 55 C6.99 55.33 7.98 55.66 9 56 C7.515 58.475 7.515 58.475 6 61 C6.66 61 7.32 61 8 61 C8 60.01 8 59.02 8 58 C8.99 58.33 9.98 58.66 11 59 C10.1875 60.9375 10.1875 60.9375 9 63 C7.515 63.495 7.515 63.495 6 64 C6 64.66 6 65.32 6 66 C6.66 66.66 7.32 67.32 8 68 C9.33034463 71.5919305 9.07279423 75.21470013 9 79 C6.03 79 3.06 79 0 79 C0 52.93 0 26.86 0 0 Z " fill="#70267E" transform="translate(76,153)"/>
<path d="M0 0 C0.83724609 -0.01933594 1.67449219 -0.03867188 2.53710938 -0.05859375 C6.75313457 -0.02521271 8.85445928 0.20282516 12.33984375 2.7265625 C17.00144556 9.16773297 17.8778511 14.41609204 17.87890625 22.171875 C17.89211411 23.06489319 17.90532196 23.95791138 17.91893005 24.87799072 C17.95959296 27.71035987 17.98144379 30.54240615 18 33.375 C18.02379929 36.22177916 18.0518843 39.06825499 18.09178162 41.91485596 C18.11611503 43.6809835 18.13099279 45.44727232 18.13539124 47.21356201 C18.14557785 48.01159241 18.15576447 48.8096228 18.16625977 49.63183594 C18.17267235 50.68271393 18.17267235 50.68271393 18.17921448 51.75482178 C18.34517275 53.95846627 18.34517275 53.95846627 20.4375 56.625 C22.63204681 57.20493699 22.63204681 57.20493699 25.0625 57.3125 C25.87976563 57.37824219 26.69703125 57.44398437 27.5390625 57.51171875 C28.47878906 57.56779297 28.47878906 57.56779297 29.4375 57.625 C29.4375 58.285 29.4375 58.945 29.4375 59.625 C23.9056836 59.649875 18.37390038 59.66794235 12.84204102 59.67993164 C10.96345451 59.68493432 9.08487185 59.69173856 7.20629883 59.70043945 C4.49299161 59.71268427 1.77973624 59.71826911 -0.93359375 59.72265625 C-2.17634315 59.73039818 -2.17634315 59.73039818 -3.44419861 59.73829651 C-8.89172962 59.73881073 -14.15713215 59.30985371 -19.5625 58.625 C-19.32261353 57.65675293 -19.32261353 57.65675293 -19.07788086 56.66894531 C-18.41239396 52.73844285 -18.36839633 48.90161183 -18.31640625 44.921875 C-18.28345715 43.20181803 -18.25024569 41.48176607 -18.21679688 39.76171875 C-18.16954112 37.07181338 -18.12510147 34.38192674 -18.08569336 31.69189453 C-18.04562301 29.08084323 -17.99416102 26.47019675 -17.94140625 23.859375 C-17.9329921 23.06843445 -17.92457794 22.2774939 -17.91590881 21.46258545 C-17.76761908 14.65498751 -17.51425283 7.95986351 -13.03515625 2.6015625 C-8.50750362 0.02451837 -5.11928445 -0.1187769 0 0 Z " fill="#E0DEDD" transform="translate(120.5625,-0.625)"/>
<path d="M0 0 C0.79148437 -0.02578125 1.58296875 -0.0515625 2.3984375 -0.078125 C5.14475685 0.32659575 5.72783655 1.32240077 7.625 3.25 C8.945 3.25 10.265 3.25 11.625 3.25 C11.955 3.58 12.285 3.91 12.625 4.25 C13.285 3.59 13.945 2.93 14.625 2.25 C14.625 4.23 14.625 6.21 14.625 8.25 C13.635 8.745 13.635 8.745 12.625 9.25 C13.615 9.25 14.605 9.25 15.625 9.25 C15.625 6.61 15.625 3.97 15.625 1.25 C16.285 1.25 16.945 1.25 17.625 1.25 C17.955 1.91 18.285 2.57 18.625 3.25 C20.5121875 3.2809375 20.5121875 3.2809375 22.4375 3.3125 C23.14519531 3.32410156 23.85289063 3.33570313 24.58203125 3.34765625 C26.82805461 3.33263217 26.82805461 3.33263217 29.625 2.25 C30.40875 2.58 31.1925 2.91 32 3.25 C35.13980554 4.44611639 36.40560116 4.01652353 39.625 3.25 C41.95801986 3.21175377 44.29211508 3.20425716 46.625 3.25 C46.625 4.9 46.625 6.55 46.625 8.25 C46.13 6.765 46.13 6.765 45.625 5.25 C44.965 5.25 44.305 5.25 43.625 5.25 C43.295 6.24 42.965 7.23 42.625 8.25 C41.95855469 8.22679687 41.29210937 8.20359375 40.60546875 8.1796875 C33.70743263 8.04462106 27.36199852 8.79053417 20.625 10.25 C25.08 11.24 25.08 11.24 29.625 12.25 C29.625 13.9 29.625 15.55 29.625 17.25 C27.975 16.92 26.325 16.59 24.625 16.25 C24.625 15.59 24.625 14.93 24.625 14.25 C23.965 14.25 23.305 14.25 22.625 14.25 C22.295 15.24 21.965 16.23 21.625 17.25 C17.995 17.25 14.365 17.25 10.625 17.25 C10.295 15.6 9.965 13.95 9.625 12.25 C8.635 15.22 7.645 18.19 6.625 21.25 C6.955 20.92 7.285 20.59 7.625 20.25 C9.95797433 20.20907063 12.29205225 20.20758277 14.625 20.25 C14.75 22.625 14.75 22.625 14.625 25.25 C13.965 25.91 13.305 26.57 12.625 27.25 C11.88980478 29.22583715 11.23427518 31.23177598 10.625 33.25 C10.25375 34.466875 9.8825 35.68375 9.5 36.9375 C8.49730444 40.16239932 8.49730444 40.16239932 8.625 43.25 C7.84125 43.20875 7.0575 43.1675 6.25 43.125 C3.46383881 42.96271266 3.46383881 42.96271266 1.625 45.25 C1.295 44.92 0.965 44.59 0.625 44.25 C-1.04117115 44.20936168 -2.70888095 44.207279 -4.375 44.25 C-4.87 42.765 -4.87 42.765 -5.375 41.25 C-6.035 42.24 -6.695 43.23 -7.375 44.25 C-8.365 43.92 -9.355 43.59 -10.375 43.25 C-9.375 40.25 -9.375 40.25 -7.3125 39.0625 C-6.673125 38.794375 -6.03375 38.52625 -5.375 38.25 C-5.375 37.59 -5.375 36.93 -5.375 36.25 C-6.035 35.92 -6.695 35.59 -7.375 35.25 C-7.375 36.24 -7.375 37.23 -7.375 38.25 C-8.035 38.25 -8.695 38.25 -9.375 38.25 C-8.5 34.375 -8.5 34.375 -7.375 33.25 C-8.035 32.92 -8.695 32.59 -9.375 32.25 C-9.045 29.61 -8.715 26.97 -8.375 24.25 C-10.025 23.92 -11.675 23.59 -13.375 23.25 C-13.375 22.59 -13.375 21.93 -13.375 21.25 C-12.735625 20.96125 -12.09625 20.6725 -11.4375 20.375 C-9.22293921 19.42176549 -9.22293921 19.42176549 -8.375 17.25 C-9.035 17.25 -9.695 17.25 -10.375 17.25 C-10.5625 13.875 -10.5625 13.875 -10.375 10.25 C-9.385 9.59 -8.395 8.93 -7.375 8.25 C-8.035 8.25 -8.695 8.25 -9.375 8.25 C-9.705 6.27 -10.035 4.29 -10.375 2.25 C-9.1684375 2.0334375 -9.1684375 2.0334375 -7.9375 1.8125 C-4.78170066 1.11976356 -3.42511138 0.06650702 0 0 Z " fill="#7B3587" transform="translate(91.375,175.75)"/>
<path d="M0 0 C2.97 0 5.94 0 9 0 C9 1.98 9 3.96 9 6 C8.01 5.67 7.02 5.34 6 5 C6.33 5.99 6.66 6.98 7 8 C6.34 8 5.68 8 5 8 C5 8.66 5 9.32 5 10 C5.99 10 6.98 10 8 10 C8 14.62 8 19.24 8 24 C7.01 24 6.02 24 5 24 C5.33 26.31 5.66 28.62 6 31 C6.99 30.67 7.98 30.34 9 30 C8.67 30.99 8.34 31.98 8 33 C7.01 33 6.02 33 5 33 C5 35.31 5 37.62 5 40 C5.66 40 6.32 40 7 40 C6.34 41.32 5.68 42.64 5 44 C4.01 44 3.02 44 2 44 C2 44.66 2 45.32 2 46 C3.485 45.505 3.485 45.505 5 45 C5 45.66 5 46.32 5 47 C6.485 46.505 6.485 46.505 8 46 C7.34 48.97 6.68 51.94 6 55 C6.99 55.33 7.98 55.66 9 56 C7.515 58.475 7.515 58.475 6 61 C6.66 61 7.32 61 8 61 C8 60.01 8 59.02 8 58 C8.99 58.33 9.98 58.66 11 59 C10.1875 60.9375 10.1875 60.9375 9 63 C7.515 63.495 7.515 63.495 6 64 C6 64.66 6 65.32 6 66 C6.66 66.66 7.32 67.32 8 68 C9.33034463 71.5919305 9.07279423 75.21470013 9 79 C6.03 79 3.06 79 0 79 C0 52.93 0 26.86 0 0 Z " fill="#662273" transform="translate(76,153)"/>
<path d="M0 0 C3.3 0 6.6 0 10 0 C10 1.32 10 2.64 10 4 C10.87011719 3.98259766 10.87011719 3.98259766 11.7578125 3.96484375 C16.31950726 3.91215091 20.497668 4.19958542 25 5 C26.99965715 5.03703069 29.00056665 5.04760556 31 5 C31 7.31 31 9.62 31 12 C29.68 12.33 28.36 12.66 27 13 C28.32 13.33 29.64 13.66 31 14 C31 14.66 31 15.32 31 16 C19.78 16 8.56 16 -3 16 C-3.73316291 12.33418546 -4.10380005 9.63300168 -4 6 C-2.68 5.34 -1.36 4.68 0 4 C0 2.68 0 1.36 0 0 Z " fill="#DADADA" transform="translate(102,241)"/>
<path d="M0 0 C0.66 0 1.32 0 2 0 C2.33 0.66 2.66 1.32 3 2 C4.8871875 2.0309375 4.8871875 2.0309375 6.8125 2.0625 C7.52019531 2.07410156 8.22789063 2.08570313 8.95703125 2.09765625 C11.20305461 2.08263217 11.20305461 2.08263217 14 1 C14.78375 1.33 15.5675 1.66 16.375 2 C19.51480554 3.19611639 20.78060116 2.76652353 24 2 C26.33301986 1.96175377 28.66711508 1.95425716 31 2 C31 3.65 31 5.3 31 7 C30.505 5.515 30.505 5.515 30 4 C29.34 4 28.68 4 28 4 C27.67 4.99 27.34 5.98 27 7 C26.33355469 6.97679687 25.66710937 6.95359375 24.98046875 6.9296875 C18.08243263 6.79462106 11.73699852 7.54053417 5 9 C7.97 9.66 10.94 10.32 14 11 C14 12.65 14 14.3 14 16 C11.525 15.505 11.525 15.505 9 15 C9 14.34 9 13.68 9 13 C8.34 13 7.68 13 7 13 C6.67 13.99 6.34 14.98 6 16 C2.37 16 -1.26 16 -5 16 C-5.33 14.35 -5.66 12.7 -6 11 C-6.66 12.65 -7.32 14.3 -8 16 C-10.64 16 -13.28 16 -16 16 C-16.125 13.625 -16.125 13.625 -16 11 C-15.34 10.34 -14.68 9.68 -14 9 C-14.66 8.34 -15.32 7.68 -16 7 C-15.34 6.01 -14.68 5.02 -14 4 C-14.66 4 -15.32 4 -16 4 C-16 3.01 -16 2.02 -16 1 C-11.85266897 0.91867978 -8.02554164 0.93441545 -4 2 C-3.67 2.33 -3.34 2.66 -3 3 C-2.34 2.34 -1.68 1.68 -1 1 C-1 2.98 -1 4.96 -1 7 C-1.99 7.495 -1.99 7.495 -3 8 C-2.01 8 -1.02 8 0 8 C0 5.36 0 2.72 0 0 Z " fill="#7C4185" transform="translate(107,177)"/>
<path d="M0 0 C0.79339783 0.00141495 1.58679565 0.0028299 2.40423584 0.00428772 C4.93098772 0.0098721 7.45765004 0.02242171 9.984375 0.03515625 C11.70051955 0.04017327 13.41666549 0.04473582 15.1328125 0.04882812 C19.33336769 0.05983641 23.53385617 0.07709029 27.734375 0.09765625 C27.734375 1.08765625 27.734375 2.07765625 27.734375 3.09765625 C25.424375 3.09765625 23.114375 3.09765625 20.734375 3.09765625 C20.734375 4.74765625 20.734375 6.39765625 20.734375 8.09765625 C22.384375 8.09765625 24.034375 8.09765625 25.734375 8.09765625 C25.404375 11.39765625 25.074375 14.69765625 24.734375 18.09765625 C24.074375 18.09765625 23.414375 18.09765625 22.734375 18.09765625 C22.59 18.88140625 22.445625 19.66515625 22.296875 20.47265625 C21.734375 23.09765625 21.734375 23.09765625 20.734375 25.09765625 C16.26037258 25.4604132 16.26037258 25.4604132 13.921875 23.84765625 C12.734375 22.09765625 12.734375 22.09765625 12.734375 18.09765625 C11.93 17.95328125 11.125625 17.80890625 10.296875 17.66015625 C7.734375 17.09765625 7.734375 17.09765625 6.734375 16.09765625 C6.484375 12.66015625 6.484375 12.66015625 6.734375 9.09765625 C9.734375 7.09765625 9.734375 7.09765625 12.734375 7.09765625 C12.734375 5.77765625 12.734375 4.45765625 12.734375 3.09765625 C3.164375 3.09765625 -6.405625 3.09765625 -16.265625 3.09765625 C-10.60185844 0.26577297 -6.2728107 -0.04222132 0 0 Z " fill="#F5F0F5" transform="translate(133.265625,148.90234375)"/>
<path d="M0 0 C4.09875096 -0.3842579 7.06688308 0.70758746 10.84887695 2.20727539 C17.54919609 4.6764544 24.47420319 5.39398307 31.5625 5.6875 C32.45582031 5.72584961 33.34914062 5.76419922 34.26953125 5.80371094 C49.58995536 6.33802131 65.21410742 6.44543176 80 2 C81.33174114 1.66036132 82.66449318 1.32451568 84 1 C84.495 1.99 84.495 1.99 85 3 C87.02463255 3.65213292 87.02463255 3.65213292 89 4 C87 7 87 7 83.53515625 7.6953125 C82.04588139 7.85441726 80.55472062 7.99642502 79.0625 8.125 C77.8573877 8.24174072 77.8573877 8.24174072 76.62792969 8.36083984 C56.46981292 10.22791202 36.1968978 10.82595598 16 9.25 C15.08629639 9.1883667 14.17259277 9.1267334 13.23120117 9.06323242 C7.75581349 8.56929347 4.11794713 7.76575428 0 4 C0 2.68 0 1.36 0 0 Z " fill="#EAE9ED" transform="translate(77,271)"/>
<path d="M0 0 C2 3 2 3 2 5 C3.32 5.66 4.64 6.32 6 7 C3.69 7 1.38 7 -1 7 C-0.67 7.66 -0.34 8.32 0 9 C1.32 9 2.64 9 4 9 C3.67 12.3 3.34 15.6 3 19 C2.67 17.68 2.34 16.36 2 15 C1.01 15 0.02 15 -1 15 C-1.33 15.99 -1.66 16.98 -2 18 C-2.66 17.34 -3.32 16.68 -4 16 C-4.66 16.66 -5.32 17.32 -6 18 C-6.33 17.34 -6.66 16.68 -7 16 C-10.0745356 16.7763932 -10.0745356 16.7763932 -12 19 C-13.32 17.68 -14.64 16.36 -16 15 C-16 16.65 -16 18.3 -16 20 C-13.69 20 -11.38 20 -9 20 C-8.67 21.32 -8.34 22.64 -8 24 C-9.98 24.99 -9.98 24.99 -12 26 C-12.33 25.67 -12.66 25.34 -13 25 C-14.99958364 24.95919217 -17.00045254 24.95745644 -19 25 C-19 25.99 -19 26.98 -19 28 C-16.36 28 -13.72 28 -11 28 C-11 28.33 -11 28.66 -11 29 C-14.63 29 -18.26 29 -22 29 C-21.34 27.68 -20.68 26.36 -20 25 C-20.66 24.67 -21.32 24.34 -22 24 C-21.34 24 -20.68 24 -20 24 C-20.33 22.68 -20.66 21.36 -21 20 C-19.68 20 -18.36 20 -17 20 C-17.66 18.68 -18.32 17.36 -19 16 C-22.62885324 15.84850702 -22.62885324 15.84850702 -26 17 C-25.21681311 13.08406554 -23.60820142 9.63593365 -22 6 C-21.67 6 -21.34 6 -21 6 C-21 7.98 -21 9.96 -21 12 C-20.0925 11.814375 -19.185 11.62875 -18.25 11.4375 C-15.31685676 11.04265379 -13.7355343 11.05308428 -11 12 C-10.67 11.34 -10.34 10.68 -10 10 C-9.01 9.67 -8.02 9.34 -7 9 C-6.67 9.66 -6.34 10.32 -6 11 C-3.97536745 11.65213292 -3.97536745 11.65213292 -2 12 C-2 10.35 -2 8.7 -2 7 C-2.66 7 -3.32 7 -4 7 C-4.33 8.32 -4.66 9.64 -5 11 C-5 9.35 -5 7.7 -5 6 C-7.97 6 -10.94 6 -14 6 C-10.71508627 3.81005752 -9.16904361 3.64722661 -5.3125 3.375 C-4.31863281 3.30023438 -3.32476562 3.22546875 -2.30078125 3.1484375 C-1.16189453 3.07496094 -1.16189453 3.07496094 0 3 C0 2.01 0 1.02 0 0 Z " fill="#6A2C76" transform="translate(123,181)"/>
<path d="M0 0 C1.23556641 0.01740234 1.23556641 0.01740234 2.49609375 0.03515625 C3.32238281 0.04417969 4.14867188 0.05320313 5 0.0625 C5.63808594 0.07410156 6.27617188 0.08570313 6.93359375 0.09765625 C7.26359375 0.75765625 7.59359375 1.41765625 7.93359375 2.09765625 C4.93359375 3.09765625 4.93359375 3.09765625 1.93359375 2.09765625 C1.93359375 3.08765625 1.93359375 4.07765625 1.93359375 5.09765625 C2.59359375 5.09765625 3.25359375 5.09765625 3.93359375 5.09765625 C3.93359375 6.41765625 3.93359375 7.73765625 3.93359375 9.09765625 C4.26359375 9.75765625 4.59359375 10.41765625 4.93359375 11.09765625 C3.94359375 11.59265625 3.94359375 11.59265625 2.93359375 12.09765625 C2.90650808 13.70172953 2.88715892 15.30593475 2.87109375 16.91015625 C2.85949219 17.80347656 2.84789063 18.69679687 2.8359375 19.6171875 C2.82349408 22.23179416 2.82349408 22.23179416 3.93359375 25.09765625 C-0.91359018 25.29154361 -4.52905898 24.78597151 -9.06640625 23.09765625 C-9.72640625 23.09765625 -10.38640625 23.09765625 -11.06640625 23.09765625 C-11.06640625 22.43765625 -11.06640625 21.77765625 -11.06640625 21.09765625 C-10.42703125 20.80890625 -9.78765625 20.52015625 -9.12890625 20.22265625 C-6.91434546 19.26942174 -6.91434546 19.26942174 -6.06640625 17.09765625 C-6.72640625 17.09765625 -7.38640625 17.09765625 -8.06640625 17.09765625 C-8.25390625 13.72265625 -8.25390625 13.72265625 -8.06640625 10.09765625 C-7.07640625 9.43765625 -6.08640625 8.77765625 -5.06640625 8.09765625 C-5.72640625 8.09765625 -6.38640625 8.09765625 -7.06640625 8.09765625 C-7.39640625 6.11765625 -7.72640625 4.13765625 -8.06640625 2.09765625 C-6.85984375 1.88109375 -6.85984375 1.88109375 -5.62890625 1.66015625 C-3.0784888 1.10030852 -2.48694491 0.11753048 0 0 Z " fill="#874C90" transform="translate(89.06640625,175.90234375)"/>
<path d="M0 0 C2.64 0 5.28 0 8 0 C8.66 1.32 9.32 2.64 10 4 C8.35 4.33 6.7 4.66 5 5 C9.29 5 13.58 5 18 5 C18 7.97 18 10.94 18 14 C17.21625 13.95875 16.4325 13.9175 15.625 13.875 C12.83883881 13.71271266 12.83883881 13.71271266 11 16 C10.67 15.67 10.34 15.34 10 15 C8.33382885 14.95936168 6.66611905 14.957279 5 15 C4.67 14.01 4.34 13.02 4 12 C3.01 13.485 3.01 13.485 2 15 C1.01 14.67 0.02 14.34 -1 14 C0 11 0 11 2.0625 9.8125 C3.0215625 9.4103125 3.0215625 9.4103125 4 9 C4 8.34 4 7.68 4 7 C3.34 6.67 2.68 6.34 2 6 C2 6.99 2 7.98 2 9 C1.34 9 0.68 9 0 9 C0.875 5.125 0.875 5.125 2 4 C1.34 3.67 0.68 3.34 0 3 C0 2.01 0 1.02 0 0 Z M21 1 C20.34 2.32 19.68 3.64 19 5 C16.36 4.67 13.72 4.34 11 4 C11 3.01 11 2.02 11 1 C14.66305234 0.25073929 17.42355152 -0.2380014 21 1 Z " fill="#8D4C98" transform="translate(82,205)"/>
<path d="M0 0 C0.66 0 1.32 0 2 0 C2 27.39 2 54.78 2 83 C-0.97 83 -3.94 83 -7 83 C-7 82.67 -7 82.34 -7 82 C-3.535 81.01 -3.535 81.01 0 80 C0 60.2 0 40.4 0 20 C-1.98 21.32 -3.96 22.64 -6 24 C-6 22.02 -6 20.04 -6 18 C-5.34 18 -4.68 18 -4 18 C-4.020625 16.741875 -4.04125 15.48375 -4.0625 14.1875 C-4.10886083 11.35948913 -3.91692961 9.75078884 -3 7 C-3.99 7 -4.98 7 -6 7 C-6 6.01 -6 5.02 -6 4 C-4.02 4 -2.04 4 0 4 C0 2.68 0 1.36 0 0 Z " fill="#602969" transform="translate(162,149)"/>
<path d="M0 0 C2.31 0 4.62 0 7 0 C7.33 1.65 7.66 3.3 8 5 C7.01 4.67 6.02 4.34 5 4 C5.33 4.99 5.66 5.98 6 7 C5.34 7 4.68 7 4 7 C4 7.66 4 8.32 4 9 C4.99 9 5.98 9 7 9 C7 13.62 7 18.24 7 23 C5.02 23.66 3.04 24.32 1 25 C0 24 0 24 -0.11352539 21.68334961 C-0.10828857 20.68311768 -0.10305176 19.68288574 -0.09765625 18.65234375 C-0.09443359 17.57275391 -0.09121094 16.49316406 -0.08789062 15.38085938 C-0.07951172 14.24455078 -0.07113281 13.10824219 -0.0625 11.9375 C-0.05798828 10.79732422 -0.05347656 9.65714844 -0.04882812 8.48242188 C-0.03699747 5.65489649 -0.0205141 2.8274736 0 0 Z " fill="#692077" transform="translate(77,154)"/>
<path d="M0 0 C6.93 0 13.86 0 21 0 C21 2.31 21 4.62 21 7 C17.42947197 8.68608268 15.73705509 9.17450303 12 8 C9.33873107 7.61029588 6.67196767 7.31172956 4 7 C4 5.35 4 3.7 4 2 C3.34 2 2.68 2 2 2 C2 3.32 2 4.64 2 6 C1.34 6 0.68 6 0 6 C0 4.02 0 2.04 0 0 Z " fill="#CCCCCC" transform="translate(112,246)"/>
<path d="M0 0 C0 0.66 0 1.32 0 2 C0.86625 1.690625 0.86625 1.690625 1.75 1.375 C4 1 4 1 5.8125 1.9375 C8.36626256 3.17789896 10.42917071 3.40230295 13.25 3.625 C14.14203125 3.69976562 15.0340625 3.77453125 15.953125 3.8515625 C16.96632813 3.92503906 16.96632813 3.92503906 18 4 C18 4.33 18 4.66 18 5 C12.44987305 5.02484561 6.89977898 5.04292868 1.34960938 5.05493164 C-0.53581303 5.05993919 -2.4212316 5.06674715 -4.30664062 5.07543945 C-7.02735344 5.08766253 -9.7480146 5.09326424 -12.46875 5.09765625 C-13.71924133 5.10539818 -13.71924133 5.10539818 -14.99499512 5.11329651 C-20.08707816 5.11377714 -24.95937477 4.73129553 -30 4 C-29.67 3.34 -29.34 2.68 -29 2 C-26.55901446 1.50815963 -24.21760708 1.15037228 -21.75 0.875 C-20.67975586 0.74762451 -20.67975586 0.74762451 -19.58789062 0.61767578 C-13.05349342 -0.10401209 -6.57029517 -0.2025091 0 0 Z " fill="#C5C3C5" transform="translate(132,54)"/>
<path d="M0 0 C0.66 0 1.32 0 2 0 C2.33 0.66 2.66 1.32 3 2 C4.8871875 2.0309375 4.8871875 2.0309375 6.8125 2.0625 C7.52019531 2.07410156 8.22789063 2.08570313 8.95703125 2.09765625 C11.20305461 2.08263217 11.20305461 2.08263217 14 1 C14.78375 1.33 15.5675 1.66 16.375 2 C19.51480554 3.19611639 20.78060116 2.76652353 24 2 C26.33301986 1.96175377 28.66711508 1.95425716 31 2 C31 3.65 31 5.3 31 7 C30.67 6.01 30.34 5.02 30 4 C29.34 4 28.68 4 28 4 C27.67 4.99 27.34 5.98 27 7 C18.09 7 9.18 7 0 7 C0 4.69 0 2.38 0 0 Z " fill="#B78ABB" transform="translate(107,177)"/>
<path d="M0 0 C4.10901101 -0.38521978 7.08447461 0.72291579 10.88012695 2.20898438 C20.07200129 5.63886723 29.88263668 5.63373816 39.5625 6.125 C41.15954249 6.21155442 42.75654831 6.2987883 44.35351562 6.38671875 C48.2352984 6.59898586 52.11746249 6.80203801 56 7 C56 7.33 56 7.66 56 8 C13.21394047 8.2715912 13.21394047 8.2715912 1 5 C0.67 3.35 0.34 1.7 0 0 Z " fill="#DCD9DD" transform="translate(77,271)"/>
<path d="M0 0 C2.0625 0.4375 2.0625 0.4375 4 1 C4 2.32 4 3.64 4 5 C5.32 5.33 6.64 5.66 8 6 C7.67 7.65 7.34 9.3 7 11 C6.01 11 5.02 11 4 11 C4 12.32 4 13.64 4 15 C2.35 14.67 0.7 14.34 -1 14 C-1 13.01 -1 12.02 -1 11 C-2.32 11 -3.64 11 -5 11 C-5 9.35 -5 7.7 -5 6 C-4.01 5.67 -3.02 5.34 -2 5 C-1.33820153 3.01954441 -1.33820153 3.01954441 -1 1 C-0.67 0.67 -0.34 0.34 0 0 Z " fill="#3DA19A" transform="translate(139,241)"/>
<path d="M0 0 C0.556875 0.474375 1.11375 0.94875 1.6875 1.4375 C4.18346074 3.12395996 6.0446237 3.58953107 9 4 C9.33 3.01 9.66 2.02 10 1 C10.33 1.99 10.66 2.98 11 4 C9.02 4.99 7.04 5.98 5 7 C4.01 6.34 3.02 5.68 2 5 C2.680625 5.7425 3.36125 6.485 4.0625 7.25 C4.701875 8.1575 5.34125 9.065 6 10 C5.67 11.32 5.34 12.64 5 14 C1.37 14 -2.26 14 -6 14 C-6 11.69 -6 9.38 -6 7 C-4.02 6.01 -2.04 5.02 0 4 C0 2.68 0 1.36 0 0 Z " fill="#7B3D84" transform="translate(145,170)"/>
<path d="M0 0 C2.01822917 0.06510417 4.03645833 0.13020833 6.0546875 0.1953125 C6.7146875 2.5053125 7.3746875 4.8153125 8.0546875 7.1953125 C7.0646875 7.1953125 6.0746875 7.1953125 5.0546875 7.1953125 C4.7246875 5.8753125 4.3946875 4.5553125 4.0546875 3.1953125 C2.06977108 3.46207454 2.06977108 3.46207454 0.0546875 4.1953125 C-0.2753125 5.1853125 -0.6053125 6.1753125 -0.9453125 7.1953125 C-1.9353125 7.6903125 -1.9353125 7.6903125 -2.9453125 8.1953125 C-3.60086369 10.72264485 -3.60086369 10.72264485 -3.9453125 13.1953125 C-2.6253125 13.1953125 -1.3053125 13.1953125 0.0546875 13.1953125 C0.3846875 14.1853125 0.7146875 15.1753125 1.0546875 16.1953125 C3.06977108 16.92855046 3.06977108 16.92855046 5.0546875 17.1953125 C5.0546875 15.8753125 5.0546875 14.5553125 5.0546875 13.1953125 C6.0446875 13.5253125 7.0346875 13.8553125 8.0546875 14.1953125 C7.0646875 15.8453125 6.0746875 17.4953125 5.0546875 19.1953125 C0.0546875 18.1953125 -4.9453125 17.1953125 -9.9453125 16.1953125 C-9.2853125 15.5353125 -8.6253125 14.8753125 -7.9453125 14.1953125 C-6.9553125 14.1953125 -5.9653125 14.1953125 -4.9453125 14.1953125 C-4.9453125 11.8853125 -4.9453125 9.5753125 -4.9453125 7.1953125 C-6.9253125 7.1953125 -8.9053125 7.1953125 -10.9453125 7.1953125 C-10.9453125 6.8653125 -10.9453125 6.5353125 -10.9453125 6.1953125 C-8.9653125 6.1953125 -6.9853125 6.1953125 -4.9453125 6.1953125 C-4.7596875 5.2671875 -4.7596875 5.2671875 -4.5703125 4.3203125 C-3.76206061 1.57225609 -2.9499914 0.29618388 0 0 Z " fill="#DBEDEC" transform="translate(137.9453125,238.8046875)"/>
<path d="M0 0 C1.23556641 0.01740234 1.23556641 0.01740234 2.49609375 0.03515625 C3.32238281 0.04417969 4.14867188 0.05320313 5 0.0625 C5.63808594 0.07410156 6.27617188 0.08570313 6.93359375 0.09765625 C7.26359375 0.75765625 7.59359375 1.41765625 7.93359375 2.09765625 C4.93359375 3.09765625 4.93359375 3.09765625 1.93359375 2.09765625 C1.93359375 3.08765625 1.93359375 4.07765625 1.93359375 5.09765625 C2.59359375 5.09765625 3.25359375 5.09765625 3.93359375 5.09765625 C3.93359375 6.41765625 3.93359375 7.73765625 3.93359375 9.09765625 C4.26359375 9.75765625 4.59359375 10.41765625 4.93359375 11.09765625 C0.87927683 12.25603251 -1.28452744 11.93456882 -5.06640625 10.09765625 C-5.06640625 9.43765625 -5.06640625 8.77765625 -5.06640625 8.09765625 C-5.72640625 8.09765625 -6.38640625 8.09765625 -7.06640625 8.09765625 C-7.39640625 6.11765625 -7.72640625 4.13765625 -8.06640625 2.09765625 C-6.85984375 1.88109375 -6.85984375 1.88109375 -5.62890625 1.66015625 C-3.0784888 1.10030852 -2.48694491 0.11753048 0 0 Z " fill="#7D4685" transform="translate(89.06640625,175.90234375)"/>
<path d="M0 0 C0.99 0 1.98 0 3 0 C3.33 1.65 3.66 3.3 4 5 C5.65 5.33 7.3 5.66 9 6 C9 6.66 9 7.32 9 8 C8.01 8 7.02 8 6 8 C6.99 8.33 7.98 8.66 9 9 C9 9.66 9 10.32 9 11 C5.04 11 1.08 11 -3 11 C-3.33 9.35 -3.66 7.7 -4 6 C-2.68 5.34 -1.36 4.68 0 4 C0 2.68 0 1.36 0 0 Z " fill="#5F5F5F" transform="translate(102,241)"/>
<path d="M0 0 C1 3 1 3 1 6 C0.21625 5.95875 -0.5675 5.9175 -1.375 5.875 C-4.16116119 5.71271266 -4.16116119 5.71271266 -6 8 C-6.33 7.67 -6.66 7.34 -7 7 C-8.66617115 6.95936168 -10.33388095 6.957279 -12 7 C-12.33 6.01 -12.66 5.02 -13 4 C-13.99 5.485 -13.99 5.485 -15 7 C-15.99 6.67 -16.98 6.34 -18 6 C-17 3 -17 3 -14.796875 1.81640625 C-11.77904632 0.93550374 -9.38335219 0.83164351 -6.25 0.9375 C-4.50070276 0.99128855 -2.75000331 1.02055373 -1 1 C-0.67 0.67 -0.34 0.34 0 0 Z " fill="#9658A1" transform="translate(99,213)"/>
<path d="M0 0 C0.33 0 0.66 0 1 0 C1 1.65 1 3.3 1 5 C3.31 5 5.62 5 8 5 C8.33 6.32 8.66 7.64 9 9 C7.02 9.99 7.02 9.99 5 11 C4.67 10.67 4.34 10.34 4 10 C2.00041636 9.95919217 -0.00045254 9.95745644 -2 10 C-2 10.99 -2 11.98 -2 13 C0.64 13 3.28 13 6 13 C6 13.33 6 13.66 6 14 C2.37 14 -1.26 14 -5 14 C-4.34 12.68 -3.68 11.36 -3 10 C-3.66 9.67 -4.32 9.34 -5 9 C-4.34 9 -3.68 9 -3 9 C-3.33 7.68 -3.66 6.36 -4 5 C-2.68 5 -1.36 5 0 5 C0 3.35 0 1.7 0 0 Z " fill="#682075" transform="translate(106,196)"/>
<path d="M0 0 C0.33 0 0.66 0 1 0 C1 20.46 1 40.92 1 62 C-1.97 62 -4.94 62 -8 62 C-8 61.67 -8 61.34 -8 61 C-5.69 60.34 -3.38 59.68 -1 59 C-0.67 39.53 -0.34 20.06 0 0 Z " fill="#5B2368" transform="translate(163,170)"/>
<path d="M0 0 C0.33 0.66 0.66 1.32 1 2 C1.99 1.67 2.98 1.34 4 1 C4.99 1.66 5.98 2.32 7 3 C5.02 3.33 3.04 3.66 1 4 C5.455 4.99 5.455 4.99 10 6 C10 7.65 10 9.3 10 11 C8.35 10.67 6.7 10.34 5 10 C5 9.34 5 8.68 5 8 C4.34 8 3.68 8 3 8 C2.67 8.99 2.34 9.98 2 11 C1.67 9.35 1.34 7.7 1 6 C-0.32 6 -1.64 6 -3 6 C-3 6.66 -3 7.32 -3 8 C-4.32 7.34 -5.64 6.68 -7 6 C-6.01 6 -5.02 6 -4 6 C-4 4.68 -4 3.36 -4 2 C-2.68 2 -1.36 2 0 2 C0 1.34 0 0.68 0 0 Z " fill="#733B7D" transform="translate(111,182)"/>
<path d="M0 0 C2.64 0 5.28 0 8 0 C8 2.64 8 5.28 8 8 C8.66 8.33 9.32 8.66 10 9 C10.33 9.99 10.66 10.98 11 12 C8.69 12 6.38 12 4 12 C4.020625 10.906875 4.04125 9.81375 4.0625 8.6875 C4.18544452 5.05615809 4.18544452 5.05615809 3 2 C2.34 2 1.68 2 1 2 C0.67 2.99 0.34 3.98 0 5 C0 3.35 0 1.7 0 0 Z " fill="#94579F" transform="translate(122,188)"/>
<path d="M0 0 C4.29 0 8.58 0 13 0 C13 0.99 13 1.98 13 3 C13.66 3 14.32 3 15 3 C15 3.66 15 4.32 15 5 C11.98968256 5.93423645 11.13349732 6.04449911 8 5 C7.67 4.01 7.34 3.02 7 2 C4.7522025 4.05233685 3.9977758 5.00667261 3 8 C2.67 7.01 2.34 6.02 2 5 C1.01 5 0.02 5 -1 5 C-0.67 3.35 -0.34 1.7 0 0 Z " fill="#AA6EB3" transform="translate(82,158)"/>
<path d="M0 0 C9 0 9 0 13 1 C13 1.66 13 2.32 13 3 C11.9275 2.979375 10.855 2.95875 9.75 2.9375 C5.91933442 2.85984566 5.91933442 2.85984566 2 4 C1.67 13.24 1.34 22.48 1 32 C0.67 32 0.34 32 0 32 C0 21.44 0 10.88 0 0 Z " fill="#F5F5F5" transform="translate(75,232)"/>
<path d="M0 0 C0 1.65 0 3.3 0 5 C-0.33 4.01 -0.66 3.02 -1 2 C-1.66 2 -2.32 2 -3 2 C-3.33 2.99 -3.66 3.98 -4 5 C-7.96 5 -11.92 5 -16 5 C-16 3.68 -16 2.36 -16 1 C-11.58156516 -1.20921742 -4.91811709 0 0 0 Z " fill="#CDA5D4" transform="translate(138,179)"/>
<path d="M0 0 C2.31 0 4.62 0 7 0 C7 1.32 7 2.64 7 4 C9.97 4 12.94 4 16 4 C16 4.33 16 4.66 16 5 C13.03 5 10.06 5 7 5 C7 6.98 7 8.96 7 11 C6.67 10.34 6.34 9.68 6 9 C5.01 9.33 4.02 9.66 3 10 C3 9.34 3 8.68 3 8 C3.99 8 4.98 8 6 8 C5.67 7.34 5.34 6.68 5 6 C3.35 6 1.7 6 0 6 C0 4.02 0 2.04 0 0 Z " fill="#C2C2C2" transform="translate(105,241)"/>
<path d="M0 0 C0.33 0.99 0.66 1.98 1 3 C1.886875 2.62875 2.77375 2.2575 3.6875 1.875 C7.40826005 0.89215772 8.67438135 1.23937836 12 3 C11.67 4.32 11.34 5.64 11 7 C7.37 7 3.74 7 0 7 C0 4.69 0 2.38 0 0 Z " fill="#C69DCB" transform="translate(139,177)"/>
<path d="M0 0 C4.29 0 8.58 0 13 0 C13 1.98 13 3.96 13 6 C12.34 6 11.68 6 11 6 C11 4.68 11 3.36 11 2 C10.34 2 9.68 2 9 2 C8.67 3.32 8.34 4.64 8 6 C8 4.68 8 3.36 8 2 C7.34 2 6.68 2 6 2 C6 3.32 6 4.64 6 6 C5.34 6 4.68 6 4 6 C4 4.68 4 3.36 4 2 C3.34 2 2.68 2 2 2 C2 3.32 2 4.64 2 6 C1.34 6 0.68 6 0 6 C0 4.02 0 2.04 0 0 Z " fill="#3B3B3B" transform="translate(112,246)"/>
<path d="M0 0 C3 1 3 1 4 3 C4.4125 2.484375 4.825 1.96875 5.25 1.4375 C5.8275 0.963125 6.405 0.48875 7 0 C9 0.3125 9 0.3125 11 1 C11.99 1 12.98 1 14 1 C14 1.99 14 2.98 14 4 C12.41913952 4.36504603 10.83516093 4.71660506 9.25 5.0625 C8.36828125 5.25972656 7.4865625 5.45695313 6.578125 5.66015625 C4.01320972 5.99825872 2.42908361 5.81158635 0 5 C0 3.35 0 1.7 0 0 Z " fill="#A96DB3" transform="translate(107,196)"/>
<path d="M0 0 C4.47427924 -0.08948558 8.60563789 0.14256349 13 1 C12.67 2.98 12.34 4.96 12 7 C11.34 6.34 10.68 5.68 10 5 C7.79749008 4.53993654 7.79749008 4.53993654 5.375 4.375 C4.55773437 4.30023438 3.74046875 4.22546875 2.8984375 4.1484375 C2.27195312 4.09945312 1.64546875 4.05046875 1 4 C0.67 2.68 0.34 1.36 0 0 Z " fill="#7C3289" transform="translate(84,154)"/>
<path d="M0 0 C0.66 0.33 1.32 0.66 2 1 C2 1.99 2 2.98 2 4 C-4.46794133 5.51233701 -10.35590042 6.21432579 -17 6 C-14.34339786 3.34339786 -12.15470396 3.2096775 -8.5 2.4375 C-4.12295695 1.5836887 -4.12295695 1.5836887 0 0 Z " fill="#DFDBDF" transform="translate(159,272)"/>
<path d="M0 0 C1.32 0 2.64 0 4 0 C3.67 0.99 3.34 1.98 3 3 C3.66 3.33 4.32 3.66 5 4 C5 3.34 5 2.68 5 2 C6.32 2 7.64 2 9 2 C9 3.65 9 5.3 9 7 C5.7 7 2.4 7 -1 7 C-0.67 4.69 -0.34 2.38 0 0 Z " fill="#C49DCA" transform="translate(103,186)"/>
<path d="M0 0 C0.66 0.66 1.32 1.32 2 2 C-0.28560704 4.28560704 -0.92965669 4.3273024 -4.02734375 4.66796875 C-4.81947266 4.75626953 -5.61160156 4.84457031 -6.42773438 4.93554688 C-7.25595703 5.01869141 -8.08417969 5.10183594 -8.9375 5.1875 C-9.76185547 5.28224609 -10.58621094 5.37699219 -11.43554688 5.47460938 C-17.60618073 6.13127309 -17.60618073 6.13127309 -21 5 C-19.7315625 4.70996094 -19.7315625 4.70996094 -18.4375 4.4140625 C-17.303125 4.15367187 -16.16875 3.89328125 -15 3.625 C-13.81792969 3.35558594 -12.63585937 3.08617187 -11.41796875 2.80859375 C-8.69083214 2.16343115 -6.00778933 1.44975373 -3.3125 0.6875 C-2.219375 0.460625 -1.12625 0.23375 0 0 Z " fill="#EEECF0" transform="translate(164,274)"/>
<path d="M0 0 C2.64 0 5.28 0 8 0 C8.66 1.32 9.32 2.64 10 4 C9.195625 4.12375 8.39125 4.2475 7.5625 4.375 C6.2940625 4.684375 6.2940625 4.684375 5 5 C4.67 5.66 4.34 6.32 4 7 C3.34 6.67 2.68 6.34 2 6 C2 6.99 2 7.98 2 9 C1.34 9 0.68 9 0 9 C0.875 5.125 0.875 5.125 2 4 C1.34 3.67 0.68 3.34 0 3 C0 2.01 0 1.02 0 0 Z " fill="#9757A1" transform="translate(82,205)"/>
<path d="M0 0 C2.64 0 5.28 0 8 0 C8.33 1.65 8.66 3.3 9 5 C6.23735711 5.59732819 3.83967231 6 1 6 C0.67 4.02 0.34 2.04 0 0 Z " fill="#D2A9D4" transform="translate(81,178)"/>
<path d="M0 0 C2.31 0.33 4.62 0.66 7 1 C7.33 2.98 7.66 4.96 8 7 C6.35 6.67 4.7 6.34 3 6 C3 5.34 3 4.68 3 4 C2.34 4 1.68 4 1 4 C0.67 4.66 0.34 5.32 0 6 C0 4.02 0 2.04 0 0 Z " fill="#C098C6" transform="translate(82,186)"/>
<path d="M0 0 C0 0.99 0 1.98 0 3 C-4.29 3 -8.58 3 -13 3 C-13 2.01 -13 1.02 -13 0 C-8.31503575 -0.83288253 -4.61251872 -1.27241896 0 0 Z " fill="#BB8BC6" transform="translate(117,206)"/>
<path d="M0 0 C3.66666667 0 7.33333333 0 11 0 C10.67 1.32 10.34 2.64 10 4 C6.33694766 4.74926071 3.57644848 5.2380014 0 4 C0 2.68 0 1.36 0 0 Z " fill="#B97CC5" transform="translate(95,196)"/>
<path d="M0 0 C0 0.99 0 1.98 0 3 C-6.435 3.495 -6.435 3.495 -13 4 C-13 2.68 -13 1.36 -13 0 C-8.34462607 -0.83796731 -4.62921525 -1.0161692 0 0 Z " fill="#EAEAEA" transform="translate(111,252)"/>
<path d="M0 0 C4.62 0 9.24 0 14 0 C14 0.99 14 1.98 14 3 C13.34 3 12.68 3 12 3 C12 2.34 12 1.68 12 1 C11.34 1 10.68 1 10 1 C9.67 1.99 9.34 2.98 9 4 C6.03 3.67 3.06 3.34 0 3 C0 2.01 0 1.02 0 0 Z " fill="#C389CD" transform="translate(103,217)"/>
<path d="M0 0 C-0.33 1.65 -0.66 3.3 -1 5 C-3.31 4.67 -5.62 4.34 -8 4 C-8 2.68 -8 1.36 -8 0 C-4.94736336 -0.98120464 -3.05263664 -0.98120464 0 0 Z " fill="#7AC7C7" transform="translate(147,247)"/>
<path d="M0 0 C0.66 0 1.32 0 2 0 C2 1.65 2 3.3 2 5 C4.97 5 7.94 5 11 5 C10.67 5.66 10.34 6.32 10 7 C6.04 7 2.08 7 -2 7 C-2 6.34 -2 5.68 -2 5 C-1.34 5 -0.68 5 0 5 C0 3.35 0 1.7 0 0 Z " fill="#EEEEEE" transform="translate(114,248)"/>
<path d="M0 0 C12.66970387 1.92710706 12.66970387 1.92710706 18 4 C18 4.33 18 4.66 18 5 C11.09647445 5.51137226 6.25172386 3.86964374 0 1 C0 0.67 0 0.34 0 0 Z " fill="#D8D4D8" transform="translate(78,272)"/>
<path d="M0 0 C1.65 0 3.3 0 5 0 C5.33 0.66 5.66 1.32 6 2 C4.68 2 3.36 2 2 2 C6.29 3.32 10.58 4.64 15 6 C15 6.33 15 6.66 15 7 C4.44191344 6.22095672 4.44191344 6.22095672 0 4 C0 2.68 0 1.36 0 0 Z " fill="#E1DFE3" transform="translate(77,271)"/>
<path d="M0 0 C0.99 0.33 1.98 0.66 3 1 C2.34 1 1.68 1 1 1 C1 1.66 1 2.32 1 3 C1.99 3 2.98 3 4 3 C4.33 2.01 4.66 1.02 5 0 C6.32 0.33 7.64 0.66 9 1 C8.67 2.32 8.34 3.64 8 5 C5.36 5 2.72 5 0 5 C0 3.35 0 1.7 0 0 Z " fill="#CCA1D2" transform="translate(91,188)"/>
<path d="M0 0 C1.98 0 3.96 0 6 0 C5.67 0.99 5.34 1.98 5 3 C5.66 3 6.32 3 7 3 C7 3.99 7 4.98 7 6 C5.02 6 3.04 6 1 6 C1.33 5.01 1.66 4.02 2 3 C1.34 3 0.68 3 0 3 C0 2.01 0 1.02 0 0 Z " fill="#D0A6D6" transform="translate(91,178)"/>
<path d="M0 0 C4.16138263 -0.08159574 7.9472484 0.01751476 12 1 C12 1.66 12 2.32 12 3 C10.948125 2.979375 9.89625 2.95875 8.8125 2.9375 C5.67295096 2.98896802 3.03116604 3.26517187 0 4 C0 2.68 0 1.36 0 0 Z " fill="#E9D7EC" transform="translate(76,232)"/>
<path d="M0 0 C2.64 0 5.28 0 8 0 C8 1.65 8 3.3 8 5 C6.35 4.67 4.7 4.34 3 4 C3 3.34 3 2.68 3 2 C2.34 2 1.68 2 1 2 C0.67 2.99 0.34 3.98 0 5 C0 3.35 0 1.7 0 0 Z " fill="#C89DCE" transform="translate(113,188)"/>
<path d="M0 0 C2.31 0 4.62 0 7 0 C7 1.65 7 3.3 7 5 C6.67 4.01 6.34 3.02 6 2 C5.34 2 4.68 2 4 2 C3.67 2.99 3.34 3.98 3 5 C1.68 4.67 0.36 4.34 -1 4 C-0.67 2.68 -0.34 1.36 0 0 Z " fill="#C79CCD" transform="translate(131,179)"/>
<path d="M0 0 C3.3 0.33 6.6 0.66 10 1 C10 1.66 10 2.32 10 3 C6.7 3.33 3.4 3.66 0 4 C0 2.68 0 1.36 0 0 Z " fill="#B37ABA" transform="translate(87,211)"/>
<path d="M0 0 C0.66 0.66 1.32 1.32 2 2 C0.33333333 3.66666667 -1.33333333 5.33333333 -3 7 C-3.66 6.67 -4.32 6.34 -5 6 C-5 5.34 -5 4.68 -5 4 C-5.66 4 -6.32 4 -7 4 C-6.67 3.01 -6.34 2.02 -6 1 C-3.125 0.375 -3.125 0.375 0 0 Z " fill="#732B80" transform="translate(104,199)"/>
<path d="M0 0 C0.33 0 0.66 0 1 0 C1.33 2.97 1.66 5.94 2 9 C0.02 9.66 -1.96 10.32 -4 11 C-3.21681311 7.08406554 -1.60820142 3.63593365 0 0 Z " fill="#6F307B" transform="translate(101,187)"/>
<path d="M0 0 C0 0.66 0 1.32 0 2 C-0.66 2 -1.32 2 -2 2 C-2 3.65 -2 5.3 -2 7 C-2.33 7 -2.66 7 -3 7 C-3 5.35 -3 3.7 -3 2 C-5.97 2 -8.94 2 -12 2 C-7.93192322 -0.71205119 -4.69252613 -1.56417538 0 0 Z " fill="#632270" transform="translate(121,185)"/>
<path d="M0 0 C1.1446875 0.3403125 1.1446875 0.3403125 2.3125 0.6875 C1.3225 1.1825 1.3225 1.1825 0.3125 1.6875 C0.3125 3.0075 0.3125 4.3275 0.3125 5.6875 C-2.6575 5.1925 -2.6575 5.1925 -5.6875 4.6875 C-5.6875 2.6875 -5.6875 2.6875 -4.5 1 C-2.6875 -0.3125 -2.6875 -0.3125 0 0 Z " fill="#986A9D" transform="translate(121.6875,178.3125)"/>
<path d="M0 0 C0.66 0 1.32 0 2 0 C2 2.31 2 4.62 2 7 C1.67 6.34 1.34 5.68 1 5 C0.01 5 -0.98 5 -2 5 C-2.33 5.99 -2.66 6.98 -3 8 C-3.99 7.67 -4.98 7.34 -6 7 C-6 6.01 -6 5.02 -6 4 C-4.02 4 -2.04 4 0 4 C0 2.68 0 1.36 0 0 Z " fill="#51275C" transform="translate(162,149)"/>
<path d="M0 0 C1.65 0 3.3 0 5 0 C5 1.98 5 3.96 5 6 C4.34 5.67 3.68 5.34 3 5 C3 4.01 3 3.02 3 2 C2.34 2 1.68 2 1 2 C1.33 3.32 1.66 4.64 2 6 C1.01 5.67 0.02 5.34 -1 5 C-0.67 3.35 -0.34 1.7 0 0 Z " fill="#2F3030" transform="translate(127,246)"/>
<path d="M0 0 C0.99 0.33 1.98 0.66 3 1 C2.34 1 1.68 1 1 1 C1 1.66 1 2.32 1 3 C1.99 3 2.98 3 4 3 C4 2.01 4 1.02 4 0 C4.99 0.33 5.98 0.66 7 1 C7.6875 3.0625 7.6875 3.0625 8 5 C5.69 5 3.38 5 1 5 C0.67 3.35 0.34 1.7 0 0 Z " fill="#BC7EC5" transform="translate(85,196)"/>
<path d="M0 0 C0.721875 0.53625 1.44375 1.0725 2.1875 1.625 C1.5275 2.285 0.8675 2.945 0.1875 3.625 C-3.25415321 3.27200993 -4.88122538 2.57918308 -7.8125 0.625 C-4.49183748 -1.17764537 -3.49974382 -1.71098587 0 0 Z " fill="#773681" transform="translate(91.8125,184.375)"/>
<path d="M0 0 C2.475 0.495 2.475 0.495 5 1 C5 1.66 5 2.32 5 3 C4.01 3 3.02 3 2 3 C2.99 3.33 3.98 3.66 5 4 C5 4.66 5 5.32 5 6 C3.35 6 1.7 6 0 6 C0 4.02 0 2.04 0 0 Z " fill="#454545" transform="translate(106,246)"/>
<path d="M0 0 C1.32 0.33 2.64 0.66 4 1 C3.67 2.32 3.34 3.64 3 5 C0.36 5 -2.28 5 -5 5 C-3.625 3.5 -3.625 3.5 -2 2 C-1.34 2 -0.68 2 0 2 C0 1.34 0 0.68 0 0 Z " fill="#D8B2DB" transform="translate(147,179)"/>
<path d="M0 0 C1.98 0.99 1.98 0.99 4 2 C4.66 1.34 5.32 0.68 6 0 C6 1.98 6 3.96 6 6 C5.01 5.34 4.02 4.68 3 4 C2.67 4.66 2.34 5.32 2 6 C1.34 6 0.68 6 0 6 C0 4.02 0 2.04 0 0 Z " fill="#DBB5DE" transform="translate(100,178)"/>
<path d="M0 0 C0.66 0 1.32 0 2 0 C1.67 3.3 1.34 6.6 1 10 C0.34 10 -0.32 10 -1 10 C-1.125 2.25 -1.125 2.25 0 0 Z " fill="#9D92A0" transform="translate(159,157)"/>
<path d="M0 0 C-0.33 1.32 -0.66 2.64 -1 4 C-2.65 3.67 -4.3 3.34 -6 3 C-6 2.01 -6 1.02 -6 0 C-3.50907189 -1.24546405 -2.58919267 -0.7767578 0 0 Z " fill="#69B8B3" transform="translate(144,252)"/>
<path d="M0 0 C2.31 0 4.62 0 7 0 C7 1.65 7 3.3 7 5 C6.67 4.01 6.34 3.02 6 2 C5.34 2 4.68 2 4 2 C3.67 2.99 3.34 3.98 3 5 C3 4.01 3 3.02 3 2 C2.34 2 1.68 2 1 2 C0.67 2.99 0.34 3.98 0 5 C0 3.35 0 1.7 0 0 Z " fill="#D2A7D7" transform="translate(122,188)"/>
<path d="M0 0 C0.33 0 0.66 0 1 0 C1 2.31 1 4.62 1 7 C0.01 7.33 -0.98 7.66 -2 8 C-2.99 7.34 -3.98 6.68 -5 6 C-4.67 4.68 -4.34 3.36 -4 2 C-3.34 2 -2.68 2 -2 2 C-1.67 2.99 -1.34 3.98 -1 5 C-0.67 3.35 -0.34 1.7 0 0 Z " fill="#B3B6B5" transform="translate(132,246)"/>
<path d="M0 0 C0.33 0 0.66 0 1 0 C1 1.65 1 3.3 1 5 C0.34 5 -0.32 5 -1 5 C-1 5.66 -1 6.32 -1 7 C-0.34 7.33 0.32 7.66 1 8 C-0.32 8.33 -1.64 8.66 -3 9 C-3 7.35 -3 5.7 -3 4 C-2.01 3.67 -1.02 3.34 0 3 C0 2.01 0 1.02 0 0 Z " fill="#8AC7C1" transform="translate(137,243)"/>
<path d="M0 0 C0.33 1.32 0.66 2.64 1 4 C-1.31 4 -3.62 4 -6 4 C-6 3.01 -6 2.02 -6 1 C-4.02 0.67 -2.04 0.34 0 0 Z " fill="#BC8BC6" transform="translate(99,205)"/>
<path d="M0 0 C0 0.66 0 1.32 0 2 C-0.66 2 -1.32 2 -2 2 C-2 2.66 -2 3.32 -2 4 C-1.34 4.33 -0.68 4.66 0 5 C-1.98 5 -3.96 5 -6 5 C-6 3.68 -6 2.36 -6 1 C-3.92446352 0.4465236 -2.15634036 0 0 0 Z " fill="#D0A8D3" transform="translate(118,179)"/>
<path d="M0 0 C0.86625 0.2784375 0.86625 0.2784375 1.75 0.5625 C4.20692525 1.04023546 5.64397534 0.75729364 8 0 C7.67 1.32 7.34 2.64 7 4 C4.03 3.505 4.03 3.505 1 3 C0.67 2.01 0.34 1.02 0 0 Z " fill="#7D2F8C" transform="translate(147,175)"/>
<path d="M0 0 C0.99 0.33 1.98 0.66 3 1 C2.25 2.9375 2.25 2.9375 1 5 C-1.125 5.75 -1.125 5.75 -3 6 C-3 4.35 -3 2.7 -3 1 C-2.67 1.66 -2.34 2.32 -2 3 C-1.34 3 -0.68 3 0 3 C0 2.01 0 1.02 0 0 Z " fill="#6F2E7D" transform="translate(84,211)"/>
<path d="M0 0 C1.32 0 2.64 0 4 0 C4 1.65 4 3.3 4 5 C2.02 5 0.04 5 -2 5 C-1.34 3.35 -0.68 1.7 0 0 Z " fill="#6A3079" transform="translate(123,190)"/>
<path d="M0 0 C0.99 0.33 1.98 0.66 3 1 C3.33 1.99 3.66 2.98 4 4 C2.35 4.33 0.7 4.66 -1 5 C-0.67 3.35 -0.34 1.7 0 0 Z " fill="#AC80B0" transform="translate(86,179)"/>
<path d="M0 0 C0.33 0 0.66 0 1 0 C1 3.3 1 6.6 1 10 C1.66 10.33 2.32 10.66 3 11 C2.01 11.66 1.02 12.32 0 13 C-0.99 12.34 -1.98 11.68 -3 11 C-2.01 11 -1.02 11 0 11 C0 7.37 0 3.74 0 0 Z " fill="#762F80" transform="translate(84,166)"/>
<path d="M0 0 C0.33 0.99 0.66 1.98 1 3 C-0.98 3.99 -2.96 4.98 -5 6 C-5.66 4.68 -6.32 3.36 -7 2 C-4.03 2.495 -4.03 2.495 -1 3 C-0.67 2.01 -0.34 1.02 0 0 Z " fill="#7E4689" transform="translate(155,171)"/>
<path d="M0 0 C0.33 0.99 0.66 1.98 1 3 C-0.98 3.66 -2.96 4.32 -5 5 C-5.33 4.01 -5.66 3.02 -6 2 C-4.02 1.34 -2.04 0.68 0 0 Z " fill="#71337A" transform="translate(145,153)"/>
<path d="M0 0 C1.32 0 2.64 0 4 0 C3.67 1.32 3.34 2.64 3 4 C1.35 3.67 -0.3 3.34 -2 3 C-1 1 -1 1 0 0 Z " fill="#A86AB1" transform="translate(102,196)"/>
<path d="M0 0 C0.66 1.32 1.32 2.64 2 4 C2.66 4 3.32 4 4 4 C3.67 5.65 3.34 7.3 3 9 C2.67 8.34 2.34 7.68 2 7 C1.34 7 0.68 7 0 7 C0 4.69 0 2.38 0 0 Z " fill="#7B4386" transform="translate(81,186)"/>
</svg>
